<?xml version="1.0" encoding="UTF-8" standalone="no"?>
<!DOCTYPE svg PUBLIC "-//W3C//DTD SVG 1.1//EN"
 "http://www.w3.org/Graphics/SVG/1.1/DTD/svg11.dtd">
<!-- Generated by graphviz version 2.38.0 (20140413.2041)
 -->
<!-- Title: ejemplo Pages: 1 -->
<svg width="791pt" height="869pt"
 viewBox="0.00 0.00 791.23 869.06" xmlns="http://www.w3.org/2000/svg" xmlns:xlink="http://www.w3.org/1999/xlink">
<g id="graph0" class="graph" transform="scale(1 1) rotate(0) translate(387.624 417.539)">
<title>ejemplo</title>
<polygon fill="white" stroke="none" points="-387.624,451.518 -387.624,-417.539 403.602,-417.539 403.602,451.518 -387.624,451.518"/>
<!-- property_name -->
<g id="node1" class="node"><title>property_name</title>
<polygon fill="lightgoldenrodyellow" stroke="black" points="-24.63,217.044 -24.63,179.044 36.37,179.044 36.37,217.044 -24.63,217.044"/>
<text text-anchor="middle" x="5.87002" y="191.044" font-family="Arial" font-size="10.00">name</text>
<polyline fill="none" stroke="black" points="-24.63,198.044 36.37,198.044 "/>
<text text-anchor="middle" x="5.87002" y="210.044" font-family="Arial" font-size="10.00">xsd:String</text>
</g>
<!-- property_apellidos -->
<g id="node2" class="node"><title>property_apellidos</title>
<polygon fill="lightgoldenrodyellow" stroke="black" stroke-dasharray="5,2" points="-228.714,69.0305 -228.714,31.0305 -167.714,31.0305 -167.714,69.0305 -228.714,69.0305"/>
<text text-anchor="middle" x="-198.214" y="43.0305" font-family="Arial" font-size="10.00">apellidos</text>
<polyline fill="none" stroke="black" stroke-dasharray="5,2" points="-228.714,50.0305 -167.714,50.0305 "/>
<text text-anchor="middle" x="-198.214" y="62.0305" font-family="Arial" font-size="10.00">xsd:String</text>
</g>
<!-- property_edad -->
<g id="node3" class="node"><title>property_edad</title>
<polygon fill="lightgoldenrodyellow" stroke="black" points="218.905,71.19 218.905,33.19 283.905,33.19 283.905,71.19 218.905,71.19"/>
<text text-anchor="middle" x="251.405" y="45.19" font-family="Arial" font-size="10.00">edad</text>
<polyline fill="none" stroke="black" points="218.905,52.19 283.905,52.19 "/>
<text text-anchor="middle" x="251.405" y="64.19" font-family="Arial" font-size="10.00">xsd:Integer</text>
</g>
<!-- property_fechaUNIX -->
<g id="node4" class="node"><title>property_fechaUNIX</title>
<polygon fill="lightgoldenrodyellow" stroke="black" points="322.602,-248.109 322.602,-286.109 399.602,-286.109 399.602,-248.109 322.602,-248.109"/>
<text text-anchor="middle" x="361.102" y="-274.109" font-family="Arial" font-size="10.00">fechaUnix</text>
<polyline fill="none" stroke="black" points="322.602,-267.109 399.602,-267.109 "/>
<text text-anchor="middle" x="361.102" y="-255.109" font-family="Arial" font-size="10.00">xsd:DateTime</text>
</g>
<!-- property_mascotas -->
<g id="node5" class="node"><title>property_mascotas</title>
<polygon fill="lightgoldenrodyellow" stroke="black" points="-83.8361,-275.686 -83.8361,-313.686 66.1639,-313.686 66.1639,-275.686 -83.8361,-275.686"/>
<text text-anchor="middle" x="-8.83612" y="-301.686" font-family="Arial" font-size="10.00">mascotas</text>
<polyline fill="none" stroke="black" points="-83.8361,-294.686 66.1639,-294.686 "/>
<text text-anchor="middle" x="-8.83612" y="-282.686" font-family="Arial" font-size="10.00">http://PdL.com/class#Mascota</text>
</g>
<!-- class_Mascota -->
<g id="node10" class="node"><title>class_Mascota</title>
<ellipse fill="lightseagreen" stroke="black" cx="-175.633" cy="-227.245" rx="67.3507" ry="21.4286"/>
<text text-anchor="middle" x="-175.633" y="-222.245" font-family="Arial" font-size="20.00">Mascota</text>
</g>
<!-- property_mascotas&#45;&#45;class_Mascota -->
<g id="edge10" class="edge"><title>property_mascotas&#45;&#45;class_Mascota</title>
<path fill="none" stroke="grey" stroke-dasharray="1,5" d="M-56.1873,-275.541C-74.6073,-268.093 -95.9324,-259.471 -115.422,-251.591"/>
<polygon fill="grey" stroke="grey" points="-134.125,-244.029 -112.209,-243.182 -124.854,-247.777 -115.583,-251.526 -115.583,-251.526 -115.583,-251.526 -124.854,-247.777 -118.956,-259.869 -134.125,-244.029 -134.125,-244.029"/>
<text text-anchor="middle" x="-104.805" y="-266.966" font-family="Arial" font-size="12.00">TypeOf</text>
</g>
<!-- property_nombreMascota -->
<g id="node6" class="node"><title>property_nombreMascota</title>
<polygon fill="lightgoldenrodyellow" stroke="black" points="-383.624,-375.039 -383.624,-413.039 -297.624,-413.039 -297.624,-375.039 -383.624,-375.039"/>
<text text-anchor="middle" x="-340.624" y="-401.039" font-family="Arial" font-size="10.00">nombreMascota</text>
<polyline fill="none" stroke="black" points="-383.624,-394.039 -297.624,-394.039 "/>
<text text-anchor="middle" x="-340.624" y="-382.039" font-family="Arial" font-size="10.00">xsd:String</text>
</g>
<!-- class_Principal -->
<g id="node7" class="node"><title>class_Principal</title>
<ellipse fill="lightseagreen" stroke="black" cx="63.2012" cy="426.304" rx="66.4361" ry="21.4286"/>
<text text-anchor="middle" x="63.2012" y="431.304" font-family="Arial" font-size="20.00">Principal</text>
</g>
<!-- class_Principal&#45;&#45;property_name -->
<g id="edge1" class="edge"><title>class_Principal&#45;&#45;property_name</title>
<path fill="none" stroke="grey" stroke-dasharray="5,2" d="M57.8076,404.83C46.6857,360.549 21.3564,259.702 10.7177,217.345"/>
</g>
<!-- class_Hijo -->
<g id="node8" class="node"><title>class_Hijo</title>
<ellipse fill="lightseagreen" stroke="black" cx="-208.088" cy="261.917" rx="36.125" ry="21.4286"/>
<text text-anchor="middle" x="-208.088" y="266.917" font-family="Arial" font-size="20.00">Hijo</text>
</g>
<!-- class_Principal&#45;&#45;class_Hijo -->
<g id="edge12" class="edge"><title>class_Principal&#45;&#45;class_Hijo</title>
<path fill="none" stroke="black" stroke-dasharray="5,2" d="M6.14806,391.733C-52.1905,356.383 -140.138,303.091 -182.924,277.165"/>
<polygon fill="black" stroke="black" points="11.8651,382.92 32.0809,407.447 0.982201,400.88 11.8651,382.92"/>
<text text-anchor="middle" x="-107.388" y="331.049" font-family="Arial" font-size="12.00">inherits</text>
</g>
<!-- class_Hijo&#45;&#45;property_name -->
<g id="edge2" class="edge"><title>class_Hijo&#45;&#45;property_name</title>
<path fill="none" stroke="grey" stroke-dasharray="5,2" d="M-175.593,252.216C-134.677,240.001 -64.903,219.172 -24.8455,207.214"/>
</g>
<!-- class_Hijo&#45;&#45;property_apellidos -->
<g id="edge3" class="edge"><title>class_Hijo&#45;&#45;property_apellidos</title>
<path fill="none" stroke="grey" stroke-dasharray="5,2" d="M-207.087,240.434C-205.155,198.981 -200.942,108.574 -199.103,69.1038"/>
</g>
<!-- class_Nieto -->
<g id="node9" class="node"><title>class_Nieto</title>
<ellipse fill="lightseagreen" stroke="black" cx="18.5279" cy="-55.4201" rx="45.011" ry="21.4286"/>
<text text-anchor="middle" x="18.5279" y="-50.4201" font-family="Arial" font-size="20.00">Nieto</text>
</g>
<!-- class_Hijo&#45;&#45;class_Nieto -->
<g id="edge13" class="edge"><title>class_Hijo&#45;&#45;class_Nieto</title>
<path fill="none" stroke="black" stroke-dasharray="5,2" d="M-176.428,217.582C-126.642,147.865 -32.0099,15.3493 4.06544,-35.168"/>
<polygon fill="black" stroke="black" points="-167.933,223.754 -193.912,242.066 -185.023,211.55 -167.933,223.754"/>
<text text-anchor="middle" x="-105.181" y="87.807" font-family="Arial" font-size="12.00">inherits</text>
</g>
<!-- class_Nieto&#45;&#45;property_name -->
<g id="edge4" class="edge"><title>class_Nieto&#45;&#45;property_name</title>
<path fill="none" stroke="grey" stroke-dasharray="5,2" d="M17.4487,-33.8099C15.0154,14.9146 9.13409,132.684 6.82417,178.938"/>
</g>
<!-- class_Nieto&#45;&#45;property_apellidos -->
<g id="edge5" class="edge"><title>class_Nieto&#45;&#45;property_apellidos</title>
<path fill="none" stroke="grey" stroke-dasharray="5,2" d="M-12.9882,-40.0867C-54.4332,-19.9226 -126.776,15.2739 -167.71,35.1896"/>
</g>
<!-- class_Nieto&#45;&#45;property_edad -->
<g id="edge6" class="edge"><title>class_Nieto&#45;&#45;property_edad</title>
<path fill="none" stroke="grey" stroke-dasharray="5,2" d="M50.9085,-40.4574C95.1504,-20.0137 174.06,16.4496 218.549,37.0074"/>
</g>
<!-- class_Nieto&#45;&#45;property_mascotas -->
<g id="edge7" class="edge"><title>class_Nieto&#45;&#45;property_mascotas</title>
<path fill="none" stroke="grey" stroke-dasharray="5,2" d="M16.0995,-76.6534C10.8282,-122.745 -1.59354,-231.359 -6.6436,-275.515"/>
</g>
<!-- class_Nieto&#45;&#45;class_Mascota -->
<g id="edge11" class="edge"><title>class_Nieto&#45;&#45;class_Mascota</title>
<path fill="none" stroke="orangered" stroke-dasharray="5,2" d="M-2.99261,-74.465C-35.4478,-103.187 -97.3889,-158.002 -137.578,-193.568"/>
<polygon fill="orangered" stroke="orangered" points="-152.816,-207.053 -143.804,-187.059 -145.328,-200.426 -137.839,-193.799 -137.839,-193.799 -137.839,-193.799 -145.328,-200.426 -131.875,-200.539 -152.816,-207.053 -152.816,-207.053"/>
<text text-anchor="middle" x="-112.285" y="-137.416" font-family="Arial" font-size="12.00" fill="orangered">.mascotas (0..n)</text>
</g>
<!-- relationship_conoceA -->
<g id="node11" class="node"><title>relationship_conoceA</title>
<polygon fill="paleturquoise" stroke="black" points="216.961,-134.985 185.625,-152.985 122.953,-152.985 91.6177,-134.985 122.953,-116.985 185.625,-116.985 216.961,-134.985"/>
<text text-anchor="middle" x="154.289" y="-131.485" font-family="Arial" font-size="15.00">conoce A</text>
</g>
<!-- class_Nieto&#45;&#45;relationship_conoceA -->
<g id="edge14" class="edge"><title>class_Nieto&#45;&#45;relationship_conoceA</title>
<path fill="none" stroke="blue" stroke-width="3" stroke-dasharray="5,2" d="M40.1114,-74.2311C58.4185,-86.6741 85.2542,-102.79 108.322,-115.373"/>
<polygon fill="blue" stroke="blue" stroke-width="3" points="106.815,-118.536 117.281,-120.18 110.124,-112.368 106.815,-118.536"/>
<text text-anchor="middle" x="33.217" y="-98.2019" font-family="Arial" font-size="12.00" fill="blue">Conoce A (0..n)</text>
</g>
<!-- class_Mascota&#45;&#45;property_nombreMascota -->
<g id="edge8" class="edge"><title>class_Mascota&#45;&#45;property_nombreMascota</title>
<path fill="none" stroke="grey" stroke-dasharray="5,2" d="M-195.864,-247.698C-228.047,-280.232 -290.454,-343.321 -321.757,-374.967"/>
</g>
<!-- relationship_conoceA&#45;&#45;property_fechaUNIX -->
<g id="edge9" class="edge"><title>relationship_conoceA&#45;&#45;property_fechaUNIX</title>
<path fill="none" stroke="grey" stroke-dasharray="5,2" d="M182.612,-153.079C221.552,-177.957 291.314,-222.525 331.112,-247.95"/>
</g>
<!-- relationship_conoceA&#45;&#45;class_Nieto -->
<g id="edge15" class="edge"><title>relationship_conoceA&#45;&#45;class_Nieto</title>
<path fill="none" stroke="blue" stroke-width="3" stroke-dasharray="5,2" d="M133.602,-116.785C114.708,-103.87 86.2215,-86.7889 62.3044,-73.8423"/>
<polygon fill="blue" stroke="blue" stroke-width="3" points="63.8634,-70.7073 53.3912,-69.1001 60.5755,-76.8871 63.8634,-70.7073"/>
<text text-anchor="middle" x="154.953" y="-98.7136" font-family="Arial" font-size="12.00" fill="blue">es conocido por (0..n)</text>
</g>
<!-- relaciones -->
<g id="node12" class="node"><title>relaciones</title>
<polygon fill="paleturquoise" stroke="black" points="261.695,174 228.348,156 161.652,156 128.305,174 161.652,192 228.348,192 261.695,174"/>
<text text-anchor="middle" x="195" y="177.5" font-family="Arial" font-size="15.00">relaciones</text>
</g>
</g>
</svg>
