<?xml version="1.0" encoding="UTF-8" standalone="no"?>
<!DOCTYPE svg PUBLIC "-//W3C//DTD SVG 1.1//EN"
 "http://www.w3.org/Graphics/SVG/1.1/DTD/svg11.dtd">
<!-- Generated by graphviz version 2.40.1 (20161225.0304)
 -->
<!-- Title: ejemplo Pages: 1 -->
<svg width="2048pt" height="233pt"
 viewBox="0.00 0.00 2047.60 233.28" xmlns="http://www.w3.org/2000/svg" xmlns:xlink="http://www.w3.org/1999/xlink">
<g id="graph0" class="graph" transform="scale(1 1) rotate(0) translate(4 229.2792)">
<title>ejemplo</title>
<polygon fill="#ffffff" stroke="transparent" points="-4,4 -4,-229.2792 2043.6016,-229.2792 2043.6016,4 -4,4"/>
<!-- class_Palabra -->
<g id="node1" class="node">
<title>class_Palabra</title>
<ellipse fill="#20b2aa" stroke="#000000" cx="1979.4975" cy="-204.066" rx="60.2083" ry="21.4286"/>
<text text-anchor="middle" x="1979.4975" y="-199.066" font-family="Arial" font-size="20.00" fill="#000000">Palabra</text>
</g>
<!-- class_Elemento -->
<g id="node12" class="node">
<title>class_Elemento</title>
<ellipse fill="#20b2aa" stroke="#000000" cx="1705.4975" cy="-112.6396" rx="71.3357" ry="21.4286"/>
<text text-anchor="middle" x="1705.4975" y="-107.6396" font-family="Arial" font-size="20.00" fill="#000000">Elemento</text>
</g>
<!-- class_Palabra&#45;&#45;class_Elemento -->
<g id="edge17" class="edge">
<title>class_Palabra&#45;&#45;class_Elemento</title>
<path fill="none" stroke="#c0c0c0" stroke-dasharray="5,2" d="M1907.258,-179.3899C1881.4772,-170.6321 1852.2084,-160.7449 1825.4975,-151.8528 1801.9987,-144.03 1775.8641,-135.473 1753.9993,-128.3542"/>
<polygon fill="#c0c0c0" stroke="#c0c0c0" points="1904.2784,-189.4673 1936.0617,-189.1966 1911.0466,-169.5879 1904.2784,-189.4673"/>
<text text-anchor="middle" x="1882.9975" y="-155.2528" font-family="Arial" font-size="12.00" fill="#000000">inherits</text>
</g>
<!-- class_Cronológico -->
<g id="node2" class="node">
<title>class_Cronológico</title>
<ellipse fill="#20b2aa" stroke="#000000" cx="1025.4975" cy="-204.066" rx="86.9483" ry="21.4286"/>
<text text-anchor="middle" x="1025.4975" y="-199.066" font-family="Arial" font-size="20.00" fill="#000000">Cronológico</text>
</g>
<!-- class_Espacio -->
<g id="node17" class="node">
<title>class_Espacio</title>
<ellipse fill="#20b2aa" stroke="#000000" cx="1119.4975" cy="-112.6396" rx="62.4516" ry="21.4286"/>
<text text-anchor="middle" x="1119.4975" y="-107.6396" font-family="Arial" font-size="20.00" fill="#000000">Espacio</text>
</g>
<!-- class_Cronológico&#45;&#45;class_Espacio -->
<g id="edge10" class="edge">
<title>class_Cronológico&#45;&#45;class_Espacio</title>
<path fill="none" stroke="#c0c0c0" stroke-dasharray="5,2" d="M1068.6475,-162.0974C1079.1835,-151.8499 1089.9792,-141.3497 1098.8978,-132.6753"/>
<polygon fill="#c0c0c0" stroke="#c0c0c0" points="1061.0122,-154.8762 1046.8275,-183.32 1075.654,-169.9301 1061.0122,-154.8762"/>
<text text-anchor="middle" x="1097.9975" y="-155.2528" font-family="Arial" font-size="12.00" fill="#000000">inherits</text>
</g>
<!-- class_Presente -->
<g id="node3" class="node">
<title>class_Presente</title>
<ellipse fill="#20b2aa" stroke="#000000" cx="446.4975" cy="-204.066" rx="68.6788" ry="21.4286"/>
<text text-anchor="middle" x="446.4975" y="-199.066" font-family="Arial" font-size="20.00" fill="#000000">Presente</text>
</g>
<!-- class_TiempoVerbal -->
<g id="node6" class="node">
<title>class_TiempoVerbal</title>
<ellipse fill="#20b2aa" stroke="#000000" cx="702.4975" cy="-112.6396" rx="99.9045" ry="21.4286"/>
<text text-anchor="middle" x="702.4975" y="-107.6396" font-family="Arial" font-size="20.00" fill="#000000">TiempoVerbal</text>
</g>
<!-- class_Presente&#45;&#45;class_TiempoVerbal -->
<g id="edge6" class="edge">
<title>class_Presente&#45;&#45;class_TiempoVerbal</title>
<path fill="none" stroke="#c0c0c0" stroke-dasharray="5,2" d="M520.1922,-177.7471C562.1338,-162.7683 613.6249,-144.3791 651.1742,-130.9689"/>
<polygon fill="#c0c0c0" stroke="#c0c0c0" points="516.3967,-167.953 491.6758,-187.9313 523.4597,-187.7296 516.3967,-167.953"/>
<text text-anchor="middle" x="609.9975" y="-155.2528" font-family="Arial" font-size="12.00" fill="#000000">inherits</text>
</g>
<!-- class_Anticipativo -->
<g id="node4" class="node">
<title>class_Anticipativo</title>
<ellipse fill="#20b2aa" stroke="#000000" cx="1214.4975" cy="-204.066" rx="84.2917" ry="21.4286"/>
<text text-anchor="middle" x="1214.4975" y="-199.066" font-family="Arial" font-size="20.00" fill="#000000">Anticipativo</text>
</g>
<!-- class_Anticipativo&#45;&#45;class_Espacio -->
<g id="edge12" class="edge">
<title>class_Anticipativo&#45;&#45;class_Espacio</title>
<path fill="none" stroke="#c0c0c0" stroke-dasharray="5,2" d="M1171.32,-162.5127C1160.5356,-152.134 1149.4516,-141.4669 1140.3163,-132.6753"/>
<polygon fill="#c0c0c0" stroke="#c0c0c0" points="1164.0436,-170.0827 1192.9405,-183.32 1178.6056,-154.9516 1164.0436,-170.0827"/>
<text text-anchor="middle" x="1192.9975" y="-155.2528" font-family="Arial" font-size="12.00" fill="#000000">inherits</text>
</g>
<!-- class_Idioma -->
<g id="node5" class="node">
<title>class_Idioma</title>
<ellipse fill="#20b2aa" stroke="#000000" cx="231.4975" cy="-112.6396" rx="54.3945" ry="21.4286"/>
<text text-anchor="middle" x="231.4975" y="-107.6396" font-family="Arial" font-size="20.00" fill="#000000">Idioma</text>
</g>
<!-- class_CaracteristicasPlantilla -->
<g id="node13" class="node">
<title>class_CaracteristicasPlantilla</title>
<ellipse fill="#20b2aa" stroke="#000000" cx="881.4975" cy="-21.2132" rx="154.7129" ry="21.4286"/>
<text text-anchor="middle" x="881.4975" y="-16.2132" font-family="Arial" font-size="20.00" fill="#000000">CaracteristicasPlantilla</text>
</g>
<!-- class_Idioma&#45;&#45;class_CaracteristicasPlantilla -->
<g id="edge1" class="edge">
<title>class_Idioma&#45;&#45;class_CaracteristicasPlantilla</title>
<path fill="none" stroke="#c0c0c0" stroke-dasharray="5,2" d="M312.4851,-101.2482C428.805,-84.8871 643.4231,-54.6998 773.2453,-36.4395"/>
<polygon fill="#c0c0c0" stroke="#c0c0c0" points="311.0183,-90.8511 282.7732,-105.4274 313.9433,-111.6464 311.0183,-90.8511"/>
<text text-anchor="middle" x="614.9975" y="-63.8264" font-family="Arial" font-size="12.00" fill="#000000">inherits</text>
</g>
<!-- class_TiempoVerbal&#45;&#45;class_CaracteristicasPlantilla -->
<g id="edge5" class="edge">
<title>class_TiempoVerbal&#45;&#45;class_CaracteristicasPlantilla</title>
<path fill="none" stroke="#c0c0c0" stroke-dasharray="5,2" d="M767.63,-79.3724C792.2799,-66.7821 819.5992,-52.8285 841.2985,-41.7453"/>
<polygon fill="#c0c0c0" stroke="#c0c0c0" points="762.8382,-70.0295 740.8975,-93.0264 772.3904,-88.7313 762.8382,-70.0295"/>
<text text-anchor="middle" x="822.9975" y="-63.8264" font-family="Arial" font-size="12.00" fill="#000000">inherits</text>
</g>
<!-- class_Retrospectivo -->
<g id="node7" class="node">
<title>class_Retrospectivo</title>
<ellipse fill="#20b2aa" stroke="#000000" cx="1414.4975" cy="-204.066" rx="98.0761" ry="21.4286"/>
<text text-anchor="middle" x="1414.4975" y="-199.066" font-family="Arial" font-size="20.00" fill="#000000">Retrospectivo</text>
</g>
<!-- class_Retrospectivo&#45;&#45;class_Espacio -->
<g id="edge11" class="edge">
<title>class_Retrospectivo&#45;&#45;class_Espacio</title>
<path fill="none" stroke="#c0c0c0" stroke-dasharray="5,2" d="M1329.5259,-177.7316C1276.2111,-161.2083 1209.5212,-140.5398 1165.7762,-126.9823"/>
<polygon fill="#c0c0c0" stroke="#c0c0c0" points="1326.5522,-187.8026 1358.3159,-186.6542 1332.7688,-167.7439 1326.5522,-187.8026"/>
<text text-anchor="middle" x="1304.9975" y="-155.2528" font-family="Arial" font-size="12.00" fill="#000000">inherits</text>
</g>
<!-- class_Texto -->
<g id="node8" class="node">
<title>class_Texto</title>
<ellipse fill="#20b2aa" stroke="#000000" cx="1578.4975" cy="-204.066" rx="47.2526" ry="21.4286"/>
<text text-anchor="middle" x="1578.4975" y="-199.066" font-family="Arial" font-size="20.00" fill="#000000">Texto</text>
</g>
<!-- class_Texto&#45;&#45;class_Elemento -->
<g id="edge14" class="edge">
<title>class_Texto&#45;&#45;class_Elemento</title>
<path fill="none" stroke="#c0c0c0" stroke-dasharray="5,2" d="M1628.2303,-168.2637C1645.0871,-156.1286 1663.3037,-143.0146 1677.8131,-132.5694"/>
<polygon fill="#c0c0c0" stroke="#c0c0c0" points="1621.8013,-159.9541 1603.5886,-186.0031 1634.0705,-176.9972 1621.8013,-159.9541"/>
<text text-anchor="middle" x="1669.9975" y="-155.2528" font-family="Arial" font-size="12.00" fill="#000000">inherits</text>
</g>
<!-- class_Oracion -->
<g id="node9" class="node">
<title>class_Oracion</title>
<ellipse fill="#20b2aa" stroke="#000000" cx="1705.4975" cy="-204.066" rx="61.5366" ry="21.4286"/>
<text text-anchor="middle" x="1705.4975" y="-199.066" font-family="Arial" font-size="20.00" fill="#000000">Oracion</text>
</g>
<!-- class_Oracion&#45;&#45;class_Elemento -->
<g id="edge16" class="edge">
<title>class_Oracion&#45;&#45;class_Elemento</title>
<path fill="none" stroke="#c0c0c0" stroke-dasharray="5,2" d="M1705.4975,-152.3561C1705.4975,-145.957 1705.4975,-139.7175 1705.4975,-134.1509"/>
<polygon fill="#c0c0c0" stroke="#c0c0c0" points="1694.9976,-152.3992 1705.4975,-182.3992 1715.9976,-152.3993 1694.9976,-152.3992"/>
<text text-anchor="middle" x="1724.9975" y="-155.2528" font-family="Arial" font-size="12.00" fill="#000000">inherits</text>
</g>
<!-- class_Ingles -->
<g id="node10" class="node">
<title>class_Ingles</title>
<ellipse fill="#20b2aa" stroke="#000000" cx="49.4975" cy="-204.066" rx="49.4949" ry="21.4286"/>
<text text-anchor="middle" x="49.4975" y="-199.066" font-family="Arial" font-size="20.00" fill="#000000">Ingles</text>
</g>
<!-- class_Ingles&#45;&#45;class_Idioma -->
<g id="edge3" class="edge">
<title>class_Ingles&#45;&#45;class_Idioma</title>
<path fill="none" stroke="#c0c0c0" stroke-dasharray="5,2" d="M108.2761,-174.1622C122.7239,-166.8415 138.1601,-159.045 152.4975,-151.8528 167.2788,-144.4379 183.6487,-136.3003 197.6361,-129.3693"/>
<polygon fill="#c0c0c0" stroke="#c0c0c0" points="103.4724,-164.8252 81.4755,-187.7683 112.9788,-183.5503 103.4724,-164.8252"/>
<text text-anchor="middle" x="171.9975" y="-155.2528" font-family="Arial" font-size="12.00" fill="#000000">inherits</text>
</g>
<!-- class_PreteritoImperfecto -->
<g id="node11" class="node">
<title>class_PreteritoImperfecto</title>
<ellipse fill="#20b2aa" stroke="#000000" cx="665.4975" cy="-204.066" rx="132.4583" ry="21.4286"/>
<text text-anchor="middle" x="665.4975" y="-199.066" font-family="Arial" font-size="20.00" fill="#000000">PreteritoImperfecto</text>
</g>
<!-- class_PreteritoImperfecto&#45;&#45;class_TiempoVerbal -->
<g id="edge8" class="edge">
<title>class_PreteritoImperfecto&#45;&#45;class_TiempoVerbal</title>
<path fill="none" stroke="#c0c0c0" stroke-dasharray="5,2" d="M685.4055,-154.8735C688.3653,-147.5601 691.2766,-140.3661 693.8343,-134.0462"/>
<polygon fill="#c0c0c0" stroke="#c0c0c0" points="675.6002,-151.1131 674.079,-182.8612 695.0665,-158.9911 675.6002,-151.1131"/>
<text text-anchor="middle" x="705.9975" y="-155.2528" font-family="Arial" font-size="12.00" fill="#000000">inherits</text>
</g>
<!-- class_Elemento&#45;&#45;class_CaracteristicasPlantilla -->
<g id="edge13" class="edge">
<title>class_Elemento&#45;&#45;class_CaracteristicasPlantilla</title>
<path fill="none" stroke="#c0c0c0" stroke-dasharray="5,2" d="M1608.4068,-101.867C1457.3815,-85.1101 1166.5091,-52.8365 1002.1964,-34.6053"/>
<polygon fill="#c0c0c0" stroke="#c0c0c0" points="1607.4405,-112.3241 1638.4155,-105.1966 1609.7564,-91.4522 1607.4405,-112.3241"/>
<text text-anchor="middle" x="1362.9975" y="-63.8264" font-family="Arial" font-size="12.00" fill="#000000">inherits</text>
</g>
<!-- class_Arabe -->
<g id="node14" class="node">
<title>class_Arabe</title>
<ellipse fill="#20b2aa" stroke="#000000" cx="166.4975" cy="-204.066" rx="49.4949" ry="21.4286"/>
<text text-anchor="middle" x="166.4975" y="-199.066" font-family="Arial" font-size="20.00" fill="#000000">Arabe</text>
</g>
<!-- class_Arabe&#45;&#45;class_Idioma -->
<g id="edge4" class="edge">
<title>class_Arabe&#45;&#45;class_Idioma</title>
<path fill="none" stroke="#c0c0c0" stroke-dasharray="5,2" d="M198.7396,-158.7156C205.0689,-149.813 211.4112,-140.8921 216.8063,-133.3036"/>
<polygon fill="#c0c0c0" stroke="#c0c0c0" points="190.0725,-152.7853 181.247,-183.32 207.1879,-164.9536 190.0725,-152.7853"/>
<text text-anchor="middle" x="222.9975" y="-155.2528" font-family="Arial" font-size="12.00" fill="#000000">inherits</text>
</g>
<!-- class_Espanol -->
<g id="node15" class="node">
<title>class_Espanol</title>
<ellipse fill="#20b2aa" stroke="#000000" cx="296.4975" cy="-204.066" rx="62.8651" ry="21.4286"/>
<text text-anchor="middle" x="296.4975" y="-199.066" font-family="Arial" font-size="20.00" fill="#000000">Espanol</text>
</g>
<!-- class_Espanol&#45;&#45;class_Idioma -->
<g id="edge2" class="edge">
<title>class_Espanol&#45;&#45;class_Idioma</title>
<path fill="none" stroke="#c0c0c0" stroke-dasharray="5,2" d="M264.2554,-158.7156C257.9261,-149.813 251.5837,-140.8921 246.1886,-133.3036"/>
<polygon fill="#c0c0c0" stroke="#c0c0c0" points="255.8071,-164.9536 281.748,-183.32 272.9224,-152.7853 255.8071,-164.9536"/>
<text text-anchor="middle" x="287.9975" y="-155.2528" font-family="Arial" font-size="12.00" fill="#000000">inherits</text>
</g>
<!-- class_Futuro -->
<g id="node16" class="node">
<title>class_Futuro</title>
<ellipse fill="#20b2aa" stroke="#000000" cx="868.4975" cy="-204.066" rx="52.1524" ry="21.4286"/>
<text text-anchor="middle" x="868.4975" y="-199.066" font-family="Arial" font-size="20.00" fill="#000000">Futuro</text>
</g>
<!-- class_Futuro&#45;&#45;class_TiempoVerbal -->
<g id="edge7" class="edge">
<title>class_Futuro&#45;&#45;class_TiempoVerbal</title>
<path fill="none" stroke="#c0c0c0" stroke-dasharray="5,2" d="M810.6182,-172.1884C786.6274,-158.9751 759.5451,-144.0592 738.4866,-132.4611"/>
<polygon fill="#c0c0c0" stroke="#c0c0c0" points="805.9306,-181.5937 837.2741,-186.8694 816.0617,-163.1991 805.9306,-181.5937"/>
<text text-anchor="middle" x="814.9975" y="-155.2528" font-family="Arial" font-size="12.00" fill="#000000">inherits</text>
</g>
<!-- class_Espacio&#45;&#45;class_CaracteristicasPlantilla -->
<g id="edge9" class="edge">
<title>class_Espacio&#45;&#45;class_CaracteristicasPlantilla</title>
<path fill="none" stroke="#c0c0c0" stroke-dasharray="5,2" d="M1049.9806,-85.9351C1012.8249,-71.6619 967.8383,-54.3806 933.7,-41.2665"/>
<polygon fill="#c0c0c0" stroke="#c0c0c0" points="1046.271,-95.7581 1078.041,-96.7143 1053.8015,-76.1547 1046.271,-95.7581"/>
<text text-anchor="middle" x="1034.9975" y="-63.8264" font-family="Arial" font-size="12.00" fill="#000000">inherits</text>
</g>
<!-- class_Parrafo -->
<g id="node18" class="node">
<title>class_Parrafo</title>
<ellipse fill="#20b2aa" stroke="#000000" cx="1843.4975" cy="-204.066" rx="57.9655" ry="21.4286"/>
<text text-anchor="middle" x="1843.4975" y="-199.066" font-family="Arial" font-size="20.00" fill="#000000">Parrafo</text>
</g>
<!-- class_Parrafo&#45;&#45;class_Elemento -->
<g id="edge15" class="edge">
<title>class_Parrafo&#45;&#45;class_Elemento</title>
<path fill="none" stroke="#c0c0c0" stroke-dasharray="5,2" d="M1790.1271,-168.7076C1771.4575,-156.3388 1751.1765,-142.9024 1735.1496,-132.2844"/>
<polygon fill="#c0c0c0" stroke="#c0c0c0" points="1784.4296,-177.5282 1815.2381,-185.3439 1796.0279,-160.0216 1784.4296,-177.5282"/>
<text text-anchor="middle" x="1801.9975" y="-155.2528" font-family="Arial" font-size="12.00" fill="#000000">inherits</text>
</g>
</g>
</svg>
