<?xml version="1.0" encoding="UTF-8" standalone="no"?>
<!DOCTYPE svg PUBLIC "-//W3C//DTD SVG 1.1//EN"
 "http://www.w3.org/Graphics/SVG/1.1/DTD/svg11.dtd">
<!-- Generated by graphviz version 2.40.1 (20161225.0304)
 -->
<!-- Title: ejemplo Pages: 1 -->
<svg width="557pt" height="352pt"
 viewBox="0.00 0.00 556.62 351.91" xmlns="http://www.w3.org/2000/svg" xmlns:xlink="http://www.w3.org/1999/xlink">
<g id="graph0" class="graph" transform="scale(1 1) rotate(0) translate(4 347.9125)">
<title>ejemplo</title>
<polygon fill="#ffffff" stroke="transparent" points="-4,4 -4,-347.9125 552.6219,-347.9125 552.6219,4 -4,4"/>
<!-- property_Apellidos -->
<g id="node1" class="node">
<title>property_Apellidos</title>
<polygon fill="#fafad2" stroke="#000000" points="373.7417,-13.0237 373.7417,-51.0237 432.7417,-51.0237 432.7417,-13.0237 373.7417,-13.0237"/>
<text text-anchor="middle" x="403.2417" y="-39.0237" font-family="Arial" font-size="10.00" fill="#000000">Apellidos</text>
<polyline fill="none" stroke="#000000" points="373.7417,-32.0237 432.7417,-32.0237 "/>
<text text-anchor="middle" x="403.2417" y="-20.0237" font-family="Arial" font-size="10.00" fill="#000000">xsd:string</text>
</g>
<!-- property_Mascotas -->
<g id="node2" class="node">
<title>property_Mascotas</title>
<polygon fill="#fafad2" stroke="#000000" points="167.0608,-178.3317 167.0608,-216.3317 329.0608,-216.3317 329.0608,-178.3317 167.0608,-178.3317"/>
<text text-anchor="middle" x="248.0608" y="-204.3317" font-family="Arial" font-size="10.00" fill="#000000">Mascotas</text>
<polyline fill="none" stroke="#000000" points="167.0608,-197.3317 329.0608,-197.3317 "/>
<text text-anchor="middle" x="248.0608" y="-185.3317" font-family="Arial" font-size="10.00" fill="#000000">http://PdL.com/class#MASCOTA</text>
</g>
<!-- class_MASCOTA -->
<g id="node18" class="node">
<title>class_MASCOTA</title>
<ellipse fill="#20b2aa" stroke="#000000" cx="319.9206" cy="-249.3064" rx="81.135" ry="21.4286"/>
<text text-anchor="middle" x="319.9206" y="-244.3064" font-family="Arial" font-size="20.00" fill="#000000">MASCOTA</text>
</g>
<!-- property_Mascotas&#45;&#45;class_MASCOTA -->
<g id="edge20" class="edge">
<title>property_Mascotas&#45;&#45;class_MASCOTA</title>
<path fill="none" stroke="#000000" stroke-dasharray="5,2" d="M274.4107,-216.39C280.1788,-220.562 286.3022,-224.9909 292.1249,-229.2023"/>
<text text-anchor="middle" x="263.2678" y="-226.1962" font-family="Arial" font-size="12.00" fill="#000000">TypeOf</text>
</g>
<!-- property_Fecha -->
<g id="node3" class="node">
<title>property_Fecha</title>
<polygon fill="#fafad2" stroke="#000000" points="133.6896,-47.1315 133.6896,-85.1315 192.6896,-85.1315 192.6896,-47.1315 133.6896,-47.1315"/>
<text text-anchor="middle" x="163.1896" y="-73.1315" font-family="Arial" font-size="10.00" fill="#000000">Fecha</text>
<polyline fill="none" stroke="#000000" points="133.6896,-66.1315 192.6896,-66.1315 "/>
<text text-anchor="middle" x="163.1896" y="-54.1315" font-family="Arial" font-size="10.00" fill="#000000">xsd:string</text>
</g>
<!-- property_FechaNacimiento -->
<g id="node4" class="node">
<title>property_FechaNacimiento</title>
<polygon fill="#fafad2" stroke="#000000" points="324.9842,-175.9952 324.9842,-213.9952 418.9842,-213.9952 418.9842,-175.9952 324.9842,-175.9952"/>
<text text-anchor="middle" x="371.9842" y="-201.9952" font-family="Arial" font-size="10.00" fill="#000000">FechaNacimiento</text>
<polyline fill="none" stroke="#000000" points="324.9842,-194.9952 418.9842,-194.9952 "/>
<text text-anchor="middle" x="371.9842" y="-182.9952" font-family="Arial" font-size="10.00" fill="#000000">xsd:string</text>
</g>
<!-- property_Tipo -->
<g id="node5" class="node">
<title>property_Tipo</title>
<polygon fill="#fafad2" stroke="#000000" points="326.4,-305.4125 326.4,-343.4125 385.4,-343.4125 385.4,-305.4125 326.4,-305.4125"/>
<text text-anchor="middle" x="355.9" y="-331.4125" font-family="Arial" font-size="10.00" fill="#000000">Tipo</text>
<polyline fill="none" stroke="#000000" points="326.4,-324.4125 385.4,-324.4125 "/>
<text text-anchor="middle" x="355.9" y="-312.4125" font-family="Arial" font-size="10.00" fill="#000000">xsd:string</text>
</g>
<!-- property_Descendientes -->
<g id="node6" class="node">
<title>property_Descendientes</title>
<polygon fill="#fafad2" stroke="#000000" points="226.4486,-94.974 226.4486,-132.974 387.4486,-132.974 387.4486,-94.974 226.4486,-94.974"/>
<text text-anchor="middle" x="306.9486" y="-120.974" font-family="Arial" font-size="10.00" fill="#000000">Descendientes</text>
<polyline fill="none" stroke="#000000" points="226.4486,-113.974 387.4486,-113.974 "/>
<text text-anchor="middle" x="306.9486" y="-101.974" font-family="Arial" font-size="10.00" fill="#000000">http://PdL.com/class#PERSONA</text>
</g>
<!-- class_PERSONA -->
<g id="node17" class="node">
<title>class_PERSONA</title>
<ellipse fill="#20b2aa" stroke="#000000" cx="390.5275" cy="-118.2367" rx="80.7205" ry="21.4286"/>
<text text-anchor="middle" x="390.5275" y="-113.2367" font-family="Arial" font-size="20.00" fill="#000000">PERSONA</text>
</g>
<!-- property_Descendientes&#45;&#45;class_PERSONA -->
<g id="edge21" class="edge">
<title>property_Descendientes&#45;&#45;class_PERSONA</title>
<path fill="none" stroke="#000000" stroke-dasharray="5,2" d="M387.7467,-118.0949C387.858,-118.1006 387.9663,-118.1061 388.0714,-118.1114"/>
<text text-anchor="middle" x="407.9091" y="-121.5032" font-family="Arial" font-size="12.00" fill="#000000">TypeOf</text>
</g>
<!-- property_Raza -->
<g id="node7" class="node">
<title>property_Raza</title>
<polygon fill="#fafad2" stroke="#000000" points="251.7192,-302.6929 251.7192,-340.6929 310.7192,-340.6929 310.7192,-302.6929 251.7192,-302.6929"/>
<text text-anchor="middle" x="281.2192" y="-328.6929" font-family="Arial" font-size="10.00" fill="#000000">Raza</text>
<polyline fill="none" stroke="#000000" points="251.7192,-321.6929 310.7192,-321.6929 "/>
<text text-anchor="middle" x="281.2192" y="-309.6929" font-family="Arial" font-size="10.00" fill="#000000">xsd:string</text>
</g>
<!-- property_Localidad -->
<g id="node8" class="node">
<title>property_Localidad</title>
<polygon fill="#fafad2" stroke="#000000" points="208.1689,-.5 208.1689,-38.5 267.1689,-38.5 267.1689,-.5 208.1689,-.5"/>
<text text-anchor="middle" x="237.6689" y="-26.5" font-family="Arial" font-size="10.00" fill="#000000">Localidad</text>
<polyline fill="none" stroke="#000000" points="208.1689,-19.5 267.1689,-19.5 "/>
<text text-anchor="middle" x="237.6689" y="-7.5" font-family="Arial" font-size="10.00" fill="#000000">xsd:string</text>
</g>
<!-- property_Rol -->
<g id="node9" class="node">
<title>property_Rol</title>
<polygon fill="#fafad2" stroke="#000000" points="416.8712,-36.4657 416.8712,-74.4657 475.8712,-74.4657 475.8712,-36.4657 416.8712,-36.4657"/>
<text text-anchor="middle" x="446.3712" y="-62.4657" font-family="Arial" font-size="10.00" fill="#000000">Rol</text>
<polyline fill="none" stroke="#000000" points="416.8712,-55.4657 475.8712,-55.4657 "/>
<text text-anchor="middle" x="446.3712" y="-43.4657" font-family="Arial" font-size="10.00" fill="#000000">xsd:string</text>
</g>
<!-- property_SueldoAnual -->
<g id="node10" class="node">
<title>property_SueldoAnual</title>
<polygon fill="#fafad2" stroke="#000000" points="434.7002,-83.1077 434.7002,-121.1077 507.7002,-121.1077 507.7002,-83.1077 434.7002,-83.1077"/>
<text text-anchor="middle" x="471.2002" y="-109.1077" font-family="Arial" font-size="10.00" fill="#000000">SueldoAnual</text>
<polyline fill="none" stroke="#000000" points="434.7002,-102.1077 507.7002,-102.1077 "/>
<text text-anchor="middle" x="471.2002" y="-90.1077" font-family="Arial" font-size="10.00" fill="#000000">xsd:integer</text>
</g>
<!-- property_FechaUNIX -->
<g id="node11" class="node">
<title>property_FechaUNIX</title>
<polygon fill="#fafad2" stroke="#000000" points="106.1002,-103.7603 106.1002,-141.7603 174.1002,-141.7603 174.1002,-103.7603 106.1002,-103.7603"/>
<text text-anchor="middle" x="140.1002" y="-129.7603" font-family="Arial" font-size="10.00" fill="#000000">FechaUNIX</text>
<polyline fill="none" stroke="#000000" points="106.1002,-122.7603 174.1002,-122.7603 "/>
<text text-anchor="middle" x="140.1002" y="-110.7603" font-family="Arial" font-size="10.00" fill="#000000">xsd:integer</text>
</g>
<!-- property_Nucleo -->
<g id="node12" class="node">
<title>property_Nucleo</title>
<polygon fill="#fafad2" stroke="#000000" points="230.8075,-58.9029 230.8075,-96.9029 391.8075,-96.9029 391.8075,-58.9029 230.8075,-58.9029"/>
<text text-anchor="middle" x="311.3075" y="-84.9029" font-family="Arial" font-size="10.00" fill="#000000">Nucleo</text>
<polyline fill="none" stroke="#000000" points="230.8075,-77.9029 391.8075,-77.9029 "/>
<text text-anchor="middle" x="311.3075" y="-65.9029" font-family="Arial" font-size="10.00" fill="#000000">http://PdL.com/class#PERSONA</text>
</g>
<!-- property_Nucleo&#45;&#45;class_PERSONA -->
<g id="edge22" class="edge">
<title>property_Nucleo&#45;&#45;class_PERSONA</title>
<path fill="none" stroke="#000000" stroke-dasharray="5,2" d="M349.0614,-97.1248C350.4961,-97.8552 351.934,-98.5873 353.3676,-99.3172"/>
<text text-anchor="middle" x="371.2145" y="-88.621" font-family="Arial" font-size="12.00" fill="#000000">TypeOf</text>
</g>
<!-- property_Nombre -->
<g id="node13" class="node">
<title>property_Nombre</title>
<polygon fill="#fafad2" stroke="#000000" points="371.0351,-191.5997 371.0351,-229.5997 430.0351,-229.5997 430.0351,-191.5997 371.0351,-191.5997"/>
<text text-anchor="middle" x="400.5351" y="-217.5997" font-family="Arial" font-size="10.00" fill="#000000">Nombre</text>
<polyline fill="none" stroke="#000000" points="371.0351,-210.5997 430.0351,-210.5997 "/>
<text text-anchor="middle" x="400.5351" y="-198.5997" font-family="Arial" font-size="10.00" fill="#000000">xsd:string</text>
</g>
<!-- property_Ascendientes -->
<g id="node14" class="node">
<title>property_Ascendientes</title>
<polygon fill="#fafad2" stroke="#000000" points="387.6219,-135.6626 387.6219,-173.6626 548.6219,-173.6626 548.6219,-135.6626 387.6219,-135.6626"/>
<text text-anchor="middle" x="468.1219" y="-161.6626" font-family="Arial" font-size="10.00" fill="#000000">Ascendientes</text>
<polyline fill="none" stroke="#000000" points="387.6219,-154.6626 548.6219,-154.6626 "/>
<text text-anchor="middle" x="468.1219" y="-142.6626" font-family="Arial" font-size="10.00" fill="#000000">http://PdL.com/class#PERSONA</text>
</g>
<!-- property_Ascendientes&#45;&#45;class_PERSONA -->
<g id="edge23" class="edge">
<title>property_Ascendientes&#45;&#45;class_PERSONA</title>
<path fill="none" stroke="#000000" stroke-dasharray="5,2" d="M442.8761,-135.6166C442.3652,-135.3508 441.8507,-135.0852 441.333,-134.8201"/>
<text text-anchor="middle" x="462.1046" y="-125.6184" font-family="Arial" font-size="12.00" fill="#000000">TypeOf</text>
</g>
<!-- property_Designacion -->
<g id="node15" class="node">
<title>property_Designacion</title>
<polygon fill="#fafad2" stroke="#000000" points="139.5376,-150.1741 139.5376,-188.1741 211.5376,-188.1741 211.5376,-150.1741 139.5376,-150.1741"/>
<text text-anchor="middle" x="175.5376" y="-176.1741" font-family="Arial" font-size="10.00" fill="#000000">Designacion</text>
<polyline fill="none" stroke="#000000" points="139.5376,-169.1741 211.5376,-169.1741 "/>
<text text-anchor="middle" x="175.5376" y="-157.1741" font-family="Arial" font-size="10.00" fill="#000000">xsd:string</text>
</g>
<!-- property_TipoFamilia -->
<g id="node16" class="node">
<title>property_TipoFamilia</title>
<polygon fill="#fafad2" stroke="#000000" points="159.0847,-8.4211 159.0847,-46.4211 227.0847,-46.4211 227.0847,-8.4211 159.0847,-8.4211"/>
<text text-anchor="middle" x="193.0847" y="-34.4211" font-family="Arial" font-size="10.00" fill="#000000">TipoFamilia</text>
<polyline fill="none" stroke="#000000" points="159.0847,-27.4211 227.0847,-27.4211 "/>
<text text-anchor="middle" x="193.0847" y="-15.4211" font-family="Arial" font-size="10.00" fill="#000000">xsd:string</text>
</g>
<!-- class_PERSONA&#45;&#45;property_Apellidos -->
<g id="edge2" class="edge">
<title>class_PERSONA&#45;&#45;property_Apellidos</title>
<path fill="none" stroke="#000000" stroke-dasharray="5,2" d="M393.6704,-96.9256C395.7441,-82.8641 398.437,-64.6036 400.438,-51.0352"/>
</g>
<!-- class_PERSONA&#45;&#45;property_FechaNacimiento -->
<g id="edge4" class="edge">
<title>class_PERSONA&#45;&#45;property_FechaNacimiento</title>
<path fill="none" stroke="#000000" stroke-dasharray="5,2" d="M385.3622,-139.6182C382.6188,-150.9743 379.2743,-164.8186 376.6156,-175.8238"/>
</g>
<!-- class_PERSONA&#45;&#45;property_Rol -->
<g id="edge3" class="edge">
<title>class_PERSONA&#45;&#45;property_Rol</title>
<path fill="none" stroke="#000000" stroke-dasharray="5,2" d="M409.1227,-97.3349C415.5953,-90.0593 422.8233,-81.9347 429.1773,-74.7925"/>
</g>
<!-- class_PERSONA&#45;&#45;property_SueldoAnual -->
<g id="edge5" class="edge">
<title>class_PERSONA&#45;&#45;property_SueldoAnual</title>
<path fill="none" stroke="#000000" stroke-dasharray="5,2" d="M454.8749,-105.3717C455.0246,-105.3417 455.1737,-105.3119 455.322,-105.2823"/>
</g>
<!-- class_PERSONA&#45;&#45;property_Nombre -->
<g id="edge1" class="edge">
<title>class_PERSONA&#45;&#45;property_Nombre</title>
<path fill="none" stroke="#000000" stroke-dasharray="5,2" d="M392.8486,-139.6588C394.5462,-155.3263 396.8287,-176.3918 398.4646,-191.49"/>
</g>
<!-- class_PERSONA&#45;&#45;property_Ascendientes -->
<g id="edge6" class="edge">
<title>class_PERSONA&#45;&#45;property_Ascendientes</title>
<path fill="none" stroke="#000000" stroke-dasharray="5,2" d="M417.9445,-138.3998C418.0284,-138.4425 418.1123,-138.4851 418.1963,-138.5277"/>
</g>
<!-- class_MASCOTA&#45;&#45;property_FechaNacimiento -->
<g id="edge10" class="edge">
<title>class_MASCOTA&#45;&#45;property_FechaNacimiento</title>
<path fill="none" stroke="#000000" stroke-dasharray="5,2" d="M339.9009,-228.4636C344.3743,-223.797 349.1002,-218.8671 353.5094,-214.2676"/>
</g>
<!-- class_MASCOTA&#45;&#45;property_Tipo -->
<g id="edge7" class="edge">
<title>class_MASCOTA&#45;&#45;property_Tipo</title>
<path fill="none" stroke="#000000" stroke-dasharray="5,2" d="M330.1346,-270.6279C335.3701,-281.5568 341.6935,-294.7568 346.7657,-305.3448"/>
</g>
<!-- class_MASCOTA&#45;&#45;property_Raza -->
<g id="edge9" class="edge">
<title>class_MASCOTA&#45;&#45;property_Raza</title>
<path fill="none" stroke="#000000" stroke-dasharray="5,2" d="M308.5182,-270.6332C303.167,-280.6421 296.8342,-292.4868 291.6159,-302.2471"/>
</g>
<!-- class_MASCOTA&#45;&#45;property_Nombre -->
<g id="edge8" class="edge">
<title>class_MASCOTA&#45;&#45;property_Nombre</title>
<path fill="none" stroke="#000000" stroke-dasharray="5,2" d="M358.8111,-230.6333C362.8374,-228.7001 366.8825,-226.7578 370.7856,-224.8838"/>
</g>
<!-- class_FAMILIA -->
<g id="node19" class="node">
<title>class_FAMILIA</title>
<ellipse fill="#20b2aa" stroke="#000000" cx="227.674" cy="-107.4712" rx="66.4361" ry="21.4286"/>
<text text-anchor="middle" x="227.674" y="-102.4712" font-family="Arial" font-size="20.00" fill="#000000">FAMILIA</text>
</g>
<!-- class_FAMILIA&#45;&#45;property_Mascotas -->
<g id="edge18" class="edge">
<title>class_FAMILIA&#45;&#45;property_Mascotas</title>
<path fill="none" stroke="#000000" stroke-dasharray="5,2" d="M232.5054,-128.7669C235.92,-143.818 240.457,-163.8157 243.7493,-178.3278"/>
</g>
<!-- class_FAMILIA&#45;&#45;property_Fecha -->
<g id="edge12" class="edge">
<title>class_FAMILIA&#45;&#45;property_Fecha</title>
<path fill="none" stroke="#000000" stroke-dasharray="5,2" d="M197.6972,-88.2536C196.1184,-87.2415 194.5324,-86.2248 192.9544,-85.2131"/>
</g>
<!-- class_FAMILIA&#45;&#45;property_Descendientes -->
<g id="edge17" class="edge">
<title>class_FAMILIA&#45;&#45;property_Descendientes</title>
<path fill="none" stroke="#000000" stroke-dasharray="5,2" d="M292.4084,-112.7813C292.543,-112.7923 292.6769,-112.8033 292.8102,-112.8142"/>
</g>
<!-- class_FAMILIA&#45;&#45;property_Localidad -->
<g id="edge13" class="edge">
<title>class_FAMILIA&#45;&#45;property_Localidad</title>
<path fill="none" stroke="#000000" stroke-dasharray="5,2" d="M230.0935,-86.1758C231.7458,-71.6326 233.9159,-52.5323 235.5097,-38.5038"/>
</g>
<!-- class_FAMILIA&#45;&#45;property_FechaUNIX -->
<g id="edge11" class="edge">
<title>class_FAMILIA&#45;&#45;property_FechaUNIX</title>
<path fill="none" stroke="#000000" stroke-dasharray="5,2" d="M169.261,-117.6693C169.1355,-117.6912 169.0102,-117.7131 168.885,-117.7349"/>
</g>
<!-- class_FAMILIA&#45;&#45;property_Nucleo -->
<g id="edge16" class="edge">
<title>class_FAMILIA&#45;&#45;property_Nucleo</title>
<path fill="none" stroke="#000000" stroke-dasharray="5,2" d="M272.4289,-91.6483C272.5842,-91.5934 272.7395,-91.5384 272.8947,-91.4836"/>
</g>
<!-- class_FAMILIA&#45;&#45;property_Designacion -->
<g id="edge15" class="edge">
<title>class_FAMILIA&#45;&#45;property_Designacion</title>
<path fill="none" stroke="#000000" stroke-dasharray="5,2" d="M210.3133,-128.0174C204.3889,-135.0288 197.7866,-142.8426 191.9399,-149.762"/>
</g>
<!-- class_FAMILIA&#45;&#45;property_TipoFamilia -->
<g id="edge14" class="edge">
<title>class_FAMILIA&#45;&#45;property_TipoFamilia</title>
<path fill="none" stroke="#000000" stroke-dasharray="5,2" d="M218.5861,-86.439C213.2618,-74.117 206.5867,-58.6687 201.4014,-46.6683"/>
</g>
<!-- relationship_conoceA -->
<g id="node20" class="node">
<title>relationship_conoceA</title>
<polygon fill="#afeeee" stroke="#000000" points="120.5362,-128.1978 90.3574,-146.1978 29.9997,-146.1978 -.1791,-128.1978 29.9997,-110.1978 90.3574,-110.1978 120.5362,-128.1978"/>
<text text-anchor="middle" x="60.1786" y="-124.6978" font-family="Arial" font-size="15.00" fill="#000000">conoceA</text>
</g>
<!-- relationship_conoceA&#45;&#45;property_FechaUNIX -->
<g id="edge19" class="edge">
<title>relationship_conoceA&#45;&#45;property_FechaUNIX</title>
<path fill="none" stroke="#000000" stroke-dasharray="5,2" d="M114.3725,-124.5107C114.4839,-124.5031 114.5951,-124.4956 114.7061,-124.488"/>
</g>
</g>
</svg>
