<?xml version="1.0" encoding="UTF-8" standalone="no"?>
<!DOCTYPE svg PUBLIC "-//W3C//DTD SVG 1.1//EN"
 "http://www.w3.org/Graphics/SVG/1.1/DTD/svg11.dtd">
<!-- Generated by graphviz version 2.40.1 (20161225.0304)
 -->
<!-- Title: ejemplo Pages: 1 -->
<svg width="422pt" height="365pt"
 viewBox="0.00 0.00 422.41 364.94" xmlns="http://www.w3.org/2000/svg" xmlns:xlink="http://www.w3.org/1999/xlink">
<g id="graph0" class="graph" transform="scale(1 1) rotate(0) translate(4 360.9449)">
<title>ejemplo</title>
<polygon fill="#ffffff" stroke="transparent" points="-4,4 -4,-360.9449 418.4105,-360.9449 418.4105,4 -4,4"/>
<!-- property_Apellidos -->
<g id="node1" class="node">
<title>property_Apellidos</title>
<polygon fill="#fafad2" stroke="#000000" points="33.6635,-123.2416 33.6635,-161.2416 92.6635,-161.2416 92.6635,-123.2416 33.6635,-123.2416"/>
<text text-anchor="middle" x="63.1635" y="-149.2416" font-family="Arial" font-size="10.00" fill="#000000">Apellidos</text>
<polyline fill="none" stroke="#000000" points="33.6635,-142.2416 92.6635,-142.2416 "/>
<text text-anchor="middle" x="63.1635" y="-130.2416" font-family="Arial" font-size="10.00" fill="#000000">xsd:string</text>
</g>
<!-- property_Mascotas -->
<g id="node2" class="node">
<title>property_Mascotas</title>
<polygon fill="#fafad2" stroke="#000000" points="220.8548,-179.5066 220.8548,-217.5066 382.8548,-217.5066 382.8548,-179.5066 220.8548,-179.5066"/>
<text text-anchor="middle" x="301.8548" y="-205.5066" font-family="Arial" font-size="10.00" fill="#000000">Mascotas</text>
<polyline fill="none" stroke="#000000" points="220.8548,-198.5066 382.8548,-198.5066 "/>
<text text-anchor="middle" x="301.8548" y="-186.5066" font-family="Arial" font-size="10.00" fill="#000000">http://PdL.com/class#MASCOTA</text>
</g>
<!-- class_MASCOTA -->
<g id="node18" class="node">
<title>class_MASCOTA</title>
<ellipse fill="#20b2aa" stroke="#000000" cx="235.2265" cy="-258.2666" rx="81.135" ry="21.4286"/>
<text text-anchor="middle" x="235.2265" y="-253.2666" font-family="Arial" font-size="20.00" fill="#000000">MASCOTA</text>
</g>
<!-- property_Mascotas&#45;&#45;class_MASCOTA -->
<g id="edge20" class="edge">
<title>property_Mascotas&#45;&#45;class_MASCOTA</title>
<path fill="none" stroke="#c0c0c0" stroke-dasharray="1,5" d="M280.4064,-217.744C278.0597,-219.8488 275.6226,-222.0347 273.151,-224.2515"/>
<polygon fill="#c0c0c0" stroke="#c0c0c0" points="258.0135,-237.8286 266.8929,-217.7747 265.4579,-231.1516 272.9022,-224.4747 272.9022,-224.4747 272.9022,-224.4747 265.4579,-231.1516 278.9115,-231.1746 258.0135,-237.8286 258.0135,-237.8286"/>
<text text-anchor="middle" x="256.7787" y="-224.3977" font-family="Arial" font-size="12.00" fill="#000000">TypeOf</text>
</g>
<!-- property_Fecha -->
<g id="node3" class="node">
<title>property_Fecha</title>
<polygon fill="#fafad2" stroke="#000000" points="297.9409,-.5 297.9409,-38.5 356.9409,-38.5 356.9409,-.5 297.9409,-.5"/>
<text text-anchor="middle" x="327.4409" y="-26.5" font-family="Arial" font-size="10.00" fill="#000000">Fecha</text>
<polyline fill="none" stroke="#000000" points="297.9409,-19.5 356.9409,-19.5 "/>
<text text-anchor="middle" x="327.4409" y="-7.5" font-family="Arial" font-size="10.00" fill="#000000">xsd:string</text>
</g>
<!-- property_FechaNacimiento -->
<g id="node4" class="node">
<title>property_FechaNacimiento</title>
<polygon fill="#fafad2" stroke="#000000" points="104.9497,-206.7421 104.9497,-244.7421 198.9497,-244.7421 198.9497,-206.7421 104.9497,-206.7421"/>
<text text-anchor="middle" x="151.9497" y="-232.7421" font-family="Arial" font-size="10.00" fill="#000000">FechaNacimiento</text>
<polyline fill="none" stroke="#000000" points="104.9497,-225.7421 198.9497,-225.7421 "/>
<text text-anchor="middle" x="151.9497" y="-213.7421" font-family="Arial" font-size="10.00" fill="#000000">xsd:string</text>
</g>
<!-- property_Tipo -->
<g id="node5" class="node">
<title>property_Tipo</title>
<polygon fill="#fafad2" stroke="#000000" points="255.3955,-304.0828 255.3955,-342.0828 314.3955,-342.0828 314.3955,-304.0828 255.3955,-304.0828"/>
<text text-anchor="middle" x="284.8955" y="-330.0828" font-family="Arial" font-size="10.00" fill="#000000">Tipo</text>
<polyline fill="none" stroke="#000000" points="255.3955,-323.0828 314.3955,-323.0828 "/>
<text text-anchor="middle" x="284.8955" y="-311.0828" font-family="Arial" font-size="10.00" fill="#000000">xsd:string</text>
</g>
<!-- property_Descendientes -->
<g id="node6" class="node">
<title>property_Descendientes</title>
<polygon fill="#fafad2" stroke="#000000" points="148.2534,-110.8615 148.2534,-148.8615 309.2534,-148.8615 309.2534,-110.8615 148.2534,-110.8615"/>
<text text-anchor="middle" x="228.7534" y="-136.8615" font-family="Arial" font-size="10.00" fill="#000000">Descendientes</text>
<polyline fill="none" stroke="#000000" points="148.2534,-129.8615 309.2534,-129.8615 "/>
<text text-anchor="middle" x="228.7534" y="-117.8615" font-family="Arial" font-size="10.00" fill="#000000">http://PdL.com/class#PERSONA</text>
</g>
<!-- class_PERSONA -->
<g id="node17" class="node">
<title>class_PERSONA</title>
<ellipse fill="#20b2aa" stroke="#000000" cx="145.9546" cy="-132.5175" rx="80.7205" ry="21.4286"/>
<text text-anchor="middle" x="145.9546" y="-127.5175" font-family="Arial" font-size="20.00" fill="#000000">PERSONA</text>
</g>
<!-- property_Descendientes&#45;&#45;class_PERSONA -->
<g id="edge21" class="edge">
<title>property_Descendientes&#45;&#45;class_PERSONA</title>
<path fill="none" stroke="#c0c0c0" stroke-dasharray="1,5" d="M148.0013,-132.4518C147.9189,-132.4545 147.8388,-132.4571 147.761,-132.4596"/>
<polygon fill="#c0c0c0" stroke="#c0c0c0" points="147.5347,-132.4668 167.232,-122.8217 157.5296,-132.1419 167.5244,-131.8171 167.5244,-131.8171 167.5244,-131.8171 157.5296,-132.1419 167.8168,-140.8124 147.5347,-132.4668 147.5347,-132.4668"/>
<text text-anchor="middle" x="127.8812" y="-135.8557" font-family="Arial" font-size="12.00" fill="#000000">TypeOf</text>
</g>
<!-- property_Raza -->
<g id="node7" class="node">
<title>property_Raza</title>
<polygon fill="#fafad2" stroke="#000000" points="179.1025,-318.4449 179.1025,-356.4449 238.1025,-356.4449 238.1025,-318.4449 179.1025,-318.4449"/>
<text text-anchor="middle" x="208.6025" y="-344.4449" font-family="Arial" font-size="10.00" fill="#000000">Raza</text>
<polyline fill="none" stroke="#000000" points="179.1025,-337.4449 238.1025,-337.4449 "/>
<text text-anchor="middle" x="208.6025" y="-325.4449" font-family="Arial" font-size="10.00" fill="#000000">xsd:string</text>
</g>
<!-- property_Localidad -->
<g id="node8" class="node">
<title>property_Localidad</title>
<polygon fill="#fafad2" stroke="#000000" points="355.4105,-84.8541 355.4105,-122.8541 414.4105,-122.8541 414.4105,-84.8541 355.4105,-84.8541"/>
<text text-anchor="middle" x="384.9105" y="-110.8541" font-family="Arial" font-size="10.00" fill="#000000">Localidad</text>
<polyline fill="none" stroke="#000000" points="355.4105,-103.8541 414.4105,-103.8541 "/>
<text text-anchor="middle" x="384.9105" y="-91.8541" font-family="Arial" font-size="10.00" fill="#000000">xsd:string</text>
</g>
<!-- property_Rol -->
<g id="node9" class="node">
<title>property_Rol</title>
<polygon fill="#fafad2" stroke="#000000" points="42.6118,-74.8437 42.6118,-112.8437 101.6118,-112.8437 101.6118,-74.8437 42.6118,-74.8437"/>
<text text-anchor="middle" x="72.1118" y="-100.8437" font-family="Arial" font-size="10.00" fill="#000000">Rol</text>
<polyline fill="none" stroke="#000000" points="42.6118,-93.8437 101.6118,-93.8437 "/>
<text text-anchor="middle" x="72.1118" y="-81.8437" font-family="Arial" font-size="10.00" fill="#000000">xsd:string</text>
</g>
<!-- property_SueldoAnual -->
<g id="node10" class="node">
<title>property_SueldoAnual</title>
<polygon fill="#fafad2" stroke="#000000" points="64.8393,-37.2069 64.8393,-75.2069 137.8393,-75.2069 137.8393,-37.2069 64.8393,-37.2069"/>
<text text-anchor="middle" x="101.3393" y="-63.2069" font-family="Arial" font-size="10.00" fill="#000000">SueldoAnual</text>
<polyline fill="none" stroke="#000000" points="64.8393,-56.2069 137.8393,-56.2069 "/>
<text text-anchor="middle" x="101.3393" y="-44.2069" font-family="Arial" font-size="10.00" fill="#000000">xsd:integer</text>
</g>
<!-- property_FechaUNIX -->
<g id="node11" class="node">
<title>property_FechaUNIX</title>
<polygon fill="#fafad2" stroke="#000000" points="220.0353,-15.0166 220.0353,-53.0166 288.0353,-53.0166 288.0353,-15.0166 220.0353,-15.0166"/>
<text text-anchor="middle" x="254.0353" y="-41.0166" font-family="Arial" font-size="10.00" fill="#000000">FechaUNIX</text>
<polyline fill="none" stroke="#000000" points="220.0353,-34.0166 288.0353,-34.0166 "/>
<text text-anchor="middle" x="254.0353" y="-22.0166" font-family="Arial" font-size="10.00" fill="#000000">xsd:integer</text>
</g>
<!-- property_Nucleo -->
<g id="node12" class="node">
<title>property_Nucleo</title>
<polygon fill="#fafad2" stroke="#000000" points="140.485,-76.0673 140.485,-114.0673 301.485,-114.0673 301.485,-76.0673 140.485,-76.0673"/>
<text text-anchor="middle" x="220.985" y="-102.0673" font-family="Arial" font-size="10.00" fill="#000000">Nucleo</text>
<polyline fill="none" stroke="#000000" points="140.485,-95.0673 301.485,-95.0673 "/>
<text text-anchor="middle" x="220.985" y="-83.0673" font-family="Arial" font-size="10.00" fill="#000000">http://PdL.com/class#PERSONA</text>
</g>
<!-- property_Nucleo&#45;&#45;class_PERSONA -->
<g id="edge22" class="edge">
<title>property_Nucleo&#45;&#45;class_PERSONA</title>
<path fill="none" stroke="#c0c0c0" stroke-dasharray="1,5" d="M182.5906,-114.2312C182.5185,-114.2672 182.4464,-114.3032 182.3743,-114.3392"/>
<polygon fill="#c0c0c0" stroke="#c0c0c0" points="182.158,-114.4472 196.0322,-97.4577 191.1058,-109.9789 200.0536,-105.5107 200.0536,-105.5107 200.0536,-105.5107 191.1058,-109.9789 204.075,-113.5637 182.158,-114.4472 182.158,-114.4472"/>
<text text-anchor="middle" x="162.4825" y="-104.6852" font-family="Arial" font-size="12.00" fill="#000000">TypeOf</text>
</g>
<!-- property_Nombre -->
<g id="node13" class="node">
<title>property_Nombre</title>
<polygon fill="#fafad2" stroke="#000000" points="148.8362,-188.8215 148.8362,-226.8215 207.8362,-226.8215 207.8362,-188.8215 148.8362,-188.8215"/>
<text text-anchor="middle" x="178.3362" y="-214.8215" font-family="Arial" font-size="10.00" fill="#000000">Nombre</text>
<polyline fill="none" stroke="#000000" points="148.8362,-207.8215 207.8362,-207.8215 "/>
<text text-anchor="middle" x="178.3362" y="-195.8215" font-family="Arial" font-size="10.00" fill="#000000">xsd:string</text>
</g>
<!-- property_Ascendientes -->
<g id="node14" class="node">
<title>property_Ascendientes</title>
<polygon fill="#fafad2" stroke="#000000" points="0,-167.1508 0,-205.1508 161,-205.1508 161,-167.1508 0,-167.1508"/>
<text text-anchor="middle" x="80.5" y="-193.1508" font-family="Arial" font-size="10.00" fill="#000000">Ascendientes</text>
<polyline fill="none" stroke="#000000" points="0,-186.1508 161,-186.1508 "/>
<text text-anchor="middle" x="80.5" y="-174.1508" font-family="Arial" font-size="10.00" fill="#000000">http://PdL.com/class#PERSONA</text>
</g>
<!-- property_Ascendientes&#45;&#45;class_PERSONA -->
<g id="edge23" class="edge">
<title>property_Ascendientes&#45;&#45;class_PERSONA</title>
<path fill="none" stroke="#c0c0c0" stroke-dasharray="1,5" d="M114.4246,-167.0457C114.5955,-166.9093 114.7665,-166.7727 114.9373,-166.6359"/>
<polygon fill="#c0c0c0" stroke="#c0c0c0" points="130.1058,-153.5966 120.8062,-173.4591 122.5226,-160.1154 114.9393,-166.6342 114.9393,-166.6342 114.9393,-166.6342 122.5226,-160.1154 109.0724,-159.8093 130.1058,-153.5966 130.1058,-153.5966"/>
<text text-anchor="middle" x="134.681" y="-157.2408" font-family="Arial" font-size="12.00" fill="#000000">TypeOf</text>
</g>
<!-- property_Designacion -->
<g id="node15" class="node">
<title>property_Designacion</title>
<polygon fill="#fafad2" stroke="#000000" points="336.9525,-133.9379 336.9525,-171.9379 408.9525,-171.9379 408.9525,-133.9379 336.9525,-133.9379"/>
<text text-anchor="middle" x="372.9525" y="-159.9379" font-family="Arial" font-size="10.00" fill="#000000">Designacion</text>
<polyline fill="none" stroke="#000000" points="336.9525,-152.9379 408.9525,-152.9379 "/>
<text text-anchor="middle" x="372.9525" y="-140.9379" font-family="Arial" font-size="10.00" fill="#000000">xsd:string</text>
</g>
<!-- property_TipoFamilia -->
<g id="node16" class="node">
<title>property_TipoFamilia</title>
<polygon fill="#fafad2" stroke="#000000" points="333.0773,-34.4137 333.0773,-72.4137 401.0773,-72.4137 401.0773,-34.4137 333.0773,-34.4137"/>
<text text-anchor="middle" x="367.0773" y="-60.4137" font-family="Arial" font-size="10.00" fill="#000000">TipoFamilia</text>
<polyline fill="none" stroke="#000000" points="333.0773,-53.4137 401.0773,-53.4137 "/>
<text text-anchor="middle" x="367.0773" y="-41.4137" font-family="Arial" font-size="10.00" fill="#000000">xsd:string</text>
</g>
<!-- class_PERSONA&#45;&#45;property_Apellidos -->
<g id="edge2" class="edge">
<title>class_PERSONA&#45;&#45;property_Apellidos</title>
<path fill="none" stroke="#c0c0c0" stroke-dasharray="5,2" d="M72.3399,-141.1638C72.252,-141.1741 72.1645,-141.1844 72.0776,-141.1946"/>
</g>
<!-- class_PERSONA&#45;&#45;property_FechaNacimiento -->
<g id="edge4" class="edge">
<title>class_PERSONA&#45;&#45;property_FechaNacimiento</title>
<path fill="none" stroke="#c0c0c0" stroke-dasharray="5,2" d="M147.3451,-154.1394C148.362,-169.9531 149.7294,-191.2151 150.7093,-206.4542"/>
</g>
<!-- class_PERSONA&#45;&#45;property_Rol -->
<g id="edge3" class="edge">
<title>class_PERSONA&#45;&#45;property_Rol</title>
<path fill="none" stroke="#c0c0c0" stroke-dasharray="5,2" d="M109.4659,-113.4072C106.8497,-112.037 104.2307,-110.6653 101.6613,-109.3197"/>
</g>
<!-- class_PERSONA&#45;&#45;property_SueldoAnual -->
<g id="edge5" class="edge">
<title>class_PERSONA&#45;&#45;property_SueldoAnual</title>
<path fill="none" stroke="#c0c0c0" stroke-dasharray="5,2" d="M133.5268,-111.2607C126.9261,-99.9709 118.8792,-86.2075 112.4825,-75.2665"/>
</g>
<!-- class_PERSONA&#45;&#45;property_Nombre -->
<g id="edge1" class="edge">
<title>class_PERSONA&#45;&#45;property_Nombre</title>
<path fill="none" stroke="#c0c0c0" stroke-dasharray="5,2" d="M155.1473,-153.8952C159.8592,-164.8528 165.5503,-178.0876 170.1152,-188.7035"/>
</g>
<!-- class_PERSONA&#45;&#45;property_Ascendientes -->
<g id="edge6" class="edge">
<title>class_PERSONA&#45;&#45;property_Ascendientes</title>
<path fill="none" stroke="#c0c0c0" stroke-dasharray="5,2" d="M111.6439,-151.9311C105.5368,-156.8173 99.5027,-162.0436 94.3758,-166.9264"/>
</g>
<!-- relationship_conoceA -->
<g id="node20" class="node">
<title>relationship_conoceA</title>
<polygon fill="#afeeee" stroke="#000000" points="232.3758,-50.0533 202.197,-68.0533 141.8393,-68.0533 111.6605,-50.0533 141.8393,-32.0533 202.197,-32.0533 232.3758,-50.0533"/>
<text text-anchor="middle" x="172.0182" y="-46.5533" font-family="Arial" font-size="15.00" fill="#000000">conoceA</text>
</g>
<!-- class_PERSONA&#45;&#45;relationship_conoceA -->
<g id="edge24" class="edge">
<title>class_PERSONA&#45;&#45;relationship_conoceA</title>
<path fill="none" stroke="#c0c0c0" stroke-dasharray="5,2" d="M159.0535,-111.392C160.7796,-107.0185 162.4966,-102.247 164.1153,-97.3594"/>
<polygon fill="#c0c0c0" stroke="#c0c0c0" points="174.2778,-100.0032 172.0581,-68.2964 154.0207,-94.467 174.2778,-100.0032"/>
<text text-anchor="middle" x="138.0844" y="-94.7757" font-family="Arial" font-size="12.00" fill="#0000ff">conoceA</text>
</g>
<!-- class_MASCOTA&#45;&#45;property_FechaNacimiento -->
<g id="edge10" class="edge">
<title>class_MASCOTA&#45;&#45;property_FechaNacimiento</title>
<path fill="none" stroke="#c0c0c0" stroke-dasharray="5,2" d="M189.6896,-240.4818C189.5377,-240.4224 189.3859,-240.3632 189.2342,-240.3039"/>
</g>
<!-- class_MASCOTA&#45;&#45;property_Tipo -->
<g id="edge7" class="edge">
<title>class_MASCOTA&#45;&#45;property_Tipo</title>
<path fill="none" stroke="#c0c0c0" stroke-dasharray="5,2" d="M251.2155,-279.1316C257.3411,-287.1253 264.2925,-296.1966 270.2828,-304.0137"/>
</g>
<!-- class_MASCOTA&#45;&#45;property_Raza -->
<g id="edge9" class="edge">
<title>class_MASCOTA&#45;&#45;property_Raza</title>
<path fill="none" stroke="#c0c0c0" stroke-dasharray="5,2" d="M228.0918,-279.4849C224.0254,-291.5782 218.9709,-306.6101 215.0284,-318.3349"/>
</g>
<!-- class_MASCOTA&#45;&#45;property_Nombre -->
<g id="edge8" class="edge">
<title>class_MASCOTA&#45;&#45;property_Nombre</title>
<path fill="none" stroke="#c0c0c0" stroke-dasharray="5,2" d="M212.087,-237.7487C208.0264,-234.1481 203.8162,-230.4148 199.8034,-226.8567"/>
</g>
<!-- class_FAMILIA -->
<g id="node19" class="node">
<title>class_FAMILIA</title>
<ellipse fill="#20b2aa" stroke="#000000" cx="303.309" cy="-105.2662" rx="66.4361" ry="21.4286"/>
<text text-anchor="middle" x="303.309" y="-100.2662" font-family="Arial" font-size="20.00" fill="#000000">FAMILIA</text>
</g>
<!-- class_FAMILIA&#45;&#45;property_Mascotas -->
<g id="edge18" class="edge">
<title>class_FAMILIA&#45;&#45;property_Mascotas</title>
<path fill="none" stroke="#c0c0c0" stroke-dasharray="5,2" d="M302.9717,-126.8918C302.7251,-142.7082 302.3934,-163.9738 302.1557,-179.2154"/>
</g>
<!-- class_FAMILIA&#45;&#45;property_Fecha -->
<g id="edge12" class="edge">
<title>class_FAMILIA&#45;&#45;property_Fecha</title>
<path fill="none" stroke="#c0c0c0" stroke-dasharray="5,2" d="M309.2742,-84.0656C313.1823,-70.1761 318.249,-52.1685 322.0384,-38.7009"/>
</g>
<!-- class_FAMILIA&#45;&#45;property_Descendientes -->
<g id="edge17" class="edge">
<title>class_FAMILIA&#45;&#45;property_Descendientes</title>
<path fill="none" stroke="#c0c0c0" stroke-dasharray="5,2" d="M256.9397,-120.5631C256.8212,-120.6022 256.7029,-120.6412 256.5847,-120.6802"/>
</g>
<!-- class_FAMILIA&#45;&#45;property_Localidad -->
<g id="edge13" class="edge">
<title>class_FAMILIA&#45;&#45;property_Localidad</title>
<path fill="none" stroke="#c0c0c0" stroke-dasharray="5,2" d="M369.9435,-104.1131C370.082,-104.1107 370.2199,-104.1083 370.3571,-104.1059"/>
</g>
<!-- class_FAMILIA&#45;&#45;property_FechaUNIX -->
<g id="edge11" class="edge">
<title>class_FAMILIA&#45;&#45;property_FechaUNIX</title>
<path fill="none" stroke="#c0c0c0" stroke-dasharray="5,2" d="M288.7918,-84.2744C281.9787,-74.4227 273.916,-62.764 267.2721,-53.1571"/>
</g>
<!-- class_FAMILIA&#45;&#45;property_Nucleo -->
<g id="edge16" class="edge">
<title>class_FAMILIA&#45;&#45;property_Nucleo</title>
<path fill="none" stroke="#c0c0c0" stroke-dasharray="5,2" d="M241.3348,-97.5884C241.2434,-97.5771 241.1522,-97.5658 241.0612,-97.5545"/>
</g>
<!-- class_FAMILIA&#45;&#45;property_Designacion -->
<g id="edge15" class="edge">
<title>class_FAMILIA&#45;&#45;property_Designacion</title>
<path fill="none" stroke="#c0c0c0" stroke-dasharray="5,2" d="M331.6357,-124.6561C336.0041,-127.6463 340.5138,-130.7333 344.8767,-133.7197"/>
</g>
<!-- class_FAMILIA&#45;&#45;property_TipoFamilia -->
<g id="edge14" class="edge">
<title>class_FAMILIA&#45;&#45;property_TipoFamilia</title>
<path fill="none" stroke="#c0c0c0" stroke-dasharray="5,2" d="M327.7811,-85.367C332.9793,-81.1401 338.4558,-76.687 343.6153,-72.4916"/>
</g>
<!-- relationship_conoceA&#45;&#45;property_FechaUNIX -->
<g id="edge19" class="edge">
<title>relationship_conoceA&#45;&#45;property_FechaUNIX</title>
<path fill="none" stroke="#c0c0c0" stroke-dasharray="5,2" d="M217.8226,-41.0973C218.5565,-40.9538 219.2883,-40.8107 220.017,-40.6682"/>
</g>
<!-- relationship_conoceA&#45;&#45;class_PERSONA -->
<g id="edge25" class="edge">
<title>relationship_conoceA&#45;&#45;class_PERSONA</title>
<path fill="none" stroke="#c0c0c0" stroke-dasharray="5,2" d="M160.104,-68.2441C158.3404,-72.5126 156.5651,-77.2641 154.8731,-82.1977"/>
<polygon fill="#c0c0c0" stroke="#c0c0c0" points="144.714,-79.5338 146.5518,-111.265 164.903,-85.3135 144.714,-79.5338"/>
<text text-anchor="middle" x="198.9885" y="-65.6209" font-family="Arial" font-size="12.00" fill="#0000ff">esConocidoPor</text>
</g>
</g>
</svg>
