<?xml version="1.0" encoding="UTF-8" standalone="no"?>
<!DOCTYPE svg PUBLIC "-//W3C//DTD SVG 1.1//EN"
 "http://www.w3.org/Graphics/SVG/1.1/DTD/svg11.dtd">
<!-- Generated by graphviz version 2.40.1 (20161225.0304)
 -->
<!-- Title: ejemplo Pages: 1 -->
<svg width="724pt" height="416pt"
 viewBox="0.00 0.00 724.00 416.13" xmlns="http://www.w3.org/2000/svg" xmlns:xlink="http://www.w3.org/1999/xlink">
<g id="graph0" class="graph" transform="scale(1 1) rotate(0) translate(4 412.132)">
<title>ejemplo</title>
<polygon fill="#ffffff" stroke="transparent" points="-4,4 -4,-412.132 719.9985,-412.132 719.9985,4 -4,4"/>
<!-- class_FamiliaUnitaria -->
<g id="node1" class="node">
<title>class_FamiliaUnitaria</title>
<ellipse fill="#20b2aa" stroke="#000000" cx="545.8736" cy="-295.4924" rx="106.1321" ry="21.4286"/>
<text text-anchor="middle" x="545.8736" y="-290.4924" font-family="Arial" font-size="20.00" fill="#000000">FamiliaUnitaria</text>
</g>
<!-- class_RelacionFamiliar -->
<g id="node6" class="node">
<title>class_RelacionFamiliar</title>
<ellipse fill="#20b2aa" stroke="#000000" cx="316.8736" cy="-204.066" rx="116.8455" ry="21.4286"/>
<text text-anchor="middle" x="316.8736" y="-199.066" font-family="Arial" font-size="20.00" fill="#000000">RelacionFamiliar</text>
</g>
<!-- class_FamiliaUnitaria&#45;&#45;class_RelacionFamiliar -->
<g id="edge3" class="edge">
<title>class_FamiliaUnitaria&#45;&#45;class_RelacionFamiliar</title>
<path fill="none" stroke="#c0c0c0" stroke-dasharray="5,2" d="M470.1347,-265.2543C435.6046,-251.4684 395.7422,-235.5537 365.3276,-223.4109"/>
<polygon fill="#c0c0c0" stroke="#c0c0c0" points="466.3916,-275.0657 498.1465,-276.4377 474.1781,-255.5626 466.3916,-275.0657"/>
<text text-anchor="middle" x="464.3736" y="-246.6792" font-family="Arial" font-size="12.00" fill="#000000">inherits</text>
</g>
<!-- class_NucleoFamiliar -->
<g id="node2" class="node">
<title>class_NucleoFamiliar</title>
<ellipse fill="#20b2aa" stroke="#000000" cx="447.8736" cy="-386.9188" rx="106.1321" ry="21.4286"/>
<text text-anchor="middle" x="447.8736" y="-381.9188" font-family="Arial" font-size="20.00" fill="#000000">NucleoFamiliar</text>
</g>
<!-- class_NucleoFamiliar&#45;&#45;class_FamiliaUnitaria -->
<g id="edge4" class="edge">
<title>class_NucleoFamiliar&#45;&#45;class_FamiliaUnitaria</title>
<path fill="none" stroke="#c0c0c0" stroke-dasharray="5,2" d="M492.359,-345.4174C503.1059,-335.3914 514.145,-325.0928 523.3847,-316.4729"/>
<polygon fill="#c0c0c0" stroke="#c0c0c0" points="484.8849,-338.0303 470.1113,-366.1728 499.2102,-353.3857 484.8849,-338.0303"/>
<text text-anchor="middle" x="521.3736" y="-338.1056" font-family="Arial" font-size="12.00" fill="#000000">inherits</text>
</g>
<!-- class_Ascendientes -->
<g id="node3" class="node">
<title>class_Ascendientes</title>
<ellipse fill="#20b2aa" stroke="#000000" cx="96.8736" cy="-295.4924" rx="96.7474" ry="21.4286"/>
<text text-anchor="middle" x="96.8736" y="-290.4924" font-family="Arial" font-size="20.00" fill="#000000">Ascendientes</text>
</g>
<!-- class_Ascendientes&#45;&#45;class_RelacionFamiliar -->
<g id="edge5" class="edge">
<title>class_Ascendientes&#45;&#45;class_RelacionFamiliar</title>
<path fill="none" stroke="#c0c0c0" stroke-dasharray="5,2" d="M170.1076,-265.0583C203.0858,-251.3533 241.046,-235.5781 270.0979,-223.5048"/>
<polygon fill="#c0c0c0" stroke="#c0c0c0" points="165.8646,-255.4509 142.191,-276.6597 173.9235,-274.843 165.8646,-255.4509"/>
<text text-anchor="middle" x="239.3736" y="-246.6792" font-family="Arial" font-size="12.00" fill="#000000">inherits</text>
</g>
<!-- class_Descendientes -->
<g id="node4" class="node">
<title>class_Descendientes</title>
<ellipse fill="#20b2aa" stroke="#000000" cx="316.8736" cy="-295.4924" rx="105.218" ry="21.4286"/>
<text text-anchor="middle" x="316.8736" y="-290.4924" font-family="Arial" font-size="20.00" fill="#000000">Descendientes</text>
</g>
<!-- class_Descendientes&#45;&#45;class_RelacionFamiliar -->
<g id="edge6" class="edge">
<title>class_Descendientes&#45;&#45;class_RelacionFamiliar</title>
<path fill="none" stroke="#c0c0c0" stroke-dasharray="5,2" d="M316.8736,-243.7825C316.8736,-237.3835 316.8736,-231.144 316.8736,-225.5773"/>
<polygon fill="#c0c0c0" stroke="#c0c0c0" points="306.3737,-243.8256 316.8736,-273.8256 327.3737,-243.8257 306.3737,-243.8256"/>
<text text-anchor="middle" x="336.3736" y="-246.6792" font-family="Arial" font-size="12.00" fill="#000000">inherits</text>
</g>
<!-- class_PropiedadesPlantilla -->
<g id="node5" class="node">
<title>class_PropiedadesPlantilla</title>
<ellipse fill="#20b2aa" stroke="#000000" cx="316.8736" cy="-21.2132" rx="140.9288" ry="21.4286"/>
<text text-anchor="middle" x="316.8736" y="-16.2132" font-family="Arial" font-size="20.00" fill="#000000">PropiedadesPlantilla</text>
</g>
<!-- class_Ambito -->
<g id="node8" class="node">
<title>class_Ambito</title>
<ellipse fill="#20b2aa" stroke="#000000" cx="316.8736" cy="-112.6396" rx="55.7232" ry="21.4286"/>
<text text-anchor="middle" x="316.8736" y="-107.6396" font-family="Arial" font-size="20.00" fill="#000000">Ambito</text>
</g>
<!-- class_RelacionFamiliar&#45;&#45;class_Ambito -->
<g id="edge2" class="edge">
<title>class_RelacionFamiliar&#45;&#45;class_Ambito</title>
<path fill="none" stroke="#c0c0c0" stroke-dasharray="5,2" d="M316.8736,-152.3561C316.8736,-145.957 316.8736,-139.7175 316.8736,-134.1509"/>
<polygon fill="#c0c0c0" stroke="#c0c0c0" points="306.3737,-152.3992 316.8736,-182.3992 327.3737,-152.3993 306.3737,-152.3992"/>
<text text-anchor="middle" x="336.3736" y="-155.2528" font-family="Arial" font-size="12.00" fill="#000000">inherits</text>
</g>
<!-- class_Mascotas -->
<g id="node7" class="node">
<title>class_Mascotas</title>
<ellipse fill="#20b2aa" stroke="#000000" cx="643.8736" cy="-386.9188" rx="72.25" ry="21.4286"/>
<text text-anchor="middle" x="643.8736" y="-381.9188" font-family="Arial" font-size="20.00" fill="#000000">Mascotas</text>
</g>
<!-- class_Mascotas&#45;&#45;class_FamiliaUnitaria -->
<g id="edge7" class="edge">
<title>class_Mascotas&#45;&#45;class_FamiliaUnitaria</title>
<path fill="none" stroke="#c0c0c0" stroke-dasharray="5,2" d="M600.1004,-346.0818C589.0833,-335.8037 577.7097,-325.193 568.2416,-316.36"/>
<polygon fill="#c0c0c0" stroke="#c0c0c0" points="593.0254,-353.8412 622.1243,-366.6283 607.3507,-338.4859 593.0254,-353.8412"/>
<text text-anchor="middle" x="619.3736" y="-338.1056" font-family="Arial" font-size="12.00" fill="#000000">inherits</text>
</g>
<!-- class_Ambito&#45;&#45;class_PropiedadesPlantilla -->
<g id="edge1" class="edge">
<title>class_Ambito&#45;&#45;class_PropiedadesPlantilla</title>
<path fill="none" stroke="#c0c0c0" stroke-dasharray="5,2" d="M316.8736,-60.9297C316.8736,-54.5306 316.8736,-48.2911 316.8736,-42.7245"/>
<polygon fill="#c0c0c0" stroke="#c0c0c0" points="306.3737,-60.9728 316.8736,-90.9728 327.3737,-60.9729 306.3737,-60.9728"/>
<text text-anchor="middle" x="336.3736" y="-63.8264" font-family="Arial" font-size="12.00" fill="#000000">inherits</text>
</g>
</g>
</svg>
