<?xml version="1.0" encoding="UTF-8" standalone="no"?>
<!DOCTYPE svg PUBLIC "-//W3C//DTD SVG 1.1//EN"
 "http://www.w3.org/Graphics/SVG/1.1/DTD/svg11.dtd">
<!-- Generated by graphviz version 2.40.1 (20161225.0304)
 -->
<!-- Title: ejemplo Pages: 1 -->
<svg width="676pt" height="425pt"
 viewBox="0.00 0.00 675.97 425.43" xmlns="http://www.w3.org/2000/svg" xmlns:xlink="http://www.w3.org/1999/xlink">
<g id="graph0" class="graph" transform="scale(1 1) rotate(0) translate(4 421.431)">
<title>ejemplo</title>
<polygon fill="#ffffff" stroke="transparent" points="-4,4 -4,-421.431 671.9707,-421.431 671.9707,4 -4,4"/>
<!-- property_Apellidos -->
<g id="node1" class="node">
<title>property_Apellidos</title>
<polygon fill="#fafad2" stroke="#000000" points="29.6394,-248.5872 29.6394,-286.5872 88.6394,-286.5872 88.6394,-248.5872 29.6394,-248.5872"/>
<text text-anchor="middle" x="59.1394" y="-274.5872" font-family="Arial" font-size="10.00" fill="#000000">Apellidos</text>
<polyline fill="none" stroke="#000000" points="29.6394,-267.5872 88.6394,-267.5872 "/>
<text text-anchor="middle" x="59.1394" y="-255.5872" font-family="Arial" font-size="10.00" fill="#000000">xsd:string</text>
</g>
<!-- property_Mascotas -->
<g id="node2" class="node">
<title>property_Mascotas</title>
<polygon fill="#fafad2" stroke="#000000" points="280,-304.8962 280,-342.8962 442,-342.8962 442,-304.8962 280,-304.8962"/>
<text text-anchor="middle" x="361" y="-330.8962" font-family="Arial" font-size="10.00" fill="#000000">Mascotas</text>
<polyline fill="none" stroke="#000000" points="280,-323.8962 442,-323.8962 "/>
<text text-anchor="middle" x="361" y="-311.8962" font-family="Arial" font-size="10.00" fill="#000000">http://PdL.com/class#MASCOTA</text>
</g>
<!-- property_Fecha -->
<g id="node3" class="node">
<title>property_Fecha</title>
<polygon fill="#fafad2" stroke="#000000" points="472.5215,-352.2496 472.5215,-390.2496 531.5215,-390.2496 531.5215,-352.2496 472.5215,-352.2496"/>
<text text-anchor="middle" x="502.0215" y="-378.2496" font-family="Arial" font-size="10.00" fill="#000000">Fecha</text>
<polyline fill="none" stroke="#000000" points="472.5215,-371.2496 531.5215,-371.2496 "/>
<text text-anchor="middle" x="502.0215" y="-359.2496" font-family="Arial" font-size="10.00" fill="#000000">xsd:string</text>
</g>
<!-- property_FechaNacimiento -->
<g id="node4" class="node">
<title>property_FechaNacimiento</title>
<polygon fill="#fafad2" stroke="#000000" points="105.2347,-132.5163 105.2347,-170.5163 199.2347,-170.5163 199.2347,-132.5163 105.2347,-132.5163"/>
<text text-anchor="middle" x="152.2347" y="-158.5163" font-family="Arial" font-size="10.00" fill="#000000">FechaNacimiento</text>
<polyline fill="none" stroke="#000000" points="105.2347,-151.5163 199.2347,-151.5163 "/>
<text text-anchor="middle" x="152.2347" y="-139.5163" font-family="Arial" font-size="10.00" fill="#000000">xsd:string</text>
</g>
<!-- property_Tipo -->
<g id="node5" class="node">
<title>property_Tipo</title>
<polygon fill="#fafad2" stroke="#000000" points="110.3584,-.5 110.3584,-38.5 169.3584,-38.5 169.3584,-.5 110.3584,-.5"/>
<text text-anchor="middle" x="139.8584" y="-26.5" font-family="Arial" font-size="10.00" fill="#000000">Tipo</text>
<polyline fill="none" stroke="#000000" points="110.3584,-19.5 169.3584,-19.5 "/>
<text text-anchor="middle" x="139.8584" y="-7.5" font-family="Arial" font-size="10.00" fill="#000000">xsd:string</text>
</g>
<!-- property_Descendientes -->
<g id="node6" class="node">
<title>property_Descendientes</title>
<polygon fill="#fafad2" stroke="#000000" points="345.0355,-210.5 345.0355,-248.5 506.0355,-248.5 506.0355,-210.5 345.0355,-210.5"/>
<text text-anchor="middle" x="425.5355" y="-236.5" font-family="Arial" font-size="10.00" fill="#000000">Descendientes</text>
<polyline fill="none" stroke="#000000" points="345.0355,-229.5 506.0355,-229.5 "/>
<text text-anchor="middle" x="425.5355" y="-217.5" font-family="Arial" font-size="10.00" fill="#000000">http://PdL.com/class#PERSONA</text>
</g>
<!-- property_Raza -->
<g id="node7" class="node">
<title>property_Raza</title>
<polygon fill="#fafad2" stroke="#000000" points="0,-31.5554 0,-69.5554 59,-69.5554 59,-31.5554 0,-31.5554"/>
<text text-anchor="middle" x="29.5" y="-57.5554" font-family="Arial" font-size="10.00" fill="#000000">Raza</text>
<polyline fill="none" stroke="#000000" points="0,-50.5554 59,-50.5554 "/>
<text text-anchor="middle" x="29.5" y="-38.5554" font-family="Arial" font-size="10.00" fill="#000000">xsd:string</text>
</g>
<!-- property_Localidad -->
<g id="node8" class="node">
<title>property_Localidad</title>
<polygon fill="#fafad2" stroke="#000000" points="419.2134,-378.931 419.2134,-416.931 478.2134,-416.931 478.2134,-378.931 419.2134,-378.931"/>
<text text-anchor="middle" x="448.7134" y="-404.931" font-family="Arial" font-size="10.00" fill="#000000">Localidad</text>
<polyline fill="none" stroke="#000000" points="419.2134,-397.931 478.2134,-397.931 "/>
<text text-anchor="middle" x="448.7134" y="-385.931" font-family="Arial" font-size="10.00" fill="#000000">xsd:string</text>
</g>
<!-- property_Rol -->
<g id="node9" class="node">
<title>property_Rol</title>
<polygon fill="#fafad2" stroke="#000000" points="163.1125,-275.2623 163.1125,-313.2623 222.1125,-313.2623 222.1125,-275.2623 163.1125,-275.2623"/>
<text text-anchor="middle" x="192.6125" y="-301.2623" font-family="Arial" font-size="10.00" fill="#000000">Rol</text>
<polyline fill="none" stroke="#000000" points="163.1125,-294.2623 222.1125,-294.2623 "/>
<text text-anchor="middle" x="192.6125" y="-282.2623" font-family="Arial" font-size="10.00" fill="#000000">xsd:string</text>
</g>
<!-- property_SueldoAnual -->
<g id="node10" class="node">
<title>property_SueldoAnual</title>
<polygon fill="#fafad2" stroke="#000000" points="80.1112,-293.711 80.1112,-331.711 153.1112,-331.711 153.1112,-293.711 80.1112,-293.711"/>
<text text-anchor="middle" x="116.6112" y="-319.711" font-family="Arial" font-size="10.00" fill="#000000">SueldoAnual</text>
<polyline fill="none" stroke="#000000" points="80.1112,-312.711 153.1112,-312.711 "/>
<text text-anchor="middle" x="116.6112" y="-300.711" font-family="Arial" font-size="10.00" fill="#000000">xsd:integer</text>
</g>
<!-- property_FechaUNIX -->
<g id="node11" class="node">
<title>property_FechaUNIX</title>
<polygon fill="#fafad2" stroke="#000000" points="497.3083,-281.7647 497.3083,-319.7647 565.3083,-319.7647 565.3083,-281.7647 497.3083,-281.7647"/>
<text text-anchor="middle" x="531.3083" y="-307.7647" font-family="Arial" font-size="10.00" fill="#000000">FechaUNIX</text>
<polyline fill="none" stroke="#000000" points="497.3083,-300.7647 565.3083,-300.7647 "/>
<text text-anchor="middle" x="531.3083" y="-288.7647" font-family="Arial" font-size="10.00" fill="#000000">xsd:integer</text>
</g>
<!-- property_Nucleo -->
<g id="node12" class="node">
<title>property_Nucleo</title>
<polygon fill="#fafad2" stroke="#000000" points="310.297,-359.0837 310.297,-397.0837 471.297,-397.0837 471.297,-359.0837 310.297,-359.0837"/>
<text text-anchor="middle" x="390.797" y="-385.0837" font-family="Arial" font-size="10.00" fill="#000000">Nucleo</text>
<polyline fill="none" stroke="#000000" points="310.297,-378.0837 471.297,-378.0837 "/>
<text text-anchor="middle" x="390.797" y="-366.0837" font-family="Arial" font-size="10.00" fill="#000000">http://PdL.com/class#PERSONA</text>
</g>
<!-- property_Nombre -->
<g id="node13" class="node">
<title>property_Nombre</title>
<polygon fill="#fafad2" stroke="#000000" points="57.1058,-149.5824 57.1058,-187.5824 116.1058,-187.5824 116.1058,-149.5824 57.1058,-149.5824"/>
<text text-anchor="middle" x="86.6058" y="-175.5824" font-family="Arial" font-size="10.00" fill="#000000">Nombre</text>
<polyline fill="none" stroke="#000000" points="57.1058,-168.5824 116.1058,-168.5824 "/>
<text text-anchor="middle" x="86.6058" y="-156.5824" font-family="Arial" font-size="10.00" fill="#000000">xsd:string</text>
</g>
<!-- property_Ascendientes -->
<g id="node14" class="node">
<title>property_Ascendientes</title>
<polygon fill="#fafad2" stroke="#000000" points="142.7648,-208.0768 142.7648,-246.0768 303.7648,-246.0768 303.7648,-208.0768 142.7648,-208.0768"/>
<text text-anchor="middle" x="223.2648" y="-234.0768" font-family="Arial" font-size="10.00" fill="#000000">Ascendientes</text>
<polyline fill="none" stroke="#000000" points="142.7648,-227.0768 303.7648,-227.0768 "/>
<text text-anchor="middle" x="223.2648" y="-215.0768" font-family="Arial" font-size="10.00" fill="#000000">http://PdL.com/class#PERSONA</text>
</g>
<!-- property_Designacion -->
<g id="node15" class="node">
<title>property_Designacion</title>
<polygon fill="#fafad2" stroke="#000000" points="339.3447,-244.9437 339.3447,-282.9437 411.3447,-282.9437 411.3447,-244.9437 339.3447,-244.9437"/>
<text text-anchor="middle" x="375.3447" y="-270.9437" font-family="Arial" font-size="10.00" fill="#000000">Designacion</text>
<polyline fill="none" stroke="#000000" points="339.3447,-263.9437 411.3447,-263.9437 "/>
<text text-anchor="middle" x="375.3447" y="-251.9437" font-family="Arial" font-size="10.00" fill="#000000">xsd:string</text>
</g>
<!-- property_TipoFamilia -->
<g id="node16" class="node">
<title>property_TipoFamilia</title>
<polygon fill="#fafad2" stroke="#000000" points="449.4707,-223.0564 449.4707,-261.0564 517.4707,-261.0564 517.4707,-223.0564 449.4707,-223.0564"/>
<text text-anchor="middle" x="483.4707" y="-249.0564" font-family="Arial" font-size="10.00" fill="#000000">TipoFamilia</text>
<polyline fill="none" stroke="#000000" points="449.4707,-242.0564 517.4707,-242.0564 "/>
<text text-anchor="middle" x="483.4707" y="-230.0564" font-family="Arial" font-size="10.00" fill="#000000">xsd:string</text>
</g>
<!-- class_PERSONA -->
<g id="node17" class="node">
<title>class_PERSONA</title>
<ellipse fill="#20b2aa" stroke="#000000" cx="137.9375" cy="-233.8062" rx="80.7205" ry="21.4286"/>
<text text-anchor="middle" x="137.9375" y="-228.8062" font-family="Arial" font-size="20.00" fill="#000000">PERSONA</text>
</g>
<!-- class_PERSONA&#45;&#45;property_Apellidos -->
<g id="edge2" class="edge">
<title>class_PERSONA&#45;&#45;property_Apellidos</title>
<path fill="none" stroke="#000000" stroke-dasharray="5,2" d="M95.3097,-252.0809C93.1339,-253.0137 90.9714,-253.9407 88.8488,-254.8507"/>
</g>
<!-- class_PERSONA&#45;&#45;property_FechaNacimiento -->
<g id="edge4" class="edge">
<title>class_PERSONA&#45;&#45;property_FechaNacimiento</title>
<path fill="none" stroke="#000000" stroke-dasharray="5,2" d="M141.6194,-212.6145C143.8698,-199.6616 146.7251,-183.2276 148.9075,-170.6669"/>
</g>
<!-- class_PERSONA&#45;&#45;property_Rol -->
<g id="edge3" class="edge">
<title>class_PERSONA&#45;&#45;property_Rol</title>
<path fill="none" stroke="#000000" stroke-dasharray="5,2" d="M156.7535,-254.6118C162.8079,-261.3063 169.4819,-268.686 175.4138,-275.2451"/>
</g>
<!-- class_PERSONA&#45;&#45;property_SueldoAnual -->
<g id="edge5" class="edge">
<title>class_PERSONA&#45;&#45;property_SueldoAnual</title>
<path fill="none" stroke="#000000" stroke-dasharray="5,2" d="M132.11,-255.3673C128.8788,-267.3222 124.8961,-282.0578 121.7771,-293.5978"/>
</g>
<!-- class_PERSONA&#45;&#45;property_Nombre -->
<g id="edge1" class="edge">
<title>class_PERSONA&#45;&#45;property_Nombre</title>
<path fill="none" stroke="#000000" stroke-dasharray="5,2" d="M121.4132,-212.81C115.0826,-204.7661 107.8985,-195.6377 101.7077,-187.7715"/>
</g>
<!-- class_PERSONA&#45;&#45;property_Ascendientes -->
<g id="edge6" class="edge">
<title>class_PERSONA&#45;&#45;property_Ascendientes</title>
<path fill="none" stroke="#000000" stroke-dasharray="5,2" d="M215.3904,-227.6978C215.5427,-227.6858 215.6932,-227.6739 215.8418,-227.6622"/>
</g>
<!-- class_MASCOTA -->
<g id="node18" class="node">
<title>class_MASCOTA</title>
<ellipse fill="#20b2aa" stroke="#000000" cx="100.3793" cy="-89.5302" rx="81.135" ry="21.4286"/>
<text text-anchor="middle" x="100.3793" y="-84.5302" font-family="Arial" font-size="20.00" fill="#000000">MASCOTA</text>
</g>
<!-- class_MASCOTA&#45;&#45;property_FechaNacimiento -->
<g id="edge10" class="edge">
<title>class_MASCOTA&#45;&#45;property_FechaNacimiento</title>
<path fill="none" stroke="#000000" stroke-dasharray="5,2" d="M117.9352,-110.5158C123.8116,-117.5403 130.3308,-125.3331 136.0939,-132.2221"/>
</g>
<!-- class_MASCOTA&#45;&#45;property_Tipo -->
<g id="edge7" class="edge">
<title>class_MASCOTA&#45;&#45;property_Tipo</title>
<path fill="none" stroke="#000000" stroke-dasharray="5,2" d="M112.2244,-68.5188C117.5845,-59.0107 123.8745,-47.8531 129.0983,-38.5869"/>
</g>
<!-- class_MASCOTA&#45;&#45;property_Raza -->
<g id="edge9" class="edge">
<title>class_MASCOTA&#45;&#45;property_Raza</title>
<path fill="none" stroke="#000000" stroke-dasharray="5,2" d="M65.355,-70.2712C63.2623,-69.1205 61.1678,-67.9687 59.1005,-66.832"/>
</g>
<!-- class_MASCOTA&#45;&#45;property_Nombre -->
<g id="edge8" class="edge">
<title>class_MASCOTA&#45;&#45;property_Nombre</title>
<path fill="none" stroke="#000000" stroke-dasharray="5,2" d="M96.6157,-111.1315C94.5288,-123.1088 91.9566,-137.8719 89.9422,-149.4335"/>
</g>
<!-- class_FAMILIA -->
<g id="node19" class="node">
<title>class_FAMILIA</title>
<ellipse fill="#20b2aa" stroke="#000000" cx="444.3703" cy="-312.9253" rx="66.4361" ry="21.4286"/>
<text text-anchor="middle" x="444.3703" y="-307.9253" font-family="Arial" font-size="20.00" fill="#000000">FAMILIA</text>
</g>
<!-- class_FAMILIA&#45;&#45;property_Mascotas -->
<g id="edge18" class="edge">
<title>class_FAMILIA&#45;&#45;property_Mascotas</title>
<path fill="none" stroke="#000000" stroke-dasharray="5,2" d="M382.9046,-321.0137C382.8069,-321.0266 382.7095,-321.0394 382.6123,-321.0522"/>
</g>
<!-- class_FAMILIA&#45;&#45;property_Fecha -->
<g id="edge12" class="edge">
<title>class_FAMILIA&#45;&#45;property_Fecha</title>
<path fill="none" stroke="#000000" stroke-dasharray="5,2" d="M464.5339,-333.3243C470.5085,-339.3687 477.0304,-345.9667 482.9346,-351.9398"/>
</g>
<!-- class_FAMILIA&#45;&#45;property_Descendientes -->
<g id="edge17" class="edge">
<title>class_FAMILIA&#45;&#45;property_Descendientes</title>
<path fill="none" stroke="#000000" stroke-dasharray="5,2" d="M439.5199,-291.4412C436.5334,-278.213 432.7384,-261.4037 429.8555,-248.6345"/>
</g>
<!-- class_FAMILIA&#45;&#45;property_Localidad -->
<g id="edge13" class="edge">
<title>class_FAMILIA&#45;&#45;property_Localidad</title>
<path fill="none" stroke="#000000" stroke-dasharray="5,2" d="M445.4663,-334.3758C446.1648,-348.049 447.0621,-365.611 447.7363,-378.8077"/>
</g>
<!-- class_FAMILIA&#45;&#45;property_FechaUNIX -->
<g id="edge11" class="edge">
<title>class_FAMILIA&#45;&#45;property_FechaUNIX</title>
<path fill="none" stroke="#000000" stroke-dasharray="5,2" d="M505.6942,-304.3475C505.8066,-304.3318 505.9188,-304.3161 506.0308,-304.3004"/>
</g>
<!-- class_FAMILIA&#45;&#45;property_Nucleo -->
<g id="edge16" class="edge">
<title>class_FAMILIA&#45;&#45;property_Nucleo</title>
<path fill="none" stroke="#000000" stroke-dasharray="5,2" d="M427.4194,-333.5418C420.7979,-341.5952 413.2453,-350.781 406.7257,-358.7105"/>
</g>
<!-- class_FAMILIA&#45;&#45;property_Designacion -->
<g id="edge15" class="edge">
<title>class_FAMILIA&#45;&#45;property_Designacion</title>
<path fill="none" stroke="#000000" stroke-dasharray="5,2" d="M417.0896,-293.5665C412.2661,-290.1437 407.2453,-286.5809 402.4274,-283.1619"/>
</g>
<!-- class_FAMILIA&#45;&#45;property_TipoFamilia -->
<g id="edge14" class="edge">
<title>class_FAMILIA&#45;&#45;property_TipoFamilia</title>
<path fill="none" stroke="#000000" stroke-dasharray="5,2" d="M456.1017,-291.6623C461.4105,-282.0403 467.6401,-270.7491 472.8138,-261.3719"/>
</g>
<!-- relationship_conoceA -->
<g id="node20" class="node">
<title>relationship_conoceA</title>
<polygon fill="#afeeee" stroke="#000000" points="668.1498,-281.868 637.971,-299.868 577.6133,-299.868 547.4345,-281.868 577.6133,-263.868 637.971,-263.868 668.1498,-281.868"/>
<text text-anchor="middle" x="607.7922" y="-278.368" font-family="Arial" font-size="15.00" fill="#000000">conoceA</text>
</g>
<!-- relationship_conoceA&#45;&#45;property_FechaUNIX -->
<g id="edge19" class="edge">
<title>relationship_conoceA&#45;&#45;property_FechaUNIX</title>
<path fill="none" stroke="#000000" stroke-dasharray="5,2" d="M565.0778,-292.4213C564.941,-292.4551 564.8042,-292.4889 564.6675,-292.5227"/>
</g>
</g>
</svg>
