<?xml version="1.0" encoding="UTF-8" standalone="no"?>
<!DOCTYPE svg PUBLIC "-//W3C//DTD SVG 1.1//EN"
 "http://www.w3.org/Graphics/SVG/1.1/DTD/svg11.dtd">
<!-- Generated by graphviz version 2.40.1 (20161225.0304)
 -->
<!-- Title: characteristics Pages: 1 -->
<svg width="2198pt" height="309pt"
 viewBox="0.00 0.00 2198.16 309.28" xmlns="http://www.w3.org/2000/svg" xmlns:xlink="http://www.w3.org/1999/xlink">
<g id="graph0" class="graph" transform="scale(1 1) rotate(0) translate(4 305.2792)">
<title>characteristics</title>
<polygon fill="#ffffff" stroke="transparent" points="-4,4 -4,-305.2792 2194.1624,-305.2792 2194.1624,4 -4,4"/>
<!-- property_SueldoAnual -->
<g id="node1" class="node">
<title>property_SueldoAnual</title>
<polygon fill="#fafad2" stroke="#000000" points="967.3745,-.5 967.3745,-38.5 1040.3745,-38.5 1040.3745,-.5 967.3745,-.5"/>
<text text-anchor="middle" x="1003.8745" y="-26.5" font-family="Arial" font-size="10.00" fill="#000000">SueldoAnual</text>
<polyline fill="none" stroke="#000000" points="967.3745,-19.5 1040.3745,-19.5 "/>
<text text-anchor="middle" x="1003.8745" y="-7.5" font-family="Arial" font-size="10.00" fill="#000000">xsd:integer</text>
</g>
<!-- class_Palabra -->
<g id="node2" class="node">
<title>class_Palabra</title>
<ellipse fill="#20b2aa" stroke="#000000" cx="1111.8745" cy="-97.2132" rx="60.2083" ry="21.4286"/>
<text text-anchor="middle" x="1111.8745" y="-92.2132" font-family="Arial" font-size="20.00" fill="#000000">Palabra</text>
</g>
<!-- class_Palabra&#45;&#45;property_SueldoAnual -->
<g id="edge18" class="edge">
<title>class_Palabra&#45;&#45;property_SueldoAnual</title>
<path fill="none" stroke="#00ff00" stroke-dasharray="5,2" d="M1085.1779,-78.0032C1068.5623,-66.0472 1047.2665,-50.7234 1030.6383,-38.7584"/>
</g>
<!-- class_Cronológico -->
<g id="node3" class="node">
<title>class_Cronológico</title>
<ellipse fill="#20b2aa" stroke="#000000" cx="1702.8745" cy="-97.2132" rx="86.9483" ry="21.4286"/>
<text text-anchor="middle" x="1702.8745" y="-92.2132" font-family="Arial" font-size="20.00" fill="#000000">Cronológico</text>
</g>
<!-- class_Cronológico&#45;&#45;property_SueldoAnual -->
<g id="edge12" class="edge">
<title>class_Cronológico&#45;&#45;property_SueldoAnual</title>
<path fill="none" stroke="#00ff00" stroke-dasharray="5,2" d="M1663.5002,-78.1699C1645.1929,-70.2012 1622.8681,-61.7115 1601.8745,-57 1494.0322,-32.7973 1153.1852,-22.9362 1040.4643,-20.2838"/>
</g>
<!-- class_Presente -->
<g id="node4" class="node">
<title>class_Presente</title>
<ellipse fill="#20b2aa" stroke="#000000" cx="521.8745" cy="-97.2132" rx="68.6788" ry="21.4286"/>
<text text-anchor="middle" x="521.8745" y="-92.2132" font-family="Arial" font-size="20.00" fill="#000000">Presente</text>
</g>
<!-- class_Presente&#45;&#45;property_SueldoAnual -->
<g id="edge9" class="edge">
<title>class_Presente&#45;&#45;property_SueldoAnual</title>
<path fill="none" stroke="#00ff00" stroke-dasharray="5,2" d="M572.0005,-82.5774C581.2218,-80.1716 590.8012,-77.8605 599.8745,-76 733.9475,-48.5084 895.8203,-30.3263 967.1205,-23.0645"/>
</g>
<!-- class_Anticipativo -->
<g id="node5" class="node">
<title>class_Anticipativo</title>
<ellipse fill="#20b2aa" stroke="#000000" cx="1891.8745" cy="-97.2132" rx="84.2917" ry="21.4286"/>
<text text-anchor="middle" x="1891.8745" y="-92.2132" font-family="Arial" font-size="20.00" fill="#000000">Anticipativo</text>
</g>
<!-- class_Anticipativo&#45;&#45;property_SueldoAnual -->
<g id="edge14" class="edge">
<title>class_Anticipativo&#45;&#45;property_SueldoAnual</title>
<path fill="none" stroke="#00ff00" stroke-dasharray="5,2" d="M1831.5511,-82.3456C1820.7166,-79.9923 1809.4942,-77.7589 1798.8745,-76 1718.6392,-62.7106 1697.926,-63.7067 1616.8745,-57 1398.5115,-38.9312 1135.717,-25.7069 1040.5337,-21.1927"/>
</g>
<!-- class_Idioma -->
<g id="node6" class="node">
<title>class_Idioma</title>
<ellipse fill="#20b2aa" stroke="#000000" cx="203.8745" cy="-188.6396" rx="54.3945" ry="21.4286"/>
<text text-anchor="middle" x="203.8745" y="-183.6396" font-family="Arial" font-size="20.00" fill="#000000">Idioma</text>
</g>
<!-- class_Idioma&#45;&#45;property_SueldoAnual -->
<g id="edge2" class="edge">
<title>class_Idioma&#45;&#45;property_SueldoAnual</title>
<path fill="none" stroke="#00ff00" stroke-dasharray="5,2" d="M156.8751,-177.7624C90.9372,-160.4794 -16.1972,-123.7592 28.8745,-76 61.6955,-41.222 794.0175,-23.8593 967.3388,-20.2287"/>
</g>
<!-- class_Ingles -->
<g id="node11" class="node">
<title>class_Ingles</title>
<ellipse fill="#20b2aa" stroke="#000000" cx="86.8745" cy="-97.2132" rx="49.4949" ry="21.4286"/>
<text text-anchor="middle" x="86.8745" y="-92.2132" font-family="Arial" font-size="20.00" fill="#000000">Ingles</text>
</g>
<!-- class_Idioma&#45;&#45;class_Ingles -->
<g id="edge21" class="edge">
<title>class_Idioma&#45;&#45;class_Ingles</title>
<path fill="none" stroke="#000000" stroke-dasharray="5,2" d="M155.5464,-150.875C140.1805,-138.8677 123.8485,-126.1055 110.9685,-116.0408"/>
<polygon fill="#000000" stroke="#000000" points="149.2436,-159.2753 179.3475,-169.4736 162.1739,-142.7282 149.2436,-159.2753"/>
<text text-anchor="middle" x="172.3745" y="-139.8264" font-family="Arial" font-size="12.00" fill="#000000">inherits</text>
</g>
<!-- class_Arabe -->
<g id="node15" class="node">
<title>class_Arabe</title>
<ellipse fill="#20b2aa" stroke="#000000" cx="203.8745" cy="-97.2132" rx="49.4949" ry="21.4286"/>
<text text-anchor="middle" x="203.8745" y="-92.2132" font-family="Arial" font-size="20.00" fill="#000000">Arabe</text>
</g>
<!-- class_Idioma&#45;&#45;class_Arabe -->
<g id="edge22" class="edge">
<title>class_Idioma&#45;&#45;class_Arabe</title>
<path fill="none" stroke="#000000" stroke-dasharray="5,2" d="M203.8745,-136.9297C203.8745,-130.5306 203.8745,-124.2911 203.8745,-118.7245"/>
<polygon fill="#000000" stroke="#000000" points="193.3746,-136.9728 203.8745,-166.9728 214.3746,-136.9729 193.3746,-136.9728"/>
<text text-anchor="middle" x="223.3745" y="-139.8264" font-family="Arial" font-size="12.00" fill="#000000">inherits</text>
</g>
<!-- class_Espanol -->
<g id="node16" class="node">
<title>class_Espanol</title>
<ellipse fill="#20b2aa" stroke="#000000" cx="333.8745" cy="-97.2132" rx="62.8651" ry="21.4286"/>
<text text-anchor="middle" x="333.8745" y="-92.2132" font-family="Arial" font-size="20.00" fill="#000000">Espanol</text>
</g>
<!-- class_Idioma&#45;&#45;class_Espanol -->
<g id="edge20" class="edge">
<title>class_Idioma&#45;&#45;class_Espanol</title>
<path fill="none" stroke="#000000" stroke-dasharray="5,2" d="M255.245,-152.5118C272.704,-140.2332 291.5366,-126.9886 306.393,-116.5404"/>
<polygon fill="#000000" stroke="#000000" points="248.9945,-144.0709 230.4957,-169.9175 261.075,-161.2483 248.9945,-144.0709"/>
<text text-anchor="middle" x="296.3745" y="-139.8264" font-family="Arial" font-size="12.00" fill="#000000">inherits</text>
</g>
<!-- class_TiempoVerbal -->
<g id="node7" class="node">
<title>class_TiempoVerbal</title>
<ellipse fill="#20b2aa" stroke="#000000" cx="626.8745" cy="-188.6396" rx="99.9045" ry="21.4286"/>
<text text-anchor="middle" x="626.8745" y="-183.6396" font-family="Arial" font-size="20.00" fill="#000000">TiempoVerbal</text>
</g>
<!-- class_TiempoVerbal&#45;&#45;property_SueldoAnual -->
<g id="edge3" class="edge">
<title>class_TiempoVerbal&#45;&#45;property_SueldoAnual</title>
<path fill="none" stroke="#00ff00" stroke-dasharray="5,2" d="M557.9854,-173.2854C490.2796,-155.1519 402.6526,-121.5902 443.8745,-76 479.0181,-37.1323 848.4227,-23.7319 967.2671,-20.4087"/>
</g>
<!-- class_TiempoVerbal&#45;&#45;class_Presente -->
<g id="edge24" class="edge">
<title>class_TiempoVerbal&#45;&#45;class_Presente</title>
<path fill="none" stroke="#000000" stroke-dasharray="5,2" d="M580.1048,-147.916C567.8874,-137.2778 555.2509,-126.2749 544.8848,-117.2489"/>
<polygon fill="#000000" stroke="#000000" points="573.5281,-156.112 603.0484,-167.8935 587.3184,-140.2744 573.5281,-156.112"/>
<text text-anchor="middle" x="600.3745" y="-139.8264" font-family="Arial" font-size="12.00" fill="#000000">inherits</text>
</g>
<!-- class_PreteritoImperfecto -->
<g id="node12" class="node">
<title>class_PreteritoImperfecto</title>
<ellipse fill="#20b2aa" stroke="#000000" cx="740.8745" cy="-97.2132" rx="132.4583" ry="21.4286"/>
<text text-anchor="middle" x="740.8745" y="-92.2132" font-family="Arial" font-size="20.00" fill="#000000">PreteritoImperfecto</text>
</g>
<!-- class_TiempoVerbal&#45;&#45;class_PreteritoImperfecto -->
<g id="edge26" class="edge">
<title>class_TiempoVerbal&#45;&#45;class_PreteritoImperfecto</title>
<path fill="none" stroke="#000000" stroke-dasharray="5,2" d="M676.0857,-149.1729C689.324,-138.556 703.1336,-127.4809 714.5853,-118.2968"/>
<polygon fill="#000000" stroke="#000000" points="669.2925,-141.1613 652.4584,-168.1217 682.431,-157.5437 669.2925,-141.1613"/>
<text text-anchor="middle" x="710.3745" y="-139.8264" font-family="Arial" font-size="12.00" fill="#000000">inherits</text>
</g>
<!-- class_Futuro -->
<g id="node17" class="node">
<title>class_Futuro</title>
<ellipse fill="#20b2aa" stroke="#000000" cx="943.8745" cy="-97.2132" rx="52.1524" ry="21.4286"/>
<text text-anchor="middle" x="943.8745" y="-92.2132" font-family="Arial" font-size="20.00" fill="#000000">Futuro</text>
</g>
<!-- class_TiempoVerbal&#45;&#45;class_Futuro -->
<g id="edge25" class="edge">
<title>class_TiempoVerbal&#45;&#45;class_Futuro</title>
<path fill="none" stroke="#000000" stroke-dasharray="5,2" d="M719.8431,-164.5011C768.3433,-151.5404 828.5302,-134.8796 881.8745,-118.4264 889.1582,-116.1799 896.8761,-113.6562 904.3021,-111.1544"/>
<polygon fill="#000000" stroke="#000000" points="716.8979,-154.4191 690.5866,-172.2507 722.2751,-174.719 716.8979,-154.4191"/>
<text text-anchor="middle" x="839.3745" y="-139.8264" font-family="Arial" font-size="12.00" fill="#000000">inherits</text>
</g>
<!-- class_Retrospectivo -->
<g id="node8" class="node">
<title>class_Retrospectivo</title>
<ellipse fill="#20b2aa" stroke="#000000" cx="2091.8745" cy="-97.2132" rx="98.0761" ry="21.4286"/>
<text text-anchor="middle" x="2091.8745" y="-92.2132" font-family="Arial" font-size="20.00" fill="#000000">Retrospectivo</text>
</g>
<!-- class_Retrospectivo&#45;&#45;property_SueldoAnual -->
<g id="edge13" class="edge">
<title>class_Retrospectivo&#45;&#45;property_SueldoAnual</title>
<path fill="none" stroke="#00ff00" stroke-dasharray="5,2" d="M2022.7456,-82.0578C2010.1925,-79.7201 1997.1796,-77.5665 1984.8745,-76 1618.4939,-29.358 1170.187,-21.197 1040.565,-19.789"/>
</g>
<!-- class_Texto -->
<g id="node9" class="node">
<title>class_Texto</title>
<ellipse fill="#20b2aa" stroke="#000000" cx="1236.8745" cy="-97.2132" rx="47.2526" ry="21.4286"/>
<text text-anchor="middle" x="1236.8745" y="-92.2132" font-family="Arial" font-size="20.00" fill="#000000">Texto</text>
</g>
<!-- class_Texto&#45;&#45;property_SueldoAnual -->
<g id="edge15" class="edge">
<title>class_Texto&#45;&#45;property_SueldoAnual</title>
<path fill="none" stroke="#00ff00" stroke-dasharray="5,2" d="M1200.8284,-83.2367C1194.2139,-80.7638 1187.3535,-78.2594 1180.8745,-76 1132.7511,-59.2178 1076.6072,-41.6292 1040.6742,-30.6222"/>
</g>
<!-- class_Oracion -->
<g id="node10" class="node">
<title>class_Oracion</title>
<ellipse fill="#20b2aa" stroke="#000000" cx="1363.8745" cy="-97.2132" rx="61.5366" ry="21.4286"/>
<text text-anchor="middle" x="1363.8745" y="-92.2132" font-family="Arial" font-size="20.00" fill="#000000">Oracion</text>
</g>
<!-- class_Oracion&#45;&#45;property_SueldoAnual -->
<g id="edge17" class="edge">
<title>class_Oracion&#45;&#45;property_SueldoAnual</title>
<path fill="none" stroke="#00ff00" stroke-dasharray="5,2" d="M1318.2221,-82.8614C1309.8308,-80.4267 1301.1185,-78.0323 1292.8745,-76 1203.0308,-53.8517 1095.7626,-34.7785 1040.6215,-25.5038"/>
</g>
<!-- class_Ingles&#45;&#45;property_SueldoAnual -->
<g id="edge7" class="edge">
<title>class_Ingles&#45;&#45;property_SueldoAnual</title>
<path fill="none" stroke="#00ff00" stroke-dasharray="5,2" d="M122.9371,-82.5236C130.4137,-79.969 138.3173,-77.6172 145.8745,-76 253.9725,-52.8683 283.5918,-64.6139 393.8745,-57 611.1332,-42.0004 872.1317,-26.9473 967.0753,-21.5685"/>
</g>
<!-- class_PreteritoImperfecto&#45;&#45;property_SueldoAnual -->
<g id="edge11" class="edge">
<title>class_PreteritoImperfecto&#45;&#45;property_SueldoAnual</title>
<path fill="none" stroke="#00ff00" stroke-dasharray="5,2" d="M804.2043,-78.5001C855.1226,-63.4543 924.8892,-42.8392 967.041,-30.3838"/>
</g>
<!-- class_Elemento -->
<g id="node13" class="node">
<title>class_Elemento</title>
<ellipse fill="#20b2aa" stroke="#000000" cx="1174.8745" cy="-188.6396" rx="71.3357" ry="21.4286"/>
<text text-anchor="middle" x="1174.8745" y="-183.6396" font-family="Arial" font-size="20.00" fill="#000000">Elemento</text>
</g>
<!-- class_Elemento&#45;&#45;property_SueldoAnual -->
<g id="edge5" class="edge">
<title>class_Elemento&#45;&#45;property_SueldoAnual</title>
<path fill="none" stroke="#00ff00" stroke-dasharray="5,2" d="M1127.0715,-172.7812C1099.293,-161.449 1065.432,-143.6969 1042.8745,-118.4264 1022.3439,-95.4265 1012.0028,-60.3359 1007.2939,-38.7169"/>
</g>
<!-- class_Elemento&#45;&#45;class_Palabra -->
<g id="edge35" class="edge">
<title>class_Elemento&#45;&#45;class_Palabra</title>
<path fill="none" stroke="#000000" stroke-dasharray="5,2" d="M1143.2015,-142.6753C1137.2376,-134.0205 1131.2821,-125.3777 1126.1899,-117.9879"/>
<polygon fill="#000000" stroke="#000000" points="1134.5943,-148.6895 1160.2627,-167.4348 1151.8864,-136.7739 1134.5943,-148.6895"/>
<text text-anchor="middle" x="1167.3745" y="-139.8264" font-family="Arial" font-size="12.00" fill="#000000">inherits</text>
</g>
<!-- class_Elemento&#45;&#45;class_Texto -->
<g id="edge32" class="edge">
<title>class_Elemento&#45;&#45;class_Texto</title>
<path fill="none" stroke="#000000" stroke-dasharray="5,2" d="M1206.1697,-142.4912C1212.0803,-133.7752 1217.9767,-125.0803 1222.9991,-117.6742"/>
<polygon fill="#000000" stroke="#000000" points="1197.4019,-136.7123 1189.2544,-167.4348 1214.7824,-148.4987 1197.4019,-136.7123"/>
<text text-anchor="middle" x="1229.3745" y="-139.8264" font-family="Arial" font-size="12.00" fill="#000000">inherits</text>
</g>
<!-- class_Elemento&#45;&#45;class_Oracion -->
<g id="edge34" class="edge">
<title>class_Elemento&#45;&#45;class_Oracion</title>
<path fill="none" stroke="#000000" stroke-dasharray="5,2" d="M1239.7783,-157.2432C1269.3375,-142.9443 1303.1937,-126.5668 1328.0681,-114.5341"/>
<polygon fill="#000000" stroke="#000000" points="1235.1011,-147.8417 1212.6673,-170.3578 1244.2458,-166.7461 1235.1011,-147.8417"/>
<text text-anchor="middle" x="1300.3745" y="-139.8264" font-family="Arial" font-size="12.00" fill="#000000">inherits</text>
</g>
<!-- class_Parrafo -->
<g id="node19" class="node">
<title>class_Parrafo</title>
<ellipse fill="#20b2aa" stroke="#000000" cx="1501.8745" cy="-97.2132" rx="57.9655" ry="21.4286"/>
<text text-anchor="middle" x="1501.8745" y="-92.2132" font-family="Arial" font-size="20.00" fill="#000000">Parrafo</text>
</g>
<!-- class_Elemento&#45;&#45;class_Parrafo -->
<g id="edge33" class="edge">
<title>class_Elemento&#45;&#45;class_Parrafo</title>
<path fill="none" stroke="#000000" stroke-dasharray="5,2" d="M1258.6263,-167.1922C1309.7336,-153.8147 1376.2906,-135.8757 1434.8745,-118.4264 1442.4752,-116.1625 1450.5356,-113.6807 1458.3321,-111.2375"/>
<polygon fill="#000000" stroke="#000000" points="1255.7785,-157.0834 1229.3835,-174.7909 1261.06,-177.4085 1255.7785,-157.0834"/>
<text text-anchor="middle" x="1391.3745" y="-139.8264" font-family="Arial" font-size="12.00" fill="#000000">inherits</text>
</g>
<!-- class_CaracteristicasPlantilla -->
<g id="node14" class="node">
<title>class_CaracteristicasPlantilla</title>
<ellipse fill="#20b2aa" stroke="#000000" cx="626.8745" cy="-280.066" rx="154.7129" ry="21.4286"/>
<text text-anchor="middle" x="626.8745" y="-275.066" font-family="Arial" font-size="20.00" fill="#000000">CaracteristicasPlantilla</text>
</g>
<!-- class_CaracteristicasPlantilla&#45;&#45;property_SueldoAnual -->
<g id="edge1" class="edge">
<title>class_CaracteristicasPlantilla&#45;&#45;property_SueldoAnual</title>
<path fill="none" stroke="#00ff00" stroke-dasharray="5,2" d="M500.3872,-267.8173C378.9931,-254.9794 204.9287,-233.4257 140.8745,-209.8528 64.2007,-181.6357 -37.5016,-138.7042 14.8745,-76 46.0035,-38.7327 792.1333,-23.244 967.3051,-20.1148"/>
</g>
<!-- class_CaracteristicasPlantilla&#45;&#45;class_Idioma -->
<g id="edge19" class="edge">
<title>class_CaracteristicasPlantilla&#45;&#45;class_Idioma</title>
<path fill="none" stroke="#000000" stroke-dasharray="5,2" d="M514.2135,-255.7157C428.5051,-237.1908 314.8589,-212.6276 251.5882,-198.9523"/>
<polygon fill="#000000" stroke="#000000" points="512.2669,-266.0373 543.808,-262.1122 516.7034,-245.5113 512.2669,-266.0373"/>
<text text-anchor="middle" x="460.3745" y="-231.2528" font-family="Arial" font-size="12.00" fill="#000000">inherits</text>
</g>
<!-- class_CaracteristicasPlantilla&#45;&#45;class_TiempoVerbal -->
<g id="edge23" class="edge">
<title>class_CaracteristicasPlantilla&#45;&#45;class_TiempoVerbal</title>
<path fill="none" stroke="#000000" stroke-dasharray="5,2" d="M626.8745,-228.3561C626.8745,-221.957 626.8745,-215.7175 626.8745,-210.1509"/>
<polygon fill="#000000" stroke="#000000" points="616.3746,-228.3992 626.8745,-258.3992 637.3746,-228.3993 616.3746,-228.3992"/>
<text text-anchor="middle" x="646.3745" y="-231.2528" font-family="Arial" font-size="12.00" fill="#000000">inherits</text>
</g>
<!-- class_CaracteristicasPlantilla&#45;&#45;class_Elemento -->
<g id="edge31" class="edge">
<title>class_CaracteristicasPlantilla&#45;&#45;class_Elemento</title>
<path fill="none" stroke="#000000" stroke-dasharray="5,2" d="M754.7978,-258.7237C867.1171,-239.9848 1025.7159,-213.5247 1112.362,-199.069"/>
<polygon fill="#000000" stroke="#000000" points="753.0253,-248.3742 725.1622,-263.668 756.4812,-269.088 753.0253,-248.3742"/>
<text text-anchor="middle" x="953.3745" y="-231.2528" font-family="Arial" font-size="12.00" fill="#000000">inherits</text>
</g>
<!-- class_Espacio -->
<g id="node18" class="node">
<title>class_Espacio</title>
<ellipse fill="#20b2aa" stroke="#000000" cx="1702.8745" cy="-188.6396" rx="62.4516" ry="21.4286"/>
<text text-anchor="middle" x="1702.8745" y="-183.6396" font-family="Arial" font-size="20.00" fill="#000000">Espacio</text>
</g>
<!-- class_CaracteristicasPlantilla&#45;&#45;class_Espacio -->
<g id="edge27" class="edge">
<title>class_CaracteristicasPlantilla&#45;&#45;class_Espacio</title>
<path fill="none" stroke="#000000" stroke-dasharray="5,2" d="M788.5805,-266.3261C1031.7617,-245.6632 1480.4045,-207.5426 1642.4767,-193.7715"/>
<polygon fill="#000000" stroke="#000000" points="787.5473,-255.8759 758.544,-268.8782 789.3253,-276.8005 787.5473,-255.8759"/>
<text text-anchor="middle" x="1249.3745" y="-231.2528" font-family="Arial" font-size="12.00" fill="#000000">inherits</text>
</g>
<!-- class_Arabe&#45;&#45;property_SueldoAnual -->
<g id="edge8" class="edge">
<title>class_Arabe&#45;&#45;property_SueldoAnual</title>
<path fill="none" stroke="#00ff00" stroke-dasharray="5,2" d="M240.0061,-82.6231C247.1662,-80.1245 254.6909,-77.7683 261.8745,-76 324.1302,-60.6751 341.0637,-63.229 404.8745,-57 617.4672,-36.2475 873.6885,-24.6845 967.3393,-20.901"/>
</g>
<!-- class_Espanol&#45;&#45;property_SueldoAnual -->
<g id="edge6" class="edge">
<title>class_Espanol&#45;&#45;property_SueldoAnual</title>
<path fill="none" stroke="#00ff00" stroke-dasharray="5,2" d="M363.0169,-78.2979C376.9347,-70.2517 394.1697,-61.6632 410.8745,-57 516.3186,-27.5652 854.5488,-21.1614 967.0751,-19.8323"/>
</g>
<!-- class_Futuro&#45;&#45;property_SueldoAnual -->
<g id="edge10" class="edge">
<title>class_Futuro&#45;&#45;property_SueldoAnual</title>
<path fill="none" stroke="#00ff00" stroke-dasharray="5,2" d="M959.6388,-76.795C968.7356,-65.0126 980.1058,-50.2857 989.0407,-38.7131"/>
</g>
<!-- class_Espacio&#45;&#45;property_SueldoAnual -->
<g id="edge4" class="edge">
<title>class_Espacio&#45;&#45;property_SueldoAnual</title>
<path fill="none" stroke="#00ff00" stroke-dasharray="5,2" d="M1673.9503,-169.8308C1654.2418,-156.4633 1627.9954,-137.5546 1606.8745,-118.4264 1588.1118,-101.4338 1591.4433,-87.4648 1568.8745,-76 1521.8538,-52.1136 1158.6286,-28.6806 1040.711,-21.6345"/>
</g>
<!-- class_Espacio&#45;&#45;class_Cronológico -->
<g id="edge28" class="edge">
<title>class_Espacio&#45;&#45;class_Cronológico</title>
<path fill="none" stroke="#000000" stroke-dasharray="5,2" d="M1702.8745,-136.9297C1702.8745,-130.5306 1702.8745,-124.2911 1702.8745,-118.7245"/>
<polygon fill="#000000" stroke="#000000" points="1692.3746,-136.9728 1702.8745,-166.9728 1713.3746,-136.9729 1692.3746,-136.9728"/>
<text text-anchor="middle" x="1722.3745" y="-139.8264" font-family="Arial" font-size="12.00" fill="#000000">inherits</text>
</g>
<!-- class_Espacio&#45;&#45;class_Anticipativo -->
<g id="edge30" class="edge">
<title>class_Espacio&#45;&#45;class_Anticipativo</title>
<path fill="none" stroke="#000000" stroke-dasharray="5,2" d="M1766.1395,-158.0359C1794.795,-144.1742 1827.7678,-128.2241 1852.7566,-116.136"/>
<polygon fill="#000000" stroke="#000000" points="1761.3027,-148.7117 1738.8689,-171.2278 1770.4474,-167.616 1761.3027,-148.7117"/>
<text text-anchor="middle" x="1827.3745" y="-139.8264" font-family="Arial" font-size="12.00" fill="#000000">inherits</text>
</g>
<!-- class_Espacio&#45;&#45;class_Retrospectivo -->
<g id="edge29" class="edge">
<title>class_Espacio&#45;&#45;class_Retrospectivo</title>
<path fill="none" stroke="#000000" stroke-dasharray="5,2" d="M1783.5762,-169.6723C1855.086,-152.8655 1958.2527,-128.6182 2025.1849,-112.8872"/>
<polygon fill="#000000" stroke="#000000" points="1780.9314,-159.5078 1754.1295,-176.5932 1785.7361,-179.9507 1780.9314,-159.5078"/>
<text text-anchor="middle" x="1939.3745" y="-139.8264" font-family="Arial" font-size="12.00" fill="#000000">inherits</text>
</g>
<!-- class_Parrafo&#45;&#45;property_SueldoAnual -->
<g id="edge16" class="edge">
<title>class_Parrafo&#45;&#45;property_SueldoAnual</title>
<path fill="none" stroke="#00ff00" stroke-dasharray="5,2" d="M1459.6493,-82.6046C1451.4979,-80.1381 1442.974,-77.7983 1434.8745,-76 1290.8449,-44.0207 1115.4411,-27.9343 1040.5796,-22.117"/>
</g>
</g>
</svg>
