<?xml version="1.0" encoding="UTF-8" standalone="no"?>
<!DOCTYPE svg PUBLIC "-//W3C//DTD SVG 1.1//EN"
 "http://www.w3.org/Graphics/SVG/1.1/DTD/svg11.dtd">
<!-- Generated by graphviz version 2.38.0 (20140413.2041)
 -->
<!-- Title: domain Pages: 1 -->
<svg width="857pt" height="926pt"
 viewBox="0.00 0.00 856.71 925.69" xmlns="http://www.w3.org/2000/svg" xmlns:xlink="http://www.w3.org/1999/xlink">
<g id="graph0" class="graph" transform="scale(1 1) rotate(0) translate(428.48 517.961)">
<title>domain</title>
<polygon fill="white" stroke="none" points="-428.48,407.73 -428.48,-517.961 428.225,-517.961 428.225,407.73 -428.48,407.73"/>
<!-- property_Apellidos -->
<g id="node1" class="node"><title>property_Apellidos</title>
<polygon fill="lightgoldenrodyellow" stroke="black" points="-424.48,26.7575 -424.48,-11.2425 -365.48,-11.2425 -365.48,26.7575 -424.48,26.7575"/>
<text text-anchor="middle" x="-394.98" y="0.75745" font-family="Arial" font-size="10.00">Apellidos</text>
<polyline fill="none" stroke="black" points="-424.48,7.75745 -365.48,7.75745 "/>
<text text-anchor="middle" x="-394.98" y="19.7575" font-family="Arial" font-size="10.00">xsd:string</text>
</g>
<!-- property_Mascotas -->
<g id="node2" class="node"><title>property_Mascotas</title>
<polygon fill="lightgoldenrodyellow" stroke="black" points="101.072,-193.94 101.072,-231.94 262.072,-231.94 262.072,-193.94 101.072,-193.94"/>
<text text-anchor="middle" x="181.572" y="-219.94" font-family="Arial" font-size="10.00">Mascotas</text>
<polyline fill="none" stroke="black" points="101.072,-212.94 262.072,-212.94 "/>
<text text-anchor="middle" x="181.572" y="-200.94" font-family="Arial" font-size="10.00">http://PdL.com/class#MASCOTA</text>
</g>
<!-- class_MASCOTA -->
<g id="node18" class="node"><title>class_MASCOTA</title>
<ellipse fill="lightseagreen" stroke="black" cx="16.6755" cy="-260.318" rx="82.9636" ry="21.4286"/>
<text text-anchor="middle" x="16.6755" y="-255.318" font-family="Arial" font-size="20.00">MASCOTA</text>
</g>
<!-- property_Mascotas&#45;&#45;class_MASCOTA -->
<g id="edge20" class="edge"><title>property_Mascotas&#45;&#45;class_MASCOTA</title>
<path fill="none" stroke="grey" stroke-dasharray="1,5" d="M114.978,-232.074C107.156,-234.321 99.1374,-236.625 91.2168,-238.901"/>
<polygon fill="grey" stroke="grey" points="71.8989,-244.451 88.6359,-230.278 81.51,-241.69 91.1212,-238.928 91.1212,-238.928 91.1212,-238.928 81.51,-241.69 93.6066,-247.578 71.8989,-244.451 71.8989,-244.451"/>
<text text-anchor="middle" x="122.097" y="-238.887" font-family="Arial" font-size="12.00">TypeOf</text>
</g>
<!-- property_Fecha -->
<g id="node3" class="node"><title>property_Fecha</title>
<polygon fill="lightgoldenrodyellow" stroke="black" points="344.022,130.25 344.022,92.2504 403.022,92.2504 403.022,130.25 344.022,130.25"/>
<text text-anchor="middle" x="373.522" y="104.25" font-family="Arial" font-size="10.00">Fecha</text>
<polyline fill="none" stroke="black" points="344.022,111.25 403.022,111.25 "/>
<text text-anchor="middle" x="373.522" y="123.25" font-family="Arial" font-size="10.00">xsd:string</text>
</g>
<!-- property_FechaNacimiento -->
<g id="node4" class="node"><title>property_FechaNacimiento</title>
<polygon fill="lightgoldenrodyellow" stroke="black" points="-212.384,-129.11 -212.384,-167.11 -120.384,-167.11 -120.384,-129.11 -212.384,-129.11"/>
<text text-anchor="middle" x="-166.384" y="-155.11" font-family="Arial" font-size="10.00">FechaNacimiento</text>
<polyline fill="none" stroke="black" points="-212.384,-148.11 -120.384,-148.11 "/>
<text text-anchor="middle" x="-166.384" y="-136.11" font-family="Arial" font-size="10.00">xsd:string</text>
</g>
<!-- property_Tipo -->
<g id="node5" class="node"><title>property_Tipo</title>
<polygon fill="lightgoldenrodyellow" stroke="black" points="-102.327,-475.461 -102.327,-513.461 -43.3271,-513.461 -43.3271,-475.461 -102.327,-475.461"/>
<text text-anchor="middle" x="-72.8271" y="-501.461" font-family="Arial" font-size="10.00">Tipo</text>
<polyline fill="none" stroke="black" points="-102.327,-494.461 -43.3271,-494.461 "/>
<text text-anchor="middle" x="-72.8271" y="-482.461" font-family="Arial" font-size="10.00">xsd:string</text>
</g>
<!-- property_Descendientes -->
<g id="node6" class="node"><title>property_Descendientes</title>
<polygon fill="lightgoldenrodyellow" stroke="black" points="-101.101,15.7429 -101.101,-22.2571 59.8986,-22.2571 59.8986,15.7429 -101.101,15.7429"/>
<text text-anchor="middle" x="-20.6014" y="-10.2571" font-family="Arial" font-size="10.00">Descendientes</text>
<polyline fill="none" stroke="black" points="-101.101,-3.25707 59.8986,-3.25707 "/>
<text text-anchor="middle" x="-20.6014" y="8.74293" font-family="Arial" font-size="10.00">http://PdL.com/class#PERSONA</text>
</g>
<!-- class_PERSONA -->
<g id="node17" class="node"><title>class_PERSONA</title>
<ellipse fill="lightseagreen" stroke="black" cx="-154.894" cy="95.194" rx="81.135" ry="21.4286"/>
<text text-anchor="middle" x="-154.894" y="100.194" font-family="Arial" font-size="20.00">PERSONA</text>
</g>
<!-- property_Descendientes&#45;&#45;class_PERSONA -->
<g id="edge21" class="edge"><title>property_Descendientes&#45;&#45;class_PERSONA</title>
<path fill="none" stroke="grey" stroke-dasharray="1,5" d="M-46.8131,15.959C-65.0324,29.3157 -89.7536,47.4391 -110.955,62.9821"/>
<polygon fill="grey" stroke="grey" points="-127.363,75.011 -105.912,70.4445 -119.298,69.0986 -111.233,63.1861 -111.233,63.1861 -111.233,63.1861 -119.298,69.0986 -116.555,55.9276 -127.363,75.011 -127.363,75.011"/>
<text text-anchor="middle" x="-97.8841" y="36.0705" font-family="Arial" font-size="12.00">TypeOf</text>
</g>
<!-- property_Raza -->
<g id="node7" class="node"><title>property_Raza</title>
<polygon fill="lightgoldenrodyellow" stroke="black" points="117.187,-466.282 117.187,-504.282 176.187,-504.282 176.187,-466.282 117.187,-466.282"/>
<text text-anchor="middle" x="146.687" y="-492.282" font-family="Arial" font-size="10.00">Raza</text>
<polyline fill="none" stroke="black" points="117.187,-485.282 176.187,-485.282 "/>
<text text-anchor="middle" x="146.687" y="-473.282" font-family="Arial" font-size="10.00">xsd:string</text>
</g>
<!-- property_Localidad -->
<g id="node8" class="node"><title>property_Localidad</title>
<polygon fill="lightgoldenrodyellow" stroke="black" points="278.479,246.476 278.479,208.476 337.479,208.476 337.479,246.476 278.479,246.476"/>
<text text-anchor="middle" x="307.979" y="220.476" font-family="Arial" font-size="10.00">Localidad</text>
<polyline fill="none" stroke="black" points="278.479,227.476 337.479,227.476 "/>
<text text-anchor="middle" x="307.979" y="239.476" font-family="Arial" font-size="10.00">xsd:string</text>
</g>
<!-- property_Rol -->
<g id="node9" class="node"><title>property_Rol</title>
<polygon fill="lightgoldenrodyellow" stroke="black" points="-424.296,169.41 -424.296,131.41 -365.296,131.41 -365.296,169.41 -424.296,169.41"/>
<text text-anchor="middle" x="-394.796" y="143.41" font-family="Arial" font-size="10.00">Rol</text>
<polyline fill="none" stroke="black" points="-424.296,150.41 -365.296,150.41 "/>
<text text-anchor="middle" x="-394.796" y="162.41" font-family="Arial" font-size="10.00">xsd:string</text>
</g>
<!-- property_SueldoAnual -->
<g id="node10" class="node"><title>property_SueldoAnual</title>
<polygon fill="lightgoldenrodyellow" stroke="black" points="-361.075,306.06 -361.075,268.06 -290.075,268.06 -290.075,306.06 -361.075,306.06"/>
<text text-anchor="middle" x="-325.575" y="280.06" font-family="Arial" font-size="10.00">SueldoAnual</text>
<polyline fill="none" stroke="black" points="-361.075,287.06 -290.075,287.06 "/>
<text text-anchor="middle" x="-325.575" y="299.06" font-family="Arial" font-size="10.00">xsd:integer</text>
</g>
<!-- property_FechaUNIX -->
<g id="node11" class="node"><title>property_FechaUNIX</title>
<polygon fill="lightgoldenrodyellow" stroke="black" points="97.5054,288.747 97.5054,250.747 162.505,250.747 162.505,288.747 97.5054,288.747"/>
<text text-anchor="middle" x="130.005" y="262.747" font-family="Arial" font-size="10.00">FechaUNIX</text>
<polyline fill="none" stroke="black" points="97.5054,269.747 162.505,269.747 "/>
<text text-anchor="middle" x="130.005" y="281.747" font-family="Arial" font-size="10.00">xsd:integer</text>
</g>
<!-- property_Nucleo -->
<g id="node12" class="node"><title>property_Nucleo</title>
<polygon fill="lightgoldenrodyellow" stroke="black" points="-45.1702,180.613 -45.1702,142.613 115.83,142.613 115.83,180.613 -45.1702,180.613"/>
<text text-anchor="middle" x="35.3298" y="154.613" font-family="Arial" font-size="10.00">Nucleo</text>
<polyline fill="none" stroke="black" points="-45.1702,161.613 115.83,161.613 "/>
<text text-anchor="middle" x="35.3298" y="173.613" font-family="Arial" font-size="10.00">http://PdL.com/class#PERSONA</text>
</g>
<!-- property_Nucleo&#45;&#45;class_PERSONA -->
<g id="edge22" class="edge"><title>property_Nucleo&#45;&#45;class_PERSONA</title>
<path fill="none" stroke="grey" stroke-dasharray="1,5" d="M-19.1806,142.58C-40.4088,135.168 -64.959,126.596 -87.2944,118.797"/>
<polygon fill="grey" stroke="grey" points="-106.213,112.192 -90.298,127.281 -96.7721,115.488 -87.3311,118.785 -87.3311,118.785 -87.3311,118.785 -96.7721,115.488 -84.3642,110.288 -106.213,112.192 -106.213,112.192"/>
<text text-anchor="middle" x="-72.2375" y="127.289" font-family="Arial" font-size="12.00">TypeOf</text>
</g>
<!-- property_Nombre -->
<g id="node13" class="node"><title>property_Nombre</title>
<polygon fill="lightgoldenrodyellow" stroke="black" points="-268.377,-149.276 -268.377,-187.276 -209.377,-187.276 -209.377,-149.276 -268.377,-149.276"/>
<text text-anchor="middle" x="-238.877" y="-175.276" font-family="Arial" font-size="10.00">Nombre</text>
<polyline fill="none" stroke="black" points="-268.377,-168.276 -209.377,-168.276 "/>
<text text-anchor="middle" x="-238.877" y="-156.276" font-family="Arial" font-size="10.00">xsd:string</text>
</g>
<!-- property_Ascendientes -->
<g id="node14" class="node"><title>property_Ascendientes</title>
<polygon fill="lightgoldenrodyellow" stroke="black" points="-258.688,403.23 -258.688,365.23 -97.6885,365.23 -97.6885,403.23 -258.688,403.23"/>
<text text-anchor="middle" x="-178.188" y="377.23" font-family="Arial" font-size="10.00">Ascendientes</text>
<polyline fill="none" stroke="black" points="-258.688,384.23 -97.6885,384.23 "/>
<text text-anchor="middle" x="-178.188" y="396.23" font-family="Arial" font-size="10.00">http://PdL.com/class#PERSONA</text>
</g>
<!-- property_Ascendientes&#45;&#45;class_PERSONA -->
<g id="edge23" class="edge"><title>property_Ascendientes&#45;&#45;class_PERSONA</title>
<path fill="none" stroke="grey" stroke-dasharray="1,5" d="M-180.208,364.979C-180.223,318.617 -171.111,199.931 -163.158,136.548"/>
<polygon fill="grey" stroke="grey" points="-160.41,116.645 -172.061,135.226 -161.778,126.551 -163.146,136.457 -163.146,136.457 -163.146,136.457 -161.778,126.551 -154.23,137.688 -160.41,116.645 -160.41,116.645"/>
<text text-anchor="middle" x="-190.683" y="260.364" font-family="Arial" font-size="12.00">TypeOf</text>
</g>
<!-- property_Designacion -->
<g id="node15" class="node"><title>property_Designacion</title>
<polygon fill="lightgoldenrodyellow" stroke="black" points="354.225,-2.75917 354.225,-40.7592 424.225,-40.7592 424.225,-2.75917 354.225,-2.75917"/>
<text text-anchor="middle" x="389.225" y="-28.7592" font-family="Arial" font-size="10.00">Designacion</text>
<polyline fill="none" stroke="black" points="354.225,-21.7592 424.225,-21.7592 "/>
<text text-anchor="middle" x="389.225" y="-9.75917" font-family="Arial" font-size="10.00">xsd:string</text>
</g>
<!-- property_TipoFamilia -->
<g id="node16" class="node"><title>property_TipoFamilia</title>
<polygon fill="lightgoldenrodyellow" stroke="black" points="304.734,-123.876 304.734,-161.876 370.734,-161.876 370.734,-123.876 304.734,-123.876"/>
<text text-anchor="middle" x="337.734" y="-149.876" font-family="Arial" font-size="10.00">TipoFamilia</text>
<polyline fill="none" stroke="black" points="304.734,-142.876 370.734,-142.876 "/>
<text text-anchor="middle" x="337.734" y="-130.876" font-family="Arial" font-size="10.00">xsd:string</text>
</g>
<!-- class_PERSONA&#45;&#45;property_Apellidos -->
<g id="edge2" class="edge"><title>class_PERSONA&#45;&#45;property_Apellidos</title>
<path fill="none" stroke="grey" stroke-dasharray="5,2" d="M-202.327,77.9193C-250.84,60.2514 -324.697,33.3538 -365.43,18.5193"/>
</g>
<!-- class_PERSONA&#45;&#45;property_FechaNacimiento -->
<g id="edge4" class="edge"><title>class_PERSONA&#45;&#45;property_FechaNacimiento</title>
<path fill="none" stroke="grey" stroke-dasharray="5,2" d="M-155.913,73.6024C-158.132,26.6172 -163.368,-84.2618 -165.479,-128.948"/>
</g>
<!-- class_PERSONA&#45;&#45;property_Rol -->
<g id="edge3" class="edge"><title>class_PERSONA&#45;&#45;property_Rol</title>
<path fill="none" stroke="grey" stroke-dasharray="5,2" d="M-216.052,109.27C-263.807,120.261 -328.079,135.054 -365.116,143.579"/>
</g>
<!-- class_PERSONA&#45;&#45;property_SueldoAnual -->
<g id="edge5" class="edge"><title>class_PERSONA&#45;&#45;property_SueldoAnual</title>
<path fill="none" stroke="grey" stroke-dasharray="5,2" d="M-173.485,116.092C-206.835,153.582 -276.344,231.718 -308.535,267.905"/>
</g>
<!-- class_PERSONA&#45;&#45;property_Nombre -->
<g id="edge1" class="edge"><title>class_PERSONA&#45;&#45;property_Nombre</title>
<path fill="none" stroke="grey" stroke-dasharray="5,2" d="M-161.766,73.6331C-177.789,23.3673 -217.42,-100.96 -232.716,-148.948"/>
</g>
<!-- class_PERSONA&#45;&#45;property_Ascendientes -->
<g id="edge6" class="edge"><title>class_PERSONA&#45;&#45;property_Ascendientes</title>
<path fill="none" stroke="grey" stroke-dasharray="5,2" d="M-152.88,116.748C-153.19,171.178 -164.71,313.5 -173.047,365.152"/>
</g>
<!-- class_PERSONA&#45;&#45;class_PERSONA -->
<g id="edge24" class="edge"><title>class_PERSONA&#45;&#45;class_PERSONA</title>
<path fill="none" stroke="orangered" stroke-dasharray="5,2" d="M-77.0292,88.9487C-64.3146,89.8427 -55.5764,91.9244 -55.5764,95.194 -55.5764,96.0113 -56.1225,96.7545 -57.1404,97.4234"/>
<polygon fill="orangered" stroke="orangered" points="-77.0292,101.439 -55.6436,106.303 -67.2271,99.46 -57.4249,97.4808 -57.4249,97.4808 -57.4249,97.4808 -67.2271,99.46 -59.2062,88.6588 -77.0292,101.439 -77.0292,101.439"/>
<text text-anchor="middle" x="-3.5764" y="98.294" font-family="Arial" font-size="12.00" fill="orangered">Ascendientes (1..n) </text>
</g>
<!-- relationship_conoceA -->
<g id="node20" class="node"><title>relationship_conoceA</title>
<polygon fill="paleturquoise" stroke="black" points="-54.1163,232.744 -83.7427,214.744 -142.995,214.744 -172.622,232.744 -142.995,250.744 -83.7427,250.744 -54.1163,232.744"/>
<text text-anchor="middle" x="-113.369" y="236.244" font-family="Arial" font-size="15.00">conoceA</text>
</g>
<!-- class_PERSONA&#45;&#45;relationship_conoceA -->
<g id="edge28" class="edge"><title>class_PERSONA&#45;&#45;relationship_conoceA</title>
<path fill="none" stroke="blue" stroke-width="3" stroke-dasharray="5,2" d="M-143.091,116.414C-135.935,134.74 -127.316,161.871 -121.002,185.328"/>
<polygon fill="blue" stroke="blue" stroke-width="3" points="-110.735,183.119 -114.007,214.735 -131.165,187.979 -110.735,183.119"/>
<text text-anchor="middle" x="-155.547" y="147.471" font-family="Arial" font-size="12.00" fill="blue">conoceA</text>
</g>
<!-- class_MASCOTA&#45;&#45;property_FechaNacimiento -->
<g id="edge10" class="edge"><title>class_MASCOTA&#45;&#45;property_FechaNacimiento</title>
<path fill="none" stroke="grey" stroke-dasharray="5,2" d="M-15.6304,-240.516C-49.3996,-219.816 -102.017,-187.564 -135.316,-167.153"/>
</g>
<!-- class_MASCOTA&#45;&#45;property_Tipo -->
<g id="edge7" class="edge"><title>class_MASCOTA&#45;&#45;property_Tipo</title>
<path fill="none" stroke="grey" stroke-dasharray="5,2" d="M8.57489,-281.51C-8.68055,-326.651 -48.8395,-431.709 -65.4412,-475.139"/>
</g>
<!-- class_MASCOTA&#45;&#45;property_Raza -->
<g id="edge9" class="edge"><title>class_MASCOTA&#45;&#45;property_Raza</title>
<path fill="none" stroke="grey" stroke-dasharray="5,2" d="M28.9067,-281.482C54.1282,-325.124 111.568,-424.514 135.694,-466.26"/>
</g>
<!-- class_MASCOTA&#45;&#45;property_Nombre -->
<g id="edge8" class="edge"><title>class_MASCOTA&#45;&#45;property_Nombre</title>
<path fill="none" stroke="grey" stroke-dasharray="5,2" d="M-31.392,-243.006C-83.7317,-224.155 -165.78,-194.603 -209.363,-178.906"/>
</g>
<!-- class_FAMILIA -->
<g id="node19" class="node"><title>class_FAMILIA</title>
<ellipse fill="lightseagreen" stroke="black" cx="141.764" cy="9.79698" rx="68.6788" ry="21.4286"/>
<text text-anchor="middle" x="141.764" y="14.797" font-family="Arial" font-size="20.00">FAMILIA</text>
</g>
<!-- class_FAMILIA&#45;&#45;property_Mascotas -->
<g id="edge18" class="edge"><title>class_FAMILIA&#45;&#45;property_Mascotas</title>
<path fill="none" stroke="grey" stroke-dasharray="5,2" d="M145.581,-11.56C153.326,-54.8964 170.778,-152.545 178.165,-193.881"/>
</g>
<!-- class_FAMILIA&#45;&#45;property_Fecha -->
<g id="edge12" class="edge"><title>class_FAMILIA&#45;&#45;property_Fecha</title>
<path fill="none" stroke="grey" stroke-dasharray="5,2" d="M181.604,27.2374C227.678,47.4064 302.465,80.1448 343.761,98.2223"/>
</g>
<!-- class_FAMILIA&#45;&#45;property_Descendientes -->
<g id="edge17" class="edge"><title>class_FAMILIA&#45;&#45;property_Descendientes</title>
<path fill="none" stroke="grey" stroke-dasharray="5,2" d="M75.2552,4.44973C70.2633,4.04839 65.1949,3.64089 60.1288,3.23358"/>
</g>
<!-- class_FAMILIA&#45;&#45;property_Localidad -->
<g id="edge13" class="edge"><title>class_FAMILIA&#45;&#45;property_Localidad</title>
<path fill="none" stroke="grey" stroke-dasharray="5,2" d="M157.701,30.669C189.878,72.8084 262.178,167.495 293.287,208.236"/>
</g>
<!-- class_FAMILIA&#45;&#45;property_FechaUNIX -->
<g id="edge11" class="edge"><title>class_FAMILIA&#45;&#45;property_FechaUNIX</title>
<path fill="none" stroke="grey" stroke-dasharray="5,2" d="M140.802,31.0698C138.558,80.664 133.01,203.33 130.868,250.677"/>
</g>
<!-- class_FAMILIA&#45;&#45;property_Nucleo -->
<g id="edge16" class="edge"><title>class_FAMILIA&#45;&#45;property_Nucleo</title>
<path fill="none" stroke="grey" stroke-dasharray="5,2" d="M127.188,30.5881C106.464,60.148 68.779,113.902 48.7239,142.508"/>
</g>
<!-- class_FAMILIA&#45;&#45;property_Designacion -->
<g id="edge15" class="edge"><title>class_FAMILIA&#45;&#45;property_Designacion</title>
<path fill="none" stroke="grey" stroke-dasharray="5,2" d="M205.491,1.67049C252.749,-4.35579 315.415,-12.347 353.996,-17.2667"/>
</g>
<!-- class_FAMILIA&#45;&#45;property_TipoFamilia -->
<g id="edge14" class="edge"><title>class_FAMILIA&#45;&#45;property_TipoFamilia</title>
<path fill="none" stroke="grey" stroke-dasharray="5,2" d="M167.384,-10.1623C205.356,-39.7452 276.089,-94.8505 313.342,-123.872"/>
</g>
<!-- class_FAMILIA&#45;&#45;class_PERSONA -->
<g id="edge25" class="edge"><title>class_FAMILIA&#45;&#45;class_PERSONA</title>
<path fill="none" stroke="orangered" stroke-dasharray="5,2" d="M100.304,26.8458C56.2977,41.5279 -14.4491,62.3146 -70.3069,77.2219"/>
<polygon fill="orangered" stroke="orangered" points="-89.7549,82.3279 -68.125,85.954 -80.0827,79.7885 -70.4105,77.249 -70.4105,77.249 -70.4105,77.249 -80.0827,79.7885 -72.696,68.5441 -89.7549,82.3279 -89.7549,82.3279"/>
<text text-anchor="middle" x="-19.5017" y="61.6339" font-family="Arial" font-size="12.00" fill="orangered">Nucleo (1..n) </text>
</g>
<!-- class_FAMILIA&#45;&#45;class_PERSONA -->
<g id="edge26" class="edge"><title>class_FAMILIA&#45;&#45;class_PERSONA</title>
<path fill="none" stroke="orangered" stroke-dasharray="5,2" d="M83.0554,21.0174C32.5478,33.8468 -40.1303,54.6893 -91.8554,71.1313"/>
<polygon fill="orangered" stroke="orangered" points="-110.904,77.3043 -89.1038,79.7004 -101.391,74.2215 -91.8784,71.1387 -91.8784,71.1387 -91.8784,71.1387 -101.391,74.2215 -94.6529,62.577 -110.904,77.3043 -110.904,77.3043"/>
<text text-anchor="middle" x="51.6" y="42.6743" font-family="Arial" font-size="12.00" fill="orangered">Descendientes (0..n) </text>
</g>
<!-- class_FAMILIA&#45;&#45;class_MASCOTA -->
<g id="edge27" class="edge"><title>class_FAMILIA&#45;&#45;class_MASCOTA</title>
<path fill="none" stroke="orangered" stroke-dasharray="5,2" d="M131.948,-11.3985C111.031,-56.5669 61.7883,-162.902 34.9292,-220.901"/>
<polygon fill="orangered" stroke="orangered" points="26.4454,-239.221 26.6831,-217.291 30.6476,-230.147 34.8499,-221.073 34.8499,-221.073 34.8499,-221.073 30.6476,-230.147 43.0167,-224.855 26.4454,-239.221 26.4454,-239.221"/>
<text text-anchor="middle" x="41.4388" y="-119.55" font-family="Arial" font-size="12.00" fill="orangered">Mascotas (0..n) </text>
</g>
<!-- relationship_conoceA&#45;&#45;property_FechaUNIX -->
<g id="edge19" class="edge"><title>relationship_conoceA&#45;&#45;property_FechaUNIX</title>
<path fill="none" stroke="grey" stroke-dasharray="5,2" d="M-65.8662,239.967C-17.7264,247.286 55.4612,258.413 97.4078,264.791"/>
</g>
<!-- relationship_conoceA&#45;&#45;class_PERSONA -->
<g id="edge29" class="edge"><title>relationship_conoceA&#45;&#45;class_PERSONA</title>
<path fill="none" stroke="blue" stroke-width="3" stroke-dasharray="5,2" d="M-123.895,214.737C-130.945,197.311 -139.726,170.097 -146.331,146.03"/>
<polygon fill="blue" stroke="blue" stroke-width="3" points="-156.542,148.477 -153.529,116.836 -136.153,143.45 -156.542,148.477"/>
<text text-anchor="middle" x="-176.613" y="176.983" font-family="Arial" font-size="12.00" fill="blue">esConocidoPor</text>
</g>
</g>
</svg>
