<?xml version="1.0" encoding="UTF-8" standalone="no"?>
<!DOCTYPE svg PUBLIC "-//W3C//DTD SVG 1.1//EN"
 "http://www.w3.org/Graphics/SVG/1.1/DTD/svg11.dtd">
<!-- Generated by graphviz version 2.40.1 (20161225.0304)
 -->
<!-- Title: domain Pages: 1 -->
<svg width="840pt" height="970pt"
 viewBox="0.00 0.00 839.51 969.94" xmlns="http://www.w3.org/2000/svg" xmlns:xlink="http://www.w3.org/1999/xlink">
<g id="graph0" class="graph" transform="scale(1 1) rotate(0) translate(4 965.9376)">
<title>domain</title>
<polygon fill="#ffffff" stroke="transparent" points="-4,4 -4,-965.9376 835.5093,-965.9376 835.5093,4 -4,4"/>
<!-- property_Apellidos -->
<g id="node1" class="node">
<title>property_Apellidos</title>
<polygon fill="#fafad2" stroke="#000000" points="0,-292.3139 0,-330.3139 59,-330.3139 59,-292.3139 0,-292.3139"/>
<text text-anchor="middle" x="29.5" y="-318.3139" font-family="Arial" font-size="10.00" fill="#000000">Apellidos</text>
<polyline fill="none" stroke="#000000" points="0,-311.3139 59,-311.3139 "/>
<text text-anchor="middle" x="29.5" y="-299.3139" font-family="Arial" font-size="10.00" fill="#000000">xsd:string</text>
</g>
<!-- property_Mascotas -->
<g id="node2" class="node">
<title>property_Mascotas</title>
<polygon fill="#fafad2" stroke="#000000" points="445.1934,-672.3509 445.1934,-710.3509 607.1934,-710.3509 607.1934,-672.3509 445.1934,-672.3509"/>
<text text-anchor="middle" x="526.1934" y="-698.3509" font-family="Arial" font-size="10.00" fill="#000000">Mascotas</text>
<polyline fill="none" stroke="#000000" points="445.1934,-691.3509 607.1934,-691.3509 "/>
<text text-anchor="middle" x="526.1934" y="-679.3509" font-family="Arial" font-size="10.00" fill="#000000">http://PdL.com/class#MASCOTA</text>
</g>
<!-- class_MASCOTA -->
<g id="node18" class="node">
<title>class_MASCOTA</title>
<ellipse fill="#20b2aa" stroke="#000000" cx="352.3105" cy="-690.622" rx="81.135" ry="21.4286"/>
<text text-anchor="middle" x="352.3105" y="-685.622" font-family="Arial" font-size="20.00" fill="#000000">MASCOTA</text>
</g>
<!-- property_Mascotas&#45;&#45;class_MASCOTA -->
<g id="edge20" class="edge">
<title>property_Mascotas&#45;&#45;class_MASCOTA</title>
<path fill="none" stroke="#c0c0c0" stroke-dasharray="1,5" d="M445.1064,-691.011C444.9874,-691.0105 444.8684,-691.01 444.7494,-691.0095"/>
<polygon fill="#c0c0c0" stroke="#c0c0c0" points="433.6691,-690.963 453.7068,-682.0471 443.6691,-691.005 453.669,-691.047 453.669,-691.047 453.669,-691.047 443.6691,-691.005 453.6312,-700.047 433.6691,-690.963 433.6691,-690.963"/>
<text text-anchor="middle" x="434.9279" y="-681.4102" font-family="Arial" font-size="12.00" fill="#000000">TypeOf</text>
</g>
<!-- property_Fecha -->
<g id="node3" class="node">
<title>property_Fecha</title>
<polygon fill="#fafad2" stroke="#000000" points="733.0008,-276.8428 733.0008,-314.8428 792.0008,-314.8428 792.0008,-276.8428 733.0008,-276.8428"/>
<text text-anchor="middle" x="762.5008" y="-302.8428" font-family="Arial" font-size="10.00" fill="#000000">Fecha</text>
<polyline fill="none" stroke="#000000" points="733.0008,-295.8428 792.0008,-295.8428 "/>
<text text-anchor="middle" x="762.5008" y="-283.8428" font-family="Arial" font-size="10.00" fill="#000000">xsd:string</text>
</g>
<!-- property_FechaNacimiento -->
<g id="node4" class="node">
<title>property_FechaNacimiento</title>
<polygon fill="#fafad2" stroke="#000000" points="82.7723,-505.1275 82.7723,-543.1275 176.7723,-543.1275 176.7723,-505.1275 82.7723,-505.1275"/>
<text text-anchor="middle" x="129.7723" y="-531.1275" font-family="Arial" font-size="10.00" fill="#000000">FechaNacimiento</text>
<polyline fill="none" stroke="#000000" points="82.7723,-524.1275 176.7723,-524.1275 "/>
<text text-anchor="middle" x="129.7723" y="-512.1275" font-family="Arial" font-size="10.00" fill="#000000">xsd:string</text>
</g>
<!-- property_Tipo -->
<g id="node5" class="node">
<title>property_Tipo</title>
<polygon fill="#fafad2" stroke="#000000" points="384.7306,-923.4376 384.7306,-961.4376 443.7306,-961.4376 443.7306,-923.4376 384.7306,-923.4376"/>
<text text-anchor="middle" x="414.2306" y="-949.4376" font-family="Arial" font-size="10.00" fill="#000000">Tipo</text>
<polyline fill="none" stroke="#000000" points="384.7306,-942.4376 443.7306,-942.4376 "/>
<text text-anchor="middle" x="414.2306" y="-930.4376" font-family="Arial" font-size="10.00" fill="#000000">xsd:string</text>
</g>
<!-- property_Descendientes -->
<g id="node6" class="node">
<title>property_Descendientes</title>
<polygon fill="#fafad2" stroke="#000000" points="401.4663,-278.5354 401.4663,-316.5354 562.4663,-316.5354 562.4663,-278.5354 401.4663,-278.5354"/>
<text text-anchor="middle" x="481.9663" y="-304.5354" font-family="Arial" font-size="10.00" fill="#000000">Descendientes</text>
<polyline fill="none" stroke="#000000" points="401.4663,-297.5354 562.4663,-297.5354 "/>
<text text-anchor="middle" x="481.9663" y="-285.5354" font-family="Arial" font-size="10.00" fill="#000000">http://PdL.com/class#PERSONA</text>
</g>
<!-- class_PERSONA -->
<g id="node17" class="node">
<title>class_PERSONA</title>
<ellipse fill="#20b2aa" stroke="#000000" cx="284.2254" cy="-303.148" rx="80.7205" ry="21.4286"/>
<text text-anchor="middle" x="284.2254" y="-298.148" font-family="Arial" font-size="20.00" fill="#000000">PERSONA</text>
</g>
<!-- property_Descendientes&#45;&#45;class_PERSONA -->
<g id="edge21" class="edge">
<title>property_Descendientes&#45;&#45;class_PERSONA</title>
<path fill="none" stroke="#c0c0c0" stroke-dasharray="1,5" d="M401.2523,-299.8263C395.7842,-299.9816 390.2394,-300.1389 384.6879,-300.2965"/>
<polygon fill="#c0c0c0" stroke="#c0c0c0" points="364.6814,-300.8644 384.418,-291.3004 374.6774,-300.5806 384.6734,-300.2968 384.6734,-300.2968 384.6734,-300.2968 374.6774,-300.5806 384.9288,-309.2932 364.6814,-300.8644 364.6814,-300.8644"/>
<text text-anchor="middle" x="382.9701" y="-290.4614" font-family="Arial" font-size="12.00" fill="#000000">TypeOf</text>
</g>
<!-- property_Raza -->
<g id="node7" class="node">
<title>property_Raza</title>
<polygon fill="#fafad2" stroke="#000000" points="171.3687,-871.5758 171.3687,-909.5758 230.3687,-909.5758 230.3687,-871.5758 171.3687,-871.5758"/>
<text text-anchor="middle" x="200.8687" y="-897.5758" font-family="Arial" font-size="10.00" fill="#000000">Raza</text>
<polyline fill="none" stroke="#000000" points="171.3687,-890.5758 230.3687,-890.5758 "/>
<text text-anchor="middle" x="200.8687" y="-878.5758" font-family="Arial" font-size="10.00" fill="#000000">xsd:string</text>
</g>
<!-- property_Localidad -->
<g id="node8" class="node">
<title>property_Localidad</title>
<polygon fill="#fafad2" stroke="#000000" points="747.7943,-537.2133 747.7943,-575.2133 806.7943,-575.2133 806.7943,-537.2133 747.7943,-537.2133"/>
<text text-anchor="middle" x="777.2943" y="-563.2133" font-family="Arial" font-size="10.00" fill="#000000">Localidad</text>
<polyline fill="none" stroke="#000000" points="747.7943,-556.2133 806.7943,-556.2133 "/>
<text text-anchor="middle" x="777.2943" y="-544.2133" font-family="Arial" font-size="10.00" fill="#000000">xsd:string</text>
</g>
<!-- property_Rol -->
<g id="node9" class="node">
<title>property_Rol</title>
<polygon fill="#fafad2" stroke="#000000" points="44.4714,-154.4695 44.4714,-192.4695 103.4714,-192.4695 103.4714,-154.4695 44.4714,-154.4695"/>
<text text-anchor="middle" x="73.9714" y="-180.4695" font-family="Arial" font-size="10.00" fill="#000000">Rol</text>
<polyline fill="none" stroke="#000000" points="44.4714,-173.4695 103.4714,-173.4695 "/>
<text text-anchor="middle" x="73.9714" y="-161.4695" font-family="Arial" font-size="10.00" fill="#000000">xsd:string</text>
</g>
<!-- property_SueldoAnual -->
<g id="node10" class="node">
<title>property_SueldoAnual</title>
<polygon fill="#fafad2" stroke="#000000" points="148.0373,-43.554 148.0373,-81.554 221.0373,-81.554 221.0373,-43.554 148.0373,-43.554"/>
<text text-anchor="middle" x="184.5373" y="-69.554" font-family="Arial" font-size="10.00" fill="#000000">SueldoAnual</text>
<polyline fill="none" stroke="#000000" points="148.0373,-62.554 221.0373,-62.554 "/>
<text text-anchor="middle" x="184.5373" y="-50.554" font-family="Arial" font-size="10.00" fill="#000000">xsd:integer</text>
</g>
<!-- property_FechaUNIX -->
<g id="node11" class="node">
<title>property_FechaUNIX</title>
<polygon fill="#fafad2" stroke="#000000" points="567.3287,-194.3851 567.3287,-232.3851 635.3287,-232.3851 635.3287,-194.3851 567.3287,-194.3851"/>
<text text-anchor="middle" x="601.3287" y="-220.3851" font-family="Arial" font-size="10.00" fill="#000000">FechaUNIX</text>
<polyline fill="none" stroke="#000000" points="567.3287,-213.3851 635.3287,-213.3851 "/>
<text text-anchor="middle" x="601.3287" y="-201.3851" font-family="Arial" font-size="10.00" fill="#000000">xsd:integer</text>
</g>
<!-- property_Nucleo -->
<g id="node12" class="node">
<title>property_Nucleo</title>
<polygon fill="#fafad2" stroke="#000000" points="302.4467,-421.9298 302.4467,-459.9298 463.4467,-459.9298 463.4467,-421.9298 302.4467,-421.9298"/>
<text text-anchor="middle" x="382.9467" y="-447.9298" font-family="Arial" font-size="10.00" fill="#000000">Nucleo</text>
<polyline fill="none" stroke="#000000" points="302.4467,-440.9298 463.4467,-440.9298 "/>
<text text-anchor="middle" x="382.9467" y="-428.9298" font-family="Arial" font-size="10.00" fill="#000000">http://PdL.com/class#PERSONA</text>
</g>
<!-- property_Nucleo&#45;&#45;class_PERSONA -->
<g id="edge22" class="edge">
<title>property_Nucleo&#45;&#45;class_PERSONA</title>
<path fill="none" stroke="#c0c0c0" stroke-dasharray="1,5" d="M369.2199,-421.7719C354.2542,-400.8848 329.9309,-366.9375 311.1307,-340.6988"/>
<polygon fill="#c0c0c0" stroke="#c0c0c0" points="299.4545,-324.4027 318.4191,-335.4184 305.2788,-332.5315 311.1031,-340.6603 311.1031,-340.6603 311.1031,-340.6603 305.2788,-332.5315 303.7872,-345.9022 299.4545,-324.4027 299.4545,-324.4027"/>
<text text-anchor="middle" x="320.1753" y="-384.6353" font-family="Arial" font-size="12.00" fill="#000000">TypeOf</text>
</g>
<!-- property_Nombre -->
<g id="node13" class="node">
<title>property_Nombre</title>
<polygon fill="#fafad2" stroke="#000000" points="172.8532,-520.7722 172.8532,-558.7722 231.8532,-558.7722 231.8532,-520.7722 172.8532,-520.7722"/>
<text text-anchor="middle" x="202.3532" y="-546.7722" font-family="Arial" font-size="10.00" fill="#000000">Nombre</text>
<polyline fill="none" stroke="#000000" points="172.8532,-539.7722 231.8532,-539.7722 "/>
<text text-anchor="middle" x="202.3532" y="-527.7722" font-family="Arial" font-size="10.00" fill="#000000">xsd:string</text>
</g>
<!-- property_Ascendientes -->
<g id="node14" class="node">
<title>property_Ascendientes</title>
<polygon fill="#fafad2" stroke="#000000" points="279.6108,-.5 279.6108,-38.5 440.6108,-38.5 440.6108,-.5 279.6108,-.5"/>
<text text-anchor="middle" x="360.1108" y="-26.5" font-family="Arial" font-size="10.00" fill="#000000">Ascendientes</text>
<polyline fill="none" stroke="#000000" points="279.6108,-19.5 440.6108,-19.5 "/>
<text text-anchor="middle" x="360.1108" y="-7.5" font-family="Arial" font-size="10.00" fill="#000000">http://PdL.com/class#PERSONA</text>
</g>
<!-- property_Ascendientes&#45;&#45;class_PERSONA -->
<g id="edge23" class="edge">
<title>property_Ascendientes&#45;&#45;class_PERSONA</title>
<path fill="none" stroke="#c0c0c0" stroke-dasharray="1,5" d="M351.0762,-38.9423C335.1104,-84.6061 303.9729,-199.4722 290.2747,-261.6458"/>
<polygon fill="#c0c0c0" stroke="#c0c0c0" points="286.1436,-281.5915 281.387,-260.1818 288.1717,-271.7993 290.1999,-262.0071 290.1999,-262.0071 290.1999,-262.0071 288.1717,-271.7993 299.0129,-263.8325 286.1436,-281.5915 286.1436,-281.5915"/>
<text text-anchor="middle" x="300.6754" y="-153.694" font-family="Arial" font-size="12.00" fill="#000000">TypeOf</text>
</g>
<!-- property_Designacion -->
<g id="node15" class="node">
<title>property_Designacion</title>
<polygon fill="#fafad2" stroke="#000000" points="663.2151,-645.7395 663.2151,-683.7395 735.2151,-683.7395 735.2151,-645.7395 663.2151,-645.7395"/>
<text text-anchor="middle" x="699.2151" y="-671.7395" font-family="Arial" font-size="10.00" fill="#000000">Designacion</text>
<polyline fill="none" stroke="#000000" points="663.2151,-664.7395 735.2151,-664.7395 "/>
<text text-anchor="middle" x="699.2151" y="-652.7395" font-family="Arial" font-size="10.00" fill="#000000">xsd:string</text>
</g>
<!-- property_TipoFamilia -->
<g id="node16" class="node">
<title>property_TipoFamilia</title>
<polygon fill="#fafad2" stroke="#000000" points="763.5093,-405.6027 763.5093,-443.6027 831.5093,-443.6027 831.5093,-405.6027 763.5093,-405.6027"/>
<text text-anchor="middle" x="797.5093" y="-431.6027" font-family="Arial" font-size="10.00" fill="#000000">TipoFamilia</text>
<polyline fill="none" stroke="#000000" points="763.5093,-424.6027 831.5093,-424.6027 "/>
<text text-anchor="middle" x="797.5093" y="-412.6027" font-family="Arial" font-size="10.00" fill="#000000">xsd:string</text>
</g>
<!-- class_PERSONA&#45;&#45;property_Apellidos -->
<g id="edge2" class="edge">
<title>class_PERSONA&#45;&#45;property_Apellidos</title>
<path fill="none" stroke="#c0c0c0" stroke-dasharray="5,2" d="M203.9783,-305.7205C154.6877,-307.3007 94.4374,-309.2322 59.1787,-310.3625"/>
</g>
<!-- class_PERSONA&#45;&#45;property_FechaNacimiento -->
<g id="edge4" class="edge">
<title>class_PERSONA&#45;&#45;property_FechaNacimiento</title>
<path fill="none" stroke="#c0c0c0" stroke-dasharray="5,2" d="M269.4158,-324.3364C239.4404,-367.2228 171.9924,-463.7223 143.2057,-504.9081"/>
</g>
<!-- class_PERSONA&#45;&#45;property_Rol -->
<g id="edge3" class="edge">
<title>class_PERSONA&#45;&#45;property_Rol</title>
<path fill="none" stroke="#c0c0c0" stroke-dasharray="5,2" d="M252.2923,-283.4526C211.855,-258.5121 142.7345,-215.8805 103.4831,-191.6714"/>
</g>
<!-- class_PERSONA&#45;&#45;property_SueldoAnual -->
<g id="edge5" class="edge">
<title>class_PERSONA&#45;&#45;property_SueldoAnual</title>
<path fill="none" stroke="#c0c0c0" stroke-dasharray="5,2" d="M275.3787,-281.7969C256.1753,-235.45 210.9223,-126.2333 192.5247,-81.8314"/>
</g>
<!-- class_PERSONA&#45;&#45;property_Nombre -->
<g id="edge1" class="edge">
<title>class_PERSONA&#45;&#45;property_Nombre</title>
<path fill="none" stroke="#c0c0c0" stroke-dasharray="5,2" d="M276.8154,-324.5641C260.9917,-370.2973 224.1124,-476.8845 208.9962,-520.5728"/>
</g>
<!-- class_PERSONA&#45;&#45;property_Ascendientes -->
<g id="edge6" class="edge">
<title>class_PERSONA&#45;&#45;property_Ascendientes</title>
<path fill="none" stroke="#c0c0c0" stroke-dasharray="5,2" d="M293.8924,-281.8838C312.2665,-228.5811 349.2503,-89.9526 358.6114,-38.8076"/>
</g>
<!-- class_PERSONA&#45;&#45;class_PERSONA -->
<g id="edge24" class="edge">
<title>class_PERSONA&#45;&#45;class_PERSONA</title>
<path fill="none" stroke="#ff4500" stroke-dasharray="5,2" d="M361.5354,-309.3933C374.1596,-308.4993 382.8355,-306.4175 382.8355,-303.148 382.8355,-302.3306 382.2933,-301.5875 381.2827,-300.9185"/>
<polygon fill="#ff4500" stroke="#ff4500" points="361.5354,-296.9027 382.9279,-292.069 371.3349,-298.8956 381.1343,-300.8884 381.1343,-300.8884 381.1343,-300.8884 371.3349,-298.8956 379.3407,-309.7079 361.5354,-296.9027 361.5354,-296.9027"/>
<text text-anchor="middle" x="436.3355" y="-300.048" font-family="Arial" font-size="12.00" fill="#ff4500">Ascendientes (1..n) </text>
</g>
<!-- relationship_conoceA -->
<g id="node20" class="node">
<title>relationship_conoceA</title>
<polygon fill="#afeeee" stroke="#000000" points="417.141,-183.8504 386.9622,-201.8504 326.6045,-201.8504 296.4257,-183.8504 326.6045,-165.8504 386.9622,-165.8504 417.141,-183.8504"/>
<text text-anchor="middle" x="356.7834" y="-180.3504" font-family="Arial" font-size="15.00" fill="#000000">conoceA</text>
</g>
<!-- class_PERSONA&#45;&#45;relationship_conoceA -->
<g id="edge28" class="edge">
<title>class_PERSONA&#45;&#45;relationship_conoceA</title>
<path fill="none" stroke="#0000ff" stroke-width="3" stroke-dasharray="5,2" d="M303.2628,-282.4386C313.7457,-267.5753 326.6154,-247.0277 337.171,-228.5248"/>
<polygon fill="#0000ff" stroke="#0000ff" stroke-width="3" points="346.5397,-233.2705 351.3643,-201.8543 328.0014,-223.4049 346.5397,-233.2705"/>
<text text-anchor="middle" x="280.7169" y="-258.8817" font-family="Arial" font-size="12.00" fill="#0000ff">conoceA (0..n)</text>
</g>
<!-- class_MASCOTA&#45;&#45;property_FechaNacimiento -->
<g id="edge10" class="edge">
<title>class_MASCOTA&#45;&#45;property_FechaNacimiento</title>
<path fill="none" stroke="#c0c0c0" stroke-dasharray="5,2" d="M325.4672,-670.5389C282.232,-638.1919 197.7409,-574.979 155.3359,-543.2531"/>
</g>
<!-- class_MASCOTA&#45;&#45;property_Tipo -->
<g id="edge7" class="edge">
<title>class_MASCOTA&#45;&#45;property_Tipo</title>
<path fill="none" stroke="#c0c0c0" stroke-dasharray="5,2" d="M357.5898,-712.0916C369.4637,-760.3803 398.122,-876.9276 409.4794,-923.1157"/>
</g>
<!-- class_MASCOTA&#45;&#45;property_Raza -->
<g id="edge9" class="edge">
<title>class_MASCOTA&#45;&#45;property_Raza</title>
<path fill="none" stroke="#c0c0c0" stroke-dasharray="5,2" d="M336.3898,-711.6426C306.8486,-750.647 243.9675,-833.6711 215.46,-871.3105"/>
</g>
<!-- class_MASCOTA&#45;&#45;property_Nombre -->
<g id="edge8" class="edge">
<title>class_MASCOTA&#45;&#45;property_Nombre</title>
<path fill="none" stroke="#c0c0c0" stroke-dasharray="5,2" d="M331.774,-669.9633C302.7366,-640.753 250.0633,-587.7663 221.6924,-559.2265"/>
</g>
<!-- class_FAMILIA -->
<g id="node19" class="node">
<title>class_FAMILIA</title>
<ellipse fill="#20b2aa" stroke="#000000" cx="546.9572" cy="-466.0675" rx="66.4361" ry="21.4286"/>
<text text-anchor="middle" x="546.9572" y="-461.0675" font-family="Arial" font-size="20.00" fill="#000000">FAMILIA</text>
</g>
<!-- class_FAMILIA&#45;&#45;property_Mascotas -->
<g id="edge18" class="edge">
<title>class_FAMILIA&#45;&#45;property_Mascotas</title>
<path fill="none" stroke="#c0c0c0" stroke-dasharray="5,2" d="M544.9663,-487.6686C540.9264,-531.5004 531.8235,-630.2652 527.9702,-672.0734"/>
</g>
<!-- class_FAMILIA&#45;&#45;property_Fecha -->
<g id="edge12" class="edge">
<title>class_FAMILIA&#45;&#45;property_Fecha</title>
<path fill="none" stroke="#c0c0c0" stroke-dasharray="5,2" d="M572.1046,-446.2074C613.8598,-413.2315 696.969,-347.5963 738.1746,-315.0543"/>
</g>
<!-- class_FAMILIA&#45;&#45;property_Descendientes -->
<g id="edge17" class="edge">
<title>class_FAMILIA&#45;&#45;property_Descendientes</title>
<path fill="none" stroke="#c0c0c0" stroke-dasharray="5,2" d="M538.7261,-444.7228C525.9515,-411.5963 501.5536,-348.3286 489.3297,-316.6299"/>
</g>
<!-- class_FAMILIA&#45;&#45;property_Localidad -->
<g id="edge13" class="edge">
<title>class_FAMILIA&#45;&#45;property_Localidad</title>
<path fill="none" stroke="#c0c0c0" stroke-dasharray="5,2" d="M589.2046,-482.6016C635.1806,-500.595 707.4953,-528.8964 747.7488,-544.6502"/>
</g>
<!-- class_FAMILIA&#45;&#45;property_FechaUNIX -->
<g id="edge11" class="edge">
<title>class_FAMILIA&#45;&#45;property_FechaUNIX</title>
<path fill="none" stroke="#c0c0c0" stroke-dasharray="5,2" d="M551.5929,-444.524C562.045,-395.9497 587.308,-278.5441 597.2302,-232.4323"/>
</g>
<!-- class_FAMILIA&#45;&#45;property_Nucleo -->
<g id="edge16" class="edge">
<title>class_FAMILIA&#45;&#45;property_Nucleo</title>
<path fill="none" stroke="#c0c0c0" stroke-dasharray="5,2" d="M486.817,-456.8499C479.2289,-455.6869 471.3714,-454.4826 463.5312,-453.2809"/>
</g>
<!-- class_FAMILIA&#45;&#45;property_Designacion -->
<g id="edge15" class="edge">
<title>class_FAMILIA&#45;&#45;property_Designacion</title>
<path fill="none" stroke="#c0c0c0" stroke-dasharray="5,2" d="M562.9637,-486.9534C592.6642,-525.7077 655.8841,-608.1996 684.5452,-645.5977"/>
</g>
<!-- class_FAMILIA&#45;&#45;property_TipoFamilia -->
<g id="edge14" class="edge">
<title>class_FAMILIA&#45;&#45;property_TipoFamilia</title>
<path fill="none" stroke="#c0c0c0" stroke-dasharray="5,2" d="M606.0173,-456.2934C655.0625,-448.1768 723.1091,-436.9155 763.4942,-430.232"/>
</g>
<!-- class_FAMILIA&#45;&#45;class_PERSONA -->
<g id="edge25" class="edge">
<title>class_FAMILIA&#45;&#45;class_PERSONA</title>
<path fill="none" stroke="#ff4500" stroke-dasharray="5,2" d="M523.0413,-446.2442C482.2163,-417.6229 398.1331,-364.9563 341.4286,-332.0461"/>
<polygon fill="#ff4500" stroke="#ff4500" points="323.71,-321.9084 345.539,-324.0289 332.3897,-326.8745 341.0695,-331.8407 341.0695,-331.8407 341.0695,-331.8407 332.3897,-326.8745 336.5999,-339.6524 323.71,-321.9084 323.71,-321.9084"/>
<text text-anchor="middle" x="395.7349" y="-379.5451" font-family="Arial" font-size="12.00" fill="#ff4500">Nucleo (1..n) </text>
</g>
<!-- class_FAMILIA&#45;&#45;class_PERSONA -->
<g id="edge26" class="edge">
<title>class_FAMILIA&#45;&#45;class_PERSONA</title>
<path fill="none" stroke="#ff4500" stroke-dasharray="5,2" d="M509.5599,-448.4784C460.8989,-421.2425 376.2151,-368.9029 325.6548,-334.957"/>
<polygon fill="#ff4500" stroke="#ff4500" points="309.005,-323.5759 330.595,-327.4322 317.2606,-329.2191 325.5162,-334.8623 325.5162,-334.8623 325.5162,-334.8623 317.2606,-329.2191 320.4373,-342.2923 309.005,-323.5759 309.005,-323.5759"/>
<text text-anchor="middle" x="475.1074" y="-395.1177" font-family="Arial" font-size="12.00" fill="#ff4500">Descendientes (0..n) </text>
</g>
<!-- class_FAMILIA&#45;&#45;class_MASCOTA -->
<g id="edge27" class="edge">
<title>class_FAMILIA&#45;&#45;class_MASCOTA</title>
<path fill="none" stroke="#ff4500" stroke-dasharray="5,2" d="M528.9942,-486.7906C495.9083,-524.9602 424.9598,-606.81 383.7417,-654.3613"/>
<polygon fill="#ff4500" stroke="#ff4500" points="370.5131,-669.6226 376.8123,-648.6149 377.063,-662.0662 383.613,-654.5099 383.613,-654.5099 383.613,-654.5099 377.063,-662.0662 390.4137,-660.4048 370.5131,-669.6226 370.5131,-669.6226"/>
<text text-anchor="middle" x="412.868" y="-573.9759" font-family="Arial" font-size="12.00" fill="#ff4500">Mascotas (0..n) </text>
</g>
<!-- relationship_conoceA&#45;&#45;property_FechaUNIX -->
<g id="edge19" class="edge">
<title>relationship_conoceA&#45;&#45;property_FechaUNIX</title>
<path fill="none" stroke="#c0c0c0" stroke-dasharray="5,2" d="M407.1568,-189.9342C454.975,-195.7094 525.5471,-204.2327 567.1397,-209.256"/>
</g>
<!-- relationship_conoceA&#45;&#45;class_PERSONA -->
<g id="edge29" class="edge">
<title>relationship_conoceA&#45;&#45;class_PERSONA</title>
<path fill="none" stroke="#0000ff" stroke-width="3" stroke-dasharray="5,2" d="M339.6448,-201.8936C329.4316,-216.0876 316.5221,-236.4886 305.6737,-255.2749"/>
<polygon fill="#0000ff" stroke="#0000ff" stroke-width="3" points="296.2854,-250.5611 291.2073,-281.9373 314.7435,-260.5761 296.2854,-250.5611"/>
<text text-anchor="middle" x="265.6593" y="-231.9843" font-family="Arial" font-size="12.00" fill="#0000ff">esConocidoPor (0..n)</text>
</g>
</g>
</svg>
