<?xml version="1.0" encoding="UTF-8" standalone="no"?>
<!DOCTYPE svg PUBLIC "-//W3C//DTD SVG 1.1//EN"
 "http://www.w3.org/Graphics/SVG/1.1/DTD/svg11.dtd">
<!-- Generated by graphviz version 2.38.0 (20140413.2041)
 -->
<!-- Title: domain Pages: 1 -->
<svg width="704pt" height="597pt"
 viewBox="0.00 0.00 703.95 597.28" xmlns="http://www.w3.org/2000/svg" xmlns:xlink="http://www.w3.org/1999/xlink">
<g id="graph0" class="graph" transform="scale(1 1) rotate(0) translate(300.574 304.151)">
<title>domain</title>
<polygon fill="white" stroke="none" points="-300.574,293.125 -300.574,-304.151 403.372,-304.151 403.372,293.125 -300.574,293.125"/>
<!-- property_Surname -->
<g id="node1" class="node"><title>property_Surname</title>
<polygon fill="lightgoldenrodyellow" stroke="black" points="-291.48,-69.4467 -291.48,-107.447 -232.48,-107.447 -232.48,-69.4467 -291.48,-69.4467"/>
<text text-anchor="middle" x="-261.98" y="-95.4467" font-family="Arial" font-size="10.00">Surname</text>
<polyline fill="none" stroke="black" points="-291.48,-88.4467 -232.48,-88.4467 "/>
<text text-anchor="middle" x="-261.98" y="-76.4467" font-family="Arial" font-size="10.00">xsd:string</text>
</g>
<!-- property_Pets -->
<g id="node2" class="node"><title>property_Pets</title>
<polygon fill="lightgoldenrodyellow" stroke="black" points="-260.87,-137.2 -260.87,-175.2 -99.8696,-175.2 -99.8696,-137.2 -260.87,-137.2"/>
<text text-anchor="middle" x="-180.37" y="-163.2" font-family="Arial" font-size="10.00">Pets</text>
<polyline fill="none" stroke="black" points="-260.87,-156.2 -99.8696,-156.2 "/>
<text text-anchor="middle" x="-180.37" y="-144.2" font-family="Arial" font-size="10.00">http://PdL.com/class#MASCOTA</text>
</g>
<!-- class_ -->
<g id="node16" class="node"><title>class_</title>
<ellipse fill="lightseagreen" stroke="black" cx="-7.62779" cy="-4.32511" rx="27" ry="18"/>
</g>
<!-- property_Pets&#45;&#45;class_ -->
<g id="edge20" class="edge"><title>property_Pets&#45;&#45;class_</title>
<path fill="none" stroke="grey" stroke-dasharray="1,5" d="M-150.826,-136.895C-118.173,-111.148 -66.1641,-65.5452 -34.5828,-35.0666"/>
<polygon fill="grey" stroke="grey" points="-20.1406,-20.6921 -27.9669,-41.1799 -27.2282,-27.7465 -34.3159,-34.801 -34.3159,-34.801 -34.3159,-34.801 -27.2282,-27.7465 -40.6649,-28.4221 -20.1406,-20.6921 -20.1406,-20.6921"/>
<text text-anchor="middle" x="-111.705" y="-89.381" font-family="Arial" font-size="12.00">TypeOf</text>
</g>
<!-- property_Date -->
<g id="node3" class="node"><title>property_Date</title>
<polygon fill="lightgoldenrodyellow" stroke="black" points="146.168,241.879 146.168,203.879 205.168,203.879 205.168,241.879 146.168,241.879"/>
<text text-anchor="middle" x="175.668" y="215.879" font-family="Arial" font-size="10.00">Date</text>
<polyline fill="none" stroke="black" points="146.168,222.879 205.168,222.879 "/>
<text text-anchor="middle" x="175.668" y="234.879" font-family="Arial" font-size="10.00">xsd:string</text>
</g>
<!-- property_BirthDate -->
<g id="node4" class="node"><title>property_BirthDate</title>
<polygon fill="lightgoldenrodyellow" stroke="black" points="-30.7272,-261.651 -30.7272,-299.651 28.2728,-299.651 28.2728,-261.651 -30.7272,-261.651"/>
<text text-anchor="middle" x="-1.22717" y="-287.651" font-family="Arial" font-size="10.00">BirthDate</text>
<polyline fill="none" stroke="black" points="-30.7272,-280.651 28.2728,-280.651 "/>
<text text-anchor="middle" x="-1.22717" y="-268.651" font-family="Arial" font-size="10.00">xsd:string</text>
</g>
<!-- property_Type -->
<g id="node5" class="node"><title>property_Type</title>
<polygon fill="lightgoldenrodyellow" stroke="black" points="215.609,-91.8275 215.609,-129.828 274.609,-129.828 274.609,-91.8275 215.609,-91.8275"/>
<text text-anchor="middle" x="245.109" y="-117.828" font-family="Arial" font-size="10.00">Type</text>
<polyline fill="none" stroke="black" points="215.609,-110.828 274.609,-110.828 "/>
<text text-anchor="middle" x="245.109" y="-98.8275" font-family="Arial" font-size="10.00">xsd:string</text>
</g>
<!-- property_Descendants -->
<g id="node6" class="node"><title>property_Descendants</title>
<polygon fill="lightgoldenrodyellow" stroke="black" points="-205.391,-228.669 -205.391,-266.669 -44.3905,-266.669 -44.3905,-228.669 -205.391,-228.669"/>
<text text-anchor="middle" x="-124.891" y="-254.669" font-family="Arial" font-size="10.00">Descendants</text>
<polyline fill="none" stroke="black" points="-205.391,-247.669 -44.3905,-247.669 "/>
<text text-anchor="middle" x="-124.891" y="-235.669" font-family="Arial" font-size="10.00">http://PdL.com/class#PERSONA</text>
</g>
<!-- property_Descendants&#45;&#45;class_ -->
<g id="edge21" class="edge"><title>property_Descendants&#45;&#45;class_</title>
<path fill="none" stroke="grey" stroke-dasharray="1,5" d="M-111.308,-228.649C-88.1312,-188.295 -42.1883,-93.6523 -19.9185,-41.0927"/>
<polygon fill="grey" stroke="grey" points="-12.2964,-22.3139 -11.479,-44.2304 -16.0573,-31.5797 -19.8183,-40.8455 -19.8183,-40.8455 -19.8183,-40.8455 -16.0573,-31.5797 -28.1575,-37.4607 -12.2964,-22.3139 -12.2964,-22.3139"/>
<text text-anchor="middle" x="-84.613" y="-125.271" font-family="Arial" font-size="12.00">TypeOf</text>
</g>
<!-- property_Race -->
<g id="node7" class="node"><title>property_Race</title>
<polygon fill="lightgoldenrodyellow" stroke="black" points="249.224,21.929 249.224,-16.071 308.224,-16.071 308.224,21.929 249.224,21.929"/>
<text text-anchor="middle" x="278.724" y="-4.07104" font-family="Arial" font-size="10.00">Race</text>
<polyline fill="none" stroke="black" points="249.224,2.92896 308.224,2.92896 "/>
<text text-anchor="middle" x="278.724" y="14.929" font-family="Arial" font-size="10.00">xsd:string</text>
</g>
<!-- property_City -->
<g id="node8" class="node"><title>property_City</title>
<polygon fill="lightgoldenrodyellow" stroke="black" points="25.0733,288.625 25.0733,250.625 84.0733,250.625 84.0733,288.625 25.0733,288.625"/>
<text text-anchor="middle" x="54.5733" y="262.625" font-family="Arial" font-size="10.00">City</text>
<polyline fill="none" stroke="black" points="25.0733,269.625 84.0733,269.625 "/>
<text text-anchor="middle" x="54.5733" y="281.625" font-family="Arial" font-size="10.00">xsd:string</text>
</g>
<!-- property_Rol -->
<g id="node9" class="node"><title>property_Rol</title>
<polygon fill="lightgoldenrodyellow" stroke="black" points="-258.514,145.83 -258.514,107.83 -199.514,107.83 -199.514,145.83 -258.514,145.83"/>
<text text-anchor="middle" x="-229.014" y="119.83" font-family="Arial" font-size="10.00">Rol</text>
<polyline fill="none" stroke="black" points="-258.514,126.83 -199.514,126.83 "/>
<text text-anchor="middle" x="-229.014" y="138.83" font-family="Arial" font-size="10.00">xsd:string</text>
</g>
<!-- property_Salary -->
<g id="node10" class="node"><title>property_Salary</title>
<polygon fill="lightgoldenrodyellow" stroke="black" points="-197.118,232.522 -197.118,194.522 -132.118,194.522 -132.118,232.522 -197.118,232.522"/>
<text text-anchor="middle" x="-164.618" y="206.522" font-family="Arial" font-size="10.00">Salary</text>
<polyline fill="none" stroke="black" points="-197.118,213.522 -132.118,213.522 "/>
<text text-anchor="middle" x="-164.618" y="225.522" font-family="Arial" font-size="10.00">xsd:integer</text>
</g>
<!-- property_UNIXDateTime -->
<g id="node11" class="node"><title>property_UNIXDateTime</title>
<polygon fill="lightgoldenrodyellow" stroke="black" points="190.509,131.691 190.509,93.6909 269.509,93.6909 269.509,131.691 190.509,131.691"/>
<text text-anchor="middle" x="230.009" y="105.691" font-family="Arial" font-size="10.00">UNIXDateTime</text>
<polyline fill="none" stroke="black" points="190.509,112.691 269.509,112.691 "/>
<text text-anchor="middle" x="230.009" y="124.691" font-family="Arial" font-size="10.00">xsd:integer</text>
</g>
<!-- property_CoreMembers -->
<g id="node12" class="node"><title>property_CoreMembers</title>
<polygon fill="lightgoldenrodyellow" stroke="black" points="-144.401,283.11 -144.401,245.11 16.5987,245.11 16.5987,283.11 -144.401,283.11"/>
<text text-anchor="middle" x="-63.9013" y="257.11" font-family="Arial" font-size="10.00">CoreMembers</text>
<polyline fill="none" stroke="black" points="-144.401,264.11 16.5987,264.11 "/>
<text text-anchor="middle" x="-63.9013" y="276.11" font-family="Arial" font-size="10.00">http://PdL.com/class#PERSONA</text>
</g>
<!-- property_CoreMembers&#45;&#45;class_ -->
<g id="edge22" class="edge"><title>property_CoreMembers&#45;&#45;class_</title>
<path fill="none" stroke="grey" stroke-dasharray="1,5" d="M-63.5878,244.914C-58.064,200.568 -35.3947,90.4171 -20.3326,32.5364"/>
<polygon fill="grey" stroke="grey" points="-14.984,13.1585 -28.981,30.043 -17.6447,22.7981 -20.3054,32.4376 -20.3054,32.4376 -20.3054,32.4376 -17.6447,22.7981 -11.6298,34.8322 -14.984,13.1585 -14.984,13.1585"/>
<text text-anchor="middle" x="-60.9602" y="135.325" font-family="Arial" font-size="12.00">TypeOf</text>
</g>
<!-- property_Name -->
<g id="node13" class="node"><title>property_Name</title>
<polygon fill="lightgoldenrodyellow" stroke="black" points="-296.574,45.4403 -296.574,7.44026 -237.574,7.44026 -237.574,45.4403 -296.574,45.4403"/>
<text text-anchor="middle" x="-267.074" y="19.4403" font-family="Arial" font-size="10.00">Name</text>
<polyline fill="none" stroke="black" points="-296.574,26.4403 -237.574,26.4403 "/>
<text text-anchor="middle" x="-267.074" y="38.4403" font-family="Arial" font-size="10.00">xsd:string</text>
</g>
<!-- property_Ascendants -->
<g id="node14" class="node"><title>property_Ascendants</title>
<polygon fill="lightgoldenrodyellow" stroke="black" points="-7.25759,-177.488 -7.25759,-215.488 153.742,-215.488 153.742,-177.488 -7.25759,-177.488"/>
<text text-anchor="middle" x="73.2424" y="-203.488" font-family="Arial" font-size="10.00">Ascendants</text>
<polyline fill="none" stroke="black" points="-7.25759,-196.488 153.742,-196.488 "/>
<text text-anchor="middle" x="73.2424" y="-184.488" font-family="Arial" font-size="10.00">http://PdL.com/class#PERSONA</text>
</g>
<!-- property_Ascendants&#45;&#45;class_ -->
<g id="edge23" class="edge"><title>property_Ascendants&#45;&#45;class_</title>
<path fill="none" stroke="grey" stroke-dasharray="1,5" d="M69.5705,-177.159C59.1906,-144.758 32.0625,-79.1636 12.7486,-38.7419"/>
<polygon fill="grey" stroke="grey" points="3.74693,-20.6912 20.7265,-34.5726 8.2097,-29.6401 12.6725,-38.5891 12.6725,-38.5891 12.6725,-38.5891 8.2097,-29.6401 4.61839,-42.6056 3.74693,-20.6912 3.74693,-20.6912"/>
<text text-anchor="middle" x="22.1596" y="-111.351" font-family="Arial" font-size="12.00">TypeOf</text>
</g>
<!-- property_FamilyTipe -->
<g id="node15" class="node"><title>property_FamilyTipe</title>
<polygon fill="lightgoldenrodyellow" stroke="black" points="147.812,-201.641 147.812,-239.641 211.812,-239.641 211.812,-201.641 147.812,-201.641"/>
<text text-anchor="middle" x="179.812" y="-227.641" font-family="Arial" font-size="10.00">FamilyTipe</text>
<polyline fill="none" stroke="black" points="147.812,-220.641 211.812,-220.641 "/>
<text text-anchor="middle" x="179.812" y="-208.641" font-family="Arial" font-size="10.00">xsd:string</text>
</g>
<!-- class_&#45;&#45;property_Surname -->
<g id="edge2" class="edge"><title>class_&#45;&#45;property_Surname</title>
<path fill="none" stroke="grey" stroke-dasharray="5,2" d="M-32.0161,-12.391C-78.8924,-27.8944 -181.417,-61.8025 -232.224,-78.6058"/>
</g>
<!-- class_&#45;&#45;property_Pets -->
<g id="edge18" class="edge"><title>class_&#45;&#45;property_Pets</title>
<path fill="none" stroke="grey" stroke-dasharray="5,2" d="M-27.9649,-16.5125C-63.0681,-43.0069 -133.927,-105.282 -165.151,-137.052"/>
</g>
<!-- class_&#45;&#45;property_Date -->
<g id="edge12" class="edge"><title>class_&#45;&#45;property_Date</title>
<path fill="none" stroke="grey" stroke-dasharray="5,2" d="M5.2612,11.6514C38.101,52.358 124.818,159.848 160.252,203.77"/>
</g>
<!-- class_&#45;&#45;property_BirthDate -->
<g id="edge4" class="edge"><title>class_&#45;&#45;property_BirthDate</title>
<path fill="none" stroke="grey" stroke-dasharray="5,2" d="M-10.7664,-22.538C-13.8353,-72.3442 -10.6679,-210.48 -5.32935,-261.442"/>
</g>
<!-- class_&#45;&#45;property_BirthDate -->
<g id="edge10" class="edge"><title>class_&#45;&#45;property_BirthDate</title>
<path fill="none" stroke="grey" stroke-dasharray="5,2" d="M-3.64921,-22.3732C1.73547,-72.1036 4.96997,-210.786 1.95955,-261.642"/>
</g>
<!-- class_&#45;&#45;property_Type -->
<g id="edge7" class="edge"><title>class_&#45;&#45;property_Type</title>
<path fill="none" stroke="grey" stroke-dasharray="5,2" d="M15.2467,-13.9643C61.1778,-33.3195 164.578,-76.8917 215.555,-98.3733"/>
</g>
<!-- class_&#45;&#45;property_Descendants -->
<g id="edge17" class="edge"><title>class_&#45;&#45;property_Descendants</title>
<path fill="none" stroke="grey" stroke-dasharray="5,2" d="M-19.6181,-20.596C-44.9821,-63.9603 -101.818,-181.927 -119.757,-228.466"/>
</g>
<!-- class_&#45;&#45;property_Race -->
<g id="edge9" class="edge"><title>class_&#45;&#45;property_Race</title>
<path fill="none" stroke="grey" stroke-dasharray="5,2" d="M19.5696,-3.63613C73.4574,-2.271 193.389,0.767199 249.154,2.17989"/>
</g>
<!-- class_&#45;&#45;property_City -->
<g id="edge13" class="edge"><title>class_&#45;&#45;property_City</title>
<path fill="none" stroke="grey" stroke-dasharray="5,2" d="M-3.5466,13.6495C7.64277,62.9305 38.737,199.878 50.2303,250.498"/>
</g>
<!-- class_&#45;&#45;property_Rol -->
<g id="edge3" class="edge"><title>class_&#45;&#45;property_Rol</title>
<path fill="none" stroke="grey" stroke-dasharray="5,2" d="M-28.0584,7.77853C-67.3431,31.0519 -153.56,82.1289 -199.243,109.193"/>
</g>
<!-- class_&#45;&#45;property_Salary -->
<g id="edge5" class="edge"><title>class_&#45;&#45;property_Salary</title>
<path fill="none" stroke="grey" stroke-dasharray="5,2" d="M-19.4276,12.0488C-47.951,51.6292 -120.524,152.335 -150.91,194.499"/>
</g>
<!-- class_&#45;&#45;property_UNIXDateTime -->
<g id="edge11" class="edge"><title>class_&#45;&#45;property_UNIXDateTime</title>
<path fill="none" stroke="grey" stroke-dasharray="5,2" d="M14.3026,6.47373C54.6326,26.3329 141.043,68.8826 191.399,93.6788"/>
</g>
<!-- class_&#45;&#45;property_CoreMembers -->
<g id="edge16" class="edge"><title>class_&#45;&#45;property_CoreMembers</title>
<path fill="none" stroke="grey" stroke-dasharray="5,2" d="M-7.83621,14.018C-13.7842,62.8169 -41.5211,195.43 -56.0771,245.045"/>
</g>
<!-- class_&#45;&#45;property_Name -->
<g id="edge1" class="edge"><title>class_&#45;&#45;property_Name</title>
<path fill="none" stroke="grey" stroke-dasharray="5,2" d="M-29.6988,6.4427C-76.2558,18.9503 -184.514,32.0493 -237.206,31.834"/>
</g>
<!-- class_&#45;&#45;property_Name -->
<g id="edge8" class="edge"><title>class_&#45;&#45;property_Name</title>
<path fill="none" stroke="grey" stroke-dasharray="5,2" d="M-33.4887,-9.67463C-81.9538,-10.5707 -186.134,1.53152 -237.381,13.7484"/>
</g>
<!-- class_&#45;&#45;property_Name -->
<g id="edge15" class="edge"><title>class_&#45;&#45;property_Name</title>
<path fill="none" stroke="grey" stroke-dasharray="5,2" d="M-34.4159,-1.14855C-83.2256,4.63935 -186.298,16.8617 -237.259,22.9048"/>
</g>
<!-- class_&#45;&#45;property_Ascendants -->
<g id="edge6" class="edge"><title>class_&#45;&#45;property_Ascendants</title>
<path fill="none" stroke="grey" stroke-dasharray="5,2" d="M-4.40104,-22.2526C6.99698,-58.4814 41.1447,-139.986 60.377,-177.265"/>
</g>
<!-- class_&#45;&#45;property_FamilyTipe -->
<g id="edge14" class="edge"><title>class_&#45;&#45;property_FamilyTipe</title>
<path fill="none" stroke="grey" stroke-dasharray="5,2" d="M6.15511,-20.2314C39.8885,-59.1616 126.508,-159.125 163.099,-201.353"/>
</g>
<!-- class_&#45;&#45;class_ -->
<g id="edge24" class="edge"><title>class_&#45;&#45;class_</title>
<path fill="none" stroke="orangered" stroke-dasharray="5,2" d="M19.613,-6.01097C19.7658,-6.01153 19.9183,-6.01195 20.0702,-6.01222"/>
<polygon fill="orangered" stroke="orangered" points="19.613,-2.63926 31.2182,-21.249 20.9564,-12.5487 22.2997,-22.458 22.2997,-22.458 22.2997,-22.458 20.9564,-12.5487 13.3813,-23.6671 19.613,-2.63926 19.613,-2.63926"/>
<text text-anchor="middle" x="84.3722" y="-1.22511" font-family="Arial" font-size="12.00" fill="orangered">Ascendants (1..n) </text>
</g>
<!-- class_&#45;&#45;class_ -->
<g id="edge25" class="edge"><title>class_&#45;&#45;class_</title>
<path fill="none" stroke="orangered" stroke-dasharray="5,2" d="M18.9352,-7.60698C95.1075,-13.1447 290.372,-12.0507 290.372,-4.32511 290.372,2.78937 124.777,4.27987 39.0911,0.146385"/>
<polygon fill="orangered" stroke="orangered" points="18.9352,-1.04325 38.3701,9.11959 28.9178,-0.454013 38.9004,0.135222 38.9004,0.135222 38.9004,0.135222 28.9178,-0.454013 39.4307,-8.84914 18.9352,-1.04325 18.9352,-1.04325"/>
<text text-anchor="middle" x="344.872" y="-1.22511" font-family="Arial" font-size="12.00" fill="orangered">CoreMembers (1..n) </text>
</g>
<!-- class_&#45;&#45;class_ -->
<g id="edge26" class="edge"><title>class_&#45;&#45;class_</title>
<path fill="none" stroke="orangered" stroke-dasharray="5,2" d="M19.2765,-7.33522C75.1909,-10.8524 188.372,-9.84904 188.372,-4.32511 188.372,0.594633 98.5953,1.92862 39.4556,-0.323165"/>
<polygon fill="orangered" stroke="orangered" points="19.2765,-1.31501 38.8105,8.65609 29.2644,-0.824033 39.2523,-0.333061 39.2523,-0.333061 39.2523,-0.333061 29.2644,-0.824033 39.6942,-9.32221 19.2765,-1.31501 19.2765,-1.31501"/>
<text text-anchor="middle" x="239.372" y="-1.22511" font-family="Arial" font-size="12.00" fill="orangered">Descendants (0..n) </text>
</g>
<!-- class_&#45;&#45;class_ -->
<g id="edge27" class="edge"><title>class_&#45;&#45;class_</title>
<path fill="none" stroke="orangered" stroke-dasharray="5,2" d="M19.399,-6.70511C61.14,-8.59013 131.372,-7.79679 131.372,-4.32511 131.372,-1.36876 80.4427,-0.354635 39.5472,-1.28274"/>
<polygon fill="orangered" stroke="orangered" points="19.399,-1.94511 39.0924,7.70727 29.3936,-1.61649 39.3882,-1.28787 39.3882,-1.28787 39.3882,-1.28787 29.3936,-1.61649 39.6839,-10.283 19.399,-1.94511 19.399,-1.94511"/>
<text text-anchor="middle" x="159.872" y="-1.22511" font-family="Arial" font-size="12.00" fill="orangered">Pets (0..n) </text>
</g>
<!-- relationship_Knows -->
<g id="node17" class="node"><title>relationship_Knows</title>
<polygon fill="paleturquoise" stroke="black" points="112.455,66.2227 88.0094,48.2227 39.1188,48.2227 14.6735,66.2227 39.1188,84.2227 88.0094,84.2227 112.455,66.2227"/>
<text text-anchor="middle" x="63.5641" y="69.7227" font-family="Arial" font-size="15.00">Knows</text>
</g>
<!-- class_&#45;&#45;relationship_Knows -->
<g id="edge28" class="edge"><title>class_&#45;&#45;relationship_Knows</title>
<path fill="none" stroke="blue" stroke-width="3" stroke-dasharray="5,2" d="M12.9671,7.91694C23.5819,16.9058 36.3078,29.3003 46.3914,40.3901"/>
<polygon fill="blue" stroke="blue" stroke-width="3" points="49.2461,38.3375 53.199,48.1673 43.9789,42.948 49.2461,38.3375"/>
<text text-anchor="middle" x="47.6793" y="20.7535" font-family="Arial" font-size="12.00" fill="blue">Knows</text>
</g>
<!-- relationship_Knows&#45;&#45;property_UNIXDateTime -->
<g id="edge19" class="edge"><title>relationship_Knows&#45;&#45;property_UNIXDateTime</title>
<path fill="none" stroke="grey" stroke-dasharray="5,2" d="M99.2707,76.1913C126.017,83.6583 162.609,93.8743 190.28,101.599"/>
</g>
<!-- relationship_Knows&#45;&#45;class_ -->
<g id="edge29" class="edge"><title>relationship_Knows&#45;&#45;class_</title>
<path fill="none" stroke="blue" stroke-width="3" stroke-dasharray="5,2" d="M37.4013,49.129C27.7329,40.484 17.0919,29.8954 8.54059,20.3976"/>
<polygon fill="blue" stroke="blue" stroke-width="3" points="5.81333,22.5947 1.91616,12.7426 11.1065,18.0141 5.81333,22.5947"/>
<text text-anchor="middle" x="-4.52903" y="31.3633" font-family="Arial" font-size="12.00" fill="blue">isknownby</text>
</g>
</g>
</svg>
