<?xml version="1.0" encoding="UTF-8" standalone="no"?>
<!DOCTYPE svg PUBLIC "-//W3C//DTD SVG 1.1//EN"
 "http://www.w3.org/Graphics/SVG/1.1/DTD/svg11.dtd">
<!-- Generated by graphviz version 2.38.0 (20140413.2041)
 -->
<!-- Title: properties Pages: 1 -->
<svg width="771pt" height="416pt"
 viewBox="0.00 0.00 770.96 416.13" xmlns="http://www.w3.org/2000/svg" xmlns:xlink="http://www.w3.org/1999/xlink">
<g id="graph0" class="graph" transform="scale(1 1) rotate(0) translate(4 412.132)">
<title>properties</title>
<polygon fill="white" stroke="none" points="-4,4 -4,-412.132 766.96,-412.132 766.96,4 -4,4"/>
<!-- class_FamiliaUnitaria -->
<g id="node1" class="node"><title>class_FamiliaUnitaria</title>
<ellipse fill="lightseagreen" stroke="black" cx="207.48" cy="-112.64" rx="107.46" ry="21.4286"/>
<text text-anchor="middle" x="207.48" y="-107.64" font-family="Arial" font-size="20.00">FamiliaUnitaria</text>
</g>
<!-- class_NucleoFamiliar -->
<g id="node2" class="node"><title>class_NucleoFamiliar</title>
<ellipse fill="lightseagreen" stroke="black" cx="107.48" cy="-21.2132" rx="107.46" ry="21.4286"/>
<text text-anchor="middle" x="107.48" y="-16.2132" font-family="Arial" font-size="20.00">NucleoFamiliar</text>
</g>
<!-- class_FamiliaUnitaria&#45;&#45;class_NucleoFamiliar -->
<g id="edge4" class="edge"><title>class_FamiliaUnitaria&#45;&#45;class_NucleoFamiliar</title>
<path fill="none" stroke="grey" stroke-dasharray="5,2" d="M162.478,-71.3956C151.071,-61.1944 139.313,-50.6798 129.611,-42.0043"/>
<polygon fill="grey" stroke="grey" points="155.925,-79.6219 185.287,-91.793 169.924,-63.9681 155.925,-79.6219"/>
<text text-anchor="middle" x="182.48" y="-63.8264" font-family="Arial" font-size="12.00">inherits</text>
</g>
<!-- class_Mascotas -->
<g id="node7" class="node"><title>class_Mascotas</title>
<ellipse fill="lightseagreen" stroke="black" cx="307.48" cy="-21.2132" rx="74.4932" ry="21.4286"/>
<text text-anchor="middle" x="307.48" y="-16.2132" font-family="Arial" font-size="20.00">Mascotas</text>
</g>
<!-- class_FamiliaUnitaria&#45;&#45;class_Mascotas -->
<g id="edge7" class="edge"><title>class_FamiliaUnitaria&#45;&#45;class_Mascotas</title>
<path fill="none" stroke="grey" stroke-dasharray="5,2" d="M252.191,-71.6562C263.825,-61.2529 275.844,-50.5041 285.693,-41.6967"/>
<polygon fill="grey" stroke="grey" points="245.037,-63.9681 229.673,-91.793 259.035,-79.6219 245.037,-63.9681"/>
<text text-anchor="middle" x="282.48" y="-63.8264" font-family="Arial" font-size="12.00">inherits</text>
</g>
<!-- class_Ascendientes -->
<g id="node3" class="node"><title>class_Ascendientes</title>
<ellipse fill="lightseagreen" stroke="black" cx="431.48" cy="-112.64" rx="98.9899" ry="21.4286"/>
<text text-anchor="middle" x="431.48" y="-107.64" font-family="Arial" font-size="20.00">Ascendientes</text>
</g>
<!-- class_Descendientes -->
<g id="node4" class="node"><title>class_Descendientes</title>
<ellipse fill="lightseagreen" stroke="black" cx="655.48" cy="-112.64" rx="107.46" ry="21.4286"/>
<text text-anchor="middle" x="655.48" y="-107.64" font-family="Arial" font-size="20.00">Descendientes</text>
</g>
<!-- class_PropiedadesPlantilla -->
<g id="node5" class="node"><title>class_PropiedadesPlantilla</title>
<ellipse fill="lightseagreen" stroke="black" cx="431.48" cy="-386.919" rx="141.343" ry="21.4286"/>
<text text-anchor="middle" x="431.48" y="-381.919" font-family="Arial" font-size="20.00">PropiedadesPlantilla</text>
</g>
<!-- class_Ambito -->
<g id="node8" class="node"><title>class_Ambito</title>
<ellipse fill="lightseagreen" stroke="black" cx="431.48" cy="-295.492" rx="56.6372" ry="21.4286"/>
<text text-anchor="middle" x="431.48" y="-290.492" font-family="Arial" font-size="20.00">Ambito</text>
</g>
<!-- class_PropiedadesPlantilla&#45;&#45;class_Ambito -->
<g id="edge1" class="edge"><title>class_PropiedadesPlantilla&#45;&#45;class_Ambito</title>
<path fill="none" stroke="grey" stroke-dasharray="5,2" d="M431.48,-335.368C431.48,-328.9 431.48,-322.597 431.48,-317.014"/>
<polygon fill="grey" stroke="grey" points="420.98,-335.627 431.48,-365.627 441.98,-335.627 420.98,-335.627"/>
<text text-anchor="middle" x="450.48" y="-338.106" font-family="Arial" font-size="12.00">inherits</text>
</g>
<!-- class_RelacionFamiliar -->
<g id="node6" class="node"><title>class_RelacionFamiliar</title>
<ellipse fill="lightseagreen" stroke="black" cx="431.48" cy="-204.066" rx="118.588" ry="21.4286"/>
<text text-anchor="middle" x="431.48" y="-199.066" font-family="Arial" font-size="20.00">RelacionFamiliar</text>
</g>
<!-- class_RelacionFamiliar&#45;&#45;class_FamiliaUnitaria -->
<g id="edge3" class="edge"><title>class_RelacionFamiliar&#45;&#45;class_FamiliaUnitaria</title>
<path fill="none" stroke="grey" stroke-dasharray="5,2" d="M357.016,-173.338C322.784,-159.672 283.263,-143.894 253.45,-131.992"/>
<polygon fill="grey" stroke="grey" points="353.312,-183.165 385.067,-184.537 361.099,-163.662 353.312,-183.165"/>
<text text-anchor="middle" x="352.48" y="-155.253" font-family="Arial" font-size="12.00">inherits</text>
</g>
<!-- class_RelacionFamiliar&#45;&#45;class_Ascendientes -->
<g id="edge5" class="edge"><title>class_RelacionFamiliar&#45;&#45;class_Ascendientes</title>
<path fill="none" stroke="grey" stroke-dasharray="5,2" d="M431.48,-152.516C431.48,-146.047 431.48,-139.744 431.48,-134.161"/>
<polygon fill="grey" stroke="grey" points="420.98,-152.774 431.48,-182.774 441.98,-152.774 420.98,-152.774"/>
<text text-anchor="middle" x="450.48" y="-155.253" font-family="Arial" font-size="12.00">inherits</text>
</g>
<!-- class_RelacionFamiliar&#45;&#45;class_Descendientes -->
<g id="edge6" class="edge"><title>class_RelacionFamiliar&#45;&#45;class_Descendientes</title>
<path fill="none" stroke="grey" stroke-dasharray="5,2" d="M505.945,-173.338C540.176,-159.672 579.698,-143.894 609.51,-131.992"/>
<polygon fill="grey" stroke="grey" points="501.862,-163.662 477.893,-184.537 509.648,-183.165 501.862,-163.662"/>
<text text-anchor="middle" x="575.48" y="-155.253" font-family="Arial" font-size="12.00">inherits</text>
</g>
<!-- class_Ambito&#45;&#45;class_RelacionFamiliar -->
<g id="edge2" class="edge"><title>class_Ambito&#45;&#45;class_RelacionFamiliar</title>
<path fill="none" stroke="grey" stroke-dasharray="5,2" d="M431.48,-243.942C431.48,-237.473 431.48,-231.17 431.48,-225.588"/>
<polygon fill="grey" stroke="grey" points="420.98,-244.2 431.48,-274.2 441.98,-244.2 420.98,-244.2"/>
<text text-anchor="middle" x="450.48" y="-246.679" font-family="Arial" font-size="12.00">inherits</text>
</g>
</g>
</svg>
