<?xml version="1.0" encoding="UTF-8" standalone="no"?>
<!DOCTYPE svg PUBLIC "-//W3C//DTD SVG 1.1//EN"
 "http://www.w3.org/Graphics/SVG/1.1/DTD/svg11.dtd">
<!-- Generated by graphviz version 2.40.1 (20161225.0304)
 -->
<!-- Title: characteristics Pages: 1 -->
<svg width="2047pt" height="233pt"
 viewBox="0.00 0.00 2046.79 233.28" xmlns="http://www.w3.org/2000/svg" xmlns:xlink="http://www.w3.org/1999/xlink">
<g id="graph0" class="graph" transform="scale(1 1) rotate(0) translate(4 229.2792)">
<title>characteristics</title>
<polygon fill="#ffffff" stroke="transparent" points="-4,4 -4,-229.2792 2042.7853,-229.2792 2042.7853,4 -4,4"/>
<!-- class_Palabra -->
<g id="node1" class="node">
<title>class_Palabra</title>
<ellipse fill="#20b2aa" stroke="#000000" cx="998.4975" cy="-21.2132" rx="60.2083" ry="21.4286"/>
<text text-anchor="middle" x="998.4975" y="-16.2132" font-family="Arial" font-size="20.00" fill="#000000">Palabra</text>
</g>
<!-- class_Cronológico -->
<g id="node2" class="node">
<title>class_Cronológico</title>
<ellipse fill="#20b2aa" stroke="#000000" cx="1551.4975" cy="-21.2132" rx="86.9483" ry="21.4286"/>
<text text-anchor="middle" x="1551.4975" y="-16.2132" font-family="Arial" font-size="20.00" fill="#000000">Cronológico</text>
</g>
<!-- class_Presente -->
<g id="node3" class="node">
<title>class_Presente</title>
<ellipse fill="#20b2aa" stroke="#000000" cx="446.4975" cy="-21.2132" rx="68.6788" ry="21.4286"/>
<text text-anchor="middle" x="446.4975" y="-16.2132" font-family="Arial" font-size="20.00" fill="#000000">Presente</text>
</g>
<!-- class_Anticipativo -->
<g id="node4" class="node">
<title>class_Anticipativo</title>
<ellipse fill="#20b2aa" stroke="#000000" cx="1740.4975" cy="-21.2132" rx="84.2917" ry="21.4286"/>
<text text-anchor="middle" x="1740.4975" y="-16.2132" font-family="Arial" font-size="20.00" fill="#000000">Anticipativo</text>
</g>
<!-- class_Idioma -->
<g id="node5" class="node">
<title>class_Idioma</title>
<ellipse fill="#20b2aa" stroke="#000000" cx="231.4975" cy="-112.6396" rx="54.3945" ry="21.4286"/>
<text text-anchor="middle" x="231.4975" y="-107.6396" font-family="Arial" font-size="20.00" fill="#000000">Idioma</text>
</g>
<!-- class_Ingles -->
<g id="node10" class="node">
<title>class_Ingles</title>
<ellipse fill="#20b2aa" stroke="#000000" cx="49.4975" cy="-21.2132" rx="49.4949" ry="21.4286"/>
<text text-anchor="middle" x="49.4975" y="-16.2132" font-family="Arial" font-size="20.00" fill="#000000">Ingles</text>
</g>
<!-- class_Idioma&#45;&#45;class_Ingles -->
<g id="edge3" class="edge">
<title>class_Idioma&#45;&#45;class_Ingles</title>
<path fill="none" stroke="#c0c0c0" stroke-dasharray="5,2" d="M170.6712,-82.5117C164.5286,-79.4499 158.3869,-76.3808 152.4975,-73.4264 128.6639,-61.4706 101.7939,-47.8446 81.4755,-37.5109"/>
<polygon fill="#c0c0c0" stroke="#c0c0c0" points="166.0975,-91.9638 197.6361,-95.9099 175.442,-73.1574 166.0975,-91.9638"/>
<text text-anchor="middle" x="171.9975" y="-63.8264" font-family="Arial" font-size="12.00" fill="#000000">inherits</text>
</g>
<!-- class_Arabe -->
<g id="node14" class="node">
<title>class_Arabe</title>
<ellipse fill="#20b2aa" stroke="#000000" cx="166.4975" cy="-21.2132" rx="49.4949" ry="21.4286"/>
<text text-anchor="middle" x="166.4975" y="-16.2132" font-family="Arial" font-size="20.00" fill="#000000">Arabe</text>
</g>
<!-- class_Idioma&#45;&#45;class_Arabe -->
<g id="edge4" class="edge">
<title>class_Idioma&#45;&#45;class_Arabe</title>
<path fill="none" stroke="#c0c0c0" stroke-dasharray="5,2" d="M199.1258,-67.1069C192.7518,-58.1414 186.3712,-49.1667 180.9647,-41.5622"/>
<polygon fill="#c0c0c0" stroke="#c0c0c0" points="190.8071,-73.5272 216.748,-91.8935 207.9224,-61.3589 190.8071,-73.5272"/>
<text text-anchor="middle" x="222.9975" y="-63.8264" font-family="Arial" font-size="12.00" fill="#000000">inherits</text>
</g>
<!-- class_Espanol -->
<g id="node15" class="node">
<title>class_Espanol</title>
<ellipse fill="#20b2aa" stroke="#000000" cx="296.4975" cy="-21.2132" rx="62.8651" ry="21.4286"/>
<text text-anchor="middle" x="296.4975" y="-16.2132" font-family="Arial" font-size="20.00" fill="#000000">Espanol</text>
</g>
<!-- class_Idioma&#45;&#45;class_Espanol -->
<g id="edge2" class="edge">
<title>class_Idioma&#45;&#45;class_Espanol</title>
<path fill="none" stroke="#c0c0c0" stroke-dasharray="5,2" d="M263.7396,-67.2892C270.0689,-58.3866 276.4112,-49.4657 281.8063,-41.8772"/>
<polygon fill="#c0c0c0" stroke="#c0c0c0" points="255.0725,-61.3589 246.247,-91.8935 272.1879,-73.5272 255.0725,-61.3589"/>
<text text-anchor="middle" x="287.9975" y="-63.8264" font-family="Arial" font-size="12.00" fill="#000000">inherits</text>
</g>
<!-- class_TiempoVerbal -->
<g id="node6" class="node">
<title>class_TiempoVerbal</title>
<ellipse fill="#20b2aa" stroke="#000000" cx="714.4975" cy="-112.6396" rx="99.9045" ry="21.4286"/>
<text text-anchor="middle" x="714.4975" y="-107.6396" font-family="Arial" font-size="20.00" fill="#000000">TiempoVerbal</text>
</g>
<!-- class_TiempoVerbal&#45;&#45;class_Presente -->
<g id="edge6" class="edge">
<title>class_TiempoVerbal&#45;&#45;class_Presente</title>
<path fill="none" stroke="#c0c0c0" stroke-dasharray="5,2" d="M633.0052,-84.8391C586.9845,-69.1394 531.1486,-50.0914 492.6326,-36.9519"/>
<polygon fill="#c0c0c0" stroke="#c0c0c0" points="629.7658,-94.8281 661.5493,-94.5767 636.5462,-74.9528 629.7658,-94.8281"/>
<text text-anchor="middle" x="616.9975" y="-63.8264" font-family="Arial" font-size="12.00" fill="#000000">inherits</text>
</g>
<!-- class_PreteritoImperfecto -->
<g id="node11" class="node">
<title>class_PreteritoImperfecto</title>
<ellipse fill="#20b2aa" stroke="#000000" cx="665.4975" cy="-21.2132" rx="132.4583" ry="21.4286"/>
<text text-anchor="middle" x="665.4975" y="-16.2132" font-family="Arial" font-size="20.00" fill="#000000">PreteritoImperfecto</text>
</g>
<!-- class_TiempoVerbal&#45;&#45;class_PreteritoImperfecto -->
<g id="edge8" class="edge">
<title>class_TiempoVerbal&#45;&#45;class_PreteritoImperfecto</title>
<path fill="none" stroke="#c0c0c0" stroke-dasharray="5,2" d="M688.7746,-64.6448C684.6351,-56.9211 680.5423,-49.2844 676.9703,-42.6198"/>
<polygon fill="#c0c0c0" stroke="#c0c0c0" points="679.7066,-69.953 703.1327,-91.4348 698.2158,-60.0329 679.7066,-69.953"/>
<text text-anchor="middle" x="712.9975" y="-63.8264" font-family="Arial" font-size="12.00" fill="#000000">inherits</text>
</g>
<!-- class_Futuro -->
<g id="node16" class="node">
<title>class_Futuro</title>
<ellipse fill="#20b2aa" stroke="#000000" cx="868.4975" cy="-21.2132" rx="52.1524" ry="21.4286"/>
<text text-anchor="middle" x="868.4975" y="-16.2132" font-family="Arial" font-size="20.00" fill="#000000">Futuro</text>
</g>
<!-- class_TiempoVerbal&#45;&#45;class_Futuro -->
<g id="edge7" class="edge">
<title>class_TiempoVerbal&#45;&#45;class_Futuro</title>
<path fill="none" stroke="#c0c0c0" stroke-dasharray="5,2" d="M774.2622,-77.1586C796.4364,-63.9943 820.6207,-49.6366 838.9372,-38.7625"/>
<polygon fill="#c0c0c0" stroke="#c0c0c0" points="768.7297,-68.2321 748.2934,-92.5757 779.4501,-86.2896 768.7297,-68.2321"/>
<text text-anchor="middle" x="820.9975" y="-63.8264" font-family="Arial" font-size="12.00" fill="#000000">inherits</text>
</g>
<!-- class_Retrospectivo -->
<g id="node7" class="node">
<title>class_Retrospectivo</title>
<ellipse fill="#20b2aa" stroke="#000000" cx="1940.4975" cy="-21.2132" rx="98.0761" ry="21.4286"/>
<text text-anchor="middle" x="1940.4975" y="-16.2132" font-family="Arial" font-size="20.00" fill="#000000">Retrospectivo</text>
</g>
<!-- class_Texto -->
<g id="node8" class="node">
<title>class_Texto</title>
<ellipse fill="#20b2aa" stroke="#000000" cx="1123.4975" cy="-21.2132" rx="47.2526" ry="21.4286"/>
<text text-anchor="middle" x="1123.4975" y="-16.2132" font-family="Arial" font-size="20.00" fill="#000000">Texto</text>
</g>
<!-- class_Oracion -->
<g id="node9" class="node">
<title>class_Oracion</title>
<ellipse fill="#20b2aa" stroke="#000000" cx="1250.4975" cy="-21.2132" rx="61.5366" ry="21.4286"/>
<text text-anchor="middle" x="1250.4975" y="-16.2132" font-family="Arial" font-size="20.00" fill="#000000">Oracion</text>
</g>
<!-- class_Elemento -->
<g id="node12" class="node">
<title>class_Elemento</title>
<ellipse fill="#20b2aa" stroke="#000000" cx="1123.4975" cy="-112.6396" rx="71.3357" ry="21.4286"/>
<text text-anchor="middle" x="1123.4975" y="-107.6396" font-family="Arial" font-size="20.00" fill="#000000">Elemento</text>
</g>
<!-- class_Elemento&#45;&#45;class_Palabra -->
<g id="edge17" class="edge">
<title>class_Elemento&#45;&#45;class_Palabra</title>
<path fill="none" stroke="#c0c0c0" stroke-dasharray="5,2" d="M1071.9501,-74.9373C1055.6959,-63.0488 1038.4214,-50.414 1024.7111,-40.3861"/>
<polygon fill="#c0c0c0" stroke="#c0c0c0" points="1065.9613,-83.5658 1096.3743,-92.8014 1078.3587,-66.6157 1065.9613,-83.5658"/>
<text text-anchor="middle" x="1087.9975" y="-63.8264" font-family="Arial" font-size="12.00" fill="#000000">inherits</text>
</g>
<!-- class_Elemento&#45;&#45;class_Texto -->
<g id="edge14" class="edge">
<title>class_Elemento&#45;&#45;class_Texto</title>
<path fill="none" stroke="#c0c0c0" stroke-dasharray="5,2" d="M1123.4975,-60.9297C1123.4975,-54.5306 1123.4975,-48.2911 1123.4975,-42.7245"/>
<polygon fill="#c0c0c0" stroke="#c0c0c0" points="1112.9976,-60.9728 1123.4975,-90.9728 1133.9976,-60.9729 1112.9976,-60.9728"/>
<text text-anchor="middle" x="1142.9975" y="-63.8264" font-family="Arial" font-size="12.00" fill="#000000">inherits</text>
</g>
<!-- class_Elemento&#45;&#45;class_Oracion -->
<g id="edge16" class="edge">
<title>class_Elemento&#45;&#45;class_Oracion</title>
<path fill="none" stroke="#c0c0c0" stroke-dasharray="5,2" d="M1175.2793,-75.3622C1191.9134,-63.3875 1209.6587,-50.6127 1223.7338,-40.4802"/>
<polygon fill="#c0c0c0" stroke="#c0c0c0" points="1168.9548,-66.9773 1150.7422,-93.0264 1181.2241,-84.0204 1168.9548,-66.9773"/>
<text text-anchor="middle" x="1214.9975" y="-63.8264" font-family="Arial" font-size="12.00" fill="#000000">inherits</text>
</g>
<!-- class_Parrafo -->
<g id="node18" class="node">
<title>class_Parrafo</title>
<ellipse fill="#20b2aa" stroke="#000000" cx="1388.4975" cy="-21.2132" rx="57.9655" ry="21.4286"/>
<text text-anchor="middle" x="1388.4975" y="-16.2132" font-family="Arial" font-size="20.00" fill="#000000">Parrafo</text>
</g>
<!-- class_Elemento&#45;&#45;class_Parrafo -->
<g id="edge15" class="edge">
<title>class_Elemento&#45;&#45;class_Parrafo</title>
<path fill="none" stroke="#c0c0c0" stroke-dasharray="5,2" d="M1199.243,-86.8878C1212.338,-82.414 1225.8154,-77.7958 1238.4975,-73.4264 1274.9959,-60.8515 1316.435,-46.4149 1346.4953,-35.9136"/>
<polygon fill="#c0c0c0" stroke="#c0c0c0" points="1195.8058,-76.9661 1170.7994,-96.5858 1202.5828,-96.8426 1195.8058,-76.9661"/>
<text text-anchor="middle" x="1295.9975" y="-63.8264" font-family="Arial" font-size="12.00" fill="#000000">inherits</text>
</g>
<!-- class_CaracteristicasPlantilla -->
<g id="node13" class="node">
<title>class_CaracteristicasPlantilla</title>
<ellipse fill="#20b2aa" stroke="#000000" cx="844.4975" cy="-204.066" rx="154.7129" ry="21.4286"/>
<text text-anchor="middle" x="844.4975" y="-199.066" font-family="Arial" font-size="20.00" fill="#000000">CaracteristicasPlantilla</text>
</g>
<!-- class_CaracteristicasPlantilla&#45;&#45;class_Idioma -->
<g id="edge1" class="edge">
<title>class_CaracteristicasPlantilla&#45;&#45;class_Idioma</title>
<path fill="none" stroke="#c0c0c0" stroke-dasharray="5,2" d="M709.7343,-183.9667C575.2847,-163.914 375.7338,-134.1519 282.7038,-120.2768"/>
<polygon fill="#c0c0c0" stroke="#c0c0c0" points="708.2468,-194.3608 739.4675,-188.4012 711.3446,-173.5906 708.2468,-194.3608"/>
<text text-anchor="middle" x="594.9975" y="-155.2528" font-family="Arial" font-size="12.00" fill="#000000">inherits</text>
</g>
<!-- class_CaracteristicasPlantilla&#45;&#45;class_TiempoVerbal -->
<g id="edge5" class="edge">
<title>class_CaracteristicasPlantilla&#45;&#45;class_TiempoVerbal</title>
<path fill="none" stroke="#c0c0c0" stroke-dasharray="5,2" d="M789.8923,-165.6633C774.054,-154.5245 757.3704,-142.7913 743.7353,-133.202"/>
<polygon fill="#c0c0c0" stroke="#c0c0c0" points="784.0935,-174.4217 814.6728,-183.091 796.174,-157.2444 784.0935,-174.4217"/>
<text text-anchor="middle" x="806.9975" y="-155.2528" font-family="Arial" font-size="12.00" fill="#000000">inherits</text>
</g>
<!-- class_CaracteristicasPlantilla&#45;&#45;class_Elemento -->
<g id="edge13" class="edge">
<title>class_CaracteristicasPlantilla&#45;&#45;class_Elemento</title>
<path fill="none" stroke="#c0c0c0" stroke-dasharray="5,2" d="M933.0183,-175.0583C980.1399,-159.6169 1036.2597,-141.2268 1075.3285,-128.4243"/>
<polygon fill="#c0c0c0" stroke="#c0c0c0" points="929.5886,-165.1328 904.35,-184.4528 936.1281,-185.0886 929.5886,-165.1328"/>
<text text-anchor="middle" x="1020.9975" y="-155.2528" font-family="Arial" font-size="12.00" fill="#000000">inherits</text>
</g>
<!-- class_Espacio -->
<g id="node17" class="node">
<title>class_Espacio</title>
<ellipse fill="#20b2aa" stroke="#000000" cx="1645.4975" cy="-112.6396" rx="62.4516" ry="21.4286"/>
<text text-anchor="middle" x="1645.4975" y="-107.6396" font-family="Arial" font-size="20.00" fill="#000000">Espacio</text>
</g>
<!-- class_CaracteristicasPlantilla&#45;&#45;class_Espacio -->
<g id="edge9" class="edge">
<title>class_CaracteristicasPlantilla&#45;&#45;class_Espacio</title>
<path fill="none" stroke="#c0c0c0" stroke-dasharray="5,2" d="M993.6246,-187.0446C1172.1351,-166.6694 1462.486,-133.5286 1586.4107,-119.3838"/>
<polygon fill="#c0c0c0" stroke="#c0c0c0" points="992.166,-176.6428 963.5503,-190.4773 994.5476,-197.5073 992.166,-176.6428"/>
<text text-anchor="middle" x="1312.9975" y="-155.2528" font-family="Arial" font-size="12.00" fill="#000000">inherits</text>
</g>
<!-- class_Espacio&#45;&#45;class_Cronológico -->
<g id="edge10" class="edge">
<title>class_Espacio&#45;&#45;class_Cronológico</title>
<path fill="none" stroke="#c0c0c0" stroke-dasharray="5,2" d="M1603.088,-71.3913C1592.6529,-61.2418 1581.913,-50.796 1572.9525,-42.0808"/>
<polygon fill="#c0c0c0" stroke="#c0c0c0" points="1595.8094,-78.9593 1624.6358,-92.3491 1610.4511,-63.9054 1595.8094,-78.9593"/>
<text text-anchor="middle" x="1623.9975" y="-63.8264" font-family="Arial" font-size="12.00" fill="#000000">inherits</text>
</g>
<!-- class_Espacio&#45;&#45;class_Anticipativo -->
<g id="edge12" class="edge">
<title>class_Espacio&#45;&#45;class_Anticipativo</title>
<path fill="none" stroke="#c0c0c0" stroke-dasharray="5,2" d="M1688.5207,-71.2348C1699.1442,-61.0109 1710.0691,-50.4969 1719.1443,-41.7631"/>
<polygon fill="#c0c0c0" stroke="#c0c0c0" points="1680.916,-63.9808 1666.5811,-92.3491 1695.4779,-79.1119 1680.916,-63.9808"/>
<text text-anchor="middle" x="1718.9975" y="-63.8264" font-family="Arial" font-size="12.00" fill="#000000">inherits</text>
</g>
<!-- class_Espacio&#45;&#45;class_Retrospectivo -->
<g id="edge11" class="edge">
<title>class_Espacio&#45;&#45;class_Retrospectivo</title>
<path fill="none" stroke="#c0c0c0" stroke-dasharray="5,2" d="M1720.2728,-89.4652C1771.2287,-73.673 1837.6288,-53.0943 1884.1418,-38.679"/>
<polygon fill="#c0c0c0" stroke="#c0c0c0" points="1717.1383,-79.4439 1691.5912,-98.3542 1723.3549,-99.5027 1717.1383,-79.4439"/>
<text text-anchor="middle" x="1830.9975" y="-63.8264" font-family="Arial" font-size="12.00" fill="#000000">inherits</text>
</g>
</g>
</svg>
