<?xml version="1.0" encoding="UTF-8" standalone="no"?>
<!DOCTYPE svg PUBLIC "-//W3C//DTD SVG 1.1//EN"
 "http://www.w3.org/Graphics/SVG/1.1/DTD/svg11.dtd">
<!-- Generated by graphviz version 2.40.1 (20161225.0304)
 -->
<!-- Title: properties Pages: 1 -->
<svg width="758pt" height="416pt"
 viewBox="0.00 0.00 758.42 416.13" xmlns="http://www.w3.org/2000/svg" xmlns:xlink="http://www.w3.org/1999/xlink">
<g id="graph0" class="graph" transform="scale(1 1) rotate(0) translate(4 412.132)">
<title>properties</title>
<polygon fill="#ffffff" stroke="transparent" points="-4,4 -4,-412.132 754.4249,-412.132 754.4249,4 -4,4"/>
<!-- class_FamiliaUnitaria -->
<g id="node1" class="node">
<title>class_FamiliaUnitaria</title>
<ellipse fill="#20b2aa" stroke="#000000" cx="204.066" cy="-112.6396" rx="106.1321" ry="21.4286"/>
<text text-anchor="middle" x="204.066" y="-107.6396" font-family="Arial" font-size="20.00" fill="#000000">FamiliaUnitaria</text>
</g>
<!-- class_NucleoFamiliar -->
<g id="node2" class="node">
<title>class_NucleoFamiliar</title>
<ellipse fill="#20b2aa" stroke="#000000" cx="106.066" cy="-21.2132" rx="106.1321" ry="21.4286"/>
<text text-anchor="middle" x="106.066" y="-16.2132" font-family="Arial" font-size="20.00" fill="#000000">NucleoFamiliar</text>
</g>
<!-- class_FamiliaUnitaria&#45;&#45;class_NucleoFamiliar -->
<g id="edge4" class="edge">
<title>class_FamiliaUnitaria&#45;&#45;class_NucleoFamiliar</title>
<path fill="none" stroke="#000000" stroke-dasharray="5,2" d="M159.5806,-71.1382C148.8337,-61.1121 137.7946,-50.8136 128.555,-42.1936"/>
<polygon fill="#000000" stroke="#000000" points="152.7295,-79.1064 181.8283,-91.8935 167.0548,-63.7511 152.7295,-79.1064"/>
<text text-anchor="middle" x="180.566" y="-63.8264" font-family="Arial" font-size="12.00" fill="#000000">inherits</text>
</g>
<!-- class_Mascotas -->
<g id="node7" class="node">
<title>class_Mascotas</title>
<ellipse fill="#20b2aa" stroke="#000000" cx="302.066" cy="-21.2132" rx="72.25" ry="21.4286"/>
<text text-anchor="middle" x="302.066" y="-16.2132" font-family="Arial" font-size="20.00" fill="#000000">Mascotas</text>
</g>
<!-- class_FamiliaUnitaria&#45;&#45;class_Mascotas -->
<g id="edge7" class="edge">
<title>class_FamiliaUnitaria&#45;&#45;class_Mascotas</title>
<path fill="none" stroke="#000000" stroke-dasharray="5,2" d="M248.4433,-71.2391C259.4879,-60.9353 270.8486,-50.3367 280.2539,-41.5622"/>
<polygon fill="#000000" stroke="#000000" points="241.0772,-63.7511 226.3037,-91.8935 255.4026,-79.1064 241.0772,-63.7511"/>
<text text-anchor="middle" x="278.566" y="-63.8264" font-family="Arial" font-size="12.00" fill="#000000">inherits</text>
</g>
<!-- class_Ascendientes -->
<g id="node3" class="node">
<title>class_Ascendientes</title>
<ellipse fill="#20b2aa" stroke="#000000" cx="425.066" cy="-112.6396" rx="96.7474" ry="21.4286"/>
<text text-anchor="middle" x="425.066" y="-107.6396" font-family="Arial" font-size="20.00" fill="#000000">Ascendientes</text>
</g>
<!-- class_Descendientes -->
<g id="node4" class="node">
<title>class_Descendientes</title>
<ellipse fill="#20b2aa" stroke="#000000" cx="645.066" cy="-112.6396" rx="105.218" ry="21.4286"/>
<text text-anchor="middle" x="645.066" y="-107.6396" font-family="Arial" font-size="20.00" fill="#000000">Descendientes</text>
</g>
<!-- class_PropiedadesPlantilla -->
<g id="node5" class="node">
<title>class_PropiedadesPlantilla</title>
<ellipse fill="#20b2aa" stroke="#000000" cx="425.066" cy="-386.9188" rx="140.9288" ry="21.4286"/>
<text text-anchor="middle" x="425.066" y="-381.9188" font-family="Arial" font-size="20.00" fill="#000000">PropiedadesPlantilla</text>
</g>
<!-- class_Ambito -->
<g id="node8" class="node">
<title>class_Ambito</title>
<ellipse fill="#20b2aa" stroke="#000000" cx="425.066" cy="-295.4924" rx="55.7232" ry="21.4286"/>
<text text-anchor="middle" x="425.066" y="-290.4924" font-family="Arial" font-size="20.00" fill="#000000">Ambito</text>
</g>
<!-- class_PropiedadesPlantilla&#45;&#45;class_Ambito -->
<g id="edge1" class="edge">
<title>class_PropiedadesPlantilla&#45;&#45;class_Ambito</title>
<path fill="none" stroke="#000000" stroke-dasharray="5,2" d="M425.066,-335.2089C425.066,-328.8099 425.066,-322.5704 425.066,-317.0037"/>
<polygon fill="#000000" stroke="#000000" points="414.5661,-335.252 425.066,-365.252 435.5661,-335.2521 414.5661,-335.252"/>
<text text-anchor="middle" x="444.566" y="-338.1056" font-family="Arial" font-size="12.00" fill="#000000">inherits</text>
</g>
<!-- class_RelacionFamiliar -->
<g id="node6" class="node">
<title>class_RelacionFamiliar</title>
<ellipse fill="#20b2aa" stroke="#000000" cx="425.066" cy="-204.066" rx="116.8455" ry="21.4286"/>
<text text-anchor="middle" x="425.066" y="-199.066" font-family="Arial" font-size="20.00" fill="#000000">RelacionFamiliar</text>
</g>
<!-- class_RelacionFamiliar&#45;&#45;class_FamiliaUnitaria -->
<g id="edge3" class="edge">
<title>class_RelacionFamiliar&#45;&#45;class_FamiliaUnitaria</title>
<path fill="none" stroke="#000000" stroke-dasharray="5,2" d="M350.1504,-173.0739C317.0808,-159.3932 279.2509,-143.7432 250.3743,-131.7971"/>
<polygon fill="#000000" stroke="#000000" points="346.1917,-182.7991 377.927,-184.5649 354.2195,-163.3941 346.1917,-182.7991"/>
<text text-anchor="middle" x="347.566" y="-155.2528" font-family="Arial" font-size="12.00" fill="#000000">inherits</text>
</g>
<!-- class_RelacionFamiliar&#45;&#45;class_Ascendientes -->
<g id="edge5" class="edge">
<title>class_RelacionFamiliar&#45;&#45;class_Ascendientes</title>
<path fill="none" stroke="#000000" stroke-dasharray="5,2" d="M425.066,-152.3561C425.066,-145.957 425.066,-139.7175 425.066,-134.1509"/>
<polygon fill="#000000" stroke="#000000" points="414.5661,-152.3992 425.066,-182.3992 435.5661,-152.3993 414.5661,-152.3992"/>
<text text-anchor="middle" x="444.566" y="-155.2528" font-family="Arial" font-size="12.00" fill="#000000">inherits</text>
</g>
<!-- class_RelacionFamiliar&#45;&#45;class_Descendientes -->
<g id="edge6" class="edge">
<title>class_RelacionFamiliar&#45;&#45;class_Descendientes</title>
<path fill="none" stroke="#000000" stroke-dasharray="5,2" d="M499.8927,-172.9699C532.7533,-159.3139 570.2941,-143.7129 598.9672,-131.7971"/>
<polygon fill="#000000" stroke="#000000" points="495.6653,-163.3561 471.9917,-184.5649 503.7242,-182.7482 495.6653,-163.3561"/>
<text text-anchor="middle" x="567.566" y="-155.2528" font-family="Arial" font-size="12.00" fill="#000000">inherits</text>
</g>
<!-- class_Ambito&#45;&#45;class_RelacionFamiliar -->
<g id="edge2" class="edge">
<title>class_Ambito&#45;&#45;class_RelacionFamiliar</title>
<path fill="none" stroke="#000000" stroke-dasharray="5,2" d="M425.066,-243.7825C425.066,-237.3835 425.066,-231.144 425.066,-225.5773"/>
<polygon fill="#000000" stroke="#000000" points="414.5661,-243.8256 425.066,-273.8256 435.5661,-243.8257 414.5661,-243.8256"/>
<text text-anchor="middle" x="444.566" y="-246.6792" font-family="Arial" font-size="12.00" fill="#000000">inherits</text>
</g>
</g>
</svg>
