<?xml version="1.0" encoding="UTF-8" standalone="no"?>
<!DOCTYPE svg PUBLIC "-//W3C//DTD SVG 1.1//EN"
 "http://www.w3.org/Graphics/SVG/1.1/DTD/svg11.dtd">
<!-- Generated by graphviz version 2.40.1 (20161225.0304)
 -->
<!-- Title: domain Pages: 1 -->
<svg width="866pt" height="777pt"
 viewBox="0.00 0.00 866.24 776.59" xmlns="http://www.w3.org/2000/svg" xmlns:xlink="http://www.w3.org/1999/xlink">
<g id="graph0" class="graph" transform="scale(1 1) rotate(0) translate(4 772.5863)">
<title>domain</title>
<polygon fill="#ffffff" stroke="transparent" points="-4,4 -4,-772.5863 862.2352,-772.5863 862.2352,4 -4,4"/>
<!-- property_apellidos -->
<g id="node1" class="node">
<title>property_apellidos</title>
<polygon fill="#fafad2" stroke="#000000" stroke-dasharray="5,2" points="533.6795,-325.465 533.6795,-363.465 592.6795,-363.465 592.6795,-325.465 533.6795,-325.465"/>
<text text-anchor="middle" x="563.1795" y="-351.465" font-family="Arial" font-size="10.00" fill="#000000">apellidos</text>
<polyline fill="none" stroke="#000000" stroke-dasharray="5,2" points="533.6795,-344.465 592.6795,-344.465 "/>
<text text-anchor="middle" x="563.1795" y="-332.465" font-family="Arial" font-size="10.00" fill="#000000">xsd:string</text>
</g>
<!-- property_nombreMascota -->
<g id="node2" class="node">
<title>property_nombreMascota</title>
<polygon fill="#fafad2" stroke="#000000" points="192.5902,-.5 192.5902,-38.5 280.5902,-38.5 280.5902,-.5 192.5902,-.5"/>
<text text-anchor="middle" x="236.5902" y="-26.5" font-family="Arial" font-size="10.00" fill="#000000">nombreMascota</text>
<polyline fill="none" stroke="#000000" points="192.5902,-19.5 280.5902,-19.5 "/>
<text text-anchor="middle" x="236.5902" y="-7.5" font-family="Arial" font-size="10.00" fill="#000000">xsd:string</text>
</g>
<!-- property_Mascotas -->
<g id="node3" class="node">
<title>property_Mascotas</title>
<polygon fill="#fafad2" stroke="#000000" points="95.1001,-344.512 95.1001,-382.512 245.1001,-382.512 245.1001,-344.512 95.1001,-344.512"/>
<text text-anchor="middle" x="170.1001" y="-370.512" font-family="Arial" font-size="10.00" fill="#000000">Mascotas</text>
<polyline fill="none" stroke="#000000" points="95.1001,-363.512 245.1001,-363.512 "/>
<text text-anchor="middle" x="170.1001" y="-351.512" font-family="Arial" font-size="10.00" fill="#000000">http://PdL.com/class#Mascota</text>
</g>
<!-- class_Mascota -->
<g id="node9" class="node">
<title>class_Mascota</title>
<ellipse fill="#20b2aa" stroke="#000000" cx="304.6249" cy="-243.7581" rx="65.1077" ry="21.4286"/>
<text text-anchor="middle" x="304.6249" y="-238.7581" font-family="Arial" font-size="20.00" fill="#000000">Mascota</text>
</g>
<!-- property_Mascotas&#45;&#45;class_Mascota -->
<g id="edge10" class="edge">
<title>property_Mascotas&#45;&#45;class_Mascota</title>
<path fill="none" stroke="#c0c0c0" stroke-dasharray="1,5" d="M191.7139,-344.2715C211.9662,-326.2428 242.6726,-298.908 266.9535,-277.2932"/>
<polygon fill="#c0c0c0" stroke="#c0c0c0" points="282.1676,-263.7496 273.2134,-283.7701 274.6984,-270.3987 267.2292,-277.0478 267.2292,-277.0478 267.2292,-277.0478 274.6984,-270.3987 261.245,-270.3255 282.1676,-263.7496 282.1676,-263.7496"/>
<text text-anchor="middle" x="209.3337" y="-314.1823" font-family="Arial" font-size="12.00" fill="#000000">TypeOf</text>
</g>
<!-- property_name -->
<g id="node4" class="node">
<title>property_name</title>
<polygon fill="#fafad2" stroke="#000000" points="579.2895,-572.6401 579.2895,-610.6401 638.2895,-610.6401 638.2895,-572.6401 579.2895,-572.6401"/>
<text text-anchor="middle" x="608.7895" y="-598.6401" font-family="Arial" font-size="10.00" fill="#000000">name</text>
<polyline fill="none" stroke="#000000" points="579.2895,-591.6401 638.2895,-591.6401 "/>
<text text-anchor="middle" x="608.7895" y="-579.6401" font-family="Arial" font-size="10.00" fill="#000000">xsd:string</text>
</g>
<!-- property_edad -->
<g id="node5" class="node">
<title>property_edad</title>
<polygon fill="#fafad2" stroke="#000000" points="339.0505,-730.0863 339.0505,-768.0863 404.0505,-768.0863 404.0505,-730.0863 339.0505,-730.0863"/>
<text text-anchor="middle" x="371.5505" y="-756.0863" font-family="Arial" font-size="10.00" fill="#000000">edad</text>
<polyline fill="none" stroke="#000000" points="339.0505,-749.0863 404.0505,-749.0863 "/>
<text text-anchor="middle" x="371.5505" y="-737.0863" font-family="Arial" font-size="10.00" fill="#000000">xsd:integer</text>
</g>
<!-- property_fechaUNIX -->
<g id="node6" class="node">
<title>property_fechaUNIX</title>
<polygon fill="#fafad2" stroke="#000000" points="0,-696.9105 0,-734.9105 78,-734.9105 78,-696.9105 0,-696.9105"/>
<text text-anchor="middle" x="39" y="-722.9105" font-family="Arial" font-size="10.00" fill="#000000">fechaUNIX</text>
<polyline fill="none" stroke="#000000" points="0,-715.9105 78,-715.9105 "/>
<text text-anchor="middle" x="39" y="-703.9105" font-family="Arial" font-size="10.00" fill="#000000">xsd:DateTime</text>
</g>
<!-- class_Hijo -->
<g id="node7" class="node">
<title>class_Hijo</title>
<ellipse fill="#20b2aa" stroke="#000000" cx="758.6662" cy="-425.8106" rx="36.125" ry="21.4286"/>
<text text-anchor="middle" x="758.6662" y="-420.8106" font-family="Arial" font-size="20.00" fill="#000000">Hijo</text>
</g>
<!-- class_Hijo&#45;&#45;property_apellidos -->
<g id="edge1" class="edge">
<title>class_Hijo&#45;&#45;property_apellidos</title>
<path fill="none" stroke="#c0c0c0" stroke-dasharray="5,2" d="M728.976,-413.456C692.1265,-398.1222 629.6585,-372.1281 592.8282,-356.8024"/>
</g>
<!-- class_Hijo&#45;&#45;property_name -->
<g id="edge6" class="edge">
<title>class_Hijo&#45;&#45;property_name</title>
<path fill="none" stroke="#c0c0c0" stroke-dasharray="5,2" d="M741.4734,-444.8334C712.6396,-476.7362 654.8656,-540.6597 626.012,-572.5845"/>
</g>
<!-- class_Nieto -->
<g id="node10" class="node">
<title>class_Nieto</title>
<ellipse fill="#20b2aa" stroke="#000000" cx="374.3645" cy="-493.2453" rx="44.5955" ry="21.4286"/>
<text text-anchor="middle" x="374.3645" y="-488.2453" font-family="Arial" font-size="20.00" fill="#000000">Nieto</text>
</g>
<!-- class_Hijo&#45;&#45;class_Nieto -->
<g id="edge13" class="edge">
<title>class_Hijo&#45;&#45;class_Nieto</title>
<path fill="none" stroke="#000000" stroke-dasharray="5,2" d="M694.2751,-437.1095C615.1939,-450.9862 483.3204,-474.1264 416.2704,-485.8919"/>
<polygon fill="#000000" stroke="#000000" points="696.1504,-447.441 723.8842,-431.9139 692.5209,-426.757 696.1504,-447.441"/>
<text text-anchor="middle" x="535.7728" y="-464.9007" font-family="Arial" font-size="12.00" fill="#000000">inherits</text>
</g>
<!-- class_Principal -->
<g id="node8" class="node">
<title>class_Principal</title>
<ellipse fill="#20b2aa" stroke="#000000" cx="792.4743" cy="-738.9958" rx="65.5227" ry="21.4286"/>
<text text-anchor="middle" x="792.4743" y="-733.9958" font-family="Arial" font-size="20.00" fill="#000000">Principal</text>
</g>
<!-- class_Principal&#45;&#45;property_name -->
<g id="edge2" class="edge">
<title>class_Principal&#45;&#45;property_name</title>
<path fill="none" stroke="#c0c0c0" stroke-dasharray="5,2" d="M767.7018,-719.1228C732.2526,-690.6847 667.4916,-638.7321 632.5883,-610.732"/>
</g>
<!-- class_Principal&#45;&#45;class_Hijo -->
<g id="edge12" class="edge">
<title>class_Principal&#45;&#45;class_Hijo</title>
<path fill="none" stroke="#000000" stroke-dasharray="5,2" d="M786.9148,-687.4948C779.3746,-617.6457 766.2418,-495.9886 760.9615,-447.0736"/>
<polygon fill="#000000" stroke="#000000" points="776.4913,-688.7696 790.1505,-717.4693 797.37,-686.5157 776.4913,-688.7696"/>
<text text-anchor="middle" x="754.4382" y="-570.6842" font-family="Arial" font-size="12.00" fill="#000000">inherits</text>
</g>
<!-- class_Mascota&#45;&#45;property_nombreMascota -->
<g id="edge3" class="edge">
<title>class_Mascota&#45;&#45;property_nombreMascota</title>
<path fill="none" stroke="#c0c0c0" stroke-dasharray="5,2" d="M298.1014,-222.2553C284.8644,-178.623 255.0378,-80.3077 242.4119,-38.6898"/>
</g>
<!-- class_Nieto&#45;&#45;property_apellidos -->
<g id="edge8" class="edge">
<title>class_Nieto&#45;&#45;property_apellidos</title>
<path fill="none" stroke="#c0c0c0" stroke-dasharray="5,2" d="M397.5169,-475.0019C433.4602,-446.6797 502.3481,-392.3982 538.9419,-363.5634"/>
</g>
<!-- class_Nieto&#45;&#45;property_Mascotas -->
<g id="edge5" class="edge">
<title>class_Nieto&#45;&#45;property_Mascotas</title>
<path fill="none" stroke="#c0c0c0" stroke-dasharray="5,2" d="M347.2398,-476.0177C309.1481,-451.8247 240.0326,-407.9278 200.3319,-382.7129"/>
</g>
<!-- class_Nieto&#45;&#45;property_name -->
<g id="edge7" class="edge">
<title>class_Nieto&#45;&#45;property_name</title>
<path fill="none" stroke="#c0c0c0" stroke-dasharray="5,2" d="M407.9519,-507.3428C453.7821,-526.5791 535.2029,-560.7537 578.9767,-579.1268"/>
</g>
<!-- class_Nieto&#45;&#45;property_edad -->
<g id="edge4" class="edge">
<title>class_Nieto&#45;&#45;property_edad</title>
<path fill="none" stroke="#c0c0c0" stroke-dasharray="5,2" d="M374.1294,-514.6181C373.5905,-563.617 372.2728,-683.4135 371.7597,-730.0592"/>
</g>
<!-- class_Nieto&#45;&#45;class_Mascota -->
<g id="edge11" class="edge">
<title>class_Nieto&#45;&#45;class_Mascota</title>
<path fill="none" stroke="#ff4500" stroke-dasharray="5,2" d="M368.4185,-471.9741C356.8125,-430.4547 330.969,-338.0018 315.98,-284.38"/>
<polygon fill="#ff4500" stroke="#ff4500" points="310.5558,-264.9754 324.6078,-281.8141 313.248,-274.6063 315.9401,-284.2371 315.9401,-284.2371 315.9401,-284.2371 313.248,-274.6063 307.2724,-286.66 310.5558,-264.9754 310.5558,-264.9754"/>
<text text-anchor="middle" x="298.6993" y="-381.5771" font-family="Arial" font-size="12.00" fill="#ff4500">Mascotas (0..n) </text>
</g>
<!-- relationship_conoceA -->
<g id="node11" class="node">
<title>relationship_conoceA</title>
<polygon fill="#afeeee" stroke="#000000" points="304.0029,-580.7236 273.824,-598.7236 213.4663,-598.7236 183.2875,-580.7236 213.4663,-562.7236 273.824,-562.7236 304.0029,-580.7236"/>
<text text-anchor="middle" x="243.6452" y="-577.2236" font-family="Arial" font-size="15.00" fill="#000000">conoceA</text>
</g>
<!-- class_Nieto&#45;&#45;relationship_conoceA -->
<g id="edge14" class="edge">
<title>class_Nieto&#45;&#45;relationship_conoceA</title>
<path fill="none" stroke="#0000ff" stroke-width="3" stroke-dasharray="5,2" d="M341.8359,-508.1063C324.8735,-518.2227 303.9504,-531.9313 285.7709,-544.7457"/>
<polygon fill="#0000ff" stroke="#0000ff" stroke-width="3" points="279.4239,-536.3799 261.5182,-562.6408 291.8923,-553.2778 279.4239,-536.3799"/>
<text text-anchor="middle" x="274.3034" y="-529.826" font-family="Arial" font-size="12.00" fill="#0000ff">conoceA (0..n)</text>
</g>
<!-- relationship_conoceA&#45;&#45;property_fechaUNIX -->
<g id="edge9" class="edge">
<title>relationship_conoceA&#45;&#45;property_fechaUNIX</title>
<path fill="none" stroke="#c0c0c0" stroke-dasharray="5,2" d="M216.0458,-598.9555C177.3152,-624.5406 107.1788,-670.8722 67.8072,-696.8807"/>
</g>
<!-- relationship_conoceA&#45;&#45;class_Nieto -->
<g id="edge15" class="edge">
<title>relationship_conoceA&#45;&#45;class_Nieto</title>
<path fill="none" stroke="#0000ff" stroke-width="3" stroke-dasharray="5,2" d="M277.8718,-564.8459C294.0373,-555.1288 313.4986,-542.3759 330.7066,-530.3008"/>
<polygon fill="#0000ff" stroke="#0000ff" stroke-width="3" points="337.1117,-538.6245 355.0956,-512.4171 324.6938,-521.6895 337.1117,-538.6245"/>
<text text-anchor="middle" x="247.2892" y="-550.9733" font-family="Arial" font-size="12.00" fill="#0000ff">esConocidoPor (0..n)</text>
</g>
</g>
</svg>
