<?xml version="1.0" encoding="UTF-8" standalone="no"?>
<!DOCTYPE svg PUBLIC "-//W3C//DTD SVG 1.1//EN"
 "http://www.w3.org/Graphics/SVG/1.1/DTD/svg11.dtd">
<!-- Generated by graphviz version 2.38.0 (20140413.2041)
 -->
<!-- Title: domain Pages: 1 -->
<svg width="816pt" height="1012pt"
 viewBox="0.00 0.00 815.65 1011.56" xmlns="http://www.w3.org/2000/svg" xmlns:xlink="http://www.w3.org/1999/xlink">
<g id="graph0" class="graph" transform="scale(1 1) rotate(0) translate(458.261 386.569)">
<title>domain</title>
<polygon fill="white" stroke="none" points="-458.261,624.988 -458.261,-386.569 357.387,-386.569 357.387,624.988 -458.261,624.988"/>
<!-- property_apellidos -->
<g id="node1" class="node"><title>property_apellidos</title>
<polygon fill="lightgoldenrodyellow" stroke="black" stroke-dasharray="5,2" points="-277.222,301.606 -277.222,263.606 -218.222,263.606 -218.222,301.606 -277.222,301.606"/>
<text text-anchor="middle" x="-247.722" y="275.606" font-family="Arial" font-size="10.00">apellidos</text>
<polyline fill="none" stroke="black" stroke-dasharray="5,2" points="-277.222,282.606 -218.222,282.606 "/>
<text text-anchor="middle" x="-247.722" y="294.606" font-family="Arial" font-size="10.00">xsd:string</text>
</g>
<!-- property_nombreMascota -->
<g id="node2" class="node"><title>property_nombreMascota</title>
<polygon fill="lightgoldenrodyellow" stroke="black" points="-454.261,-282.404 -454.261,-320.404 -368.261,-320.404 -368.261,-282.404 -454.261,-282.404"/>
<text text-anchor="middle" x="-411.261" y="-308.404" font-family="Arial" font-size="10.00">nombreMascota</text>
<polyline fill="none" stroke="black" points="-454.261,-301.404 -368.261,-301.404 "/>
<text text-anchor="middle" x="-411.261" y="-289.404" font-family="Arial" font-size="10.00">xsd:string</text>
</g>
<!-- property_Mascotas -->
<g id="node3" class="node"><title>property_Mascotas</title>
<polygon fill="lightgoldenrodyellow" stroke="black" points="-148.981,-281.877 -148.981,-319.877 1.01884,-319.877 1.01884,-281.877 -148.981,-281.877"/>
<text text-anchor="middle" x="-73.9812" y="-307.877" font-family="Arial" font-size="10.00">Mascotas</text>
<polyline fill="none" stroke="black" points="-148.981,-300.877 1.01884,-300.877 "/>
<text text-anchor="middle" x="-73.9812" y="-288.877" font-family="Arial" font-size="10.00">http://PdL.com/class#Mascota</text>
</g>
<!-- class_Mascota -->
<g id="node9" class="node"><title>class_Mascota</title>
<ellipse fill="lightseagreen" stroke="black" cx="-209.805" cy="-177.849" rx="67.3507" ry="21.4286"/>
<text text-anchor="middle" x="-209.805" y="-172.849" font-family="Arial" font-size="20.00">Mascota</text>
</g>
<!-- property_Mascotas&#45;&#45;class_Mascota -->
<g id="edge7" class="edge"><title>property_Mascotas&#45;&#45;class_Mascota</title>
<path fill="none" stroke="grey" stroke-dasharray="1,5" d="M-95.2036,-281.654C-120.273,-258.946 -161.793,-221.337 -187.376,-198.164"/>
<text text-anchor="middle" x="-160.29" y="-243.309" font-family="Arial" font-size="12.00">TypeOf</text>
</g>
<!-- property_name -->
<g id="node4" class="node"><title>property_name</title>
<polygon fill="lightgoldenrodyellow" stroke="black" points="113.186,620.488 113.186,582.488 172.186,582.488 172.186,620.488 113.186,620.488"/>
<text text-anchor="middle" x="142.686" y="594.488" font-family="Arial" font-size="10.00">name</text>
<polyline fill="none" stroke="black" points="113.186,601.488 172.186,601.488 "/>
<text text-anchor="middle" x="142.686" y="613.488" font-family="Arial" font-size="10.00">xsd:string</text>
</g>
<!-- property_edad -->
<g id="node5" class="node"><title>property_edad</title>
<polygon fill="lightgoldenrodyellow" stroke="black" points="232.644,6.90232 232.644,-31.0977 297.644,-31.0977 297.644,6.90232 232.644,6.90232"/>
<text text-anchor="middle" x="265.144" y="-19.0977" font-family="Arial" font-size="10.00">edad</text>
<polyline fill="none" stroke="black" points="232.644,-12.0977 297.644,-12.0977 "/>
<text text-anchor="middle" x="265.144" y="-0.0976843" font-family="Arial" font-size="10.00">xsd:integer</text>
</g>
<!-- property_fechaUNIX -->
<g id="node6" class="node"><title>property_fechaUNIX</title>
<polygon fill="lightgoldenrodyellow" stroke="black" points="276.387,-344.069 276.387,-382.069 353.387,-382.069 353.387,-344.069 276.387,-344.069"/>
<text text-anchor="middle" x="314.887" y="-370.069" font-family="Arial" font-size="10.00">fechaUNIX</text>
<polyline fill="none" stroke="black" points="276.387,-363.069 353.387,-363.069 "/>
<text text-anchor="middle" x="314.887" y="-351.069" font-family="Arial" font-size="10.00">xsd:DateTime</text>
</g>
<!-- class_Hijo -->
<g id="node7" class="node"><title>class_Hijo</title>
<ellipse fill="lightseagreen" stroke="black" cx="-31.0082" cy="167.461" rx="36.125" ry="21.4286"/>
<text text-anchor="middle" x="-31.0082" y="172.461" font-family="Arial" font-size="20.00">Hijo</text>
</g>
<!-- class_Hijo&#45;&#45;property_apellidos -->
<g id="edge1" class="edge"><title>class_Hijo&#45;&#45;property_apellidos</title>
<path fill="none" stroke="grey" stroke-dasharray="5,2" d="M-58.017,181.812C-98.7508,203.455 -175.629,244.302 -217.938,266.781"/>
</g>
<!-- class_Nieto -->
<g id="node10" class="node"><title>class_Nieto</title>
<ellipse fill="lightseagreen" stroke="black" cx="25.9429" cy="-85.1651" rx="45.011" ry="21.4286"/>
<text text-anchor="middle" x="25.9429" y="-80.1651" font-family="Arial" font-size="20.00">Nieto</text>
</g>
<!-- class_Hijo&#45;&#45;class_Nieto -->
<g id="edge10" class="edge"><title>class_Hijo&#45;&#45;class_Nieto</title>
<path fill="none" stroke="grey" stroke-dasharray="5,2" d="M-26.2506,146.357C-15.5304,98.8039 10.4135,-16.279 21.1587,-63.9433"/>
<text text-anchor="middle" x="-21.5459" y="37.8069" font-family="Arial" font-size="12.00">inherits</text>
</g>
<!-- class_Principal -->
<g id="node8" class="node"><title>class_Principal</title>
<ellipse fill="lightseagreen" stroke="black" cx="83.664" cy="382.884" rx="66.4361" ry="21.4286"/>
<text text-anchor="middle" x="83.664" y="387.884" font-family="Arial" font-size="20.00">Principal</text>
</g>
<!-- class_Principal&#45;&#45;property_name -->
<g id="edge2" class="edge"><title>class_Principal&#45;&#45;property_name</title>
<path fill="none" stroke="grey" stroke-dasharray="5,2" d="M89.4308,404.243C100.917,446.787 126.493,541.513 137.493,582.253"/>
</g>
<!-- class_Principal&#45;&#45;class_Hijo -->
<g id="edge9" class="edge"><title>class_Principal&#45;&#45;class_Hijo</title>
<path fill="none" stroke="grey" stroke-dasharray="5,2" d="M72.46,361.836C50.4246,320.44 1.70271,228.912 -20.0953,187.962"/>
<text text-anchor="middle" x="7.18234" y="271.499" font-family="Arial" font-size="12.00">inherits</text>
</g>
<!-- class_Mascota&#45;&#45;property_nombreMascota -->
<g id="edge3" class="edge"><title>class_Mascota&#45;&#45;property_nombreMascota</title>
<path fill="none" stroke="grey" stroke-dasharray="5,2" d="M-240.841,-196.884C-278.698,-220.102 -342.316,-259.12 -380.189,-282.348"/>
</g>
<!-- class_Nieto&#45;&#45;property_Mascotas -->
<g id="edge5" class="edge"><title>class_Nieto&#45;&#45;property_Mascotas</title>
<path fill="none" stroke="grey" stroke-dasharray="5,2" d="M16.1798,-106.241C-3.21802,-148.116 -46.3483,-241.224 -65.0473,-281.591"/>
</g>
<!-- class_Nieto&#45;&#45;property_edad -->
<g id="edge4" class="edge"><title>class_Nieto&#45;&#45;property_edad</title>
<path fill="none" stroke="grey" stroke-dasharray="5,2" d="M64.1094,-73.5066C110.67,-59.2839 188.589,-35.4825 232.493,-22.0712"/>
</g>
<!-- class_Nieto&#45;&#45;class_Mascota -->
<g id="edge8" class="edge"><title>class_Nieto&#45;&#45;class_Mascota</title>
<path fill="none" stroke="orangered" stroke-dasharray="5,2" d="M-8.84253,-98.8409C-45.6606,-113.316 -104.484,-136.442 -148.997,-153.942"/>
<polygon fill="orangered" stroke="orangered" points="-167.7,-161.295 -152.38,-145.602 -158.394,-157.637 -149.087,-153.978 -149.087,-153.978 -149.087,-153.978 -158.394,-157.637 -145.794,-162.354 -167.7,-161.295 -167.7,-161.295"/>
<text text-anchor="middle" x="-120.92" y="-129.792" font-family="Arial" font-size="12.00" fill="orangered">Mascotas (0..n) </text>
</g>
<!-- relationship_conoceA -->
<g id="node11" class="node"><title>relationship_conoceA</title>
<polygon fill="paleturquoise" stroke="black" points="200.705,-193.977 171.079,-211.977 111.826,-211.977 82.2001,-193.977 111.826,-175.977 171.079,-175.977 200.705,-193.977"/>
<text text-anchor="middle" x="141.453" y="-190.477" font-family="Arial" font-size="15.00">conoceA</text>
</g>
<!-- class_Nieto&#45;&#45;relationship_conoceA -->
<g id="edge11" class="edge"><title>class_Nieto&#45;&#45;relationship_conoceA</title>
<path fill="none" stroke="blue" stroke-width="3" stroke-dasharray="5,2" d="M40.0515,-105.338C56.4825,-123.413 84.0031,-149.819 106.269,-169.161"/>
<polygon fill="blue" stroke="blue" stroke-width="3" points="104.023,-171.845 113.898,-175.682 108.571,-166.524 104.023,-171.845"/>
<text text-anchor="middle" x="49.6601" y="-140.649" font-family="Arial" font-size="12.00" fill="blue">conoceA</text>
</g>
<!-- relationship_conoceA&#45;&#45;property_fechaUNIX -->
<g id="edge6" class="edge"><title>relationship_conoceA&#45;&#45;property_fechaUNIX</title>
<path fill="none" stroke="grey" stroke-dasharray="5,2" d="M160.013,-212.073C192.958,-244.192 261.356,-310.878 295.135,-343.811"/>
</g>
<!-- relationship_conoceA&#45;&#45;class_Nieto -->
<g id="edge12" class="edge"><title>relationship_conoceA&#45;&#45;class_Nieto</title>
<path fill="none" stroke="blue" stroke-width="3" stroke-dasharray="5,2" d="M129.158,-175.817C112.789,-157.499 83.4818,-129.331 60.2264,-109.201"/>
<polygon fill="blue" stroke="blue" stroke-width="3" points="62.4827,-106.525 52.5992,-102.708 57.9453,-111.855 62.4827,-106.525"/>
<text text-anchor="middle" x="136.192" y="-145.909" font-family="Arial" font-size="12.00" fill="blue">esConocidoPor</text>
</g>
</g>
</svg>
