<?xml version="1.0" encoding="UTF-8" standalone="no"?>
<!DOCTYPE svg PUBLIC "-//W3C//DTD SVG 1.1//EN"
 "http://www.w3.org/Graphics/SVG/1.1/DTD/svg11.dtd">
<!-- Generated by graphviz version 2.38.0 (20140413.2041)
 -->
<!-- Title: domain Pages: 1 -->
<svg width="907pt" height="1364pt"
 viewBox="0.00 0.00 907.04 1363.61" xmlns="http://www.w3.org/2000/svg" xmlns:xlink="http://www.w3.org/1999/xlink">
<g id="graph0" class="graph" transform="scale(1 1) rotate(0) translate(409.274 508.133)">
<title>domain</title>
<polygon fill="white" stroke="none" points="-409.274,855.478 -409.274,-508.133 497.762,-508.133 497.762,855.478 -409.274,855.478"/>
<!-- property_apellidos -->
<g id="node1" class="node"><title>property_apellidos</title>
<polygon fill="lightgoldenrodyellow" stroke="black" stroke-dasharray="5,2" points="-405.274,265.66 -405.274,227.66 -346.274,227.66 -346.274,265.66 -405.274,265.66"/>
<text text-anchor="middle" x="-375.774" y="239.66" font-family="Arial" font-size="10.00">apellidos</text>
<polyline fill="none" stroke="black" stroke-dasharray="5,2" points="-405.274,246.66 -346.274,246.66 "/>
<text text-anchor="middle" x="-375.774" y="258.66" font-family="Arial" font-size="10.00">xsd:string</text>
</g>
<!-- property_nombreMascota -->
<g id="node2" class="node"><title>property_nombreMascota</title>
<polygon fill="lightgoldenrodyellow" stroke="black" points="-323.434,-465.633 -323.434,-503.633 -237.434,-503.633 -237.434,-465.633 -323.434,-465.633"/>
<text text-anchor="middle" x="-280.434" y="-491.633" font-family="Arial" font-size="10.00">nombreMascota</text>
<polyline fill="none" stroke="black" points="-323.434,-484.633 -237.434,-484.633 "/>
<text text-anchor="middle" x="-280.434" y="-472.633" font-family="Arial" font-size="10.00">xsd:string</text>
</g>
<!-- property_Mascotas -->
<g id="node3" class="node"><title>property_Mascotas</title>
<polygon fill="lightgoldenrodyellow" stroke="black" points="-30.2402,-386.16 -30.2402,-424.16 119.76,-424.16 119.76,-386.16 -30.2402,-386.16"/>
<text text-anchor="middle" x="44.7598" y="-412.16" font-family="Arial" font-size="10.00">Mascotas</text>
<polyline fill="none" stroke="black" points="-30.2402,-405.16 119.76,-405.16 "/>
<text text-anchor="middle" x="44.7598" y="-393.16" font-family="Arial" font-size="10.00">http://PdL.com/class#Mascota</text>
</g>
<!-- class_Mascota -->
<g id="node9" class="node"><title>class_Mascota</title>
<ellipse fill="lightseagreen" stroke="black" cx="-120.356" cy="-311.122" rx="67.3507" ry="21.4286"/>
<text text-anchor="middle" x="-120.356" y="-306.122" font-family="Arial" font-size="20.00">Mascota</text>
</g>
<!-- property_Mascotas&#45;&#45;class_Mascota -->
<g id="edge7" class="edge"><title>property_Mascotas&#45;&#45;class_Mascota</title>
<path fill="none" stroke="grey" stroke-dasharray="1,5" d="M11.3462,-386.13C-11.9698,-372.851 -43.5082,-354.889 -69.8767,-339.871"/>
<polygon fill="grey" stroke="grey" points="-87.5554,-329.803 -65.7222,-331.88 -78.8658,-334.752 -70.1763,-339.701 -70.1763,-339.701 -70.1763,-339.701 -78.8658,-334.752 -74.6304,-347.521 -87.5554,-329.803 -87.5554,-329.803"/>
<text text-anchor="middle" x="-48.2652" y="-366.401" font-family="Arial" font-size="12.00">TypeOf</text>
</g>
<!-- property_name -->
<g id="node4" class="node"><title>property_name</title>
<polygon fill="lightgoldenrodyellow" stroke="black" points="-96.693,850.978 -96.693,812.978 -37.693,812.978 -37.693,850.978 -96.693,850.978"/>
<text text-anchor="middle" x="-67.193" y="824.978" font-family="Arial" font-size="10.00">name</text>
<polyline fill="none" stroke="black" points="-96.693,831.978 -37.693,831.978 "/>
<text text-anchor="middle" x="-67.193" y="843.978" font-family="Arial" font-size="10.00">xsd:string</text>
</g>
<!-- property_edad -->
<g id="node5" class="node"><title>property_edad</title>
<polygon fill="lightgoldenrodyellow" stroke="black" points="189.354,28.0954 189.354,-9.90464 254.354,-9.90464 254.354,28.0954 189.354,28.0954"/>
<text text-anchor="middle" x="221.854" y="2.09536" font-family="Arial" font-size="10.00">edad</text>
<polyline fill="none" stroke="black" points="189.354,9.09536 254.354,9.09536 "/>
<text text-anchor="middle" x="221.854" y="21.0954" font-family="Arial" font-size="10.00">xsd:integer</text>
</g>
<!-- property_fechaUNIX -->
<g id="node6" class="node"><title>property_fechaUNIX</title>
<polygon fill="lightgoldenrodyellow" stroke="black" points="416.762,-289.522 416.762,-327.522 493.762,-327.522 493.762,-289.522 416.762,-289.522"/>
<text text-anchor="middle" x="455.262" y="-315.522" font-family="Arial" font-size="10.00">fechaUNIX</text>
<polyline fill="none" stroke="black" points="416.762,-308.522 493.762,-308.522 "/>
<text text-anchor="middle" x="455.262" y="-296.522" font-family="Arial" font-size="10.00">xsd:DateTime</text>
</g>
<!-- class_Hijo -->
<g id="node7" class="node"><title>class_Hijo</title>
<ellipse fill="lightseagreen" stroke="black" cx="-142.909" cy="212.318" rx="36.125" ry="21.4286"/>
<text text-anchor="middle" x="-142.909" y="217.318" font-family="Arial" font-size="20.00">Hijo</text>
</g>
<!-- class_Hijo&#45;&#45;property_apellidos -->
<g id="edge1" class="edge"><title>class_Hijo&#45;&#45;property_apellidos</title>
<path fill="none" stroke="grey" stroke-dasharray="5,2" d="M-178.023,217.497C-223.764,224.242 -302.946,235.919 -345.93,242.258"/>
</g>
<!-- class_Nieto -->
<g id="node10" class="node"><title>class_Nieto</title>
<ellipse fill="lightseagreen" stroke="black" cx="81.5933" cy="-175.113" rx="45.011" ry="21.4286"/>
<text text-anchor="middle" x="81.5933" y="-170.113" font-family="Arial" font-size="20.00">Nieto</text>
</g>
<!-- class_Hijo&#45;&#45;class_Nieto -->
<g id="edge10" class="edge"><title>class_Hijo&#45;&#45;class_Nieto</title>
<path fill="none" stroke="black" stroke-dasharray="5,2" d="M-115.965,165.821C-66.9525,81.2376 34.9379,-94.5984 69.6847,-154.562"/>
<polygon fill="black" stroke="black" points="-107.029,171.341 -131.155,192.034 -125.198,160.812 -107.029,171.341"/>
<text text-anchor="middle" x="-42.1404" y="2.2294" font-family="Arial" font-size="12.00">inherits</text>
</g>
<!-- class_Principal -->
<g id="node8" class="node"><title>class_Principal</title>
<ellipse fill="lightseagreen" stroke="black" cx="-49.6258" cy="611.672" rx="66.4361" ry="21.4286"/>
<text text-anchor="middle" x="-49.6258" y="616.672" font-family="Arial" font-size="20.00">Principal</text>
</g>
<!-- class_Principal&#45;&#45;property_name -->
<g id="edge2" class="edge"><title>class_Principal&#45;&#45;property_name</title>
<path fill="none" stroke="grey" stroke-dasharray="5,2" d="M-51.3422,633.197C-54.7697,676.18 -62.4119,772.019 -65.672,812.904"/>
</g>
<!-- class_Principal&#45;&#45;class_Hijo -->
<g id="edge9" class="edge"><title>class_Principal&#45;&#45;class_Hijo</title>
<path fill="none" stroke="black" stroke-dasharray="5,2" d="M-61.4462,561.067C-82.0458,472.878 -123.69,294.597 -137.971,233.456"/>
<polygon fill="black" stroke="black" points="-51.1744,558.881 -54.5752,590.483 -71.6239,563.657 -51.1744,558.881"/>
<text text-anchor="middle" x="-118.709" y="393.862" font-family="Arial" font-size="12.00">inherits</text>
</g>
<!-- class_Mascota&#45;&#45;property_nombreMascota -->
<g id="edge3" class="edge"><title>class_Mascota&#45;&#45;property_nombreMascota</title>
<path fill="none" stroke="grey" stroke-dasharray="5,2" d="M-139.348,-331.707C-170.57,-365.55 -232.307,-432.467 -262.693,-465.402"/>
</g>
<!-- class_Nieto&#45;&#45;property_Mascotas -->
<g id="edge5" class="edge"><title>class_Nieto&#45;&#45;property_Mascotas</title>
<path fill="none" stroke="grey" stroke-dasharray="5,2" d="M78.1941,-196.343C71.0703,-240.836 54.6708,-343.26 47.8368,-385.942"/>
</g>
<!-- class_Nieto&#45;&#45;property_edad -->
<g id="edge4" class="edge"><title>class_Nieto&#45;&#45;property_edad</title>
<path fill="none" stroke="grey" stroke-dasharray="5,2" d="M96.8706,-155.049C124.064,-119.335 180.511,-45.2017 207.229,-10.1124"/>
</g>
<!-- class_Nieto&#45;&#45;class_Mascota -->
<g id="edge8" class="edge"><title>class_Nieto&#45;&#45;class_Mascota</title>
<path fill="none" stroke="orangered" stroke-dasharray="5,2" d="M55.6054,-192.616C22.6624,-214.802 -34.6762,-253.418 -74.9239,-280.524"/>
<polygon fill="orangered" stroke="orangered" points="-91.5346,-291.711 -79.9734,-273.074 -83.2402,-286.125 -74.9459,-280.539 -74.9459,-280.539 -74.9459,-280.539 -83.2402,-286.125 -69.9184,-288.004 -91.5346,-291.711 -91.5346,-291.711"/>
<text text-anchor="middle" x="-51.6593" y="-239.97" font-family="Arial" font-size="12.00" fill="orangered">Mascotas (0..n) </text>
</g>
<!-- relationship_conoceA -->
<g id="node11" class="node"><title>relationship_conoceA</title>
<polygon fill="paleturquoise" stroke="black" points="292.076,-227.172 262.449,-245.172 203.197,-245.172 173.57,-227.172 203.197,-209.172 262.449,-209.172 292.076,-227.172"/>
<text text-anchor="middle" x="232.823" y="-223.672" font-family="Arial" font-size="15.00">conoceA</text>
</g>
<!-- class_Nieto&#45;&#45;relationship_conoceA -->
<g id="edge11" class="edge"><title>class_Nieto&#45;&#45;relationship_conoceA</title>
<path fill="none" stroke="blue" stroke-width="3" stroke-dasharray="5,2" d="M111.469,-191.335C125.285,-196.966 142.36,-203.241 159.296,-208.99"/>
<polygon fill="blue" stroke="blue" stroke-width="3" points="156.197,-219.023 187.972,-218.239 162.643,-199.037 156.197,-219.023"/>
<text text-anchor="middle" x="97.3823" y="-203.563" font-family="Arial" font-size="12.00" fill="blue">conoceA (0..n)</text>
</g>
<!-- relationship_conoceA&#45;&#45;property_fechaUNIX -->
<g id="edge6" class="edge"><title>relationship_conoceA&#45;&#45;property_fechaUNIX</title>
<path fill="none" stroke="grey" stroke-dasharray="5,2" d="M270.054,-240.789C310.62,-255.624 375.22,-279.25 416.412,-294.315"/>
</g>
<!-- relationship_conoceA&#45;&#45;class_Nieto -->
<g id="edge12" class="edge"><title>relationship_conoceA&#45;&#45;class_Nieto</title>
<path fill="none" stroke="blue" stroke-width="3" stroke-dasharray="5,2" d="M201.122,-210.21C186.898,-204.474 169.507,-198.133 152.441,-192.39"/>
<polygon fill="blue" stroke="blue" stroke-width="3" points="155.515,-182.349 123.743,-183.232 149.131,-202.355 155.515,-182.349"/>
<text text-anchor="middle" x="232.781" y="-191.7" font-family="Arial" font-size="12.00" fill="blue">esConocidoPor (0..n)</text>
</g>
</g>
</svg>
