<?xml version="1.0" encoding="UTF-8" standalone="no"?>
<!DOCTYPE svg PUBLIC "-//W3C//DTD SVG 1.1//EN"
 "http://www.w3.org/Graphics/SVG/1.1/DTD/svg11.dtd">
<!-- Generated by graphviz version 2.40.1 (20161225.0304)
 -->
<!-- Title: ejemplo Pages: 1 -->
<svg width="791pt" height="783pt"
 viewBox="0.00 0.00 791.31 783.25" xmlns="http://www.w3.org/2000/svg" xmlns:xlink="http://www.w3.org/1999/xlink">
<g id="graph0" class="graph" transform="scale(1 1) rotate(0) translate(4 779.2512)">
<title>ejemplo</title>
<polygon fill="#ffffff" stroke="transparent" points="-4,4 -4,-779.2512 787.3106,-779.2512 787.3106,4 -4,4"/>
<!-- property_name -->
<g id="node1" class="node">
<title>property_name</title>
<polygon fill="#fafad2" stroke="#000000" points="215.391,-184.3871 215.391,-222.3871 276.391,-222.3871 276.391,-184.3871 215.391,-184.3871"/>
<text text-anchor="middle" x="245.891" y="-210.3871" font-family="Arial" font-size="10.00" fill="#000000">name</text>
<polyline fill="none" stroke="#000000" points="215.391,-203.3871 276.391,-203.3871 "/>
<text text-anchor="middle" x="245.891" y="-191.3871" font-family="Arial" font-size="10.00" fill="#000000">xsd:String</text>
</g>
<!-- property_apellidos -->
<g id="node2" class="node">
<title>property_apellidos</title>
<polygon fill="#fafad2" stroke="#000000" stroke-dasharray="5,2" points="472.6423,-172.6961 472.6423,-210.6961 533.6423,-210.6961 533.6423,-172.6961 472.6423,-172.6961"/>
<text text-anchor="middle" x="503.1423" y="-198.6961" font-family="Arial" font-size="10.00" fill="#000000">apellidos</text>
<polyline fill="none" stroke="#000000" stroke-dasharray="5,2" points="472.6423,-191.6961 533.6423,-191.6961 "/>
<text text-anchor="middle" x="503.1423" y="-179.6961" font-family="Arial" font-size="10.00" fill="#000000">xsd:String</text>
</g>
<!-- property_edad -->
<g id="node3" class="node">
<title>property_edad</title>
<polygon fill="#fafad2" stroke="#000000" points="610.9958,-332.1219 610.9958,-370.1219 676.9958,-370.1219 676.9958,-332.1219 610.9958,-332.1219"/>
<text text-anchor="middle" x="643.9958" y="-358.1219" font-family="Arial" font-size="10.00" fill="#000000">edad</text>
<polyline fill="none" stroke="#000000" points="610.9958,-351.1219 676.9958,-351.1219 "/>
<text text-anchor="middle" x="643.9958" y="-339.1219" font-family="Arial" font-size="10.00" fill="#000000">xsd:Integer</text>
</g>
<!-- property_fechaUNIX -->
<g id="node4" class="node">
<title>property_fechaUNIX</title>
<polygon fill="#fafad2" stroke="#000000" points="5.3598,-590.9627 5.3598,-628.9627 83.3598,-628.9627 83.3598,-590.9627 5.3598,-590.9627"/>
<text text-anchor="middle" x="44.3598" y="-616.9627" font-family="Arial" font-size="10.00" fill="#000000">fechaUnix</text>
<polyline fill="none" stroke="#000000" points="5.3598,-609.9627 83.3598,-609.9627 "/>
<text text-anchor="middle" x="44.3598" y="-597.9627" font-family="Arial" font-size="10.00" fill="#000000">xsd:DateTime</text>
</g>
<!-- property_mascotas -->
<g id="node5" class="node">
<title>property_mascotas</title>
<polygon fill="#fafad2" stroke="#000000" points="325.5617,-630.9735 325.5617,-668.9735 475.5617,-668.9735 475.5617,-630.9735 325.5617,-630.9735"/>
<text text-anchor="middle" x="400.5617" y="-656.9735" font-family="Arial" font-size="10.00" fill="#000000">mascotas</text>
<polyline fill="none" stroke="#000000" points="325.5617,-649.9735 475.5617,-649.9735 "/>
<text text-anchor="middle" x="400.5617" y="-637.9735" font-family="Arial" font-size="10.00" fill="#000000">http://PdL.com/class#Mascota</text>
</g>
<!-- class_Mascota -->
<g id="node10" class="node">
<title>class_Mascota</title>
<ellipse fill="#20b2aa" stroke="#000000" cx="572.8551" cy="-592.298" rx="65.1077" ry="21.4286"/>
<text text-anchor="middle" x="572.8551" y="-587.298" font-family="Arial" font-size="20.00" fill="#000000">Mascota</text>
</g>
<!-- property_mascotas&#45;&#45;class_Mascota -->
<g id="edge10" class="edge">
<title>property_mascotas&#45;&#45;class_Mascota</title>
<path fill="none" stroke="#c0c0c0" stroke-dasharray="1,5" d="M457.4545,-630.9285C473.6401,-625.5104 491.3891,-619.5689 508.0095,-614.0052"/>
<polygon fill="#c0c0c0" stroke="#c0c0c0" points="527.1898,-607.5845 511.0812,-622.4679 517.707,-610.7589 508.2242,-613.9334 508.2242,-613.9334 508.2242,-613.9334 517.707,-610.7589 505.3672,-605.3988 527.1898,-607.5845 527.1898,-607.5845"/>
<text text-anchor="middle" x="462.732" y="-612.8668" font-family="Arial" font-size="12.00" fill="#000000">TypeOf</text>
</g>
<!-- property_nombreMascota -->
<g id="node6" class="node">
<title>property_nombreMascota</title>
<polygon fill="#fafad2" stroke="#000000" points="695.3106,-736.7512 695.3106,-774.7512 783.3106,-774.7512 783.3106,-736.7512 695.3106,-736.7512"/>
<text text-anchor="middle" x="739.3106" y="-762.7512" font-family="Arial" font-size="10.00" fill="#000000">nombreMascota</text>
<polyline fill="none" stroke="#000000" points="695.3106,-755.7512 783.3106,-755.7512 "/>
<text text-anchor="middle" x="739.3106" y="-743.7512" font-family="Arial" font-size="10.00" fill="#000000">xsd:String</text>
</g>
<!-- class_Principal -->
<g id="node7" class="node">
<title>class_Principal</title>
<ellipse fill="#20b2aa" stroke="#000000" cx="65.7609" cy="-54.6903" rx="65.5227" ry="21.4286"/>
<text text-anchor="middle" x="65.7609" y="-49.6903" font-family="Arial" font-size="20.00" fill="#000000">Principal</text>
</g>
<!-- class_Principal&#45;&#45;property_name -->
<g id="edge1" class="edge">
<title>class_Principal&#45;&#45;property_name</title>
<path fill="none" stroke="#c0c0c0" stroke-dasharray="5,2" d="M90.0541,-74.7442C124.9133,-103.5204 188.676,-156.1563 222.8357,-184.3551"/>
</g>
<!-- class_Hijo -->
<g id="node8" class="node">
<title>class_Hijo</title>
<ellipse fill="#20b2aa" stroke="#000000" cx="379.6689" cy="-21.2132" rx="36.125" ry="21.4286"/>
<text text-anchor="middle" x="379.6689" y="-16.2132" font-family="Arial" font-size="20.00" fill="#000000">Hijo</text>
</g>
<!-- class_Principal&#45;&#45;class_Hijo -->
<g id="edge12" class="edge">
<title>class_Principal&#45;&#45;class_Hijo</title>
<path fill="none" stroke="#000000" stroke-dasharray="5,2" d="M158.4116,-44.8094C220.5916,-38.1782 299.0511,-29.8108 343.8758,-25.0304"/>
<polygon fill="#000000" stroke="#000000" points="157.2478,-34.3739 128.5304,-47.9961 159.4748,-55.2555 157.2478,-34.3739"/>
<text text-anchor="middle" x="231.6437" y="-38.3199" font-family="Arial" font-size="12.00" fill="#000000">inherits</text>
</g>
<!-- class_Hijo&#45;&#45;property_name -->
<g id="edge2" class="edge">
<title>class_Hijo&#45;&#45;property_name</title>
<path fill="none" stroke="#c0c0c0" stroke-dasharray="5,2" d="M365.3523,-40.709C339.5364,-75.8641 285.496,-149.4544 259.9036,-184.3053"/>
</g>
<!-- class_Hijo&#45;&#45;property_apellidos -->
<g id="edge3" class="edge">
<title>class_Hijo&#45;&#45;property_apellidos</title>
<path fill="none" stroke="#c0c0c0" stroke-dasharray="5,2" d="M393.8328,-40.7698C417.7138,-73.7428 465.6916,-139.987 489.3321,-172.6281"/>
</g>
<!-- class_Nieto -->
<g id="node9" class="node">
<title>class_Nieto</title>
<ellipse fill="#20b2aa" stroke="#000000" cx="397.0996" cy="-409.9827" rx="44.5955" ry="21.4286"/>
<text text-anchor="middle" x="397.0996" y="-404.9827" font-family="Arial" font-size="20.00" fill="#000000">Nieto</text>
</g>
<!-- class_Hijo&#45;&#45;class_Nieto -->
<g id="edge13" class="edge">
<title>class_Hijo&#45;&#45;class_Nieto</title>
<path fill="none" stroke="#000000" stroke-dasharray="5,2" d="M381.9827,-72.8205C385.8491,-159.0553 393.4628,-328.8684 396.1406,-388.5933"/>
<polygon fill="#000000" stroke="#000000" points="392.4641,-72.1685 380.6309,-42.6689 371.4852,-73.1091 392.4641,-72.1685"/>
<text text-anchor="middle" x="369.5617" y="-234.1069" font-family="Arial" font-size="12.00" fill="#000000">inherits</text>
</g>
<!-- class_Nieto&#45;&#45;property_name -->
<g id="edge4" class="edge">
<title>class_Nieto&#45;&#45;property_name</title>
<path fill="none" stroke="#c0c0c0" stroke-dasharray="5,2" d="M382.3258,-389.7973C353.1209,-349.8949 288.366,-261.4205 259.8426,-222.4492"/>
</g>
<!-- class_Nieto&#45;&#45;property_apellidos -->
<g id="edge5" class="edge">
<title>class_Nieto&#45;&#45;property_apellidos</title>
<path fill="none" stroke="#c0c0c0" stroke-dasharray="5,2" d="M407.2674,-389.0524C427.7957,-346.7954 473.9222,-251.845 493.7695,-210.9898"/>
</g>
<!-- class_Nieto&#45;&#45;property_edad -->
<g id="edge6" class="edge">
<title>class_Nieto&#45;&#45;property_edad</title>
<path fill="none" stroke="#c0c0c0" stroke-dasharray="5,2" d="M437.0421,-400.4602C485.3555,-388.9422 565.7932,-369.7656 610.8375,-359.0269"/>
</g>
<!-- class_Nieto&#45;&#45;property_mascotas -->
<g id="edge7" class="edge">
<title>class_Nieto&#45;&#45;property_mascotas</title>
<path fill="none" stroke="#c0c0c0" stroke-dasharray="5,2" d="M397.4068,-431.2803C398.0738,-477.5109 399.6454,-586.4539 400.2843,-630.7445"/>
</g>
<!-- class_Nieto&#45;&#45;class_Mascota -->
<g id="edge11" class="edge">
<title>class_Nieto&#45;&#45;class_Mascota</title>
<path fill="none" stroke="#ff4500" stroke-dasharray="5,2" d="M415.9085,-429.4936C445.2634,-459.9441 502.3956,-519.2087 539.032,-557.2126"/>
<polygon fill="#ff4500" stroke="#ff4500" points="553.1098,-571.8157 532.7495,-563.6632 546.1694,-564.6163 539.229,-557.4169 539.229,-557.4169 539.229,-557.4169 546.1694,-564.6163 545.7085,-551.1705 553.1098,-571.8157 553.1098,-571.8157"/>
<text text-anchor="middle" x="433.9703" y="-496.7531" font-family="Arial" font-size="12.00" fill="#ff4500">.mascotas (0..n)</text>
</g>
<!-- relationship_conoceA -->
<g id="node11" class="node">
<title>relationship_conoceA</title>
<polygon fill="#afeeee" stroke="#000000" points="314.1115,-477.7347 282.4733,-495.7347 219.1969,-495.7347 187.5587,-477.7347 219.1969,-459.7347 282.4733,-459.7347 314.1115,-477.7347"/>
<text text-anchor="middle" x="250.8351" y="-474.2347" font-family="Arial" font-size="15.00" fill="#000000">conoce A</text>
</g>
<!-- class_Nieto&#45;&#45;relationship_conoceA -->
<g id="edge14" class="edge">
<title>class_Nieto&#45;&#45;relationship_conoceA</title>
<path fill="none" stroke="#0000ff" stroke-width="3" stroke-dasharray="5,2" d="M358.8407,-421.2058C336.3241,-430.4189 308.0643,-443.474 286.0896,-454.7993"/>
<polygon fill="#0000ff" stroke="#0000ff" stroke-width="3" points="284.3136,-451.7788 277.0918,-459.5309 287.5717,-457.9744 284.3136,-451.7788"/>
<text text-anchor="middle" x="279.9651" y="-441.4026" font-family="Arial" font-size="12.00" fill="#0000ff">Conoce A (0..n)</text>
</g>
<!-- class_Mascota&#45;&#45;property_nombreMascota -->
<g id="edge8" class="edge">
<title>class_Mascota&#45;&#45;property_nombreMascota</title>
<path fill="none" stroke="#c0c0c0" stroke-dasharray="5,2" d="M593.6002,-612.6689C626.0204,-644.5044 688.2495,-705.6111 719.857,-736.6485"/>
</g>
<!-- relationship_conoceA&#45;&#45;property_fechaUNIX -->
<g id="edge9" class="edge">
<title>relationship_conoceA&#45;&#45;property_fechaUNIX</title>
<path fill="none" stroke="#c0c0c0" stroke-dasharray="5,2" d="M222.5585,-495.8432C183.6815,-520.7403 114.0336,-565.3431 74.3003,-590.7886"/>
</g>
<!-- relationship_conoceA&#45;&#45;class_Nieto -->
<g id="edge15" class="edge">
<title>relationship_conoceA&#45;&#45;class_Nieto</title>
<path fill="none" stroke="#0000ff" stroke-width="3" stroke-dasharray="5,2" d="M292.1862,-465.2373C314.5672,-455.9496 341.8658,-443.2662 363.016,-432.3132"/>
<polygon fill="#0000ff" stroke="#0000ff" stroke-width="3" points="364.7615,-435.3494 371.9658,-427.5809 361.4894,-429.1612 364.7615,-435.3494"/>
<text text-anchor="middle" x="386.1011" y="-452.1752" font-family="Arial" font-size="12.00" fill="#0000ff">es conocido por (0..n)</text>
</g>
</g>
</svg>
