<?xml version="1.0" encoding="UTF-8" standalone="no"?>
<!DOCTYPE svg PUBLIC "-//W3C//DTD SVG 1.1//EN"
 "http://www.w3.org/Graphics/SVG/1.1/DTD/svg11.dtd">
<!-- Generated by graphviz version 2.40.1 (20161225.0304)
 -->
<!-- Title: domain Pages: 1 -->
<svg width="808pt" height="956pt"
 viewBox="0.00 0.00 808.28 955.87" xmlns="http://www.w3.org/2000/svg" xmlns:xlink="http://www.w3.org/1999/xlink">
<g id="graph0" class="graph" transform="scale(1 1) rotate(0) translate(4 951.8674)">
<title>domain</title>
<polygon fill="#ffffff" stroke="transparent" points="-4,4 -4,-951.8674 804.2774,-951.8674 804.2774,4 -4,4"/>
<!-- property_surname -->
<g id="node1" class="node">
<title>property_surname</title>
<polygon fill="#fafad2" stroke="#000000" stroke-dasharray="5,2" points="0,-532.193 0,-570.193 59,-570.193 59,-532.193 0,-532.193"/>
<text text-anchor="middle" x="29.5" y="-558.193" font-family="Arial" font-size="10.00" fill="#000000">surname</text>
<polyline fill="none" stroke="#000000" stroke-dasharray="5,2" points="0,-551.193 59,-551.193 "/>
<text text-anchor="middle" x="29.5" y="-539.193" font-family="Arial" font-size="10.00" fill="#000000">xsd:string</text>
</g>
<!-- property_Pets -->
<g id="node2" class="node">
<title>property_Pets</title>
<polygon fill="#fafad2" stroke="#000000" points="650.2774,-511.4593 650.2774,-549.4593 800.2774,-549.4593 800.2774,-511.4593 650.2774,-511.4593"/>
<text text-anchor="middle" x="725.2774" y="-537.4593" font-family="Arial" font-size="10.00" fill="#000000">Pets</text>
<polyline fill="none" stroke="#000000" points="650.2774,-530.4593 800.2774,-530.4593 "/>
<text text-anchor="middle" x="725.2774" y="-518.4593" font-family="Arial" font-size="10.00" fill="#000000">http://PdL.com/class#Mascota</text>
</g>
<!-- class_Pet -->
<g id="node9" class="node">
<title>class_Pet</title>
<ellipse fill="#20b2aa" stroke="#000000" cx="619.7495" cy="-394.4388" rx="33.4697" ry="21.4286"/>
<text text-anchor="middle" x="619.7495" y="-389.4388" font-family="Arial" font-size="20.00" fill="#000000">Pet</text>
</g>
<!-- property_Pets&#45;&#45;class_Pet -->
<g id="edge7" class="edge">
<title>property_Pets&#45;&#45;class_Pet</title>
<path fill="none" stroke="#c0c0c0" stroke-dasharray="1,5" d="M716.1705,-511.2418C702.0537,-489.3552 674.7637,-453.3807 652.7491,-427.098"/>
<polygon fill="#c0c0c0" stroke="#c0c0c0" points="639.5628,-411.8351 659.4483,-421.0854 646.1004,-419.4022 652.6379,-426.9693 652.6379,-426.9693 652.6379,-426.9693 646.1004,-419.4022 645.8276,-432.8531 639.5628,-411.8351 639.5628,-411.8351"/>
<text text-anchor="middle" x="664.4598" y="-472.5699" font-family="Arial" font-size="12.00" fill="#000000">TypeOf</text>
</g>
<!-- name -->
<g id="node3" class="node">
<title>name</title>
<polygon fill="#fafad2" stroke="#000000" points="408,-408.5 408,-446.5 472,-446.5 472,-408.5 408,-408.5"/>
<text text-anchor="middle" x="440" y="-434.5" font-family="Arial" font-size="10.00" fill="#000000">Pets name</text>
<polyline fill="none" stroke="#000000" points="408,-427.5 472,-427.5 "/>
<text text-anchor="middle" x="440" y="-415.5" font-family="Arial" font-size="10.00" fill="#000000">xsd:string</text>
</g>
<!-- property_name -->
<g id="node4" class="node">
<title>property_name</title>
<polygon fill="#fafad2" stroke="#000000" points="79.4946,-.5 79.4946,-38.5 138.4946,-38.5 138.4946,-.5 79.4946,-.5"/>
<text text-anchor="middle" x="108.9946" y="-26.5" font-family="Arial" font-size="10.00" fill="#000000">name</text>
<polyline fill="none" stroke="#000000" points="79.4946,-19.5 138.4946,-19.5 "/>
<text text-anchor="middle" x="108.9946" y="-7.5" font-family="Arial" font-size="10.00" fill="#000000">xsd:string</text>
</g>
<!-- property_age -->
<g id="node5" class="node">
<title>property_age</title>
<polygon fill="#fafad2" stroke="#000000" points="303.6369,-784.645 303.6369,-822.645 368.6369,-822.645 368.6369,-784.645 303.6369,-784.645"/>
<text text-anchor="middle" x="336.1369" y="-810.645" font-family="Arial" font-size="10.00" fill="#000000">age</text>
<polyline fill="none" stroke="#000000" points="303.6369,-803.645 368.6369,-803.645 "/>
<text text-anchor="middle" x="336.1369" y="-791.645" font-family="Arial" font-size="10.00" fill="#000000">xsd:integer</text>
</g>
<!-- property_UNIXDateTime -->
<g id="node6" class="node">
<title>property_UNIXDateTime</title>
<polygon fill="#fafad2" stroke="#000000" points="645.4785,-909.3674 645.4785,-947.3674 729.4785,-947.3674 729.4785,-909.3674 645.4785,-909.3674"/>
<text text-anchor="middle" x="687.4785" y="-935.3674" font-family="Arial" font-size="10.00" fill="#000000">UNIXDateTime</text>
<polyline fill="none" stroke="#000000" points="645.4785,-928.3674 729.4785,-928.3674 "/>
<text text-anchor="middle" x="687.4785" y="-916.3674" font-family="Arial" font-size="10.00" fill="#000000">xsd:DateTime</text>
</g>
<!-- class_Son -->
<g id="node7" class="node">
<title>class_Son</title>
<ellipse fill="#20b2aa" stroke="#000000" cx="260.3708" cy="-461.7668" rx="36.5405" ry="21.4286"/>
<text text-anchor="middle" x="260.3708" y="-456.7668" font-family="Arial" font-size="20.00" fill="#000000">Son</text>
</g>
<!-- class_Son&#45;&#45;property_surname -->
<g id="edge1" class="edge">
<title>class_Son&#45;&#45;property_surname</title>
<path fill="none" stroke="#c0c0c0" stroke-dasharray="5,2" d="M229.7129,-473.6419C185.1877,-490.8884 103.1591,-522.6617 59.1867,-539.6941"/>
</g>
<!-- class_Grandchild -->
<g id="node10" class="node">
<title>class_Grandchild</title>
<ellipse fill="#20b2aa" stroke="#000000" cx="480.9567" cy="-594.2843" rx="79.8062" ry="21.4286"/>
<text text-anchor="middle" x="480.9567" y="-589.2843" font-family="Arial" font-size="20.00" fill="#000000">Grandchild</text>
</g>
<!-- class_Son&#45;&#45;class_Grandchild -->
<g id="edge10" class="edge">
<title>class_Son&#45;&#45;class_Grandchild</title>
<path fill="none" stroke="#c0c0c0" stroke-dasharray="5,2" d="M312.0027,-492.7848C354.2536,-518.1671 412.7032,-553.2809 448.6093,-574.8515"/>
<polygon fill="#c0c0c0" stroke="#c0c0c0" points="317.23,-483.676 286.1065,-477.2276 306.4156,-501.6774 317.23,-483.676"/>
<text text-anchor="middle" x="360.806" y="-537.2182" font-family="Arial" font-size="12.00" fill="#000000">inherits</text>
</g>
<!-- class_Headof -->
<g id="node8" class="node">
<title>class_Headof</title>
<ellipse fill="#20b2aa" stroke="#000000" cx="186.7701" cy="-231.3207" rx="57.0522" ry="21.4286"/>
<text text-anchor="middle" x="186.7701" y="-226.3207" font-family="Arial" font-size="20.00" fill="#000000">Headof</text>
</g>
<!-- class_Headof&#45;&#45;property_name -->
<g id="edge2" class="edge">
<title>class_Headof&#45;&#45;property_name</title>
<path fill="none" stroke="#c0c0c0" stroke-dasharray="5,2" d="M179.0284,-210.2361C163.8898,-169.0065 130.5779,-78.282 116.0273,-38.6537"/>
</g>
<!-- class_Headof&#45;&#45;class_Son -->
<g id="edge9" class="edge">
<title>class_Headof&#45;&#45;class_Son</title>
<path fill="none" stroke="#c0c0c0" stroke-dasharray="5,2" d="M202.794,-281.4919C218.692,-331.2692 242.2844,-405.1377 253.7013,-440.8843"/>
<polygon fill="#c0c0c0" stroke="#c0c0c0" points="212.692,-277.9707 193.5624,-252.5875 192.6875,-284.3599 212.692,-277.9707"/>
<text text-anchor="middle" x="208.7476" y="-364.5881" font-family="Arial" font-size="12.00" fill="#000000">inherits</text>
</g>
<!-- class_Pet&#45;&#45;property_Pets -->
<g id="edge3" class="edge">
<title>class_Pet&#45;&#45;property_Pets</title>
<path fill="none" stroke="#c0c0c0" stroke-dasharray="5,2" d="M629.6141,-414.825C646.6236,-440.938 681.1326,-485.6682 703.8169,-511.2182"/>
</g>
<!-- class_Grandchild&#45;&#45;property_Pets -->
<g id="edge5" class="edge">
<title>class_Grandchild&#45;&#45;property_Pets</title>
<path fill="none" stroke="#c0c0c0" stroke-dasharray="5,2" d="M537.9307,-579.4007C572.054,-570.4865 615.7742,-559.0653 652.3958,-549.4985"/>
</g>
<!-- class_Grandchild&#45;&#45;property_age -->
<g id="edge4" class="edge">
<title>class_Grandchild&#45;&#45;property_age</title>
<path fill="none" stroke="#c0c0c0" stroke-dasharray="5,2" d="M466.2736,-615.5111C438.0134,-656.3658 376.4636,-745.3462 349.3792,-784.5012"/>
</g>
<!-- class_Grandchild&#45;&#45;class_Pet -->
<g id="edge8" class="edge">
<title>class_Grandchild&#45;&#45;class_Pet</title>
<path fill="none" stroke="#ff4500" stroke-dasharray="5,2" d="M495.5476,-573.275C519.0709,-539.4043 565.6605,-472.3207 594.6124,-430.6333"/>
<polygon fill="#ff4500" stroke="#ff4500" points="606.1749,-413.9847 602.1585,-435.5455 600.4706,-422.1981 594.7663,-430.4116 594.7663,-430.4116 594.7663,-430.4116 600.4706,-422.1981 587.3742,-425.2778 606.1749,-413.9847 606.1749,-413.9847"/>
<text text-anchor="middle" x="515.58" y="-505.3541" font-family="Arial" font-size="12.00" fill="#ff4500">Pets (0..n) </text>
</g>
<!-- relationship_conoceA -->
<g id="node11" class="node">
<title>relationship_conoceA</title>
<polygon fill="#afeeee" stroke="#000000" points="621.1723,-727.7983 590.9935,-745.7983 530.6358,-745.7983 500.457,-727.7983 530.6358,-709.7983 590.9935,-709.7983 621.1723,-727.7983"/>
<text text-anchor="middle" x="560.8146" y="-724.2983" font-family="Arial" font-size="15.00" fill="#000000">conoceA</text>
</g>
<!-- class_Grandchild&#45;&#45;relationship_conoceA -->
<g id="edge11" class="edge">
<title>class_Grandchild&#45;&#45;relationship_conoceA</title>
<path fill="none" stroke="#0000ff" stroke-width="3" stroke-dasharray="5,2" d="M488.0471,-615.6317C499.4077,-638.8691 521.2668,-675.9654 538.1818,-701.1021"/>
<polygon fill="#0000ff" stroke="#0000ff" stroke-width="3" points="535.3783,-703.2022 543.9333,-709.4522 541.1431,-699.2314 535.3783,-703.2022"/>
<text text-anchor="middle" x="489.6144" y="-661.7669" font-family="Arial" font-size="12.00" fill="#0000ff">conoceA</text>
</g>
<!-- relationship_conoceA&#45;&#45;property_UNIXDateTime -->
<g id="edge6" class="edge">
<title>relationship_conoceA&#45;&#45;property_UNIXDateTime</title>
<path fill="none" stroke="#c0c0c0" stroke-dasharray="5,2" d="M572.2786,-745.9512C596.1504,-783.7516 650.9965,-870.5992 675.3944,-909.2325"/>
</g>
<!-- relationship_conoceA&#45;&#45;class_Grandchild -->
<g id="edge12" class="edge">
<title>relationship_conoceA&#45;&#45;class_Grandchild</title>
<path fill="none" stroke="#0000ff" stroke-width="3" stroke-dasharray="5,2" d="M555.249,-709.6203C544.754,-687.4172 522.7072,-649.7031 505.2383,-623.4448"/>
<polygon fill="#0000ff" stroke="#0000ff" stroke-width="3" points="508.0277,-621.3224 499.5128,-615.0179 502.2377,-625.2564 508.0277,-621.3224"/>
<text text-anchor="middle" x="553.7436" y="-669.9325" font-family="Arial" font-size="12.00" fill="#0000ff">conoceA</text>
</g>
</g>
</svg>
