<?xml version="1.0" encoding="UTF-8" standalone="no"?>
<!DOCTYPE svg PUBLIC "-//W3C//DTD SVG 1.1//EN"
 "http://www.w3.org/Graphics/SVG/1.1/DTD/svg11.dtd">
<!-- Generated by graphviz version 2.40.1 (20161225.0304)
 -->
<!-- Title: properties Pages: 1 -->
<svg width="502pt" height="416pt"
 viewBox="0.00 0.00 502.33 416.13" xmlns="http://www.w3.org/2000/svg" xmlns:xlink="http://www.w3.org/1999/xlink">
<g id="graph0" class="graph" transform="scale(1 1) rotate(0) translate(4 412.132)">
<title>properties</title>
<polygon fill="#ffffff" stroke="transparent" points="-4,4 -4,-412.132 498.3295,-412.132 498.3295,4 -4,4"/>
<!-- class_Afamily -->
<g id="node1" class="node">
<title>class_Afamily</title>
<ellipse fill="#20b2aa" stroke="#000000" cx="148.6102" cy="-112.6396" rx="57.9655" ry="21.4286"/>
<text text-anchor="middle" x="148.6102" y="-107.6396" font-family="Arial" font-size="20.00" fill="#000000">Afamily</text>
</g>
<!-- class_Familycore -->
<g id="node2" class="node">
<title>class_Familycore</title>
<ellipse fill="#20b2aa" stroke="#000000" cx="80.6102" cy="-21.2132" rx="80.7205" ry="21.4286"/>
<text text-anchor="middle" x="80.6102" y="-16.2132" font-family="Arial" font-size="20.00" fill="#000000">Familycore</text>
</g>
<!-- class_Afamily&#45;&#45;class_Familycore -->
<g id="edge4" class="edge">
<title>class_Afamily&#45;&#45;class_Familycore</title>
<path fill="none" stroke="#c0c0c0" stroke-dasharray="5,2" d="M115.0156,-67.4715C108.441,-58.6319 101.8462,-49.7652 96.2147,-42.1936"/>
<polygon fill="#c0c0c0" stroke="#c0c0c0" points="106.8509,-74.0881 133.1799,-91.8935 123.7012,-61.5553 106.8509,-74.0881"/>
<text text-anchor="middle" x="139.1102" y="-63.8264" font-family="Arial" font-size="12.00" fill="#000000">inherits</text>
</g>
<!-- class_pets -->
<g id="node7" class="node">
<title>class_pets</title>
<ellipse fill="#20b2aa" stroke="#000000" cx="217.6102" cy="-21.2132" rx="38.3684" ry="21.4286"/>
<text text-anchor="middle" x="217.6102" y="-16.2132" font-family="Arial" font-size="20.00" fill="#000000">pets</text>
</g>
<!-- class_Afamily&#45;&#45;class_pets -->
<g id="edge7" class="edge">
<title>class_Afamily&#45;&#45;class_pets</title>
<path fill="none" stroke="#c0c0c0" stroke-dasharray="5,2" d="M182.6158,-67.5814C189.6872,-58.2117 196.7863,-48.8052 202.7245,-40.9371"/>
<polygon fill="#c0c0c0" stroke="#c0c0c0" points="173.9584,-61.6225 164.2673,-91.8935 190.7205,-74.2729 173.9584,-61.6225"/>
<text text-anchor="middle" x="207.1102" y="-63.8264" font-family="Arial" font-size="12.00" fill="#000000">inherits</text>
</g>
<!-- class_grandfather -->
<g id="node3" class="node">
<title>class_grandfather</title>
<ellipse fill="#20b2aa" stroke="#000000" cx="308.6102" cy="-112.6396" rx="84.2917" ry="21.4286"/>
<text text-anchor="middle" x="308.6102" y="-107.6396" font-family="Arial" font-size="20.00" fill="#000000">grandfather</text>
</g>
<!-- class_sons -->
<g id="node4" class="node">
<title>class_sons</title>
<ellipse fill="#20b2aa" stroke="#000000" cx="452.6102" cy="-112.6396" rx="41.9398" ry="21.4286"/>
<text text-anchor="middle" x="452.6102" y="-107.6396" font-family="Arial" font-size="20.00" fill="#000000">sons</text>
</g>
<!-- class_properties -->
<g id="node5" class="node">
<title>class_properties</title>
<ellipse fill="#20b2aa" stroke="#000000" cx="308.6102" cy="-386.9188" rx="74.4932" ry="21.4286"/>
<text text-anchor="middle" x="308.6102" y="-381.9188" font-family="Arial" font-size="20.00" fill="#000000">properties</text>
</g>
<!-- class_scope -->
<g id="node8" class="node">
<title>class_scope</title>
<ellipse fill="#20b2aa" stroke="#000000" cx="308.6102" cy="-295.4924" rx="49.4949" ry="21.4286"/>
<text text-anchor="middle" x="308.6102" y="-290.4924" font-family="Arial" font-size="20.00" fill="#000000">scope</text>
</g>
<!-- class_properties&#45;&#45;class_scope -->
<g id="edge1" class="edge">
<title>class_properties&#45;&#45;class_scope</title>
<path fill="none" stroke="#c0c0c0" stroke-dasharray="5,2" d="M308.6102,-335.2089C308.6102,-328.8099 308.6102,-322.5704 308.6102,-317.0037"/>
<polygon fill="#c0c0c0" stroke="#c0c0c0" points="298.1103,-335.252 308.6102,-365.252 319.1103,-335.2521 298.1103,-335.252"/>
<text text-anchor="middle" x="328.1102" y="-338.1056" font-family="Arial" font-size="12.00" fill="#000000">inherits</text>
</g>
<!-- class_Familyrelationships -->
<g id="node6" class="node">
<title>class_Familyrelationships</title>
<ellipse fill="#20b2aa" stroke="#000000" cx="308.6102" cy="-204.066" rx="132.8722" ry="21.4286"/>
<text text-anchor="middle" x="308.6102" y="-199.066" font-family="Arial" font-size="20.00" fill="#000000">Familyrelationships</text>
</g>
<!-- class_Familyrelationships&#45;&#45;class_Afamily -->
<g id="edge3" class="edge">
<title>class_Familyrelationships&#45;&#45;class_Afamily</title>
<path fill="none" stroke="#c0c0c0" stroke-dasharray="5,2" d="M246.5081,-168.58C223.7731,-155.5888 199.0053,-141.4361 180.0704,-130.6164"/>
<polygon fill="#c0c0c0" stroke="#c0c0c0" points="241.4462,-177.7808 272.703,-183.5481 251.865,-159.5476 241.4462,-177.7808"/>
<text text-anchor="middle" x="258.1102" y="-155.2528" font-family="Arial" font-size="12.00" fill="#000000">inherits</text>
</g>
<!-- class_Familyrelationships&#45;&#45;class_grandfather -->
<g id="edge5" class="edge">
<title>class_Familyrelationships&#45;&#45;class_grandfather</title>
<path fill="none" stroke="#c0c0c0" stroke-dasharray="5,2" d="M308.6102,-152.3561C308.6102,-145.957 308.6102,-139.7175 308.6102,-134.1509"/>
<polygon fill="#c0c0c0" stroke="#c0c0c0" points="298.1103,-152.3992 308.6102,-182.3992 319.1103,-152.3993 298.1103,-152.3992"/>
<text text-anchor="middle" x="328.1102" y="-155.2528" font-family="Arial" font-size="12.00" fill="#000000">inherits</text>
</g>
<!-- class_Familyrelationships&#45;&#45;class_sons -->
<g id="edge6" class="edge">
<title>class_Familyrelationships&#45;&#45;class_sons</title>
<path fill="none" stroke="#c0c0c0" stroke-dasharray="5,2" d="M366.8922,-167.0625C387.5077,-153.9735 409.6815,-139.8953 426.3109,-129.3372"/>
<polygon fill="#c0c0c0" stroke="#c0c0c0" points="360.9846,-158.3756 341.286,-183.32 372.2406,-176.1042 360.9846,-158.3756"/>
<text text-anchor="middle" x="409.1102" y="-155.2528" font-family="Arial" font-size="12.00" fill="#000000">inherits</text>
</g>
<!-- class_scope&#45;&#45;class_Familyrelationships -->
<g id="edge2" class="edge">
<title>class_scope&#45;&#45;class_Familyrelationships</title>
<path fill="none" stroke="#c0c0c0" stroke-dasharray="5,2" d="M308.6102,-243.7825C308.6102,-237.3835 308.6102,-231.144 308.6102,-225.5773"/>
<polygon fill="#c0c0c0" stroke="#c0c0c0" points="298.1103,-243.8256 308.6102,-273.8256 319.1103,-243.8257 298.1103,-243.8256"/>
<text text-anchor="middle" x="328.1102" y="-246.6792" font-family="Arial" font-size="12.00" fill="#000000">inherits</text>
</g>
</g>
</svg>
