<?xml version="1.0" encoding="UTF-8" standalone="no"?>
<!DOCTYPE svg PUBLIC "-//W3C//DTD SVG 1.1//EN"
 "http://www.w3.org/Graphics/SVG/1.1/DTD/svg11.dtd">
<!-- Generated by graphviz version 2.40.1 (20161225.0304)
 -->
<!-- Title: properties Pages: 1 -->
<svg width="524pt" height="416pt"
 viewBox="0.00 0.00 524.13 416.13" xmlns="http://www.w3.org/2000/svg" xmlns:xlink="http://www.w3.org/1999/xlink">
<g id="graph0" class="graph" transform="scale(1 1) rotate(0) translate(4 412.132)">
<title>properties</title>
<polygon fill="#ffffff" stroke="transparent" points="-4,4 -4,-412.132 520.1285,-412.132 520.1285,4 -4,4"/>
<!-- class_Unafamilia -->
<g id="node1" class="node">
<title>class_Unafamilia</title>
<ellipse fill="#20b2aa" stroke="#000000" cx="196.1163" cy="-112.6396" rx="78.4777" ry="21.4286"/>
<text text-anchor="middle" x="196.1163" y="-107.6396" font-family="Arial" font-size="20.00" fill="#000000">Unafamilia</text>
</g>
<!-- class_Núcleofamiliar -->
<g id="node2" class="node">
<title>class_Núcleofamiliar</title>
<ellipse fill="#20b2aa" stroke="#000000" cx="101.1163" cy="-21.2132" rx="101.2327" ry="21.4286"/>
<text text-anchor="middle" x="101.1163" y="-16.2132" font-family="Arial" font-size="20.00" fill="#000000">Núcleofamiliar</text>
</g>
<!-- class_Unafamilia&#45;&#45;class_Núcleofamiliar -->
<g id="edge4" class="edge">
<title>class_Unafamilia&#45;&#45;class_Núcleofamiliar</title>
<path fill="none" stroke="#c0c0c0" stroke-dasharray="5,2" d="M152.5702,-70.7316C142.2858,-60.8341 131.7526,-50.6971 122.9168,-42.1936"/>
<polygon fill="#c0c0c0" stroke="#c0c0c0" points="145.6624,-78.6563 174.5593,-91.8935 160.2244,-63.5252 145.6624,-78.6563"/>
<text text-anchor="middle" x="174.6163" y="-63.8264" font-family="Arial" font-size="12.00" fill="#000000">inherits</text>
</g>
<!-- class_mascotas -->
<g id="node7" class="node">
<title>class_mascotas</title>
<ellipse fill="#20b2aa" stroke="#000000" cx="292.1163" cy="-21.2132" rx="72.25" ry="21.4286"/>
<text text-anchor="middle" x="292.1163" y="-16.2132" font-family="Arial" font-size="20.00" fill="#000000">mascotas</text>
</g>
<!-- class_Unafamilia&#45;&#45;class_mascotas -->
<g id="edge7" class="edge">
<title>class_Unafamilia&#45;&#45;class_mascotas</title>
<path fill="none" stroke="#c0c0c0" stroke-dasharray="5,2" d="M240.0208,-70.8268C250.7035,-60.653 261.6587,-50.2197 270.7493,-41.5622"/>
<polygon fill="#c0c0c0" stroke="#c0c0c0" points="232.3833,-63.6006 217.9002,-91.8935 246.8659,-78.8077 232.3833,-63.6006"/>
<text text-anchor="middle" x="269.6163" y="-63.8264" font-family="Arial" font-size="12.00" fill="#000000">inherits</text>
</g>
<!-- class_abuelos -->
<g id="node3" class="node">
<title>class_abuelos</title>
<ellipse fill="#20b2aa" stroke="#000000" cx="354.1163" cy="-112.6396" rx="61.5366" ry="21.4286"/>
<text text-anchor="middle" x="354.1163" y="-107.6396" font-family="Arial" font-size="20.00" fill="#000000">abuelos</text>
</g>
<!-- class_hijos -->
<g id="node4" class="node">
<title>class_hijos</title>
<ellipse fill="#20b2aa" stroke="#000000" cx="475.1163" cy="-112.6396" rx="41.0244" ry="21.4286"/>
<text text-anchor="middle" x="475.1163" y="-107.6396" font-family="Arial" font-size="20.00" fill="#000000">hijos</text>
</g>
<!-- class_propiedades -->
<g id="node5" class="node">
<title>class_propiedades</title>
<ellipse fill="#20b2aa" stroke="#000000" cx="354.1163" cy="-386.9188" rx="89.6056" ry="21.4286"/>
<text text-anchor="middle" x="354.1163" y="-381.9188" font-family="Arial" font-size="20.00" fill="#000000">propiedades</text>
</g>
<!-- class_ambito -->
<g id="node8" class="node">
<title>class_ambito</title>
<ellipse fill="#20b2aa" stroke="#000000" cx="354.1163" cy="-295.4924" rx="54.3945" ry="21.4286"/>
<text text-anchor="middle" x="354.1163" y="-290.4924" font-family="Arial" font-size="20.00" fill="#000000">ambito</text>
</g>
<!-- class_propiedades&#45;&#45;class_ambito -->
<g id="edge1" class="edge">
<title>class_propiedades&#45;&#45;class_ambito</title>
<path fill="none" stroke="#c0c0c0" stroke-dasharray="5,2" d="M354.1163,-335.2089C354.1163,-328.8099 354.1163,-322.5704 354.1163,-317.0037"/>
<polygon fill="#c0c0c0" stroke="#c0c0c0" points="343.6164,-335.252 354.1163,-365.252 364.6164,-335.2521 343.6164,-335.252"/>
<text text-anchor="middle" x="373.6163" y="-338.1056" font-family="Arial" font-size="12.00" fill="#000000">inherits</text>
</g>
<!-- class_Relacionfamiliar -->
<g id="node6" class="node">
<title>class_Relacionfamiliar</title>
<ellipse fill="#20b2aa" stroke="#000000" cx="354.1163" cy="-204.066" rx="112.36" ry="21.4286"/>
<text text-anchor="middle" x="354.1163" y="-199.066" font-family="Arial" font-size="20.00" fill="#000000">Relacionfamiliar</text>
</g>
<!-- class_Relacionfamiliar&#45;&#45;class_Unafamilia -->
<g id="edge3" class="edge">
<title>class_Relacionfamiliar&#45;&#45;class_Unafamilia</title>
<path fill="none" stroke="#c0c0c0" stroke-dasharray="5,2" d="M292.8094,-168.5909C271.2541,-156.118 247.8462,-142.573 229.4611,-131.9345"/>
<polygon fill="#c0c0c0" stroke="#c0c0c0" points="287.8259,-177.8384 319.0509,-183.7755 298.3436,-159.6621 287.8259,-177.8384"/>
<text text-anchor="middle" x="304.6163" y="-155.2528" font-family="Arial" font-size="12.00" fill="#000000">inherits</text>
</g>
<!-- class_Relacionfamiliar&#45;&#45;class_abuelos -->
<g id="edge5" class="edge">
<title>class_Relacionfamiliar&#45;&#45;class_abuelos</title>
<path fill="none" stroke="#c0c0c0" stroke-dasharray="5,2" d="M354.1163,-152.3561C354.1163,-145.957 354.1163,-139.7175 354.1163,-134.1509"/>
<polygon fill="#c0c0c0" stroke="#c0c0c0" points="343.6164,-152.3992 354.1163,-182.3992 364.6164,-152.3993 343.6164,-152.3992"/>
<text text-anchor="middle" x="373.6163" y="-155.2528" font-family="Arial" font-size="12.00" fill="#000000">inherits</text>
</g>
<!-- class_Relacionfamiliar&#45;&#45;class_hijos -->
<g id="edge6" class="edge">
<title>class_Relacionfamiliar&#45;&#45;class_hijos</title>
<path fill="none" stroke="#c0c0c0" stroke-dasharray="5,2" d="M405.5196,-165.2262C421.6537,-153.0354 438.6711,-140.1772 451.84,-130.2269"/>
<polygon fill="#c0c0c0" stroke="#c0c0c0" points="399.1787,-156.8569 381.573,-183.32 411.8386,-173.6119 399.1787,-156.8569"/>
<text text-anchor="middle" x="441.6163" y="-155.2528" font-family="Arial" font-size="12.00" fill="#000000">inherits</text>
</g>
<!-- class_ambito&#45;&#45;class_Relacionfamiliar -->
<g id="edge2" class="edge">
<title>class_ambito&#45;&#45;class_Relacionfamiliar</title>
<path fill="none" stroke="#c0c0c0" stroke-dasharray="5,2" d="M354.1163,-243.7825C354.1163,-237.3835 354.1163,-231.144 354.1163,-225.5773"/>
<polygon fill="#c0c0c0" stroke="#c0c0c0" points="343.6164,-243.8256 354.1163,-273.8256 364.6164,-243.8257 343.6164,-243.8256"/>
<text text-anchor="middle" x="373.6163" y="-246.6792" font-family="Arial" font-size="12.00" fill="#000000">inherits</text>
</g>
</g>
</svg>
