<?xml version="1.0" encoding="UTF-8" standalone="no"?>
<!DOCTYPE svg PUBLIC "-//W3C//DTD SVG 1.1//EN"
 "http://www.w3.org/Graphics/SVG/1.1/DTD/svg11.dtd">
<!-- Generated by graphviz version 2.40.1 (20161225.0304)
 -->
<!-- Title: domain Pages: 1 -->
<svg width="891pt" height="874pt"
 viewBox="0.00 0.00 890.97 873.80" xmlns="http://www.w3.org/2000/svg" xmlns:xlink="http://www.w3.org/1999/xlink">
<g id="graph0" class="graph" transform="scale(1 1) rotate(0) translate(4 869.7986)">
<title>domain</title>
<polygon fill="#ffffff" stroke="transparent" points="-4,4 -4,-869.7986 886.9724,-869.7986 886.9724,4 -4,4"/>
<!-- property_apellidos -->
<g id="node1" class="node">
<title>property_apellidos</title>
<polygon fill="#fafad2" stroke="#000000" stroke-dasharray="5,2" points="117.0421,-322.1514 117.0421,-360.1514 176.0421,-360.1514 176.0421,-322.1514 117.0421,-322.1514"/>
<text text-anchor="middle" x="146.5421" y="-348.1514" font-family="Arial" font-size="10.00" fill="#000000">apellidos</text>
<polyline fill="none" stroke="#000000" stroke-dasharray="5,2" points="117.0421,-341.1514 176.0421,-341.1514 "/>
<text text-anchor="middle" x="146.5421" y="-329.1514" font-family="Arial" font-size="10.00" fill="#000000">xsd:string</text>
</g>
<!-- property_Nombredelanimal -->
<g id="node2" class="node">
<title>property_Nombredelanimal</title>
<polygon fill="#fafad2" stroke="#000000" points="780.5141,-.5 780.5141,-38.5 875.5141,-38.5 875.5141,-.5 780.5141,-.5"/>
<text text-anchor="middle" x="828.0141" y="-26.5" font-family="Arial" font-size="10.00" fill="#000000">Nombredelanimal</text>
<polyline fill="none" stroke="#000000" points="780.5141,-19.5 875.5141,-19.5 "/>
<text text-anchor="middle" x="828.0141" y="-7.5" font-family="Arial" font-size="10.00" fill="#000000">xsd:string</text>
</g>
<!-- property_Mascotas -->
<g id="node3" class="node">
<title>property_Mascotas</title>
<polygon fill="#fafad2" stroke="#000000" points="460.4661,-203.6796 460.4661,-241.6796 610.4661,-241.6796 610.4661,-203.6796 460.4661,-203.6796"/>
<text text-anchor="middle" x="535.4661" y="-229.6796" font-family="Arial" font-size="10.00" fill="#000000">Mascotas</text>
<polyline fill="none" stroke="#000000" points="460.4661,-222.6796 610.4661,-222.6796 "/>
<text text-anchor="middle" x="535.4661" y="-210.6796" font-family="Arial" font-size="10.00" fill="#000000">http://PdL.com/class#Mascota</text>
</g>
<!-- class_Mascota -->
<g id="node9" class="node">
<title>class_Mascota</title>
<ellipse fill="#20b2aa" stroke="#000000" cx="716.6375" cy="-222.9325" rx="65.1077" ry="21.4286"/>
<text text-anchor="middle" x="716.6375" y="-217.9325" font-family="Arial" font-size="20.00" fill="#000000">Mascota</text>
</g>
<!-- property_Mascotas&#45;&#45;class_Mascota -->
<g id="edge7" class="edge">
<title>property_Mascotas&#45;&#45;class_Mascota</title>
<path fill="none" stroke="#c0c0c0" stroke-dasharray="1,5" d="M610.7252,-222.7846C617.4819,-222.7941 624.3559,-222.8037 631.1907,-222.8132"/>
<polygon fill="#c0c0c0" stroke="#c0c0c0" points="651.4215,-222.8414 631.4089,-231.8134 641.4215,-222.8274 631.4215,-222.8134 631.4215,-222.8134 631.4215,-222.8134 641.4215,-222.8274 631.4341,-213.8134 651.4215,-222.8414 651.4215,-222.8414"/>
<text text-anchor="middle" x="630.9579" y="-213.1989" font-family="Arial" font-size="12.00" fill="#000000">TypeOf</text>
</g>
<!-- property_name -->
<g id="node4" class="node">
<title>property_name</title>
<polygon fill="#fafad2" stroke="#000000" points="0,-827.2986 0,-865.2986 59,-865.2986 59,-827.2986 0,-827.2986"/>
<text text-anchor="middle" x="29.5" y="-853.2986" font-family="Arial" font-size="10.00" fill="#000000">name</text>
<polyline fill="none" stroke="#000000" points="0,-846.2986 59,-846.2986 "/>
<text text-anchor="middle" x="29.5" y="-834.2986" font-family="Arial" font-size="10.00" fill="#000000">xsd:string</text>
</g>
<!-- property_edad -->
<g id="node5" class="node">
<title>property_edad</title>
<polygon fill="#fafad2" stroke="#000000" points="817.9724,-452.9302 817.9724,-490.9302 882.9724,-490.9302 882.9724,-452.9302 817.9724,-452.9302"/>
<text text-anchor="middle" x="850.4724" y="-478.9302" font-family="Arial" font-size="10.00" fill="#000000">edad</text>
<polyline fill="none" stroke="#000000" points="817.9724,-471.9302 882.9724,-471.9302 "/>
<text text-anchor="middle" x="850.4724" y="-459.9302" font-family="Arial" font-size="10.00" fill="#000000">xsd:integer</text>
</g>
<!-- property_fechaUNIX -->
<g id="node6" class="node">
<title>property_fechaUNIX</title>
<polygon fill="#fafad2" stroke="#000000" points="745.2115,-776.6136 745.2115,-814.6136 823.2115,-814.6136 823.2115,-776.6136 745.2115,-776.6136"/>
<text text-anchor="middle" x="784.2115" y="-802.6136" font-family="Arial" font-size="10.00" fill="#000000">fechaUNIX</text>
<polyline fill="none" stroke="#000000" points="745.2115,-795.6136 823.2115,-795.6136 "/>
<text text-anchor="middle" x="784.2115" y="-783.6136" font-family="Arial" font-size="10.00" fill="#000000">xsd:DateTime</text>
</g>
<!-- class_Hijo -->
<g id="node7" class="node">
<title>class_Hijo</title>
<ellipse fill="#20b2aa" stroke="#000000" cx="339.7737" cy="-497.5284" rx="36.125" ry="21.4286"/>
<text text-anchor="middle" x="339.7737" y="-492.5284" font-family="Arial" font-size="20.00" fill="#000000">Hijo</text>
</g>
<!-- class_Hijo&#45;&#45;property_apellidos -->
<g id="edge1" class="edge">
<title>class_Hijo&#45;&#45;property_apellidos</title>
<path fill="none" stroke="#c0c0c0" stroke-dasharray="5,2" d="M318.3562,-480.1959C281.901,-450.6936 208.0648,-390.9401 170.1621,-360.2664"/>
</g>
<!-- class_Nieto -->
<g id="node10" class="node">
<title>class_Nieto</title>
<ellipse fill="#20b2aa" stroke="#000000" cx="599.2979" cy="-445.1736" rx="44.5955" ry="21.4286"/>
<text text-anchor="middle" x="599.2979" y="-440.1736" font-family="Arial" font-size="20.00" fill="#000000">Nieto</text>
</g>
<!-- class_Hijo&#45;&#45;class_Nieto -->
<g id="edge10" class="edge">
<title>class_Hijo&#45;&#45;class_Nieto</title>
<path fill="none" stroke="#c0c0c0" stroke-dasharray="5,2" d="M403.5446,-484.6637C451.784,-474.9322 516.6039,-461.8558 558.1749,-453.4695"/>
<polygon fill="#c0c0c0" stroke="#c0c0c0" points="401.3,-474.4049 373.9688,-490.6301 405.4528,-494.9902 401.3,-474.4049"/>
<text text-anchor="middle" x="461.3598" y="-472.4666" font-family="Arial" font-size="12.00" fill="#000000">inherits</text>
</g>
<!-- class_Principal -->
<g id="node8" class="node">
<title>class_Principal</title>
<ellipse fill="#20b2aa" stroke="#000000" cx="189.639" cy="-686.9358" rx="65.5227" ry="21.4286"/>
<text text-anchor="middle" x="189.639" y="-681.9358" font-family="Arial" font-size="20.00" fill="#000000">Principal</text>
</g>
<!-- class_Principal&#45;&#45;property_name -->
<g id="edge2" class="edge">
<title>class_Principal&#45;&#45;property_name</title>
<path fill="none" stroke="#c0c0c0" stroke-dasharray="5,2" d="M169.3573,-707.1192C138.2172,-738.1084 79.0463,-796.9925 48.6202,-827.2711"/>
</g>
<!-- class_Principal&#45;&#45;class_Hijo -->
<g id="edge9" class="edge">
<title>class_Principal&#45;&#45;class_Hijo</title>
<path fill="none" stroke="#c0c0c0" stroke-dasharray="5,2" d="M224.6289,-642.7931C256.1515,-603.0248 301.0139,-546.4271 324.3422,-516.9965"/>
<polygon fill="#c0c0c0" stroke="#c0c0c0" points="216.3987,-636.2728 205.9918,-666.3053 232.8558,-649.3176 216.3987,-636.2728"/>
<text text-anchor="middle" x="254.9856" y="-583.2948" font-family="Arial" font-size="12.00" fill="#000000">inherits</text>
</g>
<!-- class_Mascota&#45;&#45;property_Nombredelanimal -->
<g id="edge3" class="edge">
<title>class_Mascota&#45;&#45;property_Nombredelanimal</title>
<path fill="none" stroke="#c0c0c0" stroke-dasharray="5,2" d="M728.1373,-201.9279C749.8687,-162.2347 796.6564,-76.7757 817.5572,-38.5998"/>
</g>
<!-- class_Nieto&#45;&#45;property_Mascotas -->
<g id="edge5" class="edge">
<title>class_Nieto&#45;&#45;property_Mascotas</title>
<path fill="none" stroke="#c0c0c0" stroke-dasharray="5,2" d="M593.1774,-423.84C580.7581,-380.5509 552.7741,-283.009 540.9282,-241.7184"/>
</g>
<!-- class_Nieto&#45;&#45;property_edad -->
<g id="edge4" class="edge">
<title>class_Nieto&#45;&#45;property_edad</title>
<path fill="none" stroke="#c0c0c0" stroke-dasharray="5,2" d="M643.0491,-449.8343C692.8049,-455.1346 772.9149,-463.6684 817.6196,-468.4306"/>
</g>
<!-- class_Nieto&#45;&#45;class_Mascota -->
<g id="edge8" class="edge">
<title>class_Nieto&#45;&#45;class_Mascota</title>
<path fill="none" stroke="#ff4500" stroke-dasharray="5,2" d="M610.3369,-424.2657C629.9491,-387.1203 671.1458,-309.0938 696.1014,-261.8279"/>
<polygon fill="#ff4500" stroke="#ff4500" points="705.5423,-243.9467 704.1631,-265.8351 700.8733,-252.7898 696.2043,-261.6329 696.2043,-261.6329 696.2043,-261.6329 700.8733,-252.7898 688.2455,-257.4308 705.5423,-243.9467 705.5423,-243.9467"/>
<text text-anchor="middle" x="609.7191" y="-346.4468" font-family="Arial" font-size="12.00" fill="#ff4500">Mascotas (0..n) </text>
</g>
<!-- relationship_ConoceA -->
<g id="node11" class="node">
<title>relationship_ConoceA</title>
<polygon fill="#afeeee" stroke="#000000" points="714.7556,-592.291 683.4198,-610.291 620.7482,-610.291 589.4125,-592.291 620.7482,-574.291 683.4198,-574.291 714.7556,-592.291"/>
<text text-anchor="middle" x="652.084" y="-588.791" font-family="Arial" font-size="15.00" fill="#000000">ConoceA</text>
</g>
<!-- class_Nieto&#45;&#45;relationship_ConoceA -->
<g id="edge11" class="edge">
<title>class_Nieto&#45;&#45;relationship_ConoceA</title>
<path fill="none" stroke="#0000ff" stroke-width="3" stroke-dasharray="5,2" d="M601.9097,-466.6317C608.7238,-492.5373 624.0925,-536.1114 636.2439,-564.5447"/>
<polygon fill="#0000ff" stroke="#0000ff" stroke-width="3" points="633.143,-566.1866 640.3885,-573.9166 639.5449,-563.3554 633.143,-566.1866"/>
<text text-anchor="middle" x="594.0768" y="-518.9882" font-family="Arial" font-size="12.00" fill="#0000ff">ConoceA</text>
</g>
<!-- relationship_ConoceA&#45;&#45;property_fechaUNIX -->
<g id="edge6" class="edge">
<title>relationship_ConoceA&#45;&#45;property_fechaUNIX</title>
<path fill="none" stroke="#c0c0c0" stroke-dasharray="5,2" d="M663.8095,-610.3345C688.6303,-648.5297 746.2853,-737.2514 771.745,-776.4298"/>
</g>
<!-- relationship_ConoceA&#45;&#45;class_Nieto -->
<g id="edge12" class="edge">
<title>relationship_ConoceA&#45;&#45;class_Nieto</title>
<path fill="none" stroke="#0000ff" stroke-width="3" stroke-dasharray="5,2" d="M650.3325,-574.1933C644.2146,-549.564 628.7401,-505.2192 616.2227,-475.4777"/>
<polygon fill="#0000ff" stroke="#0000ff" stroke-width="3" points="619.3014,-473.7802 612.1088,-466.0009 612.8803,-476.5677 619.3014,-473.7802"/>
<text text-anchor="middle" x="672.7776" y="-528.2355" font-family="Arial" font-size="12.00" fill="#0000ff">esconocidopor</text>
</g>
</g>
</svg>
