<?xml version="1.0" encoding="UTF-8" standalone="no"?>
<!DOCTYPE svg PUBLIC "-//W3C//DTD SVG 1.1//EN"
 "http://www.w3.org/Graphics/SVG/1.1/DTD/svg11.dtd">
<!-- Generated by graphviz version 2.40.1 (20161225.0304)
 -->
<!-- Title: domain Pages: 1 -->
<svg width="1027pt" height="309pt"
 viewBox="0.00 0.00 1026.93 308.83" xmlns="http://www.w3.org/2000/svg" xmlns:xlink="http://www.w3.org/1999/xlink">
<g id="graph0" class="graph" transform="scale(1 1) rotate(0) translate(4 304.835)">
<title>domain</title>
<polygon fill="#ffffff" stroke="transparent" points="-4,4 -4,-304.835 1022.933,-304.835 1022.933,4 -4,4"/>
<!-- property_Mascotas -->
<g id="node1" class="node">
<title>property_Mascotas</title>
<polygon fill="#fafad2" stroke="#000000" points="0,-62.7482 0,-100.7482 150,-100.7482 150,-62.7482 0,-62.7482"/>
<text text-anchor="middle" x="75" y="-88.7482" font-family="Arial" font-size="10.00" fill="#000000">Mascotas</text>
<polyline fill="none" stroke="#000000" points="0,-81.7482 150,-81.7482 "/>
<text text-anchor="middle" x="75" y="-69.7482" font-family="Arial" font-size="10.00" fill="#000000">http://PdL.com/class#Mascota</text>
</g>
<!-- property_ -->
<g id="node2" class="node">
<title>property_</title>
<polygon fill="#fafad2" stroke="#000000" points="959.933,-138.8245 959.933,-176.8245 1018.933,-176.8245 1018.933,-138.8245 959.933,-138.8245"/>
<text text-anchor="middle" x="989.433" y="-164.8245" font-family="Arial" font-size="10.00" fill="#000000"> </text>
<polyline fill="none" stroke="#000000" points="959.933,-157.8245 1018.933,-157.8245 "/>
<text text-anchor="middle" x="989.433" y="-145.8245" font-family="Arial" font-size="10.00" fill="#000000">xsd:string</text>
</g>
<!-- property_fechaUNIX -->
<g id="node3" class="node">
<title>property_fechaUNIX</title>
<polygon fill="#fafad2" stroke="#000000" points="572,-220.5 572,-258.5 650,-258.5 650,-220.5 572,-220.5"/>
<text text-anchor="middle" x="611" y="-246.5" font-family="Arial" font-size="10.00" fill="#000000">fechaUNIX</text>
<polyline fill="none" stroke="#000000" points="572,-239.5 650,-239.5 "/>
<text text-anchor="middle" x="611" y="-227.5" font-family="Arial" font-size="10.00" fill="#000000">xsd:DateTime</text>
</g>
<!-- class_Hijo -->
<g id="node4" class="node">
<title>class_Hijo</title>
<ellipse fill="#20b2aa" stroke="#000000" cx="551.0764" cy="-140.0042" rx="36.125" ry="21.4286"/>
<text text-anchor="middle" x="551.0764" y="-135.0042" font-family="Arial" font-size="20.00" fill="#000000">Hijo</text>
</g>
<!-- class_Nieto -->
<g id="node6" class="node">
<title>class_Nieto</title>
<ellipse fill="#20b2aa" stroke="#000000" cx="301.2456" cy="-152.9041" rx="44.5955" ry="21.4286"/>
<text text-anchor="middle" x="301.2456" y="-147.9041" font-family="Arial" font-size="20.00" fill="#000000">Nieto</text>
</g>
<!-- class_Hijo&#45;&#45;class_Nieto -->
<g id="edge7" class="edge">
<title>class_Hijo&#45;&#45;class_Nieto</title>
<path fill="none" stroke="#c0c0c0" stroke-dasharray="5,2" d="M485.002,-143.4159C441.0197,-145.6869 384.4233,-148.6092 345.7343,-150.6069"/>
<polygon fill="#c0c0c0" stroke="#c0c0c0" points="485.5971,-153.8993 515.0157,-141.8662 484.5141,-132.9272 485.5971,-153.8993"/>
<text text-anchor="middle" x="395.8681" y="-150.4114" font-family="Arial" font-size="12.00" fill="#000000">inherits</text>
</g>
<!-- property_null -->
<g id="node8" class="node">
<title>property_null</title>
<polygon fill="#afeeee" stroke="#000000" points="481.5111,-18 440.1157,-36 357.325,-36 315.9296,-18 357.325,0 440.1157,0 481.5111,-18"/>
<text text-anchor="middle" x="398.7203" y="-14.5" font-family="Arial" font-size="15.00" fill="#000000">property_null</text>
</g>
<!-- class_Hijo&#45;&#45;property_null -->
<g id="edge1" class="edge">
<title>class_Hijo&#45;&#45;property_null</title>
<path fill="none" stroke="#c0c0c0" stroke-dasharray="5,2" d="M529.5707,-122.7827C500.9438,-99.8588 450.5459,-59.501 421.358,-36.1279"/>
</g>
<!-- class_Principal -->
<g id="node5" class="node">
<title>class_Principal</title>
<ellipse fill="#20b2aa" stroke="#000000" cx="772.9374" cy="-137.0899" rx="65.5227" ry="21.4286"/>
<text text-anchor="middle" x="772.9374" y="-132.0899" font-family="Arial" font-size="20.00" fill="#000000">Principal</text>
</g>
<!-- class_Principal&#45;&#45;property_ -->
<g id="edge2" class="edge">
<title>class_Principal&#45;&#45;property_</title>
<path fill="none" stroke="#c0c0c0" stroke-dasharray="5,2" d="M836.1389,-143.1429C876.9511,-147.0517 928.161,-151.9563 959.8398,-154.9903"/>
</g>
<!-- class_Principal&#45;&#45;class_Hijo -->
<g id="edge6" class="edge">
<title>class_Principal&#45;&#45;class_Hijo</title>
<path fill="none" stroke="#c0c0c0" stroke-dasharray="5,2" d="M676.7537,-138.3533C644.9797,-138.7707 611.5625,-139.2097 587.1802,-139.5299"/>
<polygon fill="#c0c0c0" stroke="#c0c0c0" points="677.113,-148.8496 706.9725,-137.9564 676.8371,-127.8514 677.113,-148.8496"/>
<text text-anchor="middle" x="612.467" y="-142.3416" font-family="Arial" font-size="12.00" fill="#000000">inherits</text>
</g>
<!-- class_Nieto&#45;&#45;property_Mascotas -->
<g id="edge4" class="edge">
<title>class_Nieto&#45;&#45;property_Mascotas</title>
<path fill="none" stroke="#c0c0c0" stroke-dasharray="5,2" d="M263.8858,-141.1541C228.9945,-130.1806 176.3066,-113.6098 135.4346,-100.7553"/>
</g>
<!-- relationship_conoceA -->
<g id="node7" class="node">
<title>relationship_conoceA</title>
<polygon fill="#afeeee" stroke="#000000" points="359.5742,-282.835 329.3954,-300.835 269.0377,-300.835 238.8589,-282.835 269.0377,-264.835 329.3954,-264.835 359.5742,-282.835"/>
<text text-anchor="middle" x="299.2166" y="-279.335" font-family="Arial" font-size="15.00" fill="#000000">conoceA</text>
</g>
<!-- class_Nieto&#45;&#45;relationship_conoceA -->
<g id="edge8" class="edge">
<title>class_Nieto&#45;&#45;relationship_conoceA</title>
<path fill="none" stroke="#0000ff" stroke-width="3" stroke-dasharray="5,2" d="M295.7751,-173.9886C293.4856,-195.8821 292.7686,-230.2603 293.9771,-254.5134"/>
<polygon fill="#0000ff" stroke="#0000ff" stroke-width="3" points="290.488,-254.7952 294.6413,-264.542 297.4727,-254.3326 290.488,-254.7952"/>
<text text-anchor="middle" x="271.3761" y="-217.651" font-family="Arial" font-size="12.00" fill="#0000ff">conoceA</text>
</g>
<!-- class_Nieto&#45;&#45;property_null -->
<g id="edge3" class="edge">
<title>class_Nieto&#45;&#45;property_null</title>
<path fill="none" stroke="#c0c0c0" stroke-dasharray="5,2" d="M315.8386,-132.7076C334.7456,-106.5404 367.43,-61.3055 385.5919,-36.1697"/>
</g>
<!-- relationship_conoceA&#45;&#45;class_Nieto -->
<g id="edge9" class="edge">
<title>relationship_conoceA&#45;&#45;class_Nieto</title>
<path fill="none" stroke="#0000ff" stroke-width="3" stroke-dasharray="5,2" d="M304.3753,-264.5707C306.806,-243.7928 307.6755,-209.496 306.6293,-184.3847"/>
<polygon fill="#0000ff" stroke="#0000ff" stroke-width="3" points="310.1156,-184.0403 306.0626,-174.2513 303.1265,-184.4312 310.1156,-184.0403"/>
<text text-anchor="middle" x="347.0023" y="-227.8777" font-family="Arial" font-size="12.00" fill="#0000ff">esConocidoPor</text>
</g>
<!-- relationship_conoceA&#45;&#45;property_null -->
<g id="edge5" class="edge">
<title>relationship_conoceA&#45;&#45;property_null</title>
<path fill="none" stroke="#c0c0c0" stroke-dasharray="5,2" d="M306.0559,-264.6318C324.2336,-216.2506 373.6008,-84.8571 391.8332,-36.3306"/>
</g>
</g>
</svg>
