<?xml version="1.0" encoding="UTF-8" standalone="no"?>
<!DOCTYPE svg PUBLIC "-//W3C//DTD SVG 1.1//EN"
 "http://www.w3.org/Graphics/SVG/1.1/DTD/svg11.dtd">
<!-- Generated by graphviz version 2.40.1 (20161225.0304)
 -->
<!-- Title: properties Pages: 1 -->
<svg width="839pt" height="233pt"
 viewBox="0.00 0.00 838.79 233.28" xmlns="http://www.w3.org/2000/svg" xmlns:xlink="http://www.w3.org/1999/xlink">
<g id="graph0" class="graph" transform="scale(1 1) rotate(0) translate(4 229.2792)">
<title>properties</title>
<polygon fill="#ffffff" stroke="transparent" points="-4,4 -4,-229.2792 834.7939,-229.2792 834.7939,4 -4,4"/>
<!-- class_A -->
<g id="node1" class="node">
<title>class_A</title>
<ellipse fill="#20b2aa" stroke="#000000" cx="61.5183" cy="-112.6396" rx="61.5366" ry="21.4286"/>
<text text-anchor="middle" x="61.5183" y="-107.6396" font-family="Arial" font-size="20.00" fill="#000000">class_A</text>
</g>
<!-- family -->
<g id="node2" class="node">
<title>family</title>
<ellipse fill="#20b2aa" stroke="#000000" cx="486.5183" cy="-112.6396" rx="57.0522" ry="21.4286"/>
<text text-anchor="middle" x="486.5183" y="-107.6396" font-family="Arial" font-size="20.00" fill="#000000">inherits</text>
</g>
<!-- class_Family -->
<g id="node3" class="node">
<title>class_Family</title>
<ellipse fill="#20b2aa" stroke="#000000" cx="623.5183" cy="-21.2132" rx="93.1765" ry="21.4286"/>
<text text-anchor="middle" x="623.5183" y="-16.2132" font-family="Arial" font-size="20.00" fill="#000000">class_Family</text>
</g>
<!-- family&#45;&#45;class_Family -->
<g id="edge4" class="edge">
<title>family&#45;&#45;class_Family</title>
<path fill="none" stroke="#c0c0c0" stroke-dasharray="5,2" d="M514.5729,-93.9175C537.4317,-78.6628 569.6523,-57.1604 593.1215,-41.4984"/>
</g>
<!-- class_pets -->
<g id="node9" class="node">
<title>class_pets</title>
<ellipse fill="#20b2aa" stroke="#000000" cx="473.5183" cy="-21.2132" rx="38.3684" ry="21.4286"/>
<text text-anchor="middle" x="473.5183" y="-16.2132" font-family="Arial" font-size="20.00" fill="#000000">pets</text>
</g>
<!-- family&#45;&#45;class_pets -->
<g id="edge7" class="edge">
<title>family&#45;&#45;class_pets</title>
<path fill="none" stroke="#c0c0c0" stroke-dasharray="5,2" d="M479.2405,-61.456C478.2987,-54.8329 477.3791,-48.3652 476.5621,-42.6198"/>
<polygon fill="#c0c0c0" stroke="#c0c0c0" points="468.8844,-63.2117 483.5032,-91.4348 489.6753,-60.2553 468.8844,-63.2117"/>
<text text-anchor="middle" x="500.0183" y="-63.8264" font-family="Arial" font-size="12.00" fill="#000000">inherits</text>
</g>
<!-- core -->
<g id="node4" class="node">
<title>core</title>
<ellipse fill="#20b2aa" stroke="#000000" cx="773.5183" cy="-204.066" rx="57.0522" ry="21.4286"/>
<text text-anchor="middle" x="773.5183" y="-199.066" font-family="Arial" font-size="20.00" fill="#000000">inherits</text>
</g>
<!-- class_grandfather -->
<g id="node5" class="node">
<title>class_grandfather</title>
<ellipse fill="#20b2aa" stroke="#000000" cx="225.5183" cy="-112.6396" rx="84.2917" ry="21.4286"/>
<text text-anchor="middle" x="225.5183" y="-107.6396" font-family="Arial" font-size="20.00" fill="#000000">grandfather</text>
</g>
<!-- class_sons -->
<g id="node6" class="node">
<title>class_sons</title>
<ellipse fill="#20b2aa" stroke="#000000" cx="369.5183" cy="-112.6396" rx="41.9398" ry="21.4286"/>
<text text-anchor="middle" x="369.5183" y="-107.6396" font-family="Arial" font-size="20.00" fill="#000000">sons</text>
</g>
<!-- class_properties -->
<g id="node7" class="node">
<title>class_properties</title>
<ellipse fill="#20b2aa" stroke="#000000" cx="623.5183" cy="-204.066" rx="74.4932" ry="21.4286"/>
<text text-anchor="middle" x="623.5183" y="-199.066" font-family="Arial" font-size="20.00" fill="#000000">properties</text>
</g>
<!-- class_scope -->
<g id="node10" class="node">
<title>class_scope</title>
<ellipse fill="#20b2aa" stroke="#000000" cx="623.5183" cy="-112.6396" rx="49.4949" ry="21.4286"/>
<text text-anchor="middle" x="623.5183" y="-107.6396" font-family="Arial" font-size="20.00" fill="#000000">scope</text>
</g>
<!-- class_properties&#45;&#45;class_scope -->
<g id="edge1" class="edge">
<title>class_properties&#45;&#45;class_scope</title>
<path fill="none" stroke="#c0c0c0" stroke-dasharray="5,2" d="M623.5183,-152.3561C623.5183,-145.957 623.5183,-139.7175 623.5183,-134.1509"/>
<polygon fill="#c0c0c0" stroke="#c0c0c0" points="613.0184,-152.3992 623.5183,-182.3992 634.0184,-152.3993 613.0184,-152.3992"/>
<text text-anchor="middle" x="643.0183" y="-155.2528" font-family="Arial" font-size="12.00" fill="#000000">inherits</text>
</g>
<!-- relationships -->
<g id="node8" class="node">
<title>relationships</title>
<ellipse fill="#20b2aa" stroke="#000000" cx="225.5183" cy="-204.066" rx="57.0522" ry="21.4286"/>
<text text-anchor="middle" x="225.5183" y="-199.066" font-family="Arial" font-size="20.00" fill="#000000">inherits</text>
</g>
<!-- relationships&#45;&#45;class_A -->
<g id="edge3" class="edge">
<title>relationships&#45;&#45;class_A</title>
<path fill="none" stroke="#c0c0c0" stroke-dasharray="5,2" d="M193.5081,-186.221C164.7973,-170.2154 122.8651,-146.8391 94.0082,-130.752"/>
</g>
<!-- relationships&#45;&#45;class_grandfather -->
<g id="edge5" class="edge">
<title>relationships&#45;&#45;class_grandfather</title>
<path fill="none" stroke="#c0c0c0" stroke-dasharray="5,2" d="M225.5183,-152.3561C225.5183,-145.957 225.5183,-139.7175 225.5183,-134.1509"/>
<polygon fill="#c0c0c0" stroke="#c0c0c0" points="215.0184,-152.3992 225.5183,-182.3992 236.0184,-152.3993 215.0184,-152.3992"/>
<text text-anchor="middle" x="245.0183" y="-155.2528" font-family="Arial" font-size="12.00" fill="#000000">inherits</text>
</g>
<!-- relationships&#45;&#45;class_sons -->
<g id="edge6" class="edge">
<title>relationships&#45;&#45;class_sons</title>
<path fill="none" stroke="#c0c0c0" stroke-dasharray="5,2" d="M280.2439,-169.3204C301.8789,-155.5842 325.7255,-140.4439 343.3262,-129.2691"/>
<polygon fill="#c0c0c0" stroke="#c0c0c0" points="274.3574,-160.6202 254.6588,-185.5645 285.6134,-178.3488 274.3574,-160.6202"/>
<text text-anchor="middle" x="325.0183" y="-155.2528" font-family="Arial" font-size="12.00" fill="#000000">inherits</text>
</g>
<!-- class_scope&#45;&#45;class_Family -->
<g id="edge2" class="edge">
<title>class_scope&#45;&#45;class_Family</title>
<path fill="none" stroke="#c0c0c0" stroke-dasharray="5,2" d="M623.5183,-90.9728C623.5183,-76.3987 623.5183,-57.266 623.5183,-42.7245"/>
</g>
</g>
</svg>
