<?xml version="1.0" encoding="UTF-8" standalone="no"?>
<!DOCTYPE svg PUBLIC "-//W3C//DTD SVG 1.1//EN"
 "http://www.w3.org/Graphics/SVG/1.1/DTD/svg11.dtd">
<!-- Generated by graphviz version 2.40.1 (20161225.0304)
 -->
<!-- Title: characteristics Pages: 1 -->
<svg width="1484pt" height="233pt"
 viewBox="0.00 0.00 1483.65 233.28" xmlns="http://www.w3.org/2000/svg" xmlns:xlink="http://www.w3.org/1999/xlink">
<g id="graph0" class="graph" transform="scale(1 1) rotate(0) translate(4 229.2792)">
<title>characteristics</title>
<polygon fill="#ffffff" stroke="transparent" points="-4,4 -4,-229.2792 1479.6518,-229.2792 1479.6518,4 -4,4"/>
<!-- class_word -->
<g id="node1" class="node">
<title>class_word</title>
<ellipse fill="#20b2aa" stroke="#000000" cx="430.5685" cy="-21.2132" rx="42.3529" ry="21.4286"/>
<text text-anchor="middle" x="430.5685" y="-16.2132" font-family="Arial" font-size="20.00" fill="#000000">word</text>
</g>
<!-- class_chronological -->
<g id="node2" class="node">
<title>class_chronological</title>
<ellipse fill="#20b2aa" stroke="#000000" cx="1000.5685" cy="-21.2132" rx="94.5053" ry="21.4286"/>
<text text-anchor="middle" x="1000.5685" y="-16.2132" font-family="Arial" font-size="20.00" fill="#000000">chronological</text>
</g>
<!-- class_present -->
<g id="node3" class="node">
<title>class_present</title>
<ellipse fill="#20b2aa" stroke="#000000" cx="1208.5685" cy="-112.6396" rx="58.8803" ry="21.4286"/>
<text text-anchor="middle" x="1208.5685" y="-107.6396" font-family="Arial" font-size="20.00" fill="#000000">present</text>
</g>
<!-- class_before -->
<g id="node4" class="node">
<title>class_before</title>
<ellipse fill="#20b2aa" stroke="#000000" cx="1164.5685" cy="-21.2132" rx="51.7379" ry="21.4286"/>
<text text-anchor="middle" x="1164.5685" y="-16.2132" font-family="Arial" font-size="20.00" fill="#000000">before</text>
</g>
<!-- class_language -->
<g id="node5" class="node">
<title>class_language</title>
<ellipse fill="#20b2aa" stroke="#000000" cx="208.5685" cy="-112.6396" rx="70.0071" ry="21.4286"/>
<text text-anchor="middle" x="208.5685" y="-107.6396" font-family="Arial" font-size="20.00" fill="#000000">language</text>
</g>
<!-- class_english -->
<g id="node11" class="node">
<title>class_english</title>
<ellipse fill="#20b2aa" stroke="#000000" cx="56.5685" cy="-21.2132" rx="56.6372" ry="21.4286"/>
<text text-anchor="middle" x="56.5685" y="-16.2132" font-family="Arial" font-size="20.00" fill="#000000">english</text>
</g>
<!-- class_language&#45;&#45;class_english -->
<g id="edge3" class="edge">
<title>class_language&#45;&#45;class_english</title>
<path fill="none" stroke="#c0c0c0" stroke-dasharray="5,2" d="M150.7385,-77.8555C128.874,-64.7042 104.8781,-50.2709 86.5811,-39.2655"/>
<polygon fill="#c0c0c0" stroke="#c0c0c0" points="145.5844,-87.0083 176.7044,-93.4736 156.4085,-69.0128 145.5844,-87.0083"/>
<text text-anchor="middle" x="162.0685" y="-63.8264" font-family="Arial" font-size="12.00" fill="#000000">inherits</text>
</g>
<!-- class_arabic -->
<g id="node15" class="node">
<title>class_arabic</title>
<ellipse fill="#20b2aa" stroke="#000000" cx="181.5685" cy="-21.2132" rx="50.41" ry="21.4286"/>
<text text-anchor="middle" x="181.5685" y="-16.2132" font-family="Arial" font-size="20.00" fill="#000000">arabic</text>
</g>
<!-- class_language&#45;&#45;class_arabic -->
<g id="edge4" class="edge">
<title>class_language&#45;&#45;class_arabic</title>
<path fill="none" stroke="#c0c0c0" stroke-dasharray="5,2" d="M193.7421,-62.4348C191.6495,-55.3489 189.5998,-48.4084 187.7968,-42.3031"/>
<polygon fill="#c0c0c0" stroke="#c0c0c0" points="183.7394,-65.6371 202.3063,-91.4348 203.8795,-59.6893 183.7394,-65.6371"/>
<text text-anchor="middle" x="217.0685" y="-63.8264" font-family="Arial" font-size="12.00" fill="#000000">inherits</text>
</g>
<!-- class_spanish -->
<g id="node16" class="node">
<title>class_spanish</title>
<ellipse fill="#20b2aa" stroke="#000000" cx="309.5685" cy="-21.2132" rx="60.2083" ry="21.4286"/>
<text text-anchor="middle" x="309.5685" y="-16.2132" font-family="Arial" font-size="20.00" fill="#000000">spanish</text>
</g>
<!-- class_language&#45;&#45;class_spanish -->
<g id="edge2" class="edge">
<title>class_language&#45;&#45;class_spanish</title>
<path fill="none" stroke="#c0c0c0" stroke-dasharray="5,2" d="M253.263,-72.1817C265.1565,-61.4155 277.4854,-50.2553 287.5635,-41.1324"/>
<polygon fill="#c0c0c0" stroke="#c0c0c0" points="246.1783,-64.4318 230.9837,-92.3491 260.2714,-80.0006 246.1783,-64.4318"/>
<text text-anchor="middle" x="285.0685" y="-63.8264" font-family="Arial" font-size="12.00" fill="#000000">inherits</text>
</g>
<!-- class_verbal -->
<g id="node6" class="node">
<title>class_verbal</title>
<ellipse fill="#20b2aa" stroke="#000000" cx="441.5685" cy="-112.6396" rx="90.5193" ry="21.4286"/>
<text text-anchor="middle" x="441.5685" y="-107.6396" font-family="Arial" font-size="20.00" fill="#000000">class_verbal</text>
</g>
<!-- tense -->
<g id="node7" class="node">
<title>tense</title>
<ellipse fill="#20b2aa" stroke="#000000" cx="1323.5685" cy="-204.066" rx="57.0522" ry="21.4286"/>
<text text-anchor="middle" x="1323.5685" y="-199.066" font-family="Arial" font-size="20.00" fill="#000000">inherits</text>
</g>
<!-- tense&#45;&#45;class_present -->
<g id="edge6" class="edge">
<title>tense&#45;&#45;class_present</title>
<path fill="none" stroke="#c0c0c0" stroke-dasharray="5,2" d="M1275.595,-165.9265C1260.8958,-154.2404 1245.3422,-141.8751 1232.9219,-132.0009"/>
<polygon fill="#c0c0c0" stroke="#c0c0c0" points="1269.1626,-174.2265 1299.18,-184.6768 1282.2312,-157.7884 1269.1626,-174.2265"/>
<text text-anchor="middle" x="1293.0685" y="-155.2528" font-family="Arial" font-size="12.00" fill="#000000">inherits</text>
</g>
<!-- class_past -->
<g id="node12" class="node">
<title>class_past</title>
<ellipse fill="#20b2aa" stroke="#000000" cx="1323.5685" cy="-112.6396" rx="38.3684" ry="21.4286"/>
<text text-anchor="middle" x="1323.5685" y="-107.6396" font-family="Arial" font-size="20.00" fill="#000000">past</text>
</g>
<!-- tense&#45;&#45;class_past -->
<g id="edge8" class="edge">
<title>tense&#45;&#45;class_past</title>
<path fill="none" stroke="#c0c0c0" stroke-dasharray="5,2" d="M1323.5685,-152.3561C1323.5685,-145.957 1323.5685,-139.7175 1323.5685,-134.1509"/>
<polygon fill="#c0c0c0" stroke="#c0c0c0" points="1313.0686,-152.3992 1323.5685,-182.3992 1334.0686,-152.3993 1313.0686,-152.3992"/>
<text text-anchor="middle" x="1343.0685" y="-155.2528" font-family="Arial" font-size="12.00" fill="#000000">inherits</text>
</g>
<!-- class_future -->
<g id="node17" class="node">
<title>class_future</title>
<ellipse fill="#20b2aa" stroke="#000000" cx="1427.5685" cy="-112.6396" rx="48.1667" ry="21.4286"/>
<text text-anchor="middle" x="1427.5685" y="-107.6396" font-family="Arial" font-size="20.00" fill="#000000">future</text>
</g>
<!-- tense&#45;&#45;class_future -->
<g id="edge7" class="edge">
<title>tense&#45;&#45;class_future</title>
<path fill="none" stroke="#c0c0c0" stroke-dasharray="5,2" d="M1368.4139,-164.6425C1381.3135,-153.3025 1394.8119,-141.436 1405.6518,-131.9066"/>
<polygon fill="#c0c0c0" stroke="#c0c0c0" points="1361.478,-156.7593 1345.8792,-184.4528 1375.3432,-172.5313 1361.478,-156.7593"/>
<text text-anchor="middle" x="1401.0685" y="-155.2528" font-family="Arial" font-size="12.00" fill="#000000">inherits</text>
</g>
<!-- class_retrospective -->
<g id="node8" class="node">
<title>class_retrospective</title>
<ellipse fill="#20b2aa" stroke="#000000" cx="1326.5685" cy="-21.2132" rx="92.7622" ry="21.4286"/>
<text text-anchor="middle" x="1326.5685" y="-16.2132" font-family="Arial" font-size="20.00" fill="#000000">retrospective</text>
</g>
<!-- class_text -->
<g id="node9" class="node">
<title>class_text</title>
<ellipse fill="#20b2aa" stroke="#000000" cx="525.5685" cy="-21.2132" rx="34.7971" ry="21.4286"/>
<text text-anchor="middle" x="525.5685" y="-16.2132" font-family="Arial" font-size="20.00" fill="#000000">text</text>
</g>
<!-- class_sentence -->
<g id="node10" class="node">
<title>class_sentence</title>
<ellipse fill="#20b2aa" stroke="#000000" cx="647.5685" cy="-21.2132" rx="69.0935" ry="21.4286"/>
<text text-anchor="middle" x="647.5685" y="-16.2132" font-family="Arial" font-size="20.00" fill="#000000">sentence</text>
</g>
<!-- class_elemento -->
<g id="node13" class="node">
<title>class_elemento</title>
<ellipse fill="#20b2aa" stroke="#000000" cx="620.5685" cy="-112.6396" rx="70.0071" ry="21.4286"/>
<text text-anchor="middle" x="620.5685" y="-107.6396" font-family="Arial" font-size="20.00" fill="#000000">elemento</text>
</g>
<!-- class_elemento&#45;&#45;class_word -->
<g id="edge17" class="edge">
<title>class_elemento&#45;&#45;class_word</title>
<path fill="none" stroke="#c0c0c0" stroke-dasharray="5,2" d="M548.5879,-84.3326C540.4243,-80.7992 532.2747,-77.1243 524.5685,-73.4264 501.679,-62.4426 476.5803,-48.3932 458.0797,-37.6352"/>
<polygon fill="#c0c0c0" stroke="#c0c0c0" points="544.8666,-94.1565 576.5999,-95.9586 552.9166,-74.7607 544.8666,-94.1565"/>
<text text-anchor="middle" x="544.0685" y="-63.8264" font-family="Arial" font-size="12.00" fill="#000000">inherits</text>
</g>
<!-- class_elemento&#45;&#45;class_text -->
<g id="edge14" class="edge">
<title>class_elemento&#45;&#45;class_text</title>
<path fill="none" stroke="#c0c0c0" stroke-dasharray="5,2" d="M577.6086,-71.2956C565.9372,-60.0634 553.897,-48.476 544.341,-39.2795"/>
<polygon fill="#c0c0c0" stroke="#c0c0c0" points="570.5881,-79.1119 599.485,-92.3491 585.15,-63.9808 570.5881,-79.1119"/>
<text text-anchor="middle" x="599.0685" y="-63.8264" font-family="Arial" font-size="12.00" fill="#000000">inherits</text>
</g>
<!-- class_elemento&#45;&#45;class_sentence -->
<g id="edge16" class="edge">
<title>class_elemento&#45;&#45;class_sentence</title>
<path fill="none" stroke="#c0c0c0" stroke-dasharray="5,2" d="M635.3315,-62.6498C637.41,-55.6116 639.4482,-48.7099 641.2468,-42.6198"/>
<polygon fill="#c0c0c0" stroke="#c0c0c0" points="625.2576,-59.6893 626.8307,-91.4348 645.3977,-65.6371 625.2576,-59.6893"/>
<text text-anchor="middle" x="656.0685" y="-63.8264" font-family="Arial" font-size="12.00" fill="#000000">inherits</text>
</g>
<!-- class_paragraph -->
<g id="node19" class="node">
<title>class_paragraph</title>
<ellipse fill="#20b2aa" stroke="#000000" cx="811.5685" cy="-21.2132" rx="76.2353" ry="21.4286"/>
<text text-anchor="middle" x="811.5685" y="-16.2132" font-family="Arial" font-size="20.00" fill="#000000">paragraph</text>
</g>
<!-- class_elemento&#45;&#45;class_paragraph -->
<g id="edge15" class="edge">
<title>class_elemento&#45;&#45;class_paragraph</title>
<path fill="none" stroke="#c0c0c0" stroke-dasharray="5,2" d="M685.5026,-81.5575C714.5698,-67.6438 747.8602,-51.7086 772.9294,-39.7087"/>
<polygon fill="#c0c0c0" stroke="#c0c0c0" points="680.8302,-72.153 658.304,-94.5767 689.8972,-91.0948 680.8302,-72.153"/>
<text text-anchor="middle" x="747.0685" y="-63.8264" font-family="Arial" font-size="12.00" fill="#000000">inherits</text>
</g>
<!-- class_features -->
<g id="node14" class="node">
<title>class_features</title>
<ellipse fill="#20b2aa" stroke="#000000" cx="486.5685" cy="-204.066" rx="62.8651" ry="21.4286"/>
<text text-anchor="middle" x="486.5685" y="-199.066" font-family="Arial" font-size="20.00" fill="#000000">features</text>
</g>
<!-- class_features&#45;&#45;class_language -->
<g id="edge1" class="edge">
<title>class_features&#45;&#45;class_language</title>
<path fill="none" stroke="#c0c0c0" stroke-dasharray="5,2" d="M412.5555,-179.7252C362.9534,-163.4125 299.1036,-142.414 256.1622,-128.2918"/>
<polygon fill="#c0c0c0" stroke="#c0c0c0" points="409.5056,-189.7754 441.2843,-189.1733 416.0662,-169.8265 409.5056,-189.7754"/>
<text text-anchor="middle" x="384.0685" y="-155.2528" font-family="Arial" font-size="12.00" fill="#000000">inherits</text>
</g>
<!-- class_features&#45;&#45;class_verbal -->
<g id="edge5" class="edge">
<title>class_features&#45;&#45;class_verbal</title>
<path fill="none" stroke="#c0c0c0" stroke-dasharray="5,2" d="M476.1315,-182.8612C468.8617,-168.091 459.2064,-148.4744 451.949,-133.7295"/>
</g>
<!-- class_features&#45;&#45;class_elemento -->
<g id="edge13" class="edge">
<title>class_features&#45;&#45;class_elemento</title>
<path fill="none" stroke="#c0c0c0" stroke-dasharray="5,2" d="M539.6428,-167.8542C557.5307,-155.6495 576.8041,-142.4995 592.0532,-132.0952"/>
<polygon fill="#c0c0c0" stroke="#c0c0c0" points="533.5229,-159.3185 514.6593,-184.9 545.3586,-176.6655 533.5229,-159.3185"/>
<text text-anchor="middle" x="582.0685" y="-155.2528" font-family="Arial" font-size="12.00" fill="#000000">inherits</text>
</g>
<!-- class_space -->
<g id="node18" class="node">
<title>class_space</title>
<ellipse fill="#20b2aa" stroke="#000000" cx="1082.5685" cy="-112.6396" rx="49.4949" ry="21.4286"/>
<text text-anchor="middle" x="1082.5685" y="-107.6396" font-family="Arial" font-size="20.00" fill="#000000">space</text>
</g>
<!-- class_features&#45;&#45;class_space -->
<g id="edge9" class="edge">
<title>class_features&#45;&#45;class_space</title>
<path fill="none" stroke="#c0c0c0" stroke-dasharray="5,2" d="M573.7102,-190.6985C701.6861,-171.067 936.0526,-135.1152 1035.7184,-119.8264"/>
<polygon fill="#c0c0c0" stroke="#c0c0c0" points="572.0471,-180.3307 543.986,-195.2582 575.2313,-201.0879 572.0471,-180.3307"/>
<text text-anchor="middle" x="840.0685" y="-155.2528" font-family="Arial" font-size="12.00" fill="#000000">inherits</text>
</g>
<!-- class_space&#45;&#45;class_chronological -->
<g id="edge10" class="edge">
<title>class_space&#45;&#45;class_chronological</title>
<path fill="none" stroke="#c0c0c0" stroke-dasharray="5,2" d="M1044.4539,-70.1434C1035.7768,-60.4688 1026.9265,-50.6011 1019.4679,-42.2851"/>
<polygon fill="#c0c0c0" stroke="#c0c0c0" points="1036.9285,-77.4789 1064.7758,-92.8014 1052.5618,-63.4574 1036.9285,-77.4789"/>
<text text-anchor="middle" x="1066.0685" y="-63.8264" font-family="Arial" font-size="12.00" fill="#000000">inherits</text>
</g>
<!-- class_space&#45;&#45;class_before -->
<g id="edge12" class="edge">
<title>class_space&#45;&#45;class_before</title>
<path fill="none" stroke="#c0c0c0" stroke-dasharray="5,2" d="M1120.7592,-70.0587C1129.7472,-60.0375 1138.9161,-49.8145 1146.5273,-41.3284"/>
<polygon fill="#c0c0c0" stroke="#c0c0c0" points="1112.5753,-63.4574 1100.3613,-92.8014 1128.2086,-77.4789 1112.5753,-63.4574"/>
<text text-anchor="middle" x="1148.0685" y="-63.8264" font-family="Arial" font-size="12.00" fill="#000000">inherits</text>
</g>
<!-- class_space&#45;&#45;class_retrospective -->
<g id="edge11" class="edge">
<title>class_space&#45;&#45;class_retrospective</title>
<path fill="none" stroke="#c0c0c0" stroke-dasharray="5,2" d="M1147.9877,-88.1272C1188.8632,-72.8112 1240.6234,-53.4167 1277.8825,-39.4558"/>
<polygon fill="#c0c0c0" stroke="#c0c0c0" points="1144.3009,-78.2956 1119.8925,-98.6544 1151.6694,-97.9605 1144.3009,-78.2956"/>
<text text-anchor="middle" x="1239.0685" y="-63.8264" font-family="Arial" font-size="12.00" fill="#000000">inherits</text>
</g>
</g>
</svg>
