<?xml version="1.0" encoding="UTF-8" standalone="no"?>
<!DOCTYPE svg PUBLIC "-//W3C//DTD SVG 1.1//EN"
 "http://www.w3.org/Graphics/SVG/1.1/DTD/svg11.dtd">
<!-- Generated by graphviz version 2.40.1 (20161225.0304)
 -->
<!-- Title: characteristics Pages: 1 -->
<svg width="1771pt" height="233pt"
 viewBox="0.00 0.00 1771.20 233.28" xmlns="http://www.w3.org/2000/svg" xmlns:xlink="http://www.w3.org/1999/xlink">
<g id="graph0" class="graph" transform="scale(1 1) rotate(0) translate(4 229.2792)">
<title>characteristics</title>
<polygon fill="#ffffff" stroke="transparent" points="-4,4 -4,-229.2792 1767.1995,-229.2792 1767.1995,4 -4,4"/>
<!-- class_word -->
<g id="node1" class="node">
<title>class_word</title>
<ellipse fill="#20b2aa" stroke="#000000" cx="774.5685" cy="-21.2132" rx="42.3529" ry="21.4286"/>
<text text-anchor="middle" x="774.5685" y="-16.2132" font-family="Arial" font-size="20.00" fill="#000000">word</text>
</g>
<!-- class_chronological -->
<g id="node2" class="node">
<title>class_chronological</title>
<ellipse fill="#20b2aa" stroke="#000000" cx="1344.5685" cy="-21.2132" rx="94.5053" ry="21.4286"/>
<text text-anchor="middle" x="1344.5685" y="-16.2132" font-family="Arial" font-size="20.00" fill="#000000">chronological</text>
</g>
<!-- class_present -->
<g id="node3" class="node">
<title>class_present</title>
<ellipse fill="#20b2aa" stroke="#000000" cx="446.5685" cy="-21.2132" rx="58.8803" ry="21.4286"/>
<text text-anchor="middle" x="446.5685" y="-16.2132" font-family="Arial" font-size="20.00" fill="#000000">present</text>
</g>
<!-- class_before -->
<g id="node4" class="node">
<title>class_before</title>
<ellipse fill="#20b2aa" stroke="#000000" cx="1508.5685" cy="-21.2132" rx="51.7379" ry="21.4286"/>
<text text-anchor="middle" x="1508.5685" y="-16.2132" font-family="Arial" font-size="20.00" fill="#000000">before</text>
</g>
<!-- class_language -->
<g id="node5" class="node">
<title>class_language</title>
<ellipse fill="#20b2aa" stroke="#000000" cx="245.5685" cy="-112.6396" rx="70.0071" ry="21.4286"/>
<text text-anchor="middle" x="245.5685" y="-107.6396" font-family="Arial" font-size="20.00" fill="#000000">language</text>
</g>
<!-- class_english -->
<g id="node10" class="node">
<title>class_english</title>
<ellipse fill="#20b2aa" stroke="#000000" cx="56.5685" cy="-21.2132" rx="56.6372" ry="21.4286"/>
<text text-anchor="middle" x="56.5685" y="-16.2132" font-family="Arial" font-size="20.00" fill="#000000">english</text>
</g>
<!-- class_language&#45;&#45;class_english -->
<g id="edge3" class="edge">
<title>class_language&#45;&#45;class_english</title>
<path fill="none" stroke="#c0c0c0" stroke-dasharray="5,2" d="M181.2083,-81.5062C151.087,-66.9353 116.4025,-50.1571 91.2822,-38.0055"/>
<polygon fill="#c0c0c0" stroke="#c0c0c0" points="176.6496,-90.9649 208.2282,-94.5767 185.7944,-72.0606 176.6496,-90.9649"/>
<text text-anchor="middle" x="182.0685" y="-63.8264" font-family="Arial" font-size="12.00" fill="#000000">inherits</text>
</g>
<!-- class_arabic -->
<g id="node14" class="node">
<title>class_arabic</title>
<ellipse fill="#20b2aa" stroke="#000000" cx="181.5685" cy="-21.2132" rx="50.41" ry="21.4286"/>
<text text-anchor="middle" x="181.5685" y="-16.2132" font-family="Arial" font-size="20.00" fill="#000000">arabic</text>
</g>
<!-- class_language&#45;&#45;class_arabic -->
<g id="edge4" class="edge">
<title>class_language&#45;&#45;class_arabic</title>
<path fill="none" stroke="#c0c0c0" stroke-dasharray="5,2" d="M213.2639,-66.4912C207.1625,-57.7752 201.076,-49.0803 195.8915,-41.6742"/>
<polygon fill="#c0c0c0" stroke="#c0c0c0" points="204.9187,-72.8794 230.7248,-91.4348 222.1225,-60.8365 204.9187,-72.8794"/>
<text text-anchor="middle" x="237.0685" y="-63.8264" font-family="Arial" font-size="12.00" fill="#000000">inherits</text>
</g>
<!-- class_spanish -->
<g id="node15" class="node">
<title>class_spanish</title>
<ellipse fill="#20b2aa" stroke="#000000" cx="309.5685" cy="-21.2132" rx="60.2083" ry="21.4286"/>
<text text-anchor="middle" x="309.5685" y="-16.2132" font-family="Arial" font-size="20.00" fill="#000000">spanish</text>
</g>
<!-- class_language&#45;&#45;class_spanish -->
<g id="edge2" class="edge">
<title>class_language&#45;&#45;class_spanish</title>
<path fill="none" stroke="#c0c0c0" stroke-dasharray="5,2" d="M277.7443,-66.6753C283.8028,-58.0205 289.8529,-49.3777 295.0259,-41.9879"/>
<polygon fill="#c0c0c0" stroke="#c0c0c0" points="269.0146,-60.8365 260.4123,-91.4348 286.2184,-72.8794 269.0146,-60.8365"/>
<text text-anchor="middle" x="301.0685" y="-63.8264" font-family="Arial" font-size="12.00" fill="#000000">inherits</text>
</g>
<!-- class_verbaltense -->
<g id="node6" class="node">
<title>class_verbaltense</title>
<ellipse fill="#20b2aa" stroke="#000000" cx="592.5685" cy="-112.6396" rx="84.7059" ry="21.4286"/>
<text text-anchor="middle" x="592.5685" y="-107.6396" font-family="Arial" font-size="20.00" fill="#000000">verbaltense</text>
</g>
<!-- class_verbaltense&#45;&#45;class_present -->
<g id="edge6" class="edge">
<title>class_verbaltense&#45;&#45;class_present</title>
<path fill="none" stroke="#c0c0c0" stroke-dasharray="5,2" d="M535.3966,-76.8381C515.1562,-64.1634 493.2105,-50.4208 476.1963,-39.7663"/>
<polygon fill="#c0c0c0" stroke="#c0c0c0" points="529.8898,-85.7785 560.8887,-92.8014 541.0353,-67.9802 529.8898,-85.7785"/>
<text text-anchor="middle" x="548.0685" y="-63.8264" font-family="Arial" font-size="12.00" fill="#000000">inherits</text>
</g>
<!-- class_past -->
<g id="node11" class="node">
<title>class_past</title>
<ellipse fill="#20b2aa" stroke="#000000" cx="561.5685" cy="-21.2132" rx="38.3684" ry="21.4286"/>
<text text-anchor="middle" x="561.5685" y="-16.2132" font-family="Arial" font-size="20.00" fill="#000000">past</text>
</g>
<!-- class_verbaltense&#45;&#45;class_past -->
<g id="edge8" class="edge">
<title>class_verbaltense&#45;&#45;class_past</title>
<path fill="none" stroke="#c0c0c0" stroke-dasharray="5,2" d="M575.6816,-62.8361C573.2319,-55.6111 570.8287,-48.5236 568.7195,-42.3031"/>
<polygon fill="#c0c0c0" stroke="#c0c0c0" points="565.8012,-66.3952 585.3786,-91.4348 585.6891,-59.6518 565.8012,-66.3952"/>
<text text-anchor="middle" x="599.0685" y="-63.8264" font-family="Arial" font-size="12.00" fill="#000000">inherits</text>
</g>
<!-- class_future -->
<g id="node16" class="node">
<title>class_future</title>
<ellipse fill="#20b2aa" stroke="#000000" cx="665.5685" cy="-21.2132" rx="48.1667" ry="21.4286"/>
<text text-anchor="middle" x="665.5685" y="-16.2132" font-family="Arial" font-size="20.00" fill="#000000">future</text>
</g>
<!-- class_verbaltense&#45;&#45;class_future -->
<g id="edge7" class="edge">
<title>class_verbaltense&#45;&#45;class_future</title>
<path fill="none" stroke="#c0c0c0" stroke-dasharray="5,2" d="M628.2491,-67.9527C635.694,-58.6285 643.1845,-49.2474 649.4806,-41.362"/>
<polygon fill="#c0c0c0" stroke="#c0c0c0" points="620.0132,-61.4394 609.4997,-91.4348 636.4238,-74.5426 620.0132,-61.4394"/>
<text text-anchor="middle" x="653.0685" y="-63.8264" font-family="Arial" font-size="12.00" fill="#000000">inherits</text>
</g>
<!-- class_retrospective -->
<g id="node7" class="node">
<title>class_retrospective</title>
<ellipse fill="#20b2aa" stroke="#000000" cx="1670.5685" cy="-21.2132" rx="92.7622" ry="21.4286"/>
<text text-anchor="middle" x="1670.5685" y="-16.2132" font-family="Arial" font-size="20.00" fill="#000000">retrospective</text>
</g>
<!-- class_text -->
<g id="node8" class="node">
<title>class_text</title>
<ellipse fill="#20b2aa" stroke="#000000" cx="869.5685" cy="-21.2132" rx="34.7971" ry="21.4286"/>
<text text-anchor="middle" x="869.5685" y="-16.2132" font-family="Arial" font-size="20.00" fill="#000000">text</text>
</g>
<!-- class_sentence -->
<g id="node9" class="node">
<title>class_sentence</title>
<ellipse fill="#20b2aa" stroke="#000000" cx="991.5685" cy="-21.2132" rx="69.0935" ry="21.4286"/>
<text text-anchor="middle" x="991.5685" y="-16.2132" font-family="Arial" font-size="20.00" fill="#000000">sentence</text>
</g>
<!-- class_elemento -->
<g id="node12" class="node">
<title>class_elemento</title>
<ellipse fill="#20b2aa" stroke="#000000" cx="869.5685" cy="-112.6396" rx="70.0071" ry="21.4286"/>
<text text-anchor="middle" x="869.5685" y="-107.6396" font-family="Arial" font-size="20.00" fill="#000000">elemento</text>
</g>
<!-- class_elemento&#45;&#45;class_word -->
<g id="edge17" class="edge">
<title>class_elemento&#45;&#45;class_word</title>
<path fill="none" stroke="#c0c0c0" stroke-dasharray="5,2" d="M825.1694,-71.7662C809.0267,-56.3426 800.6929,-47.9694 793.6118,-40.7773"/>
<polygon fill="#c0c0c0" stroke="#c0c0c0" points="818.0568,-79.4916 847.0625,-92.4887 832.4927,-64.2402 818.0568,-79.4916"/>
<text text-anchor="middle" x="846.0685" y="-63.8264" font-family="Arial" font-size="12.00" fill="#000000">inherits</text>
</g>
<!-- class_elemento&#45;&#45;class_text -->
<g id="edge14" class="edge">
<title>class_elemento&#45;&#45;class_text</title>
<path fill="none" stroke="#c0c0c0" stroke-dasharray="5,2" d="M869.5685,-60.9297C869.5685,-54.5306 869.5685,-48.2911 869.5685,-42.7245"/>
<polygon fill="#c0c0c0" stroke="#c0c0c0" points="859.0686,-60.9728 869.5685,-90.9728 880.0686,-60.9729 859.0686,-60.9728"/>
<text text-anchor="middle" x="889.0685" y="-63.8264" font-family="Arial" font-size="12.00" fill="#000000">inherits</text>
</g>
<!-- class_elemento&#45;&#45;class_sentence -->
<g id="edge16" class="edge">
<title>class_elemento&#45;&#45;class_sentence</title>
<path fill="none" stroke="#c0c0c0" stroke-dasharray="5,2" d="M920.0983,-74.7728C935.5695,-63.1787 951.9671,-50.8904 965.148,-41.0127"/>
<polygon fill="#c0c0c0" stroke="#c0c0c0" points="913.7509,-66.4082 896.0407,-92.8014 926.3445,-83.2131 913.7509,-66.4082"/>
<text text-anchor="middle" x="958.0685" y="-63.8264" font-family="Arial" font-size="12.00" fill="#000000">inherits</text>
</g>
<!-- class_paragraph -->
<g id="node18" class="node">
<title>class_paragraph</title>
<ellipse fill="#20b2aa" stroke="#000000" cx="1155.5685" cy="-21.2132" rx="76.2353" ry="21.4286"/>
<text text-anchor="middle" x="1155.5685" y="-16.2132" font-family="Arial" font-size="20.00" fill="#000000">paragraph</text>
</g>
<!-- class_elemento&#45;&#45;class_paragraph -->
<g id="edge15" class="edge">
<title>class_elemento&#45;&#45;class_paragraph</title>
<path fill="none" stroke="#c0c0c0" stroke-dasharray="5,2" d="M946.6451,-88.0003C997.0195,-71.897 1061.366,-51.3272 1105.2516,-37.2982"/>
<polygon fill="#c0c0c0" stroke="#c0c0c0" points="943.1394,-78.0975 917.7611,-97.2338 949.5338,-98.1003 943.1394,-78.0975"/>
<text text-anchor="middle" x="1050.0685" y="-63.8264" font-family="Arial" font-size="12.00" fill="#000000">inherits</text>
</g>
<!-- class_features -->
<g id="node13" class="node">
<title>class_features</title>
<ellipse fill="#20b2aa" stroke="#000000" cx="684.5685" cy="-204.066" rx="62.8651" ry="21.4286"/>
<text text-anchor="middle" x="684.5685" y="-199.066" font-family="Arial" font-size="20.00" fill="#000000">features</text>
</g>
<!-- class_features&#45;&#45;class_language -->
<g id="edge1" class="edge">
<title>class_features&#45;&#45;class_language</title>
<path fill="none" stroke="#c0c0c0" stroke-dasharray="5,2" d="M601.2306,-186.71C514.0475,-168.5532 379.4957,-140.5314 303.3268,-124.6684"/>
<polygon fill="#c0c0c0" stroke="#c0c0c0" points="599.2279,-197.0181 630.7385,-192.8553 603.5095,-176.4592 599.2279,-197.0181"/>
<text text-anchor="middle" x="511.0685" y="-155.2528" font-family="Arial" font-size="12.00" fill="#000000">inherits</text>
</g>
<!-- class_features&#45;&#45;class_verbaltense -->
<g id="edge5" class="edge">
<title>class_features&#45;&#45;class_verbaltense</title>
<path fill="none" stroke="#c0c0c0" stroke-dasharray="5,2" d="M642.6472,-162.4061C632.5645,-152.3863 622.2185,-142.1047 613.5671,-133.5072"/>
<polygon fill="#c0c0c0" stroke="#c0c0c0" points="635.4699,-170.0766 664.1508,-183.7755 650.2727,-155.1809 635.4699,-170.0766"/>
<text text-anchor="middle" x="664.0685" y="-155.2528" font-family="Arial" font-size="12.00" fill="#000000">inherits</text>
</g>
<!-- class_features&#45;&#45;class_elemento -->
<g id="edge13" class="edge">
<title>class_features&#45;&#45;class_elemento</title>
<path fill="none" stroke="#c0c0c0" stroke-dasharray="5,2" d="M747.3087,-173.06C775.7311,-159.0138 808.3492,-142.894 832.7419,-130.8392"/>
<polygon fill="#c0c0c0" stroke="#c0c0c0" points="742.4814,-163.7334 720.2384,-186.4381 751.7854,-182.5599 742.4814,-163.7334"/>
<text text-anchor="middle" x="808.0685" y="-155.2528" font-family="Arial" font-size="12.00" fill="#000000">inherits</text>
</g>
<!-- class_space -->
<g id="node17" class="node">
<title>class_space</title>
<ellipse fill="#20b2aa" stroke="#000000" cx="1426.5685" cy="-112.6396" rx="49.4949" ry="21.4286"/>
<text text-anchor="middle" x="1426.5685" y="-107.6396" font-family="Arial" font-size="20.00" fill="#000000">space</text>
</g>
<!-- class_features&#45;&#45;class_space -->
<g id="edge9" class="edge">
<title>class_features&#45;&#45;class_space</title>
<path fill="none" stroke="#c0c0c0" stroke-dasharray="5,2" d="M773.9454,-193.0533C932.1926,-173.5547 1256.4822,-133.597 1378.6158,-118.5482"/>
<polygon fill="#c0c0c0" stroke="#c0c0c0" points="772.2141,-182.6872 743.7234,-196.7772 774.7823,-203.5295 772.2141,-182.6872"/>
<text text-anchor="middle" x="1120.0685" y="-155.2528" font-family="Arial" font-size="12.00" fill="#000000">inherits</text>
</g>
<!-- class_space&#45;&#45;class_chronological -->
<g id="edge10" class="edge">
<title>class_space&#45;&#45;class_chronological</title>
<path fill="none" stroke="#c0c0c0" stroke-dasharray="5,2" d="M1388.4539,-70.1434C1379.7768,-60.4688 1370.9265,-50.6011 1363.4679,-42.2851"/>
<polygon fill="#c0c0c0" stroke="#c0c0c0" points="1380.9285,-77.4789 1408.7758,-92.8014 1396.5618,-63.4574 1380.9285,-77.4789"/>
<text text-anchor="middle" x="1410.0685" y="-63.8264" font-family="Arial" font-size="12.00" fill="#000000">inherits</text>
</g>
<!-- class_space&#45;&#45;class_before -->
<g id="edge12" class="edge">
<title>class_space&#45;&#45;class_before</title>
<path fill="none" stroke="#c0c0c0" stroke-dasharray="5,2" d="M1464.7592,-70.0587C1473.7472,-60.0375 1482.9161,-49.8145 1490.5273,-41.3284"/>
<polygon fill="#c0c0c0" stroke="#c0c0c0" points="1456.5753,-63.4574 1444.3613,-92.8014 1472.2086,-77.4789 1456.5753,-63.4574"/>
<text text-anchor="middle" x="1492.0685" y="-63.8264" font-family="Arial" font-size="12.00" fill="#000000">inherits</text>
</g>
<!-- class_space&#45;&#45;class_retrospective -->
<g id="edge11" class="edge">
<title>class_space&#45;&#45;class_retrospective</title>
<path fill="none" stroke="#c0c0c0" stroke-dasharray="5,2" d="M1491.9877,-88.1272C1532.8632,-72.8112 1584.6234,-53.4167 1621.8825,-39.4558"/>
<polygon fill="#c0c0c0" stroke="#c0c0c0" points="1488.3009,-78.2956 1463.8925,-98.6544 1495.6694,-97.9605 1488.3009,-78.2956"/>
<text text-anchor="middle" x="1583.0685" y="-63.8264" font-family="Arial" font-size="12.00" fill="#000000">inherits</text>
</g>
</g>
</svg>
