<?xml version="1.0" encoding="UTF-8" standalone="no"?>
<!DOCTYPE svg PUBLIC "-//W3C//DTD SVG 1.1//EN"
 "http://www.w3.org/Graphics/SVG/1.1/DTD/svg11.dtd">
<!-- Generated by graphviz version 2.40.1 (20161225.0304)
 -->
<!-- Title: domain Pages: 1 -->
<svg width="852pt" height="857pt"
 viewBox="0.00 0.00 852.42 856.97" xmlns="http://www.w3.org/2000/svg" xmlns:xlink="http://www.w3.org/1999/xlink">
<g id="graph0" class="graph" transform="scale(1 1) rotate(0) translate(4 852.9693)">
<title>domain</title>
<polygon fill="#ffffff" stroke="transparent" points="-4,4 -4,-852.9693 848.4227,-852.9693 848.4227,4 -4,4"/>
<!-- property_Mascotas -->
<g id="node1" class="node">
<title>property_Mascotas</title>
<polygon fill="#fafad2" stroke="#000000" points="141.6444,-343.3065 141.6444,-381.3065 291.6444,-381.3065 291.6444,-343.3065 141.6444,-343.3065"/>
<text text-anchor="middle" x="216.6444" y="-369.3065" font-family="Arial" font-size="10.00" fill="#000000">Mascotas</text>
<polyline fill="none" stroke="#000000" points="141.6444,-362.3065 291.6444,-362.3065 "/>
<text text-anchor="middle" x="216.6444" y="-350.3065" font-family="Arial" font-size="10.00" fill="#000000">http://PdL.com/class#Mascota</text>
</g>
<!-- class_Mascota -->
<g id="node9" class="node">
<title>class_Mascota</title>
<ellipse fill="#20b2aa" stroke="#000000" cx="217.7691" cy="-161.6538" rx="65.1077" ry="21.4286"/>
<text text-anchor="middle" x="217.7691" y="-156.6538" font-family="Arial" font-size="20.00" fill="#000000">Mascota</text>
</g>
<!-- property_Mascotas&#45;&#45;class_Mascota -->
<g id="edge7" class="edge">
<title>property_Mascotas&#45;&#45;class_Mascota</title>
<path fill="none" stroke="#c0c0c0" stroke-dasharray="1,5" d="M216.7523,-343.067C216.932,-310.9918 217.2969,-245.8889 217.5372,-203.0295"/>
<polygon fill="#c0c0c0" stroke="#c0c0c0" points="217.6498,-182.9372 226.5374,-202.9873 217.5937,-192.937 217.5376,-202.9368 217.5376,-202.9368 217.5376,-202.9368 217.5937,-192.937 208.5377,-202.8864 217.6498,-182.9372 217.6498,-182.9372"/>
<text text-anchor="middle" x="197.1447" y="-276.4483" font-family="Arial" font-size="12.00" fill="#000000">TypeOf</text>
</g>
<!-- property_name -->
<g id="node2" class="node">
<title>property_name</title>
<polygon fill="#fafad2" stroke="#000000" points="785.4227,-810.4693 785.4227,-848.4693 844.4227,-848.4693 844.4227,-810.4693 785.4227,-810.4693"/>
<text text-anchor="middle" x="814.9227" y="-836.4693" font-family="Arial" font-size="10.00" fill="#000000">name</text>
<polyline fill="none" stroke="#000000" points="785.4227,-829.4693 844.4227,-829.4693 "/>
<text text-anchor="middle" x="814.9227" y="-817.4693" font-family="Arial" font-size="10.00" fill="#000000">xsd:string</text>
</g>
<!-- property_apellidos -->
<g id="node3" class="node">
<title>property_apellidos</title>
<polygon fill="#fafad2" stroke="#000000" points="506,-552.5 506,-590.5 565,-590.5 565,-552.5 506,-552.5"/>
<text text-anchor="middle" x="535.5" y="-578.5" font-family="Arial" font-size="10.00" fill="#000000">apellidos</text>
<polyline fill="none" stroke="#000000" points="506,-571.5 565,-571.5 "/>
<text text-anchor="middle" x="535.5" y="-559.5" font-family="Arial" font-size="10.00" fill="#000000">xsd:string</text>
</g>
<!-- property_edad -->
<g id="node4" class="node">
<title>property_edad</title>
<polygon fill="#fafad2" stroke="#000000" points="368,-552.5 368,-590.5 433,-590.5 433,-552.5 368,-552.5"/>
<text text-anchor="middle" x="400.5" y="-578.5" font-family="Arial" font-size="10.00" fill="#000000">edad</text>
<polyline fill="none" stroke="#000000" points="368,-571.5 433,-571.5 "/>
<text text-anchor="middle" x="400.5" y="-559.5" font-family="Arial" font-size="10.00" fill="#000000">xsd:integer</text>
</g>
<!-- property_fechaUNIX -->
<g id="node5" class="node">
<title>property_fechaUNIX</title>
<polygon fill="#fafad2" stroke="#000000" points="414,-414.5 414,-452.5 492,-452.5 492,-414.5 414,-414.5"/>
<text text-anchor="middle" x="453" y="-440.5" font-family="Arial" font-size="10.00" fill="#000000">fechaUNIX</text>
<polyline fill="none" stroke="#000000" points="414,-433.5 492,-433.5 "/>
<text text-anchor="middle" x="453" y="-421.5" font-family="Arial" font-size="10.00" fill="#000000">xsd:DateTime</text>
</g>
<!-- property_nombreMascota -->
<g id="node6" class="node">
<title>property_nombreMascota</title>
<polygon fill="#fafad2" stroke="#000000" points="0,-.5 0,-38.5 88,-38.5 88,-.5 0,-.5"/>
<text text-anchor="middle" x="44" y="-26.5" font-family="Arial" font-size="10.00" fill="#000000">nombreMascota</text>
<polyline fill="none" stroke="#000000" points="0,-19.5 88,-19.5 "/>
<text text-anchor="middle" x="44" y="-7.5" font-family="Arial" font-size="10.00" fill="#000000">xsd:string</text>
</g>
<!-- class_Hijo -->
<g id="node7" class="node">
<title>class_Hijo</title>
<ellipse fill="#20b2aa" stroke="#000000" cx="572.1133" cy="-457.5992" rx="36.125" ry="21.4286"/>
<text text-anchor="middle" x="572.1133" y="-452.5992" font-family="Arial" font-size="20.00" fill="#000000">Hijo</text>
</g>
<!-- class_Nieto -->
<g id="node10" class="node">
<title>class_Nieto</title>
<ellipse fill="#20b2aa" stroke="#000000" cx="430.3354" cy="-264.7791" rx="44.5955" ry="21.4286"/>
<text text-anchor="middle" x="430.3354" y="-259.7791" font-family="Arial" font-size="20.00" fill="#000000">Nieto</text>
</g>
<!-- class_Hijo&#45;&#45;class_Nieto -->
<g id="edge10" class="edge">
<title>class_Hijo&#45;&#45;class_Nieto</title>
<path fill="none" stroke="#c0c0c0" stroke-dasharray="5,2" d="M539.8726,-413.7514C510.1864,-373.3777 467.4767,-315.2919 445.1735,-284.9591"/>
<polygon fill="#c0c0c0" stroke="#c0c0c0" points="531.5076,-420.0999 557.7386,-438.0495 548.4264,-407.6597 531.5076,-420.0999"/>
<text text-anchor="middle" x="473.023" y="-352.7552" font-family="Arial" font-size="12.00" fill="#000000">inherits</text>
</g>
<!-- property_null -->
<g id="node12" class="node">
<title>property_null</title>
<polygon fill="#afeeee" stroke="#000000" points="735.6084,-258.7279 694.2131,-276.7279 611.4223,-276.7279 570.027,-258.7279 611.4223,-240.7279 694.2131,-240.7279 735.6084,-258.7279"/>
<text text-anchor="middle" x="652.8177" y="-255.2279" font-family="Arial" font-size="15.00" fill="#000000">property_null</text>
</g>
<!-- class_Hijo&#45;&#45;property_null -->
<g id="edge1" class="edge">
<title>class_Hijo&#45;&#45;property_null</title>
<path fill="none" stroke="#c0c0c0" stroke-dasharray="5,2" d="M580.5975,-436.6924C596.5022,-397.5003 630.5411,-313.6217 645.5047,-276.7485"/>
</g>
<!-- class_Principal -->
<g id="node8" class="node">
<title>class_Principal</title>
<ellipse fill="#20b2aa" stroke="#000000" cx="677.1506" cy="-658.0566" rx="65.5227" ry="21.4286"/>
<text text-anchor="middle" x="677.1506" y="-653.0566" font-family="Arial" font-size="20.00" fill="#000000">Principal</text>
</g>
<!-- class_Principal&#45;&#45;property_name -->
<g id="edge2" class="edge">
<title>class_Principal&#45;&#45;property_name</title>
<path fill="none" stroke="#c0c0c0" stroke-dasharray="5,2" d="M693.7691,-678.733C720.679,-712.2136 773.4039,-777.8126 799.5154,-810.2999"/>
</g>
<!-- class_Principal&#45;&#45;class_Hijo -->
<g id="edge9" class="edge">
<title>class_Principal&#45;&#45;class_Hijo</title>
<path fill="none" stroke="#c0c0c0" stroke-dasharray="5,2" d="M652.1337,-610.3133C630.0835,-568.2319 599.0235,-508.9558 582.8509,-478.0914"/>
<polygon fill="#c0c0c0" stroke="#c0c0c0" points="642.8838,-615.2834 666.1083,-636.983 661.4849,-605.5366 642.8838,-615.2834"/>
<text text-anchor="middle" x="597.9923" y="-547.6024" font-family="Arial" font-size="12.00" fill="#000000">inherits</text>
</g>
<!-- class_Mascota&#45;&#45;property_nombreMascota -->
<g id="edge3" class="edge">
<title>class_Mascota&#45;&#45;property_nombreMascota</title>
<path fill="none" stroke="#c0c0c0" stroke-dasharray="5,2" d="M193.6072,-141.8879C160.2216,-114.5764 100.3797,-65.6221 67.4014,-38.6438"/>
</g>
<!-- class_Nieto&#45;&#45;property_Mascotas -->
<g id="edge5" class="edge">
<title>class_Nieto&#45;&#45;property_Mascotas</title>
<path fill="none" stroke="#c0c0c0" stroke-dasharray="5,2" d="M397.8803,-279.5914C360.635,-296.59 299.4473,-324.5157 258.6099,-343.1536"/>
</g>
<!-- class_Nieto&#45;&#45;class_Mascota -->
<g id="edge8" class="edge">
<title>class_Nieto&#45;&#45;class_Mascota</title>
<path fill="none" stroke="#ff4500" stroke-dasharray="5,2" d="M398.9705,-249.5626C365.747,-233.4444 312.6516,-207.6855 272.5045,-188.2084"/>
<polygon fill="#ff4500" stroke="#ff4500" points="254.2576,-179.356 276.1803,-179.9884 263.2547,-183.7209 272.2518,-188.0858 272.2518,-188.0858 272.2518,-188.0858 263.2547,-183.7209 268.3234,-196.1832 254.2576,-179.356 254.2576,-179.356"/>
<text text-anchor="middle" x="292.2375" y="-222.2855" font-family="Arial" font-size="12.00" fill="#ff4500">Mascotas (0..n) </text>
</g>
<!-- relationship_conoceA -->
<g id="node11" class="node">
<title>relationship_conoceA</title>
<polygon fill="#afeeee" stroke="#000000" points="568.7701,-129.0688 538.5913,-147.0688 478.2336,-147.0688 448.0548,-129.0688 478.2336,-111.0688 538.5913,-111.0688 568.7701,-129.0688"/>
<text text-anchor="middle" x="508.4124" y="-125.5688" font-family="Arial" font-size="15.00" fill="#000000">conoceA</text>
</g>
<!-- class_Nieto&#45;&#45;relationship_conoceA -->
<g id="edge11" class="edge">
<title>class_Nieto&#45;&#45;relationship_conoceA</title>
<path fill="none" stroke="#0000ff" stroke-width="3" stroke-dasharray="5,2" d="M447.7063,-244.9457C463.5235,-221.5611 485.9697,-182.6684 498.8391,-156.4361"/>
<polygon fill="#0000ff" stroke="#0000ff" stroke-width="3" points="502.003,-157.9326 503.1172,-147.3965 495.6758,-154.9382 502.003,-157.9326"/>
<text text-anchor="middle" x="449.7727" y="-204.0909" font-family="Arial" font-size="12.00" fill="#0000ff">conoceA</text>
</g>
<!-- class_Nieto&#45;&#45;property_null -->
<g id="edge4" class="edge">
<title>class_Nieto&#45;&#45;property_null</title>
<path fill="none" stroke="#c0c0c0" stroke-dasharray="5,2" d="M474.8233,-263.5691C503.3552,-262.7931 541.1844,-261.7642 574.6293,-260.8545"/>
</g>
<!-- relationship_conoceA&#45;&#45;class_Nieto -->
<g id="edge12" class="edge">
<title>relationship_conoceA&#45;&#45;class_Nieto</title>
<path fill="none" stroke="#0000ff" stroke-width="3" stroke-dasharray="5,2" d="M492.2122,-147.1822C476.9233,-169.5021 454.7705,-207.642 441.3779,-234.4451"/>
<polygon fill="#0000ff" stroke="#0000ff" stroke-width="3" points="438.0771,-233.231 436.8691,-243.7568 444.3774,-236.2817 438.0771,-233.231"/>
<text text-anchor="middle" x="425.295" y="-181.2137" font-family="Arial" font-size="12.00" fill="#0000ff">esConocidoPor</text>
</g>
<!-- relationship_conoceA&#45;&#45;property_null -->
<g id="edge6" class="edge">
<title>relationship_conoceA&#45;&#45;property_null</title>
<path fill="none" stroke="#c0c0c0" stroke-dasharray="5,2" d="M528.4914,-147.0974C555.9254,-171.7299 604.8566,-215.6644 632.4438,-240.4345"/>
</g>
</g>
</svg>
