<?xml version="1.0" encoding="UTF-8" standalone="no"?>
<!DOCTYPE svg PUBLIC "-//W3C//DTD SVG 1.1//EN"
 "http://www.w3.org/Graphics/SVG/1.1/DTD/svg11.dtd">
<!-- Generated by graphviz version 2.40.1 (20161225.0304)
 -->
<!-- Title: domain Pages: 1 -->
<svg width="891pt" height="874pt"
 viewBox="0.00 0.00 890.97 873.80" xmlns="http://www.w3.org/2000/svg" xmlns:xlink="http://www.w3.org/1999/xlink">
<g id="graph0" class="graph" transform="scale(1 1) rotate(0) translate(4 869.7986)">
<title>domain</title>
<polygon fill="#ffffff" stroke="transparent" points="-4,4 -4,-869.7986 886.9724,-869.7986 886.9724,4 -4,4"/>
<!-- property_surname -->
<g id="node1" class="node">
<title>property_surname</title>
<polygon fill="#fafad2" stroke="#000000" stroke-dasharray="5,2" points="117.0421,-322.1514 117.0421,-360.1514 176.0421,-360.1514 176.0421,-322.1514 117.0421,-322.1514"/>
<text text-anchor="middle" x="146.5421" y="-348.1514" font-family="Arial" font-size="10.00" fill="#000000">surname</text>
<polyline fill="none" stroke="#000000" stroke-dasharray="5,2" points="117.0421,-341.1514 176.0421,-341.1514 "/>
<text text-anchor="middle" x="146.5421" y="-329.1514" font-family="Arial" font-size="10.00" fill="#000000">xsd:string</text>
</g>
<!-- property_Petsname -->
<g id="node2" class="node">
<title>property_Petsname</title>
<polygon fill="#fafad2" stroke="#000000" points="797.0141,-.5 797.0141,-38.5 859.0141,-38.5 859.0141,-.5 797.0141,-.5"/>
<text text-anchor="middle" x="828.0141" y="-26.5" font-family="Arial" font-size="10.00" fill="#000000">Petsname</text>
<polyline fill="none" stroke="#000000" points="797.0141,-19.5 859.0141,-19.5 "/>
<text text-anchor="middle" x="828.0141" y="-7.5" font-family="Arial" font-size="10.00" fill="#000000">xsd:string</text>
</g>
<!-- property_Pets -->
<g id="node3" class="node">
<title>property_Pets</title>
<polygon fill="#fafad2" stroke="#000000" points="460.4661,-203.6796 460.4661,-241.6796 610.4661,-241.6796 610.4661,-203.6796 460.4661,-203.6796"/>
<text text-anchor="middle" x="535.4661" y="-229.6796" font-family="Arial" font-size="10.00" fill="#000000">Pets</text>
<polyline fill="none" stroke="#000000" points="460.4661,-222.6796 610.4661,-222.6796 "/>
<text text-anchor="middle" x="535.4661" y="-210.6796" font-family="Arial" font-size="10.00" fill="#000000">http://PdL.com/class#Mascota</text>
</g>
<!-- class_Pet -->
<g id="node9" class="node">
<title>class_Pet</title>
<ellipse fill="#20b2aa" stroke="#000000" cx="716.6375" cy="-222.9325" rx="33.4697" ry="21.4286"/>
<text text-anchor="middle" x="716.6375" y="-217.9325" font-family="Arial" font-size="20.00" fill="#000000">Pet</text>
</g>
<!-- property_Pets&#45;&#45;class_Pet -->
<g id="edge7" class="edge">
<title>property_Pets&#45;&#45;class_Pet</title>
<path fill="none" stroke="#c0c0c0" stroke-dasharray="1,5" d="M610.7252,-222.7846C628.3007,-222.8092 646.669,-222.8348 663.0792,-222.8577"/>
<polygon fill="#c0c0c0" stroke="#c0c0c0" points="683.2925,-222.8859 663.2799,-231.8579 673.2925,-222.8719 663.2925,-222.8579 663.2925,-222.8579 663.2925,-222.8579 673.2925,-222.8719 663.3051,-213.8579 683.2925,-222.8859 683.2925,-222.8859"/>
<text text-anchor="middle" x="656.9022" y="-226.2212" font-family="Arial" font-size="12.00" fill="#000000">TypeOf</text>
</g>
<!-- property_name -->
<g id="node4" class="node">
<title>property_name</title>
<polygon fill="#fafad2" stroke="#000000" points="0,-827.2986 0,-865.2986 59,-865.2986 59,-827.2986 0,-827.2986"/>
<text text-anchor="middle" x="29.5" y="-853.2986" font-family="Arial" font-size="10.00" fill="#000000">name</text>
<polyline fill="none" stroke="#000000" points="0,-846.2986 59,-846.2986 "/>
<text text-anchor="middle" x="29.5" y="-834.2986" font-family="Arial" font-size="10.00" fill="#000000">xsd:string</text>
</g>
<!-- property_age -->
<g id="node5" class="node">
<title>property_age</title>
<polygon fill="#fafad2" stroke="#000000" points="817.9724,-452.9302 817.9724,-490.9302 882.9724,-490.9302 882.9724,-452.9302 817.9724,-452.9302"/>
<text text-anchor="middle" x="850.4724" y="-478.9302" font-family="Arial" font-size="10.00" fill="#000000">age</text>
<polyline fill="none" stroke="#000000" points="817.9724,-471.9302 882.9724,-471.9302 "/>
<text text-anchor="middle" x="850.4724" y="-459.9302" font-family="Arial" font-size="10.00" fill="#000000">xsd:integer</text>
</g>
<!-- property_UNIXDateTime -->
<g id="node6" class="node">
<title>property_UNIXDateTime</title>
<polygon fill="#fafad2" stroke="#000000" points="742.2115,-776.6136 742.2115,-814.6136 826.2115,-814.6136 826.2115,-776.6136 742.2115,-776.6136"/>
<text text-anchor="middle" x="784.2115" y="-802.6136" font-family="Arial" font-size="10.00" fill="#000000">UNIXDateTime</text>
<polyline fill="none" stroke="#000000" points="742.2115,-795.6136 826.2115,-795.6136 "/>
<text text-anchor="middle" x="784.2115" y="-783.6136" font-family="Arial" font-size="10.00" fill="#000000">xsd:DateTime</text>
</g>
<!-- class_Son -->
<g id="node7" class="node">
<title>class_Son</title>
<ellipse fill="#20b2aa" stroke="#000000" cx="339.7737" cy="-497.5284" rx="36.5405" ry="21.4286"/>
<text text-anchor="middle" x="339.7737" y="-492.5284" font-family="Arial" font-size="20.00" fill="#000000">Son</text>
</g>
<!-- class_Son&#45;&#45;property_surname -->
<g id="edge1" class="edge">
<title>class_Son&#45;&#45;property_surname</title>
<path fill="none" stroke="#c0c0c0" stroke-dasharray="5,2" d="M318.3562,-480.1959C281.901,-450.6936 208.0648,-390.9401 170.1621,-360.2664"/>
</g>
<!-- class_Grandchild -->
<g id="node10" class="node">
<title>class_Grandchild</title>
<ellipse fill="#20b2aa" stroke="#000000" cx="599.2979" cy="-445.1736" rx="79.8062" ry="21.4286"/>
<text text-anchor="middle" x="599.2979" y="-440.1736" font-family="Arial" font-size="20.00" fill="#000000">Grandchild</text>
</g>
<!-- class_Son&#45;&#45;class_Grandchild -->
<g id="edge10" class="edge">
<title>class_Son&#45;&#45;class_Grandchild</title>
<path fill="none" stroke="#c0c0c0" stroke-dasharray="5,2" d="M404.1258,-484.5464C444.2391,-476.4542 495.6449,-466.0839 535.6291,-458.0178"/>
<polygon fill="#c0c0c0" stroke="#c0c0c0" points="401.8362,-474.2967 374.505,-490.522 405.989,-494.882 401.8362,-474.2967"/>
<text text-anchor="middle" x="450.3774" y="-474.6821" font-family="Arial" font-size="12.00" fill="#000000">inherits</text>
</g>
<!-- class_Headof -->
<g id="node8" class="node">
<title>class_Headof</title>
<ellipse fill="#20b2aa" stroke="#000000" cx="189.639" cy="-686.9358" rx="57.0522" ry="21.4286"/>
<text text-anchor="middle" x="189.639" y="-681.9358" font-family="Arial" font-size="20.00" fill="#000000">Headof</text>
</g>
<!-- class_Headof&#45;&#45;property_name -->
<g id="edge2" class="edge">
<title>class_Headof&#45;&#45;property_name</title>
<path fill="none" stroke="#c0c0c0" stroke-dasharray="5,2" d="M169.3573,-707.1192C138.2172,-738.1084 79.0463,-796.9925 48.6202,-827.2711"/>
</g>
<!-- class_Headof&#45;&#45;class_Son -->
<g id="edge9" class="edge">
<title>class_Headof&#45;&#45;class_Son</title>
<path fill="none" stroke="#c0c0c0" stroke-dasharray="5,2" d="M224.6289,-642.7931C256.1515,-603.0248 301.0139,-546.4271 324.3422,-516.9965"/>
<polygon fill="#c0c0c0" stroke="#c0c0c0" points="216.3987,-636.2728 205.9918,-666.3053 232.8558,-649.3176 216.3987,-636.2728"/>
<text text-anchor="middle" x="254.9856" y="-583.2948" font-family="Arial" font-size="12.00" fill="#000000">inherits</text>
</g>
<!-- class_Pet&#45;&#45;property_Petsname -->
<g id="edge3" class="edge">
<title>class_Pet&#45;&#45;property_Petsname</title>
<path fill="none" stroke="#c0c0c0" stroke-dasharray="5,2" d="M727.7239,-202.6829C749.2376,-163.3875 796.3812,-77.2784 817.4623,-38.7731"/>
</g>
<!-- class_Grandchild&#45;&#45;property_Pets -->
<g id="edge5" class="edge">
<title>class_Grandchild&#45;&#45;property_Pets</title>
<path fill="none" stroke="#c0c0c0" stroke-dasharray="5,2" d="M593.1774,-423.84C580.7581,-380.5509 552.7741,-283.009 540.9282,-241.7184"/>
</g>
<!-- class_Grandchild&#45;&#45;property_age -->
<g id="edge4" class="edge">
<title>class_Grandchild&#45;&#45;property_age</title>
<path fill="none" stroke="#c0c0c0" stroke-dasharray="5,2" d="M673.639,-453.0929C721.5211,-458.1936 781.3992,-464.5722 817.751,-468.4446"/>
</g>
<!-- class_Grandchild&#45;&#45;class_Pet -->
<g id="edge8" class="edge">
<title>class_Grandchild&#45;&#45;class_Pet</title>
<path fill="none" stroke="#ff4500" stroke-dasharray="5,2" d="M610.5489,-423.8642C630.3685,-386.326 671.752,-307.9457 696.5688,-260.9426"/>
<polygon fill="#ff4500" stroke="#ff4500" points="705.9313,-243.2101 704.552,-265.0984 701.2622,-252.0532 696.5932,-260.8963 696.5932,-260.8963 696.5932,-260.8963 701.2622,-252.0532 688.6344,-256.6942 705.9313,-243.2101 705.9313,-243.2101"/>
<text text-anchor="middle" x="624.0588" y="-345.8034" font-family="Arial" font-size="12.00" fill="#ff4500">Pets (0..n) </text>
</g>
<!-- relationship_conoceA -->
<g id="node11" class="node">
<title>relationship_conoceA</title>
<polygon fill="#afeeee" stroke="#000000" points="712.4417,-592.291 682.2629,-610.291 621.9052,-610.291 591.7263,-592.291 621.9052,-574.291 682.2629,-574.291 712.4417,-592.291"/>
<text text-anchor="middle" x="652.084" y="-588.791" font-family="Arial" font-size="15.00" fill="#000000">conoceA</text>
</g>
<!-- class_Grandchild&#45;&#45;relationship_conoceA -->
<g id="edge11" class="edge">
<title>class_Grandchild&#45;&#45;relationship_conoceA</title>
<path fill="none" stroke="#0000ff" stroke-width="3" stroke-dasharray="5,2" d="M601.9097,-466.6317C608.7238,-492.5373 624.0925,-536.1114 636.2439,-564.5447"/>
<polygon fill="#0000ff" stroke="#0000ff" stroke-width="3" points="633.143,-566.1866 640.3885,-573.9166 639.5449,-563.3554 633.143,-566.1866"/>
<text text-anchor="middle" x="595.5768" y="-518.9882" font-family="Arial" font-size="12.00" fill="#0000ff">conoceA</text>
</g>
<!-- relationship_conoceA&#45;&#45;property_UNIXDateTime -->
<g id="edge6" class="edge">
<title>relationship_conoceA&#45;&#45;property_UNIXDateTime</title>
<path fill="none" stroke="#c0c0c0" stroke-dasharray="5,2" d="M663.8095,-610.3345C688.6303,-648.5297 746.2853,-737.2514 771.745,-776.4298"/>
</g>
<!-- relationship_conoceA&#45;&#45;class_Grandchild -->
<g id="edge12" class="edge">
<title>relationship_conoceA&#45;&#45;class_Grandchild</title>
<path fill="none" stroke="#0000ff" stroke-width="3" stroke-dasharray="5,2" d="M650.3325,-574.1933C644.2493,-549.7039 628.9156,-505.7225 616.4363,-475.9861"/>
<polygon fill="#0000ff" stroke="#0000ff" stroke-width="3" points="619.5139,-474.2848 612.3311,-466.4964 613.0893,-477.0641 619.5139,-474.2848"/>
<text text-anchor="middle" x="674.8844" y="-528.4897" font-family="Arial" font-size="12.00" fill="#0000ff">esConocidoPor</text>
</g>
</g>
</svg>
