<?xml version="1.0" encoding="UTF-8" standalone="no"?>
<!DOCTYPE svg PUBLIC "-//W3C//DTD SVG 1.1//EN"
 "http://www.w3.org/Graphics/SVG/1.1/DTD/svg11.dtd">
<!-- Generated by graphviz version 2.40.1 (20161225.0304)
 -->
<!-- Title: ejemplo Pages: 1 -->
<svg width="1031pt" height="810pt"
 viewBox="0.00 0.00 1030.99 809.90" xmlns="http://www.w3.org/2000/svg" xmlns:xlink="http://www.w3.org/1999/xlink">
<g id="graph0" class="graph" transform="scale(1 1) rotate(0) translate(4 805.8996)">
<title>ejemplo</title>
<polygon fill="#ffffff" stroke="transparent" points="-4,4 -4,-805.8996 1026.9948,-805.8996 1026.9948,4 -4,4"/>
<!-- property_name -->
<g id="node1" class="node">
<title>property_name</title>
<polygon fill="#fafad2" stroke="#000000" points="257.7826,-544.1724 257.7826,-582.1724 318.7826,-582.1724 318.7826,-544.1724 257.7826,-544.1724"/>
<text text-anchor="middle" x="288.2826" y="-570.1724" font-family="Arial" font-size="10.00" fill="#000000">name</text>
<polyline fill="none" stroke="#000000" points="257.7826,-563.1724 318.7826,-563.1724 "/>
<text text-anchor="middle" x="288.2826" y="-551.1724" font-family="Arial" font-size="10.00" fill="#000000">xsd:String</text>
</g>
<!-- property_apellidos -->
<g id="node2" class="node">
<title>property_apellidos</title>
<polygon fill="#fafad2" stroke="#000000" stroke-dasharray="5,2" points="491.9112,-645.1838 491.9112,-683.1838 552.9112,-683.1838 552.9112,-645.1838 491.9112,-645.1838"/>
<text text-anchor="middle" x="522.4112" y="-671.1838" font-family="Arial" font-size="10.00" fill="#000000">apellidos</text>
<polyline fill="none" stroke="#000000" stroke-dasharray="5,2" points="491.9112,-664.1838 552.9112,-664.1838 "/>
<text text-anchor="middle" x="522.4112" y="-652.1838" font-family="Arial" font-size="10.00" fill="#000000">xsd:String</text>
</g>
<!-- property_edad -->
<g id="node3" class="node">
<title>property_edad</title>
<polygon fill="#fafad2" stroke="#000000" points="253.1682,-258.4011 253.1682,-296.4011 319.1682,-296.4011 319.1682,-258.4011 253.1682,-258.4011"/>
<text text-anchor="middle" x="286.1682" y="-284.4011" font-family="Arial" font-size="10.00" fill="#000000">edad</text>
<polyline fill="none" stroke="#000000" points="253.1682,-277.4011 319.1682,-277.4011 "/>
<text text-anchor="middle" x="286.1682" y="-265.4011" font-family="Arial" font-size="10.00" fill="#000000">xsd:Integer</text>
</g>
<!-- property_fechaUNIX -->
<g id="node4" class="node">
<title>property_fechaUNIX</title>
<polygon fill="#fafad2" stroke="#000000" points="442.0857,-.5 442.0857,-38.5 520.0857,-38.5 520.0857,-.5 442.0857,-.5"/>
<text text-anchor="middle" x="481.0857" y="-26.5" font-family="Arial" font-size="10.00" fill="#000000">fechaUnix</text>
<polyline fill="none" stroke="#000000" points="442.0857,-19.5 520.0857,-19.5 "/>
<text text-anchor="middle" x="481.0857" y="-7.5" font-family="Arial" font-size="10.00" fill="#000000">xsd:DateTime</text>
</g>
<!-- property_mascotas -->
<g id="node5" class="node">
<title>property_mascotas</title>
<polygon fill="#fafad2" stroke="#000000" points="637.1001,-510.8657 637.1001,-548.8657 787.1001,-548.8657 787.1001,-510.8657 637.1001,-510.8657"/>
<text text-anchor="middle" x="712.1001" y="-536.8657" font-family="Arial" font-size="10.00" fill="#000000">mascotas</text>
<polyline fill="none" stroke="#000000" points="637.1001,-529.8657 787.1001,-529.8657 "/>
<text text-anchor="middle" x="712.1001" y="-517.8657" font-family="Arial" font-size="10.00" fill="#000000">http://PdL.com/class#Mascota</text>
</g>
<!-- class_Mascota -->
<g id="node10" class="node">
<title>class_Mascota</title>
<ellipse fill="#20b2aa" stroke="#000000" cx="748.217" cy="-355.5133" rx="65.1077" ry="21.4286"/>
<text text-anchor="middle" x="748.217" y="-350.5133" font-family="Arial" font-size="20.00" fill="#000000">Mascota</text>
</g>
<!-- property_mascotas&#45;&#45;class_Mascota -->
<g id="edge10" class="edge">
<title>property_mascotas&#45;&#45;class_Mascota</title>
<path fill="none" stroke="#c0c0c0" stroke-dasharray="1,5" d="M716.1033,-510.5408C721.7726,-483.1724 732.2788,-432.4544 739.7288,-396.4897"/>
<polygon fill="#c0c0c0" stroke="#c0c0c0" points="743.8022,-376.8255 748.5582,-398.2354 741.7738,-386.6177 739.7453,-396.4098 739.7453,-396.4098 739.7453,-396.4098 741.7738,-386.6177 730.9324,-394.5842 743.8022,-376.8255 743.8022,-376.8255"/>
<text text-anchor="middle" x="707.916" y="-456.9152" font-family="Arial" font-size="12.00" fill="#000000">TypeOf</text>
</g>
<!-- property_nombreMascota -->
<g id="node6" class="node">
<title>property_nombreMascota</title>
<polygon fill="#fafad2" stroke="#000000" points="934.9948,-301.5279 934.9948,-339.5279 1022.9948,-339.5279 1022.9948,-301.5279 934.9948,-301.5279"/>
<text text-anchor="middle" x="978.9948" y="-327.5279" font-family="Arial" font-size="10.00" fill="#000000">nombreMascota</text>
<polyline fill="none" stroke="#000000" points="934.9948,-320.5279 1022.9948,-320.5279 "/>
<text text-anchor="middle" x="978.9948" y="-308.5279" font-family="Arial" font-size="10.00" fill="#000000">xsd:String</text>
</g>
<!-- class_Principal -->
<g id="node7" class="node">
<title>class_Principal</title>
<ellipse fill="#20b2aa" stroke="#000000" cx="65.7609" cy="-638.5923" rx="65.5227" ry="21.4286"/>
<text text-anchor="middle" x="65.7609" y="-633.5923" font-family="Arial" font-size="20.00" fill="#000000">Principal</text>
</g>
<!-- class_Principal&#45;&#45;property_name -->
<g id="edge1" class="edge">
<title>class_Principal&#45;&#45;property_name</title>
<path fill="none" stroke="#c0c0c0" stroke-dasharray="5,2" d="M111.3285,-623.148C155.0686,-608.323 219.9129,-586.3452 257.7575,-573.5184"/>
</g>
<!-- class_Hijo -->
<g id="node8" class="node">
<title>class_Hijo</title>
<ellipse fill="#20b2aa" stroke="#000000" cx="347.5598" cy="-780.6864" rx="36.125" ry="21.4286"/>
<text text-anchor="middle" x="347.5598" y="-775.6864" font-family="Arial" font-size="20.00" fill="#000000">Hijo</text>
</g>
<!-- class_Principal&#45;&#45;class_Hijo -->
<g id="edge12" class="edge">
<title>class_Principal&#45;&#45;class_Hijo</title>
<path fill="none" stroke="#000000" stroke-dasharray="5,2" d="M128.3613,-670.1579C188.3577,-700.4104 276.1063,-744.6568 320.1694,-766.8751"/>
<polygon fill="#000000" stroke="#000000" points="132.9657,-660.7203 101.451,-656.5886 123.5107,-679.4714 132.9657,-660.7203"/>
<text text-anchor="middle" x="204.7653" y="-721.9165" font-family="Arial" font-size="12.00" fill="#000000">inherits</text>
</g>
<!-- class_Hijo&#45;&#45;property_name -->
<g id="edge2" class="edge">
<title>class_Hijo&#45;&#45;property_name</title>
<path fill="none" stroke="#c0c0c0" stroke-dasharray="5,2" d="M341.7681,-759.4342C330.2318,-717.1023 304.5453,-622.8477 293.4984,-582.3115"/>
</g>
<!-- class_Hijo&#45;&#45;property_apellidos -->
<g id="edge3" class="edge">
<title>class_Hijo&#45;&#45;property_apellidos</title>
<path fill="none" stroke="#c0c0c0" stroke-dasharray="5,2" d="M371.5055,-764.7315C403.3993,-743.4809 459.7478,-705.9361 493.8293,-683.2278"/>
</g>
<!-- class_Nieto -->
<g id="node9" class="node">
<title>class_Nieto</title>
<ellipse fill="#20b2aa" stroke="#000000" cx="497.7512" cy="-419.7457" rx="44.5955" ry="21.4286"/>
<text text-anchor="middle" x="497.7512" y="-414.7457" font-family="Arial" font-size="20.00" fill="#000000">Nieto</text>
</g>
<!-- class_Hijo&#45;&#45;class_Nieto -->
<g id="edge13" class="edge">
<title>class_Hijo&#45;&#45;class_Nieto</title>
<path fill="none" stroke="#000000" stroke-dasharray="5,2" d="M367.7109,-732.2593C400.8514,-652.6159 465.5243,-497.1936 488.9841,-440.815"/>
<polygon fill="#000000" stroke="#000000" points="358.0054,-728.2526 356.1742,-759.9843 377.3938,-736.3204 358.0054,-728.2526"/>
<text text-anchor="middle" x="408.8475" y="-589.9371" font-family="Arial" font-size="12.00" fill="#000000">inherits</text>
</g>
<!-- class_Nieto&#45;&#45;property_name -->
<g id="edge4" class="edge">
<title>class_Nieto&#45;&#45;property_name</title>
<path fill="none" stroke="#c0c0c0" stroke-dasharray="5,2" d="M472.0663,-437.3327C432.5191,-464.4113 357.0218,-516.1055 316.1796,-544.0709"/>
</g>
<!-- class_Nieto&#45;&#45;property_apellidos -->
<g id="edge5" class="edge">
<title>class_Nieto&#45;&#45;property_apellidos</title>
<path fill="none" stroke="#c0c0c0" stroke-dasharray="5,2" d="M499.8965,-441.0104C504.6423,-488.0523 515.9677,-600.3133 520.494,-645.1804"/>
</g>
<!-- class_Nieto&#45;&#45;property_edad -->
<g id="edge6" class="edge">
<title>class_Nieto&#45;&#45;property_edad</title>
<path fill="none" stroke="#c0c0c0" stroke-dasharray="5,2" d="M471.807,-402.2915C431.971,-375.4914 356.0224,-324.3962 314.6895,-296.5891"/>
</g>
<!-- class_Nieto&#45;&#45;property_mascotas -->
<g id="edge7" class="edge">
<title>class_Nieto&#45;&#45;property_mascotas</title>
<path fill="none" stroke="#c0c0c0" stroke-dasharray="5,2" d="M528.4622,-435.5233C567.1262,-455.3866 633.4933,-489.4821 674.9661,-510.7884"/>
</g>
<!-- class_Nieto&#45;&#45;class_Mascota -->
<g id="edge11" class="edge">
<title>class_Nieto&#45;&#45;class_Mascota</title>
<path fill="none" stroke="#ff4500" stroke-dasharray="5,2" d="M537.162,-409.6388C574.6392,-400.0277 631.8742,-385.3497 677.2909,-373.7025"/>
<polygon fill="#ff4500" stroke="#ff4500" points="696.8934,-368.6753 679.7561,-382.3616 687.2069,-371.1595 677.5203,-373.6437 677.5203,-373.6437 677.5203,-373.6437 687.2069,-371.1595 675.2846,-364.9258 696.8934,-368.6753 696.8934,-368.6753"/>
<text text-anchor="middle" x="563.7264" y="-382.0706" font-family="Arial" font-size="12.00" fill="#ff4500">.mascotas (0..n)</text>
</g>
<!-- relationship_conoceA -->
<g id="node11" class="node">
<title>relationship_conoceA</title>
<polygon fill="#afeeee" stroke="#000000" points="562.0395,-263.3966 530.4013,-281.3966 467.1249,-281.3966 435.4867,-263.3966 467.1249,-245.3966 530.4013,-245.3966 562.0395,-263.3966"/>
<text text-anchor="middle" x="498.7631" y="-259.8966" font-family="Arial" font-size="15.00" fill="#000000">conoce A</text>
</g>
<!-- class_Nieto&#45;&#45;relationship_conoceA -->
<g id="edge14" class="edge">
<title>class_Nieto&#45;&#45;relationship_conoceA</title>
<path fill="none" stroke="#0000ff" stroke-width="3" stroke-dasharray="5,2" d="M502.7065,-398.3651C505.2755,-370.7 505.762,-322.4201 503.9187,-291.7266"/>
<polygon fill="#0000ff" stroke="#0000ff" stroke-width="3" points="507.4025,-291.3782 503.1691,-281.6659 500.4219,-291.8984 507.4025,-291.3782"/>
<text text-anchor="middle" x="460.8126" y="-348.4458" font-family="Arial" font-size="12.00" fill="#0000ff">Conoce A (0..n)</text>
</g>
<!-- class_Mascota&#45;&#45;property_nombreMascota -->
<g id="edge8" class="edge">
<title>class_Mascota&#45;&#45;property_nombreMascota</title>
<path fill="none" stroke="#c0c0c0" stroke-dasharray="5,2" d="M807.3484,-346.5491C847.1454,-340.516 898.7632,-332.6909 934.96,-327.2035"/>
</g>
<!-- relationship_conoceA&#45;&#45;property_fechaUNIX -->
<g id="edge9" class="edge">
<title>relationship_conoceA&#45;&#45;property_fechaUNIX</title>
<path fill="none" stroke="#c0c0c0" stroke-dasharray="5,2" d="M497.4344,-245.0648C494.1744,-200.0868 485.8045,-84.6061 482.4786,-38.7177"/>
</g>
<!-- relationship_conoceA&#45;&#45;class_Nieto -->
<g id="edge15" class="edge">
<title>relationship_conoceA&#45;&#45;class_Nieto</title>
<path fill="none" stroke="#0000ff" stroke-width="3" stroke-dasharray="5,2" d="M494.1208,-281.6086C491.3673,-307.7905 490.7185,-356.4307 492.4273,-388.4443"/>
<polygon fill="#0000ff" stroke="#0000ff" stroke-width="3" points="488.9469,-388.8593 493.0975,-398.6072 495.9318,-388.3985 488.9469,-388.8593"/>
<text text-anchor="middle" x="434.774" y="-325.4264" font-family="Arial" font-size="12.00" fill="#0000ff">es conocido por (0..n)</text>
</g>
</g>
</svg>
